<?xml version="1.0" encoding="utf-8"?>
<!-- Generator: Adobe Illustrator 19.2.1, SVG Export Plug-In . SVG Version: 6.00 Build 0)  -->
<svg version="1.1" xmlns="http://www.w3.org/2000/svg" xmlns:xlink="http://www.w3.org/1999/xlink" x="0px" y="0px"
	 viewBox="0 0 273.9 30.7" style="enable-background:new 0 0 273.9 30.7;" xml:space="preserve">
<style type="text/css">
	.st0{fill:#004077;}
	.st1{fill:#009E3D;}
	.st2{fill:#009FE3;}
	.st3{fill:#003330;}
	.st4{fill:#FEC700;}
</style>
<g id="HD_x5F_Logo_x5F_color_x5F_4C">
	<g>
		<path class="st0" d="M35.8,1.4c0-0.4-0.3-0.7-0.7-0.7h-5.2c-0.4,0-0.7,0.3-0.7,0.7v10.1H18.2v6.6h11.1l0,10.1
			c0,0.4,0.3,0.7,0.7,0.7h5.2c0.4,0,0.7-0.3,0.7-0.7L35.8,1.4z"/>
		<path class="st1" d="M18.2,11.5h-6.6c0,0,0-8.2,0-8.2C11.5,1.5,13,0,14.8,0c1.8,0,3.3,1.5,3.3,3.3c0,0,0,0,0,0V11.5z"/>
		<path class="st2" d="M18.2,18.2h-6.6l0,10.1c0,0.4,0.3,0.7,0.7,0.7h5.2c0.4,0,0.7-0.3,0.7-0.7V18.2z"/>
		<path class="st0" d="M158.8,23.4c0-0.4-0.3-0.7-0.7-0.7h-12.6l0-21.3c0-0.4-0.3-0.7-0.7-0.7h-5.2c-0.4,0-0.7,0.3-0.7,0.7v26.9
			c0,0.4,0.3,0.7,0.7,0.7h18.5c0.4,0,0.7-0.3,0.7-0.7V23.4z"/>
		<path class="st0" d="M92.5,0.7h-11c-0.4,0-0.7,0.3-0.7,0.7v26.9c0,0.4,0.3,0.7,0.7,0.7h10.8c8.7,0,14.6-6,14.6-14.2
			C107,6.4,101.1,0.7,92.5,0.7 M100,14.9c0,4.8-3.3,8.1-8.1,8.1l-4.5,0V6.7h4.5C96.6,6.7,100,9.8,100,14.9"/>
		<path class="st0" d="M75.4,1.4c0-0.4-0.3-0.7-0.7-0.7h-5.2c-0.4,0-0.7,0.3-0.7,0.7v26.9c0,0.4,0.3,0.7,0.7,0.7h5.2
			c0.4,0,0.7-0.3,0.7-0.7V1.4z"/>
		<path class="st0" d="M63,0.7H41.7C41.3,0.7,41,1,41,1.4v5c0,0.4,0.3,0.7,0.7,0.7H63c0.4,0,0.7-0.3,0.7-0.7v-5
			C63.7,1,63.3,0.7,63,0.7"/>
		<path class="st0" d="M63,11.6H41.7c-0.4,0-0.7,0.3-0.7,0.7v5c0,0.4,0.3,0.7,0.7,0.7H63c0.4,0,0.7-0.3,0.7-0.7v-5
			C63.7,11.9,63.3,11.6,63,11.6"/>
		<path class="st0" d="M63.7,23.3c0-0.4-0.3-0.7-0.7-0.7H41.7c-0.4,0-0.7,0.3-0.7,0.7v5c0,0.4,0.3,0.7,0.7,0.7L63,29
			c0.4,0,0.7-0.3,0.7-0.7V23.3z"/>
		<path class="st0" d="M133.1,0.7h-21.2c-0.4,0-0.7,0.3-0.7,0.7v5c0,0.4,0.3,0.7,0.7,0.7h21.2c0.4,0,0.7-0.3,0.7-0.7v-5
			C133.8,1,133.5,0.7,133.1,0.7"/>
		<path class="st0" d="M133.1,11.6h-21.2c-0.4,0-0.7,0.3-0.7,0.7v5c0,0.4,0.3,0.7,0.7,0.7l21.2,0c0.4,0,0.7-0.3,0.7-0.7v-5
			C133.8,11.9,133.5,11.6,133.1,11.6"/>
		<path class="st0" d="M133.8,23.3c0-0.4-0.3-0.7-0.7-0.7h-21.2c-0.4,0-0.7,0.3-0.7,0.7v5c0,0.4,0.3,0.7,0.7,0.7l21.2,0
			c0.4,0,0.7-0.3,0.7-0.7V23.3z"/>
		<path class="st0" d="M182.9,14.2c2.2-1.4,3.3-3.4,3.3-6c0-3.6-2.8-7.5-9.4-7.5H164c-0.4,0-0.7,0.3-0.7,0.7v26.9
			c0,0.4,0.3,0.7,0.7,0.7h14c5.1,0,9.5-3,9.5-8C187.5,17.9,186.3,15.6,182.9,14.2 M169.6,6.5l7.1,0c1.7,0,3,1.2,3,2.7
			c0,1.5-1.2,2.7-3,2.7h-7.1V6.5z M177.6,23.1h-8v-5.6h8c2.1,0,3.2,1.5,3.2,2.8C180.8,21.6,179.6,23.1,177.6,23.1"/>
		<path class="st0" d="M272.8,12.9c0-0.4-0.3-0.7-0.7-0.7h-11.8c-0.4,0-0.7,0.3-0.7,0.7v4.4c0,0.4,0.3,0.7,0.7,0.7h6v3.9
			c-1.2,0.9-3.4,1.6-5.5,1.6c-4.7,0-8.4-3.6-8.4-8.6c0-4.9,3.9-8.5,8-8.5c2.6,0,4.6,0.5,6.8,2.3c0.1,0.1,0.3,0.2,0.5,0.2
			c0.2,0,0.4-0.1,0.5-0.3l3.1-4c0.2-0.2,0.2-0.4,0.2-0.5c0-0.2-0.2-0.4-0.3-0.5c-3.1-2.5-6.1-3.3-10.6-3.3
			c-8.1,0-14.9,6.2-14.9,14.7c0,8.5,6.2,14.6,14.9,14.6c6.3,0,10.3-3,11.4-3.9c0.5-0.4,0.8-1,0.8-1.7V12.9z"/>
		<path class="st0" d="M214.2,1.4c0-0.4-0.3-0.7-0.7-0.7h-21.2c-0.4,0-0.7,0.3-0.7,0.7v5c0,0.4,0.3,0.7,0.7,0.7h21.2
			c0.4,0,0.7-0.3,0.7-0.7V1.4z"/>
		<path class="st0" d="M214.2,12.3c0-0.4-0.3-0.7-0.7-0.7h-21.2c-0.4,0-0.7,0.3-0.7,0.7v5c0,0.4,0.3,0.7,0.7,0.7l21.2,0
			c0.4,0,0.7-0.3,0.7-0.7V12.3z"/>
		<path class="st0" d="M214.2,23.3c0-0.4-0.3-0.7-0.7-0.7h-21.2c-0.4,0-0.7,0.3-0.7,0.7v5c0,0.4,0.3,0.7,0.7,0.7l21.2,0
			c0.4,0,0.7-0.3,0.7-0.7V23.3z"/>
		<path class="st0" d="M243.7,29c0.2,0,0.5-0.1,0.6-0.3c0.1-0.2,0.1-0.5,0-0.7l-7.3-10.4c3.7-1.3,5.6-4.3,5.6-8c0-3.6-2.2-9-8.9-9
			h-13.6c-0.4,0-0.7,0.3-0.7,0.7v26.9c0,0.4,0.3,0.7,0.7,0.7h5.2c0.4,0,0.7-0.3,0.7-0.7V18h3.6l7,10.2c0.3,0.5,0.9,0.8,1.4,0.8
			H243.7z M226,6.6l7.4,0c1.7,0,2.9,1.5,2.9,3c0,1.5-1.1,2.9-2.9,2.9H226L226,6.6z"/>
		<rect x="11.5" y="11.5" class="st3" width="6.6" height="6.6"/>
		<path class="st4" d="M11.5,11.5v6.6c0,0-8.2,0-8.2,0c-1.8,0-3.3-1.5-3.3-3.3c0-1.8,1.5-3.3,3.3-3.3c0,0,0,0,0,0H11.5z"/>
	</g>
</g>
<g id="protection_zone">
</g>
</svg>
