<?xml version="1.0" standalone="no"?>
<!DOCTYPE svg PUBLIC "-//W3C//DTD SVG 1.1//EN" "http://www.w3.org/Graphics/SVG/1.1/DTD/svg11.dtd" >
<svg xmlns="http://www.w3.org/2000/svg" xmlns:xlink="http://www.w3.org/1999/xlink" version="1.1">
<metadata>
Created by FontForge 20150913 at Fri Apr 22 16:03:47 2016
 By Jimmy Wärting
The digitally encoded machine readable outline data for producing the Typefaces licensed to you is copyrighted (c)1999 by and the property of Heidelberger Druckmaschinen AG and/or its subsidiaries. All Rights Reserved. Version 2007 by primetype.com
</metadata>
<defs>
<font id="HeidelbgGothicWebMl-Bold" horiz-adv-x="1" >
  <font-face 
    font-family="HeidelbgGothicWebMl"
    font-weight="700"
    font-stretch="normal"
    units-per-em="1000"
    panose-1="2 0 8 3 5 0 0 2 0 4"
    ascent="780"
    descent="-220"
    x-height="500"
    cap-height="703"
    bbox="-609 -275 1385 903"
    underline-thickness="50"
    underline-position="-100"
    unicode-range="U+0020-FB02"
  />
<missing-glyph horiz-adv-x="544" 
d="M71 705h402v-705h-402v705zM398 75v555h-252v-555h252z" />
    <glyph glyph-name=".notdef" horiz-adv-x="544" 
d="M71 705h402v-705h-402v705zM398 75v555h-252v-555h252z" />
    <glyph glyph-name=".null" horiz-adv-x="0" 
 />
    <glyph glyph-name="nonmarkingreturn" horiz-adv-x="280" 
 />
    <glyph glyph-name="space" unicode=" " horiz-adv-x="280" 
 />
    <glyph glyph-name="exclam" unicode="!" horiz-adv-x="315" 
d="M216 222h-116l-22 481h159zM237 68q0 -34 -22.5 -56.5t-56.5 -22.5t-56.5 22.5t-22.5 56.5t22.5 56.5t56.5 22.5t56.5 -22.5t22.5 -56.5z" />
    <glyph glyph-name="quotedbl" unicode="&#x22;" horiz-adv-x="458" 
d="M374 439h-101l-15 240h132zM184 439h-101l-15 240h132z" />
    <glyph glyph-name="numbersign" unicode="#" horiz-adv-x="644" 
d="M514 154v-154h-137v154h-110v-154h-137v154h-90v112h90v148h-90v112h90v153h137v-153h110v153h137v-153h90v-112h-90v-148h90v-112h-90zM377 414h-110v-148h110v148z" />
    <glyph glyph-name="dollar" unicode="$" horiz-adv-x="593" 
d="M540 205q0 -103 -55.5 -155.5t-155.5 -60.5v-109h-70v109q-98 5 -155.5 47.5t-76.5 138.5l142 28q8 -40 28 -71t62 -41v189l-43 14q-31 10 -60 24.5t-52 37t-37 54.5t-14 76q0 47 15 84.5t42 64t65 41.5t84 18v105h70v-106q82 -8 134 -49.5t66 -123.5l-137 -19
q-5 32 -20.5 54.5t-42.5 32.5v-177l36 -11q31 -9 62.5 -24t56.5 -38t40.5 -55.5t15.5 -77.5zM259 589q-27 -8 -42.5 -29.5t-15.5 -49.5q0 -30 16 -48t42 -29v156zM393 177q0 31 -18 49.5t-46 29.5v-163q29 9 46.5 31t17.5 53z" />
    <glyph glyph-name="percent" unicode="%" horiz-adv-x="1024" 
d="M981 190q0 -50 -14.5 -87.5t-40.5 -63t-62.5 -38.5t-79.5 -13q-44 0 -80 13t-62 38.5t-40.5 63t-14.5 87.5q0 49 14.5 87t40.5 63.5t62 38.5t80 13q43 0 79.5 -13t62.5 -38.5t40.5 -63.5t14.5 -87zM373 0h-148l425 679h149zM437 490q0 -50 -14.5 -87.5t-40.5 -63
t-62.5 -38.5t-79.5 -13q-44 0 -80 13t-62 38.5t-40.5 63t-14.5 87.5q0 49 14.5 87t40.5 63.5t62 38.5t80 13q43 0 79.5 -13t62.5 -38.5t40.5 -63.5t14.5 -87zM838 190q0 51 -10 82.5t-44 31.5t-44 -31.5t-10 -82.5t10 -82.5t44 -31.5t44 31.5t10 82.5zM294 490
q0 51 -10 82.5t-44 31.5t-44 -31.5t-10 -82.5t10 -82.5t44 -31.5t44 31.5t10 82.5z" />
    <glyph glyph-name="ampersand" unicode="&#x26;" horiz-adv-x="687" 
d="M654 -11q-28 0 -50.5 2.5t-42.5 9.5t-38.5 18.5t-38.5 29.5q-48 -32 -93 -48.5t-103 -16.5q-47 0 -89.5 13t-74.5 38.5t-51.5 64t-19.5 88.5q0 71 35 117t92 80q-24 36 -38 73t-14 88q0 38 14.5 69t39.5 53t58 34t70 12q36 0 67 -11t54 -32t36 -50.5t13 -66.5
q0 -35 -11 -63.5t-30 -52t-44 -43t-52 -36.5q23 -38 57.5 -76t67.5 -68q17 29 26.5 63t15.5 69l128 -8q-5 -29 -10.5 -54.5t-13.5 -48.5t-19.5 -45.5t-28.5 -45.5q18 -15 39.5 -23t48.5 -11v-122zM360 555q0 25 -12.5 43.5t-39.5 18.5q-28 0 -41 -21t-13 -47q0 -28 10 -57
t23 -54q28 23 50.5 51t22.5 66zM388 124q-42 35 -79 80.5t-66 93.5q-26 -17 -39.5 -43.5t-13.5 -57.5q0 -48 29 -76t75 -28q27 0 51 6t43 25z" />
    <glyph glyph-name="quotesingle" unicode="'" horiz-adv-x="268" 
d="M184 439h-101l-15 240h132z" />
    <glyph glyph-name="parenleft" unicode="(" horiz-adv-x="347" 
d="M248 -153q-44 59 -77.5 113t-56.5 111.5t-34.5 124t-11.5 150.5q0 79 11.5 145t34.5 125t56.5 114.5t77.5 114.5l89 -49q-63 -103 -95.5 -213t-32.5 -237t32.5 -237t95.5 -213z" />
    <glyph glyph-name="parenright" unicode=")" horiz-adv-x="347" 
d="M279 346q0 -84 -11.5 -150.5t-34.5 -124t-56.5 -111.5t-77.5 -113l-89 49q63 103 95.5 213t32.5 237t-32.5 237t-95.5 213l89 49q44 -59 77.5 -114.5t56.5 -114.5t34.5 -125t11.5 -145z" />
    <glyph glyph-name="asterisk" unicode="*" horiz-adv-x="409" 
d="M275 522l59 -79l-73 -51l-57 83l-57 -83l-73 51l59 79l-90 27l25 85l93 -30l-4 99h95l-5 -99l94 30l25 -85z" />
    <glyph glyph-name="plus" unicode="+" horiz-adv-x="552" 
d="M339 269v-187h-127v187h-172v117h172v187h127v-187h173v-117h-173z" />
    <glyph glyph-name="comma" unicode="," horiz-adv-x="294" 
d="M226 56q0 -36 -10 -68t-27.5 -60.5t-40 -53.5t-47.5 -47l-53 40q26 28 45.5 59t19.5 58q0 10 -6.5 17.5t-15 16.5t-15 21t-6.5 31q0 33 21 54.5t55 21.5q21 0 36 -7.5t24.5 -20.5t14.5 -29t5 -33z" />
    <glyph glyph-name="hyphen" unicode="-" horiz-adv-x="370" 
d="M60 243v112h250v-112h-250z" />
    <glyph glyph-name="period" unicode="." horiz-adv-x="294" 
d="M226 68q0 -34 -22.5 -56.5t-56.5 -22.5t-56.5 22.5t-22.5 56.5t22.5 56.5t56.5 22.5t56.5 -22.5t22.5 -56.5z" />
    <glyph glyph-name="slash" unicode="/" horiz-adv-x="481" 
d="M169 -12h-149l294 715h147z" />
    <glyph glyph-name="zero" unicode="0" horiz-adv-x="633" 
d="M580 348q0 -62 -13 -126t-43.5 -116t-82 -85t-128.5 -33q-74 0 -124 32.5t-80 83.5t-43 113.5t-13 122.5q0 61 13.5 124t45 114t82 83t125.5 32q73 0 123 -31.5t80.5 -81t44 -111t13.5 -121.5zM425 347q0 27 -2.5 68t-13 79.5t-32 66t-58.5 27.5q-40 0 -62.5 -29.5
t-33 -70.5t-13 -84t-2.5 -70q0 -25 2.5 -66t13 -80.5t31.5 -68t59 -28.5q27 0 45.5 14t31 36.5t19.5 50.5t10.5 56.5t4 54.5t0.5 44z" />
    <glyph glyph-name="one" unicode="1" horiz-adv-x="367" 
d="M144 0v493h-126v106q28 0 56 3t52 11.5t42.5 24t28.5 41.5h92v-679h-145z" />
    <glyph glyph-name="two" unicode="2" horiz-adv-x="563" 
d="M510 496q0 -46 -16.5 -84.5t-40 -70t-49.5 -56.5t-45 -43q-19 -17 -41 -34.5t-41.5 -34t-35.5 -32.5t-23 -30h290v-111h-454v64q0 40 23.5 80t56 75.5t66 64.5t54.5 47q20 18 38.5 35.5t32.5 37t22.5 43t8.5 53.5q0 37 -20.5 61t-53.5 24q-42 0 -63.5 -29t-30.5 -87
l-145 24q17 97 77.5 148.5t163.5 51.5q104 0 165 -49t61 -148z" />
    <glyph glyph-name="three" unicode="3" horiz-adv-x="594" 
d="M541 198q0 -49 -18 -88t-52 -66t-82 -41.5t-108 -14.5q-104 0 -163 41t-85 131l139 32q16 -51 43.5 -74.5t69.5 -23.5q46 0 72.5 27t26.5 73q0 37 -11 58.5t-31 32.5t-47 14t-58 3h-38v106h43q26 0 48.5 2.5t39.5 12t26.5 28t9.5 50.5q0 38 -21 62.5t-58 24.5
q-41 0 -66.5 -26t-42.5 -63l-124 44q35 79 92.5 114.5t147.5 35.5q50 0 91 -13t70 -37t44.5 -57.5t15.5 -73.5q0 -57 -27.5 -93.5t-78.5 -53.5q66 -14 99 -57t33 -110z" />
    <glyph glyph-name="four" unicode="4" horiz-adv-x="593" 
d="M486 148v-148h-136v148h-320v91l275 440h185v-423h83v-108h-87zM350 556l-187 -300h187v300z" />
    <glyph glyph-name="five" unicode="5" horiz-adv-x="590" 
d="M537 234q0 -60 -18.5 -105.5t-52.5 -77t-82.5 -47.5t-107.5 -16q-81 0 -141.5 34t-91.5 113l131 52q27 -92 104 -92q54 0 80.5 34t26.5 95q0 58 -23 90t-68 32q-32 0 -61 -18t-44 -51l-124 30l18 372h437l-5 -113h-307l-12 -162q31 30 63 41.5t75 11.5q49 0 86.5 -16.5
t63.5 -46t39.5 -70.5t13.5 -90z" />
    <glyph glyph-name="six" unicode="6" horiz-adv-x="612" 
d="M559 228q0 -57 -18 -101.5t-51 -75t-79 -47t-101 -16.5q-74 0 -123 27.5t-79 73.5t-42.5 104.5t-12.5 120.5q0 69 16 136.5t51 121.5t91.5 87.5t136.5 33.5q66 0 112 -22t80 -83l-132 -53q-12 26 -28 39.5t-45 13.5q-30 0 -51.5 -15.5t-36.5 -43t-23 -65.5t-11 -82
q28 29 64 45.5t78 16.5q48 0 86 -16.5t64 -45.5t40 -68.5t14 -85.5zM408 219q0 24 -4.5 45t-15.5 37t-28.5 25t-43.5 9q-30 0 -57.5 -15.5t-47.5 -36.5q1 -45 6 -81t16.5 -61t31 -38.5t50.5 -13.5q26 0 44 11.5t29 30.5t15.5 42t4.5 46z" />
    <glyph glyph-name="seven" unicode="7" horiz-adv-x="516" 
d="M250 0h-165l234 555h-299v124h476v-67z" />
    <glyph glyph-name="eight" unicode="8" horiz-adv-x="612" 
d="M559 184q0 -53 -22.5 -90.5t-59.5 -61t-83 -34t-94 -10.5q-57 0 -102.5 13t-78 37.5t-49.5 59.5t-17 80q0 64 36.5 111.5t102.5 68.5q-51 20 -83 56.5t-32 96.5q0 41 16.5 74.5t47.5 57.5t73.5 37t95.5 13q103 0 163 -48t60 -132q0 -57 -30 -95t-79 -60q63 -22 99 -68
t36 -106zM390 514q0 34 -23.5 55.5t-61.5 21.5t-61 -21.5t-23 -56.5t23.5 -56.5t69.5 -43.5q32 17 54 40t22 61zM408 183q0 26 -9 44t-23.5 31.5t-33.5 24t-38 21.5q-19 -10 -37 -21t-32.5 -24.5t-23 -31t-8.5 -41.5q0 -43 28.5 -70.5t73.5 -27.5q46 0 74.5 26.5t28.5 68.5z
" />
    <glyph glyph-name="nine" unicode="9" horiz-adv-x="607" 
d="M554 363q0 -89 -13.5 -158.5t-45.5 -117.5t-84.5 -73.5t-130.5 -25.5q-36 0 -65.5 6t-54 19.5t-44 36t-35.5 56.5l133 44q10 -26 27.5 -42t43.5 -16q64 0 88 53t27 158q-30 -29 -62.5 -44t-78.5 -15t-84 15t-65 43t-42 66.5t-15 86.5q0 54 17.5 97.5t50 75t77.5 48.5
t101 17q73 0 122 -28.5t78.5 -75t42 -106t12.5 -120.5zM400 404q-1 29 -5.5 61.5t-16 59.5t-31.5 45t-51 18q-42 0 -67 -33.5t-25 -90.5q0 -55 24.5 -83t69.5 -28q28 0 55.5 13.5t46.5 37.5z" />
    <glyph glyph-name="colon" unicode=":" horiz-adv-x="294" 
d="M226 421q0 -34 -22.5 -56.5t-56.5 -22.5t-56.5 22.5t-22.5 56.5t22.5 56.5t56.5 22.5t56.5 -22.5t22.5 -56.5zM226 68q0 -34 -22.5 -56.5t-56.5 -22.5t-56.5 22.5t-22.5 56.5t22.5 56.5t56.5 22.5t56.5 -22.5t22.5 -56.5z" />
    <glyph glyph-name="semicolon" unicode=";" horiz-adv-x="294" 
d="M226 421q0 -34 -22.5 -56.5t-56.5 -22.5t-56.5 22.5t-22.5 56.5t22.5 56.5t56.5 22.5t56.5 -22.5t22.5 -56.5zM226 56q0 -38 -10 -69.5t-28 -59.5t-41.5 -52.5t-50.5 -47.5l-48 40q26 28 45.5 59t19.5 58q0 10 -7 17.5t-15.5 16.5t-15.5 21t-7 31q0 33 22 54.5t56 21.5
q21 0 36 -7.5t24.5 -20.5t14.5 -29t5 -33z" />
    <glyph glyph-name="less" unicode="&#x3c;" horiz-adv-x="552" 
d="M40 270v116l472 190v-126l-344 -122l344 -122v-126z" />
    <glyph glyph-name="equal" unicode="=" horiz-adv-x="552" 
d="M40 369v117h472v-117h-472zM40 169v117h472v-117h-472z" />
    <glyph glyph-name="greater" unicode="&#x3e;" horiz-adv-x="552" 
d="M40 80v126l344 122l-344 122v126l472 -190v-116z" />
    <glyph glyph-name="question" unicode="?" horiz-adv-x="489" 
d="M439 552q0 -30 -6.5 -54t-17 -43.5t-24 -35t-27.5 -29.5t-24.5 -28t-17 -32t-10 -41.5t-3.5 -55.5v-11h-128v19q0 66 12 106.5t39 72.5q26 31 48 62t22 64q0 26 -16.5 44.5t-43.5 18.5q-16 0 -29.5 -7t-24 -18.5t-18 -25.5t-11.5 -29l-109 58q26 69 80 99.5t124 30.5
q39 0 73 -10t59 -30.5t39 -51.5t14 -73zM319 68q0 -34 -22.5 -56.5t-56.5 -22.5t-56.5 22.5t-22.5 56.5t22.5 56.5t56.5 22.5t56.5 -22.5t22.5 -56.5z" />
    <glyph glyph-name="at" unicode="@" horiz-adv-x="1042" 
d="M989 324q0 -85 -21 -146.5t-56 -101t-80.5 -58.5t-93.5 -19q-66 0 -104 25t-54 64q-26 -35 -59.5 -56.5t-73.5 -21.5q-41 0 -71 15t-50 42t-29.5 65t-9.5 84q0 44 13 95.5t41 95.5t72 73t106 29q36 0 66 -13.5t54 -34.5l25 39h101l-55 -312q-2 -10 -3 -19.5t-1 -17.5
q0 -25 9 -41.5t32 -16.5q21 0 40.5 10.5t34.5 36.5t24 71t9 113q0 67 -21 123.5t-62 97t-100.5 63.5t-135.5 23t-139.5 -27t-109.5 -77.5t-72 -123.5t-26 -165q0 -84 22.5 -148t63 -107.5t95.5 -66t121 -22.5q60 0 123 11.5t114 23.5l22 -100q-54 -14 -116 -26t-143 -12
q-95 0 -175.5 30t-139 87t-91 140t-32.5 190q0 112 35.5 203.5t99 156t152.5 100t196 35.5q105 0 189 -31t142.5 -85.5t90 -129.5t31.5 -163zM603 389q-19 18 -35.5 24t-32.5 6q-25 0 -45 -17.5t-34 -46t-21.5 -64.5t-7.5 -72q0 -60 12 -84.5t37 -24.5q4 0 13.5 2.5t22 12.5
t27.5 28t32 50z" />
    <glyph glyph-name="A" unicode="A" horiz-adv-x="611" 
d="M444 0l-41 170h-199l-42 -170h-147l197 703h191l193 -703h-152zM305 580l-75 -303h148z" />
    <glyph glyph-name="B" unicode="B" horiz-adv-x="623" 
d="M570 198q0 -51 -17.5 -88.5t-48 -62t-71.5 -36t-88 -11.5h-267v703h246q44 0 85 -10t72 -31.5t49.5 -56.5t18.5 -85q0 -57 -27.5 -95t-78.5 -57q60 -12 93.5 -58t33.5 -112zM393 509q0 27 -9.5 43.5t-25.5 25t-36.5 11.5t-42.5 3h-49v-172h46q23 0 44.5 3t37.5 13
t25.5 27t9.5 46zM410 207q0 33 -11.5 53.5t-30.5 32.5t-44.5 16t-53.5 4h-40v-202h51q25 0 48.5 3t41.5 13.5t28.5 29t10.5 50.5z" />
    <glyph glyph-name="C" unicode="C" horiz-adv-x="649" 
d="M621 225q-17 -114 -87 -175.5t-188 -61.5q-82 0 -138 29.5t-90.5 79.5t-49.5 115t-15 137q0 73 16 139.5t51.5 117.5t92 81t138.5 30q113 0 176 -58t88 -164l-153 -26q-3 25 -9.5 50.5t-19 45.5t-32.5 33t-51 13q-36 0 -61.5 -19t-41.5 -55t-23 -86.5t-7 -113.5
q0 -55 7 -99.5t22.5 -76.5t39.5 -49.5t59 -17.5q31 0 53.5 14t36.5 36t22 49t11 53z" />
    <glyph glyph-name="D" unicode="D" horiz-adv-x="670" 
d="M617 354q0 -170 -81 -262t-253 -92h-205v703h196q178 0 260.5 -86t82.5 -263zM457 354q0 48 -5.5 91t-24 76t-53 52.5t-92.5 19.5h-52v-483h37q61 0 98.5 17.5t58 50t27 77.5t6.5 99z" />
    <glyph glyph-name="E" unicode="E" horiz-adv-x="554" 
d="M78 0v703h423v-116h-271v-169h225v-117h-225v-185h281v-116h-433z" />
    <glyph glyph-name="F" unicode="F" horiz-adv-x="544" 
d="M230 587v-174h235v-117h-235v-296h-152v703h423v-116h-271z" />
    <glyph glyph-name="G" unicode="G" horiz-adv-x="676" 
d="M500 0l-9 67q-24 -39 -67.5 -59t-101.5 -20q-133 0 -201 94.5t-68 264.5q0 71 16.5 138t51.5 118.5t91 82.5t136 31q110 0 169 -55t81 -156l-139 -26q-8 64 -35.5 99t-73.5 35t-72.5 -29.5t-40 -71.5t-17.5 -88.5t-4 -80.5q0 -35 2.5 -78.5t15 -81t39 -63t74.5 -25.5
q34 0 56 13t34.5 34.5t17 48.5t4.5 56h-113v109h252v-357h-98z" />
    <glyph glyph-name="H" unicode="H" horiz-adv-x="677" 
d="M447 0v302h-217v-302h-152v703h152v-286h217v286h152v-703h-152z" />
    <glyph glyph-name="I" unicode="I" horiz-adv-x="308" 
d="M78 0v703h152v-703h-152z" />
    <glyph glyph-name="J" unicode="J" horiz-adv-x="506" 
d="M428 223q0 -55 -11.5 -98.5t-37 -74t-67 -46.5t-100.5 -16q-85 0 -133.5 38.5t-68.5 120.5l139 30q3 -15 6.5 -29.5t10.5 -26.5t18.5 -19t29.5 -7q23 0 35.5 13.5t18.5 32.5t7 40.5t1 37.5v484h152v-480z" />
    <glyph glyph-name="K" unicode="K" horiz-adv-x="611" 
d="M444 0l-161 304l-53 -70v-234h-152v703h152v-289l199 289h168l-213 -286l227 -417h-167z" />
    <glyph glyph-name="L" unicode="L" horiz-adv-x="530" 
d="M78 0v703h152v-586h267v-117h-419z" />
    <glyph glyph-name="M" unicode="M" horiz-adv-x="842" 
d="M627 0v588l-146 -588h-122l-145 587v-587h-136v703h226l122 -503l111 503h227v-703h-137z" />
    <glyph glyph-name="N" unicode="N" horiz-adv-x="702" 
d="M468 0l-245 528v-528h-145v703h200l200 -434v434h146v-703h-156z" />
    <glyph glyph-name="O" unicode="O" horiz-adv-x="688" 
d="M635 359q0 -74 -15 -141.5t-49.5 -118.5t-91.5 -81t-142 -30q-75 0 -129 28t-88.5 76.5t-50.5 113.5t-16 140q0 74 15.5 141.5t50.5 118.5t90 81t135 30q77 0 132 -27.5t90.5 -76t52 -114t16.5 -140.5zM469 356q0 21 -1.5 48t-5.5 55.5t-12 56t-22 49t-34 34.5t-49 13
q-44 0 -69.5 -28.5t-38 -69.5t-16 -86t-3.5 -77t2.5 -76t14.5 -84t37 -68t70 -28q42 0 67 26.5t38.5 66.5t17.5 85t4 83z" />
    <glyph glyph-name="P" unicode="P" horiz-adv-x="604" 
d="M561 493q0 -59 -21 -98.5t-56.5 -63.5t-81.5 -34t-97 -10h-75v-287h-152v703h210q55 0 104.5 -9t87 -33t59.5 -64.5t22 -103.5zM405 495q0 51 -29 73.5t-80 22.5h-66v-193h56q57 0 88 23t31 74z" />
    <glyph glyph-name="Q" unicode="Q" horiz-adv-x="688" 
d="M552 -115l-105 120q-51 -17 -110 -17q-75 0 -129 28t-88.5 76.5t-50.5 113.5t-16 140q0 74 15.5 141.5t50.5 118.5t90 81t135 30q77 0 132 -27.5t90.5 -76t52 -114t16.5 -140.5q0 -84 -18 -157t-63 -125l94 -108zM469 356q0 21 -1.5 48t-5.5 55.5t-12 56t-22 49t-34 34.5
t-49 13q-44 0 -69.5 -28.5t-38 -69.5t-16 -86t-3.5 -77t2.5 -76t14.5 -84t37 -68t70 -28q13 0 24 3l-92 104l96 84l80 -91q12 38 15.5 81.5t3.5 79.5z" />
    <glyph glyph-name="R" unicode="R" horiz-adv-x="609" 
d="M416 0l-136 302h-50v-302h-152v703h228q49 0 94.5 -9t80 -31.5t55 -59.5t20.5 -93q0 -69 -31 -115t-97 -66l153 -329h-165zM399 503q0 30 -10 47.5t-27 27t-39 12t-46 2.5h-47v-180h56q24 0 45 4t36 14t23.5 28t8.5 45z" />
    <glyph glyph-name="S" unicode="S" horiz-adv-x="587" 
d="M534 211q0 -57 -17.5 -99t-49.5 -69.5t-77.5 -41t-100.5 -13.5q-51 0 -95 10t-78 32.5t-57 59t-33 90.5l146 29q5 -24 13.5 -45t22 -36.5t33.5 -24t47 -8.5q42 0 68 25.5t26 67.5q0 34 -23 54t-59 33l-79 28q-32 11 -62 26t-53.5 37.5t-38 55t-14.5 77.5q0 52 17 93
t48 68.5t72.5 42t91.5 14.5q48 0 88.5 -10.5t72 -32.5t52 -56t28.5 -82l-142 -20q-8 43 -28.5 68t-65.5 25q-37 0 -59.5 -25t-22.5 -61q0 -33 21.5 -52t55.5 -31l79 -28q32 -11 63 -26t55.5 -38t39.5 -56t15 -81z" />
    <glyph glyph-name="T" unicode="T" horiz-adv-x="538" 
d="M345 576v-576h-152v576h-173v127h498v-127h-173z" />
    <glyph glyph-name="U" unicode="U" horiz-adv-x="660" 
d="M582 263q0 -67 -12.5 -118t-42 -86t-78 -53t-120.5 -18t-120 18t-77 53t-41.5 86t-12.5 118v440h153v-457q0 -27 2 -53.5t12 -48t30 -34.5t55 -13t55 13t30 34.5t12.5 48t2.5 53.5v457h152v-440z" />
    <glyph glyph-name="V" unicode="V" horiz-adv-x="606" 
d="M402 0h-198l-194 703h169l124 -557l124 557h169z" />
    <glyph glyph-name="W" unicode="W" horiz-adv-x="882" 
d="M736 0h-197l-98 542l-98 -542h-197l-131 703h160l79 -570l101 570h172l101 -570l79 570h160z" />
    <glyph glyph-name="X" unicode="X" horiz-adv-x="563" 
d="M391 0l-115 240l-115 -240h-161l200 369l-185 334h173l99 -217l94 217h157l-176 -334l201 -369h-172z" />
    <glyph glyph-name="Y" unicode="Y" horiz-adv-x="599" 
d="M374 271v-271h-152v271l-212 432h162l131 -312l132 312h154z" />
    <glyph glyph-name="Z" unicode="Z" horiz-adv-x="549" 
d="M229 117h276v-117h-452v102l275 484h-261v117h439v-100z" />
    <glyph glyph-name="bracketleft" unicode="[" horiz-adv-x="318" 
d="M68 -118v911h240v-92h-99v-726h99v-93h-240z" />
    <glyph glyph-name="backslash" unicode="\" horiz-adv-x="481" 
d="M312 -12l-292 715h147l294 -715h-149z" />
    <glyph glyph-name="bracketright" unicode="]" horiz-adv-x="318" 
d="M10 -118v93h99v726h-99v92h240v-911h-240z" />
    <glyph glyph-name="asciicircum" unicode="^" horiz-adv-x="582" 
d="M440 262l-149 337l-147 -337h-103l197 442h105l199 -442h-102z" />
    <glyph glyph-name="underscore" unicode="_" horiz-adv-x="450" 
d="M0 -179v112h450v-112h-450z" />
    <glyph glyph-name="grave" unicode="`" horiz-adv-x="235" 
d="M125 571l-115 132h146l69 -132h-100z" />
    <glyph glyph-name="a" unicode="a" horiz-adv-x="549" 
d="M356 0l-8 47q-33 -29 -68.5 -44t-80.5 -15q-32 0 -60.5 7.5t-49.5 24t-33.5 42.5t-12.5 63q0 55 31 90t76.5 56.5t97.5 33t93 19.5v17q0 38 -14 56t-53 18q-59 0 -74 -60l-136 20q8 38 27.5 64.5t47.5 42.5t63 23t74 7q50 0 89 -9t65.5 -30.5t40 -56.5t13.5 -87v-201
q0 -40 2.5 -74t6.5 -54h-137zM341 238q-26 -7 -53 -14t-49.5 -18t-37 -27.5t-14.5 -42.5t16.5 -40t41.5 -14q28 0 52.5 14.5t43.5 31.5v110z" />
    <glyph glyph-name="b" unicode="b" horiz-adv-x="562" 
d="M519 257q0 -48 -10.5 -96.5t-33.5 -86.5t-60 -62t-89 -24q-40 0 -70 16t-59 45l-10 -49h-119v703h143v-258q26 30 57.5 48t73.5 18q51 0 85.5 -24t54.5 -61t28.5 -82t8.5 -87zM374 253q0 19 -2 45.5t-9.5 49.5t-22.5 39.5t-42 16.5q-24 0 -46 -15.5t-41 -35.5v-223
q14 -17 36 -30.5t44 -13.5q29 0 45.5 18t25 44t10.5 55t2 50z" />
    <glyph glyph-name="c" unicode="c" horiz-adv-x="496" 
d="M478 159q-14 -88 -68 -129.5t-142 -41.5q-59 0 -101 18.5t-70 52.5t-41 81.5t-13 105.5q0 54 14.5 102.5t44 85t73 57.5t102.5 21q82 0 133.5 -42.5t65.5 -124.5l-124 -20q-2 16 -7 31.5t-13.5 28t-22 20t-31.5 7.5q-29 0 -46 -18t-26 -43.5t-12 -53.5t-3 -49t2.5 -48.5
t11 -52t25.5 -42t46 -17.5q20 0 34 7.5t23 19.5t14.5 28t9.5 33z" />
    <glyph glyph-name="d" unicode="d" horiz-adv-x="563" 
d="M371 0l-8 53q-29 -32 -61.5 -48.5t-75.5 -16.5q-51 0 -85.5 22t-56.5 58t-31.5 83.5t-9.5 98.5q0 45 10 91.5t32.5 84t57.5 61.5t86 24q38 0 70 -17t53 -46v255h143v-570q0 -12 1 -29.5t2.5 -37t3 -37t2.5 -29.5h-133zM352 355q-16 21 -36 34t-45 13t-41 -15t-25.5 -37.5
t-13 -49t-3.5 -49.5q0 -24 3 -52.5t12 -53t25 -41t42 -16.5q24 0 46 15t36 35v217z" />
    <glyph glyph-name="e" unicode="e" horiz-adv-x="528" 
d="M485 254q0 -8 -0.5 -15t-1.5 -15h-296v-6q0 -24 4 -48t14 -43.5t27 -31.5t43 -12q34 0 53 20.5t30 54.5l125 -14q-18 -81 -74 -118.5t-137 -37.5q-115 0 -172 66t-57 189q0 57 13.5 106t41.5 85t70.5 56.5t101.5 20.5q58 0 99 -20.5t66.5 -56t37.5 -82t12 -98.5zM352 303
q0 21 -4 42t-13.5 37.5t-25 26.5t-38.5 10t-38 -10t-25 -26.5t-14.5 -37t-5.5 -42.5h164z" />
    <glyph glyph-name="f" unicode="f" horiz-adv-x="317" 
d="M322 606q-8 1 -18.5 2t-21.5 1q-31 0 -44 -15t-13 -50v-44h92v-93h-92v-407h-143v407h-72v93h72v42q0 87 38 130t126 43q20 0 41.5 -3t34.5 -5v-101z" />
    <glyph glyph-name="g" unicode="g" horiz-adv-x="502" 
d="M505 422q-16 0 -31.5 -2.5t-32.5 -6.5q16 -31 16 -73q0 -43 -17.5 -75t-47 -53.5t-66.5 -32t-76 -10.5q-29 0 -56 6q-7 -7 -12.5 -15t-5.5 -16q0 -17 13 -21.5t24 -6.5l148 -16q24 -3 49 -10t45.5 -21t33.5 -37t13 -58q0 -47 -18 -78.5t-51.5 -51t-81 -27.5t-106.5 -8
q-42 0 -81.5 4.5t-70.5 16.5t-50 34t-19 57t21.5 60.5t47.5 42.5q-18 10 -30 26t-12 42q0 18 7 34t19 29t26.5 23.5t29.5 17.5q-39 20 -64.5 56t-25.5 88q0 43 17.5 75t47 53.5t66.5 32t76 10.5q37 0 72.5 -9t64.5 -29q23 25 53.5 34.5t64.5 9.5v-95zM322 340q0 36 -16.5 61
t-55.5 25t-55.5 -25t-16.5 -61t16.5 -61t55.5 -25t55.5 25t16.5 61zM369 -48q0 22 -16 27.5t-35 7.5l-150 17q-10 -11 -18.5 -24.5t-8.5 -27.5q0 -21 13 -33t31.5 -17.5t38.5 -6.5t34 -1q22 0 42 3.5t35.5 10.5t24.5 18t9 26z" />
    <glyph glyph-name="h" unicode="h" horiz-adv-x="561" 
d="M350 0v324q0 14 -2.5 28t-8.5 24.5t-17 17t-28 6.5q-24 0 -46 -15.5t-37 -33.5v-351h-143v703h143v-269q28 34 67 55.5t84 21.5q43 0 69 -15.5t40 -41.5t18 -59.5t4 -68.5v-326h-143z" />
    <glyph glyph-name="i" unicode="i" horiz-adv-x="279" 
d="M220 636q0 -37 -23 -57t-57 -20t-57 20t-23 57t23 57t57 20t57 -20t23 -57zM68 0v500h143v-500h-143z" />
    <glyph glyph-name="j" unicode="j" horiz-adv-x="279" 
d="M220 636q0 -37 -23 -57t-57 -20t-57 20t-23 57t23 57t57 20t57 -20t23 -57zM212 1q0 -47 -6.5 -82.5t-25 -59.5t-51 -36t-84.5 -12q-17 0 -34 2t-31 5v101q7 -1 13 -1.5t12 -0.5q40 0 52 21t12 63v499h143v-499z" />
    <glyph glyph-name="k" unicode="k" horiz-adv-x="512" 
d="M356 0l-104 207l-42 -53v-154h-143v703h143v-380l128 177h157l-149 -185l166 -315h-156z" />
    <glyph glyph-name="l" unicode="l" horiz-adv-x="288" 
d="M274 0q-14 -3 -36 -6.5t-42 -3.5q-66 0 -97 30t-31 102v581h143v-561q0 -20 5 -34.5t28 -14.5q7 0 15 1t15 3v-97z" />
    <glyph glyph-name="m" unicode="m" horiz-adv-x="828" 
d="M617 0v321q0 13 -1.5 27.5t-6.5 25.5t-15 18.5t-27 7.5q-25 0 -45.5 -14.5t-35.5 -32.5v-353h-143v324q0 13 -2 26.5t-7 24.5t-15 18t-26 7q-24 0 -45.5 -15t-36.5 -32v-353h-143v500h143v-63q32 33 69.5 53.5t79.5 20.5t71 -19.5t43 -59.5q31 32 69 55.5t86 23.5
q41 0 66.5 -14.5t40 -38.5t19.5 -55.5t5 -65.5v-337h-143z" />
    <glyph glyph-name="n" unicode="n" horiz-adv-x="562" 
d="M351 0v326q0 13 -2 26.5t-8 24t-16.5 17t-26.5 6.5q-24 0 -46 -13.5t-41 -34.5v-352h-143v500h143v-64q29 33 68.5 54t84.5 21q43 0 68.5 -16t39 -42.5t18 -59.5t4.5 -67v-326h-143z" />
    <glyph glyph-name="o" unicode="o" horiz-adv-x="546" 
d="M503 256q0 -58 -14 -107t-42.5 -85t-72 -56t-101.5 -20t-101 18.5t-71.5 52t-43 80.5t-14.5 105q0 57 14.5 106t43.5 85t72 56t100 20q55 0 98 -18.5t72 -52.5t44.5 -80.5t15.5 -103.5zM358 259q0 21 -2.5 48t-11.5 50t-26 39t-45 16q-27 0 -43.5 -15.5t-26 -39.5
t-12.5 -52t-3 -53t3 -54t12 -53.5t26 -41t45 -16.5q30 0 47 19t25 46t10 56.5t2 50.5z" />
    <glyph glyph-name="p" unicode="p" horiz-adv-x="563" 
d="M520 261q0 -51 -9.5 -100t-31.5 -87.5t-58 -62t-90 -23.5q-36 0 -66.5 11.5t-53.5 36.5v-215h-143v679h143v-56q26 31 59 49t75 18q49 0 82.5 -24t54 -60.5t29.5 -81t9 -84.5zM374 256q0 20 -2.5 45.5t-10.5 48.5t-23.5 38.5t-41.5 15.5q-25 0 -47 -15.5t-38 -35.5v-223
q15 -17 36 -30t42 -13q28 0 44.5 17t25.5 42t12 54.5t3 55.5z" />
    <glyph glyph-name="q" unicode="q" horiz-adv-x="565" 
d="M354 -179v220q-56 -53 -129 -53q-42 0 -76 18.5t-57.5 53t-36 83.5t-12.5 109q0 42 10 87.5t32.5 84t58 63t86.5 24.5q42 0 72 -17t56 -49l9 55h130v-679h-143zM354 355q-35 47 -83 47q-42 0 -62 -42.5t-20 -105.5q0 -35 4.5 -65t15 -52.5t26 -35t38.5 -12.5q46 0 81 47
v219z" />
    <glyph glyph-name="r" unicode="r" horiz-adv-x="384" 
d="M374 364q-3 1 -18 1h-21q-52 0 -88 -27.5t-36 -83.5v-254h-143v500h139v-105q10 25 22 46t29 36.5t39 24.5t52 9q5 0 12.5 -0.5t12.5 -1.5v-145z" />
    <glyph glyph-name="s" unicode="s" horiz-adv-x="456" 
d="M413 144q0 -46 -16 -76t-43.5 -48t-63 -25t-74.5 -7q-75 0 -124 32.5t-60 101.5l124 21q5 -26 20 -44.5t44 -18.5q23 0 41.5 12t18.5 37q0 21 -14.5 33t-34.5 19l-76 25q-51 17 -81.5 54t-30.5 98q0 40 16 69.5t42.5 48t61 27.5t70.5 9q70 0 116 -30t59 -93l-123 -22
q-4 23 -16.5 39t-38.5 16q-23 0 -38.5 -12t-15.5 -37q0 -29 21 -41.5t46 -19.5l48 -15q28 -9 50.5 -21t38.5 -29.5t24.5 -42.5t8.5 -60z" />
    <glyph glyph-name="t" unicode="t" horiz-adv-x="336" 
d="M321 -2q-18 -2 -43 -5t-47 -3q-79 0 -113.5 33t-34.5 113v271h-73v93h73v133h143v-133h95v-93h-95v-248q0 -33 9 -48.5t38 -15.5q10 0 24.5 1.5t23.5 3.5v-102z" />
    <glyph glyph-name="u" unicode="u" horiz-adv-x="561" 
d="M360 0l-5 69q-32 -37 -72.5 -59t-86.5 -22q-44 0 -69 16.5t-38.5 43.5t-17 60.5t-3.5 67.5v324h143v-317q0 -14 2 -29t7.5 -27t16 -20t28.5 -8q23 0 45 14t40 34v353h143v-500h-133z" />
    <glyph glyph-name="v" unicode="v" horiz-adv-x="504" 
d="M339 0h-174l-160 500h155l92 -374l92 374h155z" />
    <glyph glyph-name="w" unicode="w" horiz-adv-x="767" 
d="M639 0h-176l-80 364l-80 -364h-175l-113 500h149l58 -386l79 386h165l79 -386l58 386h149z" />
    <glyph glyph-name="x" unicode="x" horiz-adv-x="490" 
d="M326 0l-79 162l-86 -162h-161l161 259l-146 241h160l76 -146l73 146h153l-146 -241l159 -259h-164z" />
    <glyph glyph-name="y" unicode="y" horiz-adv-x="485" 
d="M318 9q-13 -41 -27.5 -76.5t-37 -62t-56 -42t-83.5 -15.5q-21 0 -43 2.5t-36 6.5v98q9 -2 24 -3t29 -1q43 0 62.5 21t32.5 60l-173 503h150l90 -344l83 344h142z" />
    <glyph glyph-name="z" unicode="z" horiz-adv-x="495" 
d="M43 0v93l232 307h-217v100h392v-90l-231 -310h233v-100h-409z" />
    <glyph glyph-name="braceleft" unicode="{" horiz-adv-x="318" 
d="M232 -118q-75 0 -110 39.5t-35 108.5v191q0 32 -13 49.5t-43 17.5h-21v99h21q30 0 43 17.5t13 49.5v191q0 69 35 108.5t110 39.5h76v-92q-40 0 -60 -15.5t-20 -58.5v-179q0 -39 -18 -69t-50 -41v-1q32 -11 50 -41t18 -69v-178q0 -43 19 -58.5t61 -15.5v-93h-76z" />
    <glyph glyph-name="bar" unicode="|" horiz-adv-x="319" 
d="M88 -120v943h143v-943h-143z" />
    <glyph glyph-name="braceright" unicode="}" horiz-adv-x="318" 
d="M287 288q-30 0 -43 -17.5t-13 -49.5v-191q0 -69 -35 -108.5t-110 -39.5h-76v93q40 0 60 15.5t20 58.5v178q0 39 18 69t50 41v1q-32 11 -50 41t-18 69v179q0 43 -19 58.5t-61 15.5v92h76q75 0 110 -39.5t35 -108.5v-191q0 -32 13 -49.5t43 -17.5h21v-99h-21z" />
    <glyph glyph-name="asciitilde" unicode="~" horiz-adv-x="554" 
d="M514 331q-23 -48 -60 -71t-82 -23q-25 0 -52 8t-54 19q-26 11 -50.5 19t-44.5 8q-53 0 -85 -62l-46 97q20 42 56 61t78 19q56 0 112 -29q24 -11 46.5 -17.5t42.5 -6.5q55 0 88 65z" />
    <glyph glyph-name="uni00A0" unicode="&#xa0;" horiz-adv-x="280" 
 />
    <glyph glyph-name="exclamdown" unicode="&#xa1;" horiz-adv-x="315" 
d="M236 456q0 -34 -22.5 -56.5t-56.5 -22.5t-56.5 22.5t-22.5 56.5t22.5 56.5t56.5 22.5t56.5 -22.5t22.5 -56.5zM78 -179l21 481h116l22 -481h-159z" />
    <glyph glyph-name="cent" unicode="&#xa2;" horiz-adv-x="521" 
d="M503 159q-12 -78 -58.5 -119.5t-121.5 -49.5v-110h-70v109q-103 8 -156.5 73.5t-53.5 183.5q0 112 55 182t155 82v110h70v-109q75 -8 120 -49.5t58 -116.5l-124 -20q-3 26 -15 51t-39 36v-324q28 11 40 36t19 52zM253 407q-17 -9 -29 -26t-19.5 -38t-10.5 -45.5t-3 -49.5
q0 -26 3 -50t10.5 -45t19 -37t29.5 -25v316z" />
    <glyph glyph-name="sterling" unicode="&#xa3;" horiz-adv-x="557" 
d="M376 516q-4 36 -17.5 54.5t-43.5 18.5q-18 0 -30.5 -7.5t-20 -20t-10.5 -29t-3 -34.5q0 -21 2.5 -38t6.5 -34l8 -33q4 -14 7 -35h166l-6 -78h-157q-4 -51 -25 -95.5t-56 -74.5h302v-110h-456v77q24 21 40.5 41.5t28 44.5t17 52.5t6.5 64.5h-90l6 78h74q-8 29 -17 63
t-9 82q0 91 54 142.5t154 51.5q96 0 144.5 -39.5t62.5 -121.5z" />
    <glyph glyph-name="currency" unicode="&#xa4;" horiz-adv-x="550" 
d="M463 115l-79 76q-20 -13 -47.5 -21.5t-62.5 -8.5q-34 0 -61.5 9t-53.5 24l-70 -79l-65 65l77 78q-18 27 -26 51t-8 56t8 55.5t26 49.5l-77 80l65 65l70 -80q26 15 54 24t62 9q35 0 62 -8.5t47 -20.5l79 76l64 -65l-77 -80q17 -26 25 -50t8 -56t-8 -56t-25 -50l77 -78z
M380 365q0 19 -7.5 38t-21.5 33.5t-33 23.5t-43 9t-43 -9.5t-32.5 -24.5t-20.5 -33.5t-7 -36.5t7 -37t20.5 -34t32.5 -24.5t43 -9.5t43 9t33 24t21.5 33.5t7.5 38.5z" />
    <glyph glyph-name="yen" unicode="&#xa5;" horiz-adv-x="599" 
d="M409 318h115v-78h-150v-62h150v-78h-150v-100h-152v100h-150v78h150v62h-150v78h115l-177 361h162l131 -312l132 312h154z" />
    <glyph glyph-name="brokenbar" unicode="&#xa6;" horiz-adv-x="319" 
d="M88 410v413h143v-413h-143zM88 -120v413h143v-413h-143z" />
    <glyph glyph-name="section" unicode="&#xa7;" horiz-adv-x="578" 
d="M535 257q0 -49 -21.5 -85t-63.5 -64q50 -44 50 -110q0 -44 -19.5 -76.5t-50.5 -53.5t-70.5 -31t-78.5 -10q-42 0 -80 9t-69.5 28.5t-54 50t-33.5 74.5l136 40q10 -45 32.5 -72.5t68.5 -27.5q27 0 50 14.5t23 43.5q0 20 -18 36t-43 29t-51 22.5t-41 16.5q-31 13 -59.5 28
t-50.5 35t-35 47.5t-13 65.5q0 48 22.5 82.5t67.5 61.5q-51 40 -51 108q0 43 18 76t47.5 55t67 33.5t77.5 11.5q79 0 136.5 -38.5t85.5 -113.5l-126 -39q-11 35 -36 60.5t-65 25.5q-26 0 -46 -14.5t-20 -40.5q0 -21 16.5 -36t40 -26.5t47.5 -19.5t39 -14q31 -13 62 -28.5
t55 -36.5t39 -49.5t15 -67.5zM408 228q0 29 -22 44.5t-49 29.5l-71 36q-14 8 -27 13.5t-28 13.5q-16 -15 -29 -31.5t-13 -40.5q0 -23 12.5 -36.5t32.5 -24.5l105 -50q12 -5 26.5 -12t27.5 -15q14 17 24.5 34t10.5 39z" />
    <glyph glyph-name="dieresis" unicode="&#xa8;" horiz-adv-x="371" 
d="M361 634q0 -33 -20.5 -51t-51.5 -18t-51.5 18t-20.5 51t20.5 51t51.5 18t51.5 -18t20.5 -51zM154 634q0 -33 -20.5 -51t-51.5 -18t-51.5 18t-20.5 51t20.5 51t51.5 18t51.5 -18t20.5 -51z" />
    <glyph glyph-name="copyright" unicode="&#xa9;" horiz-adv-x="970" 
d="M917 339q0 -101 -33 -180.5t-91 -134.5t-137 -84t-171 -29t-171 29t-137 84t-91 134.5t-33 180.5t33 180.5t91 134.5t137 84t171 29t171 -29t137 -84t91 -134.5t33 -180.5zM786 339q0 72 -22.5 132.5t-62.5 104t-95 67.5t-121 24t-121 -24t-95 -67.5t-62.5 -104
t-22.5 -132.5t22.5 -132.5t62.5 -104t95 -67.5t121 -24t121 24t95 67.5t62.5 104t22.5 132.5zM701 258q-17 -91 -74 -132t-138 -41q-58 0 -100.5 18.5t-70.5 52t-41.5 80.5t-13.5 104q0 56 14 103.5t42.5 82t71.5 54t102 19.5q37 0 71 -9t61.5 -29t46 -51t24.5 -75l-121 -19
q-7 55 -29 76.5t-54 21.5q-33 0 -52 -19.5t-28.5 -47.5t-12 -59.5t-2.5 -55.5q0 -23 3 -51.5t12.5 -53.5t28 -41.5t49.5 -16.5t56 23.5t33 82.5z" />
    <glyph glyph-name="ordfeminine" unicode="&#xaa;" horiz-adv-x="460" 
d="M288 308l-6 32q-25 -20 -51.5 -31t-60.5 -11q-26 0 -49 6t-40 19.5t-27.5 35t-10.5 51.5q0 43 24 71.5t59 46t75.5 27t73.5 15.5v9q0 28 -9.5 40.5t-37.5 12.5q-22 0 -35 -10.5t-19 -36.5l-115 17q7 33 23 55t38.5 35.5t50.5 19.5t59 6q80 0 123 -32t43 -116v-157
q0 -31 2.5 -58t5.5 -47h-116zM275 492q-18 -5 -36.5 -10t-35.5 -13t-27.5 -20t-10.5 -30q0 -17 11 -27t29 -10q20 0 38 10t32 23v77z" />
    <glyph glyph-name="guillemotleft" unicode="&#xab;" horiz-adv-x="493" 
d="M345 58l-105 205l105 205h108l-78 -205l78 -205h-108zM145 58l-105 205l105 205h108l-78 -205l78 -205h-108z" />
    <glyph glyph-name="logicalnot" unicode="&#xac;" horiz-adv-x="552" 
d="M385 82v187h-345v117h472v-304h-127z" />
    <glyph glyph-name="uni00AD" unicode="&#xad;" horiz-adv-x="370" 
d="M60 243v112h250v-112h-250z" />
    <glyph glyph-name="registered" unicode="&#xae;" horiz-adv-x="576" 
d="M533 520q0 -57 -19.5 -102t-53.5 -76t-78.5 -47t-93.5 -16q-50 0 -94 16t-78 47t-53.5 76t-19.5 102t19.5 102t53.5 76t78 47t94 16q49 0 93.5 -16t78.5 -47t53.5 -76t19.5 -102zM449 520q0 42 -12.5 73.5t-34 52t-51 31t-63.5 10.5t-63.5 -10.5t-51 -31t-34 -52
t-12.5 -73.5t12.5 -73.5t34 -52t51 -31t63.5 -10.5t63.5 10.5t51 31t34 52t12.5 73.5zM338 398l-50 103h-22v-103h-61v253h96q42 0 67.5 -19t25.5 -54q0 -53 -45 -69l55 -111h-66zM331 576q0 13 -8.5 22.5t-34.5 9.5h-22v-65h24q24 0 32.5 9.5t8.5 23.5z" />
    <glyph glyph-name="macron" unicode="&#xaf;" horiz-adv-x="314" 
d="M10 591v84h294v-84h-294z" />
    <glyph glyph-name="degree" unicode="&#xb0;" horiz-adv-x="400" 
d="M357 566q0 -35 -12.5 -63t-34 -47.5t-50 -30t-60.5 -10.5t-60.5 10.5t-50 30t-34 47.5t-12.5 63t12.5 63t34 47.5t50 30t60.5 10.5t60.5 -10.5t50 -30t34 -47.5t12.5 -63zM271 566q0 38 -20.5 59t-50.5 21t-50.5 -20.5t-20.5 -59.5q0 -38 20.5 -59t50.5 -21t50.5 20.5
t20.5 59.5z" />
    <glyph glyph-name="plusminus" unicode="&#xb1;" horiz-adv-x="552" 
d="M339 299v-157h-127v157h-172v117h172v167h127v-167h173v-117h-173zM40 0v117h472v-117h-472z" />
    <glyph glyph-name="twosuperior" unicode="&#xb2;" horiz-adv-x="453" 
d="M51 285v55q5 16 24.5 39.5t43.5 47.5t48.5 45t40.5 34q10 8 21 17.5t20.5 20.5t15.5 23.5t6 26.5q0 22 -13.5 36t-35.5 14q-49 0 -63 -71l-102 16q26 127 166 127q72 0 114 -34t42 -91q0 -21 -10.5 -42t-27 -40.5t-37 -37t-41.5 -33.5q-26 -20 -50 -41t-38 -39h207v-73
h-331z" />
    <glyph glyph-name="threesuperior" unicode="&#xb3;" horiz-adv-x="443" 
d="M382 409q0 -63 -48.5 -97.5t-130.5 -34.5q-72 0 -112 25t-58 85l98 21q11 -32 29 -46t46 -14q30 0 48 16t18 43q0 22 -9.5 34.5t-25.5 19t-36 8.5t-42 2h-13v70h17q18 0 35.5 1.5t31 7t22 16.5t8.5 29q0 22 -14.5 36.5t-39.5 14.5q-26 0 -42.5 -15.5t-30.5 -39.5l-86 27
q26 51 65.5 74.5t99.5 23.5q69 0 111 -31.5t42 -83.5q0 -33 -18 -55t-49 -34q42 -10 63 -36.5t21 -66.5z" />
    <glyph glyph-name="acute" unicode="&#xb4;" horiz-adv-x="233" 
d="M109 571h-99l71 132h142z" />
    <glyph glyph-name="uni00B5" unicode="&#xb5;" horiz-adv-x="561" 
d="M360 0l-5 69q-29 -34 -65.5 -55t-78.5 -25v-169h-143v680h143v-317q0 -14 2 -29t7.5 -27t16 -20t28.5 -8q23 0 45 14t40 34v353h143v-500h-133z" />
    <glyph glyph-name="paragraph" unicode="&#xb6;" horiz-adv-x="756" 
d="M547 -100v691h-101v-691h-141v367h-16q-51 0 -95.5 11.5t-78 37t-53 67t-19.5 100.5q0 63 20.5 105t56 67.5t83.5 36.5t103 11h382v-803h-141zM305 591h-19q-51 0 -75 -27.5t-24 -78.5t26 -79t83 -28h9v213z" />
    <glyph glyph-name="periodcentered" unicode="&#xb7;" horiz-adv-x="294" 
d="M226 296q0 -34 -22.5 -56.5t-56.5 -22.5t-56.5 22.5t-22.5 56.5t22.5 56.5t56.5 22.5t56.5 -22.5t22.5 -56.5z" />
    <glyph glyph-name="cedilla" unicode="&#xb8;" horiz-adv-x="192" 
d="M182 -108q0 -42 -27 -61.5t-70 -19.5q-18 0 -36 4.5t-39 12.5l15 49q11 -5 23.5 -8t18.5 -3q35 0 35 24q0 13 -7.5 20t-27.5 7q-5 0 -13.5 -1t-16.5 -1l26 101h52l-13 -53h11q33 0 51 -19.5t18 -51.5z" />
    <glyph glyph-name="onesuperior" unicode="&#xb9;" horiz-adv-x="346" 
d="M49 285v71h74v237h-81v64q18 0 36 2t34 7.5t28.5 15.5t19.5 26h66v-352h67v-71h-244z" />
    <glyph glyph-name="ordmasculine" unicode="&#xba;" horiz-adv-x="454" 
d="M411 515q0 -46 -11.5 -85.5t-34 -68t-57.5 -45t-81 -16.5t-80.5 15t-57.5 42t-34.5 64.5t-11.5 83.5q0 45 11.5 84.5t34.5 68t57.5 45t80.5 16.5q44 0 78.5 -15t58 -42t35.5 -64.5t12 -82.5zM289 517q0 17 -2 37t-9 37.5t-19 29t-32 11.5q-19 0 -31 -11.5t-18.5 -29
t-9 -39t-2.5 -40.5q0 -20 2 -42t9 -40t19 -30t32 -12q22 0 34.5 14t18.5 34.5t7 42.5t1 38z" />
    <glyph glyph-name="guillemotright" unicode="&#xbb;" horiz-adv-x="493" 
d="M348 58h-108l78 205l-78 205h108l105 -205zM148 58h-108l78 205l-78 205h108l105 -205z" />
    <glyph glyph-name="onequarter" unicode="&#xbc;" horiz-adv-x="935" 
d="M796 97v-97h-99v97h-206v59l180 265h125v-254h64v-70h-64zM258 -14h-88l441 730h89zM49 285v71h74v237h-81v64q18 0 36 2t34 7.5t28.5 15.5t19.5 26h66v-352h67v-71h-244zM697 326l-106 -159h106v159z" />
    <glyph glyph-name="onehalf" unicode="&#xbd;" horiz-adv-x="946" 
d="M534 0v54q5 17 24 40t43 46.5t48.5 44.5t40.5 34q21 17 42.5 38.5t21.5 50.5q0 21 -13.5 35.5t-35.5 14.5q-49 0 -63 -71l-102 16q24 127 166 127q72 0 114 -34t42 -91q0 -21 -10.5 -41.5t-27 -40t-37 -37.5t-41.5 -34q-25 -20 -49.5 -40.5t-39.5 -38.5h208v-73h-331z
M258 -12l-88 12l441 717h88zM49 285v71h74v237h-81v64q18 0 36 2t34 7.5t28.5 15.5t19.5 26h66v-352h67v-71h-244z" />
    <glyph glyph-name="threequarters" unicode="&#xbe;" horiz-adv-x="985" 
d="M846 97v-97h-98v97h-207v59l181 265h124v-254h64v-70h-64zM309 -14h-89l441 730h89zM382 409q0 -63 -48.5 -97.5t-130.5 -34.5q-72 0 -112 25t-58 85l98 21q11 -32 29 -46t46 -14q30 0 48 16t18 43q0 22 -9.5 34.5t-25.5 19t-36 8.5t-42 2h-13v70h17q18 0 35.5 1.5t31 7
t22 16.5t8.5 29q0 22 -14.5 36.5t-39.5 14.5q-26 0 -42.5 -15.5t-30.5 -39.5l-86 27q26 51 65.5 74.5t99.5 23.5q69 0 111 -31.5t42 -83.5q0 -33 -18 -55t-49 -34q42 -10 63 -36.5t21 -66.5zM748 326l-106 -159h106v159z" />
    <glyph glyph-name="questiondown" unicode="&#xbf;" horiz-adv-x="489" 
d="M328 456q0 -34 -22.5 -56.5t-56.5 -22.5t-56.5 22.5t-22.5 56.5t22.5 56.5t56.5 22.5t56.5 -22.5t22.5 -56.5zM439 -63q-26 -69 -80 -99.5t-124 -30.5q-39 0 -73 10t-59 30.5t-39 51.5t-14 73q0 30 6.5 54t17 43.5t24 35t27.5 29.5q14 13 24.5 27.5t17 32.5t10 41.5
t3.5 55.5v11h128v-19q0 -66 -12 -106.5t-39 -72.5q-26 -31 -48 -62t-22 -64q0 -26 16.5 -44.5t43.5 -18.5q16 0 29.5 7t24 18.5t18 25.5t11.5 29z" />
    <glyph glyph-name="Agrave" unicode="&#xc0;" horiz-adv-x="611" 
d="M258 738l-114 112h152l61 -112h-99zM444 0l-41 170h-199l-42 -170h-147l197 703h191l193 -703h-152zM305 580l-75 -303h148z" />
    <glyph glyph-name="Aacute" unicode="&#xc1;" horiz-adv-x="611" 
d="M359 738h-99l61 112h152zM444 0l-41 170h-199l-42 -170h-147l197 703h191l193 -703h-152zM305 580l-75 -303h148z" />
    <glyph glyph-name="Acircumflex" unicode="&#xc2;" horiz-adv-x="611" 
d="M359 738l-53 56l-56 -56h-114l101 112h140l99 -112h-117zM444 0l-41 170h-199l-42 -170h-147l197 703h191l193 -703h-152zM305 580l-75 -303h148z" />
    <glyph glyph-name="Atilde" unicode="&#xc3;" horiz-adv-x="611" 
d="M462 850q-4 -60 -28 -86t-70 -26q-17 0 -32 5.5t-29.5 12.5t-27.5 12.5t-26 5.5q-26 0 -31 -36h-69q0 21 5.5 41.5t17.5 36t30 25t44 9.5q17 0 33 -5.5t31 -12.5t29 -12.5t27 -5.5q16 0 21.5 10t7.5 26h67zM444 0l-41 170h-199l-42 -170h-147l197 703h191l193 -703h-152z
M305 580l-75 -303h148z" />
    <glyph glyph-name="Adieresis" unicode="&#xc4;" horiz-adv-x="611" 
d="M481 807q0 -33 -20.5 -51t-51.5 -18t-51.5 18t-20.5 51t20.5 51t51.5 18t51.5 -18t20.5 -51zM274 807q0 -33 -20.5 -51t-51.5 -18t-51.5 18t-20.5 51t20.5 51t51.5 18t51.5 -18t20.5 -51zM444 0l-41 170h-199l-42 -170h-147l197 703h191l193 -703h-152zM305 580l-75 -303
h148z" />
    <glyph glyph-name="Aring" unicode="&#xc5;" horiz-adv-x="611" 
d="M444 0l-41 170h-199l-42 -170h-147l194 693q-12 22 -12 53q0 48 32 77.5t77 29.5t77 -29.5t32 -77.5q0 -23 -11 -47l192 -699h-152zM355 746q0 20 -12 36.5t-37 16.5t-37 -16.5t-12 -36.5t12 -36.5t37 -16.5t37 16.5t12 36.5zM305 580l-75 -303h148z" />
    <glyph glyph-name="AE" unicode="&#xc6;" horiz-adv-x="926" 
d="M450 0v170h-200l-78 -170h-157l347 703h511v-116h-271v-169h225v-117h-225v-185h281v-116h-433zM450 603l-150 -326h150v326z" />
    <glyph glyph-name="Ccedilla" unicode="&#xc7;" horiz-adv-x="649" 
d="M621 225q-17 -109 -80.5 -169.5t-172.5 -66.5l-6 -26h11q33 0 51 -19.5t18 -51.5q0 -42 -27 -61.5t-70 -19.5q-18 0 -36 4.5t-39 12.5l15 49q11 -5 23.5 -8t18.5 -3q35 0 35 24q0 13 -7.5 20t-27.5 7q-5 0 -13.5 -1t-16.5 -1l19 74q-74 6 -124 37.5t-81 80t-44.5 111
t-13.5 131.5q0 73 16 139.5t51.5 117.5t92 81t138.5 30q113 0 176 -58t88 -164l-153 -26q-3 25 -9.5 50.5t-19 45.5t-32.5 33t-51 13q-36 0 -61.5 -19t-41.5 -55t-23 -86.5t-7 -113.5q0 -55 7 -99.5t22.5 -76.5t39.5 -49.5t59 -17.5q31 0 53.5 14t36.5 36t22 49t11 53z" />
    <glyph glyph-name="Egrave" unicode="&#xc8;" horiz-adv-x="554" 
d="M264 738l-114 112h152l61 -112h-99zM78 0v703h423v-116h-271v-169h225v-117h-225v-185h281v-116h-433z" />
    <glyph glyph-name="Eacute" unicode="&#xc9;" horiz-adv-x="554" 
d="M309 738h-99l61 112h152zM78 0v703h423v-116h-271v-169h225v-117h-225v-185h281v-116h-433z" />
    <glyph glyph-name="Ecircumflex" unicode="&#xca;" horiz-adv-x="554" 
d="M340 738l-53 56l-56 -56h-114l101 112h140l99 -112h-117zM78 0v703h423v-116h-271v-169h225v-117h-225v-185h281v-116h-433z" />
    <glyph glyph-name="Edieresis" unicode="&#xcb;" horiz-adv-x="554" 
d="M463 807q0 -33 -20.5 -51t-51.5 -18t-51.5 18t-20.5 51t20.5 51t51.5 18t51.5 -18t20.5 -51zM256 807q0 -33 -20.5 -51t-51.5 -18t-51.5 18t-20.5 51t20.5 51t51.5 18t51.5 -18t20.5 -51zM78 0v703h423v-116h-271v-169h225v-117h-225v-185h281v-116h-433z" />
    <glyph glyph-name="Igrave" unicode="&#xcc;" horiz-adv-x="308" 
d="M102 738l-114 112h152l61 -112h-99zM78 0v703h152v-703h-152z" />
    <glyph glyph-name="Iacute" unicode="&#xcd;" horiz-adv-x="308" 
d="M208 738h-99l61 112h152zM78 0v703h152v-703h-152z" />
    <glyph glyph-name="Icircumflex" unicode="&#xce;" horiz-adv-x="308" 
d="M207 738l-53 56l-56 -56h-114l101 112h140l99 -112h-117zM78 0v703h152v-703h-152z" />
    <glyph glyph-name="Idieresis" unicode="&#xcf;" horiz-adv-x="308" 
d="M330 807q0 -33 -20.5 -51t-51.5 -18t-51.5 18t-20.5 51t20.5 51t51.5 18t51.5 -18t20.5 -51zM123 807q0 -33 -20.5 -51t-51.5 -18t-51.5 18t-20.5 51t20.5 51t51.5 18t51.5 -18t20.5 -51zM78 0v703h152v-703h-152z" />
    <glyph glyph-name="Eth" unicode="&#xd0;" horiz-adv-x="670" 
d="M617 354q0 -170 -81 -262t-253 -92h-205v301h-58v117h58v285h196q178 0 260.5 -86t82.5 -263zM457 354q0 48 -5.5 91t-24 76t-53 52.5t-92.5 19.5h-52v-175h165v-117h-165v-191h37q61 0 98.5 17.5t58 50t27 77.5t6.5 99z" />
    <glyph glyph-name="Ntilde" unicode="&#xd1;" horiz-adv-x="702" 
d="M508 850q-4 -60 -28 -86t-70 -26q-17 0 -32 5.5t-29.5 12.5t-27.5 12.5t-26 5.5q-26 0 -31 -36h-69q0 21 5.5 41.5t17.5 36t30 25t44 9.5q17 0 33 -5.5t31 -12.5t29 -12.5t27 -5.5q16 0 21.5 10t7.5 26h67zM468 0l-245 528v-528h-145v703h200l200 -434v434h146v-703h-156
z" />
    <glyph glyph-name="Ograve" unicode="&#xd2;" horiz-adv-x="688" 
d="M295 738l-114 112h152l61 -112h-99zM635 359q0 -74 -15 -141.5t-49.5 -118.5t-91.5 -81t-142 -30q-75 0 -129 28t-88.5 76.5t-50.5 113.5t-16 140q0 74 15.5 141.5t50.5 118.5t90 81t135 30q77 0 132 -27.5t90.5 -76t52 -114t16.5 -140.5zM469 356q0 21 -1.5 48
t-5.5 55.5t-12 56t-22 49t-34 34.5t-49 13q-44 0 -69.5 -28.5t-38 -69.5t-16 -86t-3.5 -77t2.5 -76t14.5 -84t37 -68t70 -28q42 0 67 26.5t38.5 66.5t17.5 85t4 83z" />
    <glyph glyph-name="Oacute" unicode="&#xd3;" horiz-adv-x="688" 
d="M394 738h-99l61 112h152zM635 359q0 -74 -15 -141.5t-49.5 -118.5t-91.5 -81t-142 -30q-75 0 -129 28t-88.5 76.5t-50.5 113.5t-16 140q0 74 15.5 141.5t50.5 118.5t90 81t135 30q77 0 132 -27.5t90.5 -76t52 -114t16.5 -140.5zM469 356q0 21 -1.5 48t-5.5 55.5t-12 56
t-22 49t-34 34.5t-49 13q-44 0 -69.5 -28.5t-38 -69.5t-16 -86t-3.5 -77t2.5 -76t14.5 -84t37 -68t70 -28q42 0 67 26.5t38.5 66.5t17.5 85t4 83z" />
    <glyph glyph-name="Ocircumflex" unicode="&#xd4;" horiz-adv-x="688" 
d="M397 738l-53 56l-56 -56h-114l101 112h140l99 -112h-117zM635 359q0 -74 -15 -141.5t-49.5 -118.5t-91.5 -81t-142 -30q-75 0 -129 28t-88.5 76.5t-50.5 113.5t-16 140q0 74 15.5 141.5t50.5 118.5t90 81t135 30q77 0 132 -27.5t90.5 -76t52 -114t16.5 -140.5zM469 356
q0 21 -1.5 48t-5.5 55.5t-12 56t-22 49t-34 34.5t-49 13q-44 0 -69.5 -28.5t-38 -69.5t-16 -86t-3.5 -77t2.5 -76t14.5 -84t37 -68t70 -28q42 0 67 26.5t38.5 66.5t17.5 85t4 83z" />
    <glyph glyph-name="Otilde" unicode="&#xd5;" horiz-adv-x="688" 
d="M501 850q-4 -60 -28 -86t-70 -26q-17 0 -32 5.5t-29.5 12.5t-27.5 12.5t-26 5.5q-26 0 -31 -36h-69q0 21 5.5 41.5t17.5 36t30 25t44 9.5q17 0 33 -5.5t31 -12.5t29 -12.5t27 -5.5q16 0 21.5 10t7.5 26h67zM635 359q0 -74 -15 -141.5t-49.5 -118.5t-91.5 -81t-142 -30
q-75 0 -129 28t-88.5 76.5t-50.5 113.5t-16 140q0 74 15.5 141.5t50.5 118.5t90 81t135 30q77 0 132 -27.5t90.5 -76t52 -114t16.5 -140.5zM469 356q0 21 -1.5 48t-5.5 55.5t-12 56t-22 49t-34 34.5t-49 13q-44 0 -69.5 -28.5t-38 -69.5t-16 -86t-3.5 -77t2.5 -76t14.5 -84
t37 -68t70 -28q42 0 67 26.5t38.5 66.5t17.5 85t4 83z" />
    <glyph glyph-name="Odieresis" unicode="&#xd6;" horiz-adv-x="688" 
d="M521 807q0 -33 -20.5 -51t-51.5 -18t-51.5 18t-20.5 51t20.5 51t51.5 18t51.5 -18t20.5 -51zM314 807q0 -33 -20.5 -51t-51.5 -18t-51.5 18t-20.5 51t20.5 51t51.5 18t51.5 -18t20.5 -51zM635 359q0 -74 -15 -141.5t-49.5 -118.5t-91.5 -81t-142 -30q-75 0 -129 28
t-88.5 76.5t-50.5 113.5t-16 140q0 74 15.5 141.5t50.5 118.5t90 81t135 30q77 0 132 -27.5t90.5 -76t52 -114t16.5 -140.5zM469 356q0 21 -1.5 48t-5.5 55.5t-12 56t-22 49t-34 34.5t-49 13q-44 0 -69.5 -28.5t-38 -69.5t-16 -86t-3.5 -77t2.5 -76t14.5 -84t37 -68t70 -28
q42 0 67 26.5t38.5 66.5t17.5 85t4 83z" />
    <glyph glyph-name="multiply" unicode="&#xd7;" horiz-adv-x="552" 
d="M415 93l-139 140l-141 -140l-89 89l140 141l-140 139l90 90l140 -140l140 140l89 -89l-140 -140l140 -140z" />
    <glyph glyph-name="Oslash" unicode="&#xd8;" horiz-adv-x="688" 
d="M565 615q36 -49 53 -113.5t17 -142.5q0 -74 -15 -141.5t-49.5 -118.5t-91.5 -81t-142 -30q-51 0 -91.5 13t-72.5 37l-61 -91l-60 39l70 104q-35 49 -52 114.5t-17 141.5q0 74 15.5 141.5t50.5 118.5t90 81t135 30q54 0 95.5 -13t74.5 -37l63 92l60 -38zM435 551
q-14 27 -35.5 44t-54.5 17q-44 0 -69.5 -28.5t-38 -69.5t-16 -86t-3.5 -77v-22q0 -20 0.5 -42.5t5.5 -45.5zM469 356q0 22 -1 50t-6 57l-211 -311q14 -26 36 -41.5t55 -15.5q42 0 67 26.5t38.5 66.5t17.5 85t4 83z" />
    <glyph glyph-name="Ugrave" unicode="&#xd9;" horiz-adv-x="660" 
d="M284 738l-114 112h152l61 -112h-99zM582 263q0 -67 -12.5 -118t-42 -86t-78 -53t-120.5 -18t-120 18t-77 53t-41.5 86t-12.5 118v440h153v-457q0 -27 2 -53.5t12 -48t30 -34.5t55 -13t55 13t30 34.5t12.5 48t2.5 53.5v457h152v-440z" />
    <glyph glyph-name="Uacute" unicode="&#xda;" horiz-adv-x="660" 
d="M382 738h-99l61 112h152zM582 263q0 -67 -12.5 -118t-42 -86t-78 -53t-120.5 -18t-120 18t-77 53t-41.5 86t-12.5 118v440h153v-457q0 -27 2 -53.5t12 -48t30 -34.5t55 -13t55 13t30 34.5t12.5 48t2.5 53.5v457h152v-440z" />
    <glyph glyph-name="Ucircumflex" unicode="&#xdb;" horiz-adv-x="660" 
d="M383 738l-53 56l-56 -56h-114l101 112h140l99 -112h-117zM582 263q0 -67 -12.5 -118t-42 -86t-78 -53t-120.5 -18t-120 18t-77 53t-41.5 86t-12.5 118v440h153v-457q0 -27 2 -53.5t12 -48t30 -34.5t55 -13t55 13t30 34.5t12.5 48t2.5 53.5v457h152v-440z" />
    <glyph glyph-name="Udieresis" unicode="&#xdc;" horiz-adv-x="660" 
d="M506 807q0 -33 -20.5 -51t-51.5 -18t-51.5 18t-20.5 51t20.5 51t51.5 18t51.5 -18t20.5 -51zM299 807q0 -33 -20.5 -51t-51.5 -18t-51.5 18t-20.5 51t20.5 51t51.5 18t51.5 -18t20.5 -51zM582 263q0 -67 -12.5 -118t-42 -86t-78 -53t-120.5 -18t-120 18t-77 53t-41.5 86
t-12.5 118v440h153v-457q0 -27 2 -53.5t12 -48t30 -34.5t55 -13t55 13t30 34.5t12.5 48t2.5 53.5v457h152v-440z" />
    <glyph glyph-name="Yacute" unicode="&#xdd;" horiz-adv-x="599" 
d="M352 738h-99l61 112h152zM374 271v-271h-152v271l-212 432h162l131 -312l132 312h154z" />
    <glyph glyph-name="Thorn" unicode="&#xde;" horiz-adv-x="604" 
d="M561 363q0 -59 -21 -98.5t-56.5 -63.5t-81.5 -34t-97 -10h-75v-157h-152v703h152v-130h58q55 0 104.5 -9t87 -33t59.5 -64.5t22 -103.5zM405 365q0 51 -29 73.5t-80 22.5h-66v-193h56q57 0 88 23t31 74z" />
    <glyph glyph-name="germandbls" unicode="&#xdf;" horiz-adv-x="567" 
d="M534 146q0 -43 -13.5 -73t-37 -49t-55 -27.5t-68.5 -8.5q-21 0 -42.5 3t-38.5 8l5 95q17 -5 30 -6.5t27 -2.5h7q24 0 39 15t15 46q0 19 -9 32.5t-21 25.5l-35 34q-23 23 -40.5 48t-17.5 63q0 28 12 54t26 51t26 50t12 52q0 28 -16.5 44t-47.5 16q-45 0 -62.5 -30.5
t-17.5 -84.5v-501h-143v504q0 100 58.5 155.5t167.5 55.5q91 0 139.5 -43.5t48.5 -116.5q0 -38 -12 -67.5t-26 -52.5t-26 -40.5t-12 -31.5q0 -13 9.5 -23t23.5 -24l30 -29q24 -23 44.5 -55.5t20.5 -85.5z" />
    <glyph glyph-name="agrave" unicode="&#xe0;" horiz-adv-x="549" 
d="M224 571l-114 132h142l71 -132h-99zM356 0l-8 47q-33 -29 -68.5 -44t-80.5 -15q-32 0 -60.5 7.5t-49.5 24t-33.5 42.5t-12.5 63q0 55 31 90t76.5 56.5t97.5 33t93 19.5v17q0 38 -14 56t-53 18q-59 0 -74 -60l-136 20q8 38 27.5 64.5t47.5 42.5t63 23t74 7q50 0 89 -9
t65.5 -30.5t40 -56.5t13.5 -87v-201q0 -40 2.5 -74t6.5 -54h-137zM341 238q-26 -7 -53 -14t-49.5 -18t-37 -27.5t-14.5 -42.5t16.5 -40t41.5 -14q28 0 52.5 14.5t43.5 31.5v110z" />
    <glyph glyph-name="aacute" unicode="&#xe1;" horiz-adv-x="549" 
d="M319 571h-99l71 132h142zM356 0l-8 47q-33 -29 -68.5 -44t-80.5 -15q-32 0 -60.5 7.5t-49.5 24t-33.5 42.5t-12.5 63q0 55 31 90t76.5 56.5t97.5 33t93 19.5v17q0 38 -14 56t-53 18q-59 0 -74 -60l-136 20q8 38 27.5 64.5t47.5 42.5t63 23t74 7q50 0 89 -9t65.5 -30.5
t40 -56.5t13.5 -87v-201q0 -40 2.5 -74t6.5 -54h-137zM341 238q-26 -7 -53 -14t-49.5 -18t-37 -27.5t-14.5 -42.5t16.5 -40t41.5 -14q28 0 52.5 14.5t43.5 31.5v110z" />
    <glyph glyph-name="acircumflex" unicode="&#xe2;" horiz-adv-x="549" 
d="M328 571l-53 66l-56 -66h-114l106 132h130l104 -132h-117zM356 0l-8 47q-33 -29 -68.5 -44t-80.5 -15q-32 0 -60.5 7.5t-49.5 24t-33.5 42.5t-12.5 63q0 55 31 90t76.5 56.5t97.5 33t93 19.5v17q0 38 -14 56t-53 18q-59 0 -74 -60l-136 20q8 38 27.5 64.5t47.5 42.5
t63 23t74 7q50 0 89 -9t65.5 -30.5t40 -56.5t13.5 -87v-201q0 -40 2.5 -74t6.5 -54h-137zM341 238q-26 -7 -53 -14t-49.5 -18t-37 -27.5t-14.5 -42.5t16.5 -40t41.5 -14q28 0 52.5 14.5t43.5 31.5v110z" />
    <glyph glyph-name="atilde" unicode="&#xe3;" horiz-adv-x="549" 
d="M436 703q-4 -60 -28 -95t-70 -35q-17 0 -34 5.5t-33 12.5t-30.5 12.5t-27.5 5.5q-27 0 -31 -34h-69q0 57 28 92q27 36 69 36q17 0 34.5 -5.5t34.5 -12.5t32.5 -12.5t28.5 -5.5q16 0 21.5 10t7.5 26h67zM356 0l-8 47q-33 -29 -68.5 -44t-80.5 -15q-32 0 -60.5 7.5
t-49.5 24t-33.5 42.5t-12.5 63q0 55 31 90t76.5 56.5t97.5 33t93 19.5v17q0 38 -14 56t-53 18q-59 0 -74 -60l-136 20q8 38 27.5 64.5t47.5 42.5t63 23t74 7q50 0 89 -9t65.5 -30.5t40 -56.5t13.5 -87v-201q0 -40 2.5 -74t6.5 -54h-137zM341 238q-26 -7 -53 -14t-49.5 -18
t-37 -27.5t-14.5 -42.5t16.5 -40t41.5 -14q28 0 52.5 14.5t43.5 31.5v110z" />
    <glyph glyph-name="adieresis" unicode="&#xe4;" horiz-adv-x="549" 
d="M450 634q0 -33 -20.5 -51t-51.5 -18t-51.5 18t-20.5 51t20.5 51t51.5 18t51.5 -18t20.5 -51zM243 634q0 -33 -20.5 -51t-51.5 -18t-51.5 18t-20.5 51t20.5 51t51.5 18t51.5 -18t20.5 -51zM356 0l-8 47q-33 -29 -68.5 -44t-80.5 -15q-32 0 -60.5 7.5t-49.5 24t-33.5 42.5
t-12.5 63q0 55 31 90t76.5 56.5t97.5 33t93 19.5v17q0 38 -14 56t-53 18q-59 0 -74 -60l-136 20q8 38 27.5 64.5t47.5 42.5t63 23t74 7q50 0 89 -9t65.5 -30.5t40 -56.5t13.5 -87v-201q0 -40 2.5 -74t6.5 -54h-137zM341 238q-26 -7 -53 -14t-49.5 -18t-37 -27.5t-14.5 -42.5
t16.5 -40t41.5 -14q28 0 52.5 14.5t43.5 31.5v110z" />
    <glyph glyph-name="aring" unicode="&#xe5;" horiz-adv-x="549" 
d="M384 636q0 -48 -32 -77.5t-77 -29.5t-77 29.5t-32 77.5t32 77.5t77 29.5t77 -29.5t32 -77.5zM356 0l-8 47q-33 -29 -68.5 -44t-80.5 -15q-32 0 -60.5 7.5t-49.5 24t-33.5 42.5t-12.5 63q0 55 31 90t76.5 56.5t97.5 33t93 19.5v17q0 38 -14 56t-53 18q-59 0 -74 -60
l-136 20q8 38 27.5 64.5t47.5 42.5t63 23t74 7q50 0 89 -9t65.5 -30.5t40 -56.5t13.5 -87v-201q0 -40 2.5 -74t6.5 -54h-137zM324 636q0 20 -12 36.5t-37 16.5t-37 -16.5t-12 -36.5t12 -36.5t37 -16.5t37 16.5t12 36.5zM341 238q-26 -7 -53 -14t-49.5 -18t-37 -27.5
t-14.5 -42.5t16.5 -40t41.5 -14q28 0 52.5 14.5t43.5 31.5v110z" />
    <glyph glyph-name="ae" unicode="&#xe6;" horiz-adv-x="813" 
d="M770 254q0 -8 -0.5 -15t-1.5 -15h-296v-6q0 -24 4 -48t14 -43.5t27 -31.5t43 -12q34 0 53 20.5t30 54.5l125 -14q-18 -81 -74 -118.5t-137 -37.5q-121 0 -175 78q-38 -35 -81 -56.5t-102 -21.5q-32 0 -60.5 7.5t-49.5 24t-33.5 42.5t-12.5 63q0 55 30.5 89t75.5 53.5
t97 28t95 13.5v32q0 38 -14 56t-53 18q-59 0 -74 -60l-136 20q8 38 27.5 64.5t47.5 42.5t63 23t74 7q52 0 88 -9.5t59 -32.5q50 41 132 41q58 0 99 -20.5t66.5 -56t37.5 -82t12 -98.5zM637 303q0 21 -4 42t-13.5 37.5t-25 26.5t-38.5 10t-38 -10t-25 -26.5t-14.5 -37
t-5.5 -42.5h164zM351 133q-5 20 -8.5 42.5t-4.5 47.5q-27 -3 -53.5 -7.5t-48.5 -13.5t-35.5 -25t-13.5 -41q0 -26 16.5 -40t41.5 -14q26 0 56 16t50 35z" />
    <glyph glyph-name="ccedilla" unicode="&#xe7;" horiz-adv-x="496" 
d="M478 159q-13 -84 -62 -124.5t-128 -45.5l-6 -26h11q33 0 51 -19.5t18 -51.5q0 -42 -27 -61.5t-70 -19.5q-18 0 -36 4.5t-39 12.5l15 49q11 -5 23.5 -8t18.5 -3q35 0 35 24q0 13 -7.5 20t-27.5 7q-5 0 -13.5 -1t-16.5 -1l19 75q-50 5 -86.5 25.5t-60 54t-35 78t-11.5 98.5
t14.5 102.5t44 85t73 57.5t102.5 21q82 0 133.5 -42.5t65.5 -124.5l-124 -20q-2 16 -7 31.5t-13.5 28t-22 20t-31.5 7.5q-29 0 -46 -18t-26 -43.5t-12 -53.5t-3 -49t2.5 -48.5t11 -52t25.5 -42t46 -17.5q20 0 34 7.5t23 19.5t14.5 28t9.5 33z" />
    <glyph glyph-name="egrave" unicode="&#xe8;" horiz-adv-x="528" 
d="M219 571l-114 132h142l71 -132h-99zM485 254q0 -8 -0.5 -15t-1.5 -15h-296v-6q0 -24 4 -48t14 -43.5t27 -31.5t43 -12q34 0 53 20.5t30 54.5l125 -14q-18 -81 -74 -118.5t-137 -37.5q-115 0 -172 66t-57 189q0 57 13.5 106t41.5 85t70.5 56.5t101.5 20.5q58 0 99 -20.5
t66.5 -56t37.5 -82t12 -98.5zM352 303q0 21 -4 42t-13.5 37.5t-25 26.5t-38.5 10t-38 -10t-25 -26.5t-14.5 -37t-5.5 -42.5h164z" />
    <glyph glyph-name="eacute" unicode="&#xe9;" horiz-adv-x="528" 
d="M319 571h-99l71 132h142zM485 254q0 -8 -0.5 -15t-1.5 -15h-296v-6q0 -24 4 -48t14 -43.5t27 -31.5t43 -12q34 0 53 20.5t30 54.5l125 -14q-18 -81 -74 -118.5t-137 -37.5q-115 0 -172 66t-57 189q0 57 13.5 106t41.5 85t70.5 56.5t101.5 20.5q58 0 99 -20.5t66.5 -56
t37.5 -82t12 -98.5zM352 303q0 21 -4 42t-13.5 37.5t-25 26.5t-38.5 10t-38 -10t-25 -26.5t-14.5 -37t-5.5 -42.5h164z" />
    <glyph glyph-name="ecircumflex" unicode="&#xea;" horiz-adv-x="528" 
d="M317 571l-53 66l-56 -66h-114l106 132h130l104 -132h-117zM485 254q0 -8 -0.5 -15t-1.5 -15h-296v-6q0 -24 4 -48t14 -43.5t27 -31.5t43 -12q34 0 53 20.5t30 54.5l125 -14q-18 -81 -74 -118.5t-137 -37.5q-115 0 -172 66t-57 189q0 57 13.5 106t41.5 85t70.5 56.5
t101.5 20.5q58 0 99 -20.5t66.5 -56t37.5 -82t12 -98.5zM352 303q0 21 -4 42t-13.5 37.5t-25 26.5t-38.5 10t-38 -10t-25 -26.5t-14.5 -37t-5.5 -42.5h164z" />
    <glyph glyph-name="edieresis" unicode="&#xeb;" horiz-adv-x="528" 
d="M440 634q0 -33 -20.5 -51t-51.5 -18t-51.5 18t-20.5 51t20.5 51t51.5 18t51.5 -18t20.5 -51zM233 634q0 -33 -20.5 -51t-51.5 -18t-51.5 18t-20.5 51t20.5 51t51.5 18t51.5 -18t20.5 -51zM485 254q0 -8 -0.5 -15t-1.5 -15h-296v-6q0 -24 4 -48t14 -43.5t27 -31.5t43 -12
q34 0 53 20.5t30 54.5l125 -14q-18 -81 -74 -118.5t-137 -37.5q-115 0 -172 66t-57 189q0 57 13.5 106t41.5 85t70.5 56.5t101.5 20.5q58 0 99 -20.5t66.5 -56t37.5 -82t12 -98.5zM352 303q0 21 -4 42t-13.5 37.5t-25 26.5t-38.5 10t-38 -10t-25 -26.5t-14.5 -37t-5.5 -42.5
h164z" />
    <glyph glyph-name="igrave" unicode="&#xec;" horiz-adv-x="279" 
d="M84 571l-114 132h142l71 -132h-99zM68 0v500h143v-500h-143z" />
    <glyph glyph-name="iacute" unicode="&#xed;" horiz-adv-x="279" 
d="M187 571h-99l71 132h142zM68 0v500h143v-500h-143z" />
    <glyph glyph-name="icircumflex" unicode="&#xee;" horiz-adv-x="279" 
d="M193 571l-53 66l-56 -66h-114l106 132h130l104 -132h-117zM68 0v500h143v-500h-143z" />
    <glyph glyph-name="idieresis" unicode="&#xef;" horiz-adv-x="279" 
d="M315 634q0 -33 -20.5 -51t-51.5 -18t-51.5 18t-20.5 51t20.5 51t51.5 18t51.5 -18t20.5 -51zM108 634q0 -33 -20.5 -51t-51.5 -18t-51.5 18t-20.5 51t20.5 51t51.5 18t51.5 -18t20.5 -51zM68 0v500h143v-500h-143z" />
    <glyph glyph-name="eth" unicode="&#xf0;" horiz-adv-x="547" 
d="M498 272q0 -60 -14 -112t-43 -90.5t-73 -60.5t-105 -22q-105 0 -162.5 66.5t-57.5 192.5q0 48 13.5 92t39 77t63 52.5t85.5 19.5q36 0 69 -19.5t57 -61.5q-2 36 -23 80t-57 86l-118 -54l-39 61l102 41q-22 17 -44 30.5t-48 23.5l118 33q38 -16 75 -47l95 41l35 -61
l-77 -34q57 -69 83 -157.5t26 -176.5zM356 255q0 26 -4 52t-14 46.5t-26.5 33.5t-41.5 13q-42 0 -62.5 -35.5t-20.5 -116.5q0 -163 85 -163q27 0 43.5 16t25.5 40.5t12 54.5t3 59z" />
    <glyph glyph-name="ntilde" unicode="&#xf1;" horiz-adv-x="562" 
d="M443 703q-4 -60 -28 -95t-70 -35q-17 0 -34 5.5t-33 12.5t-30.5 12.5t-27.5 5.5q-27 0 -31 -34h-69q0 57 28 92q27 36 69 36q17 0 34.5 -5.5t34.5 -12.5t32.5 -12.5t28.5 -5.5q16 0 21.5 10t7.5 26h67zM351 0v326q0 13 -2 26.5t-8 24t-16.5 17t-26.5 6.5q-24 0 -46 -13.5
t-41 -34.5v-352h-143v500h143v-64q29 33 68.5 54t84.5 21q43 0 68.5 -16t39 -42.5t18 -59.5t4.5 -67v-326h-143z" />
    <glyph glyph-name="ograve" unicode="&#xf2;" horiz-adv-x="546" 
d="M224 571l-114 132h142l71 -132h-99zM503 256q0 -58 -14 -107t-42.5 -85t-72 -56t-101.5 -20t-101 18.5t-71.5 52t-43 80.5t-14.5 105q0 57 14.5 106t43.5 85t72 56t100 20q55 0 98 -18.5t72 -52.5t44.5 -80.5t15.5 -103.5zM358 259q0 21 -2.5 48t-11.5 50t-26 39t-45 16
q-27 0 -43.5 -15.5t-26 -39.5t-12.5 -52t-3 -53t3 -54t12 -53.5t26 -41t45 -16.5q30 0 47 19t25 46t10 56.5t2 50.5z" />
    <glyph glyph-name="oacute" unicode="&#xf3;" horiz-adv-x="546" 
d="M319 571h-99l71 132h142zM503 256q0 -58 -14 -107t-42.5 -85t-72 -56t-101.5 -20t-101 18.5t-71.5 52t-43 80.5t-14.5 105q0 57 14.5 106t43.5 85t72 56t100 20q55 0 98 -18.5t72 -52.5t44.5 -80.5t15.5 -103.5zM358 259q0 21 -2.5 48t-11.5 50t-26 39t-45 16
q-27 0 -43.5 -15.5t-26 -39.5t-12.5 -52t-3 -53t3 -54t12 -53.5t26 -41t45 -16.5q30 0 47 19t25 46t10 56.5t2 50.5z" />
    <glyph glyph-name="ocircumflex" unicode="&#xf4;" horiz-adv-x="546" 
d="M326 571l-53 66l-56 -66h-114l106 132h130l104 -132h-117zM503 256q0 -58 -14 -107t-42.5 -85t-72 -56t-101.5 -20t-101 18.5t-71.5 52t-43 80.5t-14.5 105q0 57 14.5 106t43.5 85t72 56t100 20q55 0 98 -18.5t72 -52.5t44.5 -80.5t15.5 -103.5zM358 259q0 21 -2.5 48
t-11.5 50t-26 39t-45 16q-27 0 -43.5 -15.5t-26 -39.5t-12.5 -52t-3 -53t3 -54t12 -53.5t26 -41t45 -16.5q30 0 47 19t25 46t10 56.5t2 50.5z" />
    <glyph glyph-name="otilde" unicode="&#xf5;" horiz-adv-x="546" 
d="M435 703q-4 -60 -28 -95t-70 -35q-17 0 -34 5.5t-33 12.5t-30.5 12.5t-27.5 5.5q-27 0 -31 -34h-69q0 57 28 92q27 36 69 36q17 0 34.5 -5.5t34.5 -12.5t32.5 -12.5t28.5 -5.5q16 0 21.5 10t7.5 26h67zM503 256q0 -58 -14 -107t-42.5 -85t-72 -56t-101.5 -20t-101 18.5
t-71.5 52t-43 80.5t-14.5 105q0 57 14.5 106t43.5 85t72 56t100 20q55 0 98 -18.5t72 -52.5t44.5 -80.5t15.5 -103.5zM358 259q0 21 -2.5 48t-11.5 50t-26 39t-45 16q-27 0 -43.5 -15.5t-26 -39.5t-12.5 -52t-3 -53t3 -54t12 -53.5t26 -41t45 -16.5q30 0 47 19t25 46
t10 56.5t2 50.5z" />
    <glyph glyph-name="odieresis" unicode="&#xf6;" horiz-adv-x="546" 
d="M449 634q0 -33 -20.5 -51t-51.5 -18t-51.5 18t-20.5 51t20.5 51t51.5 18t51.5 -18t20.5 -51zM242 634q0 -33 -20.5 -51t-51.5 -18t-51.5 18t-20.5 51t20.5 51t51.5 18t51.5 -18t20.5 -51zM503 256q0 -58 -14 -107t-42.5 -85t-72 -56t-101.5 -20t-101 18.5t-71.5 52
t-43 80.5t-14.5 105q0 57 14.5 106t43.5 85t72 56t100 20q55 0 98 -18.5t72 -52.5t44.5 -80.5t15.5 -103.5zM358 259q0 21 -2.5 48t-11.5 50t-26 39t-45 16q-27 0 -43.5 -15.5t-26 -39.5t-12.5 -52t-3 -53t3 -54t12 -53.5t26 -41t45 -16.5q30 0 47 19t25 46t10 56.5t2 50.5z
" />
    <glyph glyph-name="divide" unicode="&#xf7;" horiz-adv-x="552" 
d="M351 507q0 -32 -22 -54t-54 -22t-54 22t-22 54t22 54t54 22t54 -22t22 -54zM40 269v117h472v-117h-472zM351 148q0 -32 -22 -54t-54 -22t-54 22t-22 54t22 54t54 22t54 -22t22 -54z" />
    <glyph glyph-name="oslash" unicode="&#xf8;" horiz-adv-x="546" 
d="M503 256q0 -58 -14 -107t-42.5 -85t-72 -56t-101.5 -20q-67 0 -117 26l-45 -67l-60 39l49 73q-57 67 -57 185q0 57 14.5 106t43.5 85t72 56t100 20q68 0 116 -27l47 68l60 -38l-52 -75q59 -68 59 -183zM325 389q-18 23 -52 23q-27 0 -43.5 -15.5t-26 -39.5t-12.5 -52
t-3 -53q0 -14 1 -29t3 -30zM358 259q0 22 -3 48l-133 -196q19 -24 52 -24q30 0 47 19t25 46t10 56.5t2 50.5z" />
    <glyph glyph-name="ugrave" unicode="&#xf9;" horiz-adv-x="561" 
d="M230 571l-114 132h142l71 -132h-99zM360 0l-5 69q-32 -37 -72.5 -59t-86.5 -22q-44 0 -69 16.5t-38.5 43.5t-17 60.5t-3.5 67.5v324h143v-317q0 -14 2 -29t7.5 -27t16 -20t28.5 -8q23 0 45 14t40 34v353h143v-500h-133z" />
    <glyph glyph-name="uacute" unicode="&#xfa;" horiz-adv-x="561" 
d="M329 571h-99l71 132h142zM360 0l-5 69q-32 -37 -72.5 -59t-86.5 -22q-44 0 -69 16.5t-38.5 43.5t-17 60.5t-3.5 67.5v324h143v-317q0 -14 2 -29t7.5 -27t16 -20t28.5 -8q23 0 45 14t40 34v353h143v-500h-133z" />
    <glyph glyph-name="ucircumflex" unicode="&#xfb;" horiz-adv-x="561" 
d="M334 571l-53 66l-56 -66h-114l106 132h130l104 -132h-117zM360 0l-5 69q-32 -37 -72.5 -59t-86.5 -22q-44 0 -69 16.5t-38.5 43.5t-17 60.5t-3.5 67.5v324h143v-317q0 -14 2 -29t7.5 -27t16 -20t28.5 -8q23 0 45 14t40 34v353h143v-500h-133z" />
    <glyph glyph-name="udieresis" unicode="&#xfc;" horiz-adv-x="561" 
d="M456 634q0 -33 -20.5 -51t-51.5 -18t-51.5 18t-20.5 51t20.5 51t51.5 18t51.5 -18t20.5 -51zM249 634q0 -33 -20.5 -51t-51.5 -18t-51.5 18t-20.5 51t20.5 51t51.5 18t51.5 -18t20.5 -51zM360 0l-5 69q-32 -37 -72.5 -59t-86.5 -22q-44 0 -69 16.5t-38.5 43.5t-17 60.5
t-3.5 67.5v324h143v-317q0 -14 2 -29t7.5 -27t16 -20t28.5 -8q23 0 45 14t40 34v353h143v-500h-133z" />
    <glyph glyph-name="yacute" unicode="&#xfd;" horiz-adv-x="485" 
d="M299 571h-99l71 132h142zM318 9q-13 -41 -27.5 -76.5t-37 -62t-56 -42t-83.5 -15.5q-21 0 -43 2.5t-36 6.5v98q9 -2 24 -3t29 -1q43 0 62.5 21t32.5 60l-173 503h150l90 -344l83 344h142z" />
    <glyph glyph-name="thorn" unicode="&#xfe;" horiz-adv-x="563" 
d="M520 261q0 -51 -9.5 -100t-31.5 -87.5t-58 -62t-90 -23.5q-36 0 -66.5 11.5t-53.5 36.5v-215h-143v882h143v-259q26 31 59 49t75 18q49 0 82.5 -24t54 -60.5t29.5 -81t9 -84.5zM374 256q0 20 -2.5 45.5t-10.5 48.5t-23.5 38.5t-41.5 15.5q-25 0 -47 -15.5t-38 -35.5v-223
q15 -17 36 -30t42 -13q28 0 44.5 17t25.5 42t12 54.5t3 55.5z" />
    <glyph glyph-name="ydieresis" unicode="&#xff;" horiz-adv-x="485" 
d="M418 634q0 -33 -20.5 -51t-51.5 -18t-51.5 18t-20.5 51t20.5 51t51.5 18t51.5 -18t20.5 -51zM211 634q0 -33 -20.5 -51t-51.5 -18t-51.5 18t-20.5 51t20.5 51t51.5 18t51.5 -18t20.5 -51zM318 9q-13 -41 -27.5 -76.5t-37 -62t-56 -42t-83.5 -15.5q-21 0 -43 2.5t-36 6.5
v98q9 -2 24 -3t29 -1q43 0 62.5 21t32.5 60l-173 503h150l90 -344l83 344h142z" />
    <glyph glyph-name="Amacron" unicode="&#x100;" horiz-adv-x="611" 
d="M444 0l-41 170h-199l-42 -170h-147l197 703h191l193 -703h-152zM305 580l-75 -303h148zM160 752v84h294v-84h-294z" />
    <glyph glyph-name="amacron" unicode="&#x101;" horiz-adv-x="549" 
d="M356 0l-8 47q-33 -29 -68.5 -44t-80.5 -15q-32 0 -60.5 7.5t-49.5 24t-33.5 42.5t-12.5 63q0 55 31 90t76.5 56.5t97.5 33t93 19.5v17q0 38 -14 56t-53 18q-59 0 -74 -60l-136 20q8 38 27.5 64.5t47.5 42.5t63 23t74 7q50 0 89 -9t65.5 -30.5t40 -56.5t13.5 -87v-201
q0 -40 2.5 -74t6.5 -54h-137zM341 238q-26 -7 -53 -14t-49.5 -18t-37 -27.5t-14.5 -42.5t16.5 -40t41.5 -14q28 0 52.5 14.5t43.5 31.5v110zM129 594v84h294v-84h-294z" />
    <glyph glyph-name="Abreve" unicode="&#x102;" horiz-adv-x="611" 
d="M444 0l-41 170h-199l-42 -170h-147l197 703h191l193 -703h-152zM305 580l-75 -303h148zM454 881q-2 -64 -41 -103.5t-105 -39.5t-106 39.5t-42 103.5h65q5 -30 26.5 -46.5t55.5 -16.5t55.5 16.5t26.5 46.5h65z" />
    <glyph glyph-name="abreve" unicode="&#x103;" horiz-adv-x="549" 
d="M356 0l-8 47q-33 -29 -68.5 -44t-80.5 -15q-32 0 -60.5 7.5t-49.5 24t-33.5 42.5t-12.5 63q0 55 31 90t76.5 56.5t97.5 33t93 19.5v17q0 38 -14 56t-53 18q-59 0 -74 -60l-136 20q8 38 27.5 64.5t47.5 42.5t63 23t74 7q50 0 89 -9t65.5 -30.5t40 -56.5t13.5 -87v-201
q0 -40 2.5 -74t6.5 -54h-137zM341 238q-26 -7 -53 -14t-49.5 -18t-37 -27.5t-14.5 -42.5t16.5 -40t41.5 -14q28 0 52.5 14.5t43.5 31.5v110zM423 714q-2 -64 -41 -103.5t-105 -39.5t-106 39.5t-42 103.5h65q5 -30 26.5 -46.5t55.5 -16.5t55.5 16.5t26.5 46.5h65z" />
    <glyph glyph-name="Aogonek" unicode="&#x104;" horiz-adv-x="611" 
d="M596 0q-15 -2 -30.5 -9t-28 -18.5t-20.5 -26t-8 -31.5q0 -37 33 -37q13 0 27.5 4.5t26.5 10.5v-65q-13 -8 -32 -12.5t-37 -4.5q-20 0 -37.5 5t-31 16t-21.5 28t-8 42q0 31 17.5 56.5t43.5 41.5h-46l-41 170h-199l-42 -170h-147l197 703h191zM305 580l-75 -303h148z" />
    <glyph glyph-name="aogonek" unicode="&#x105;" horiz-adv-x="549" 
d="M493 0q-19 -1 -36 -8.5t-30.5 -19t-21.5 -26.5t-8 -31q0 -37 33 -37q13 0 27.5 4.5t26.5 10.5v-65q-13 -8 -32 -12.5t-37 -4.5q-20 0 -37.5 5t-31 16t-21.5 28t-8 42q0 31 17.5 56.5t43.5 41.5h-22l-8 47q-33 -29 -68.5 -44t-80.5 -15q-32 0 -60.5 7.5t-49.5 24
t-33.5 42.5t-12.5 63q0 55 31 90t76.5 56.5t97.5 33t93 19.5v17q0 38 -14 56t-53 18q-59 0 -74 -60l-136 20q8 38 27.5 64.5t47.5 42.5t63 23t74 7q50 0 89 -9t65.5 -30.5t40 -56.5t13.5 -87v-201q0 -40 2.5 -74t6.5 -54zM341 238q-26 -6 -53 -13.5t-49.5 -18.5t-37 -28
t-14.5 -42q0 -26 16.5 -40t41.5 -14q28 0 52.5 14.5t43.5 31.5v110z" />
    <glyph glyph-name="Cacute" unicode="&#x106;" horiz-adv-x="649" 
d="M621 225q-17 -114 -87 -175.5t-188 -61.5q-82 0 -138 29.5t-90.5 79.5t-49.5 115t-15 137q0 73 16 139.5t51.5 117.5t92 81t138.5 30q113 0 176 -58t88 -164l-153 -26q-3 25 -9.5 50.5t-19 45.5t-32.5 33t-51 13q-36 0 -61.5 -19t-41.5 -55t-23 -86.5t-7 -113.5
q0 -55 7 -99.5t22.5 -76.5t39.5 -49.5t59 -17.5q31 0 53.5 14t36.5 36t22 49t11 53zM389 738h-99l61 112h152z" />
    <glyph glyph-name="cacute" unicode="&#x107;" horiz-adv-x="496" 
d="M478 159q-14 -88 -68 -129.5t-142 -41.5q-59 0 -101 18.5t-70 52.5t-41 81.5t-13 105.5q0 54 14.5 102.5t44 85t73 57.5t102.5 21q82 0 133.5 -42.5t65.5 -124.5l-124 -20q-2 16 -7 31.5t-13.5 28t-22 20t-31.5 7.5q-29 0 -46 -18t-26 -43.5t-12 -53.5t-3 -49t2.5 -48.5
t11 -52t25.5 -42t46 -17.5q20 0 34 7.5t23 19.5t14.5 28t9.5 33zM320 571h-99l71 132h142z" />
    <glyph glyph-name="Ccircumflex" unicode="&#x108;" horiz-adv-x="649" 
d="M621 225q-17 -114 -87 -175.5t-188 -61.5q-82 0 -138 29.5t-90.5 79.5t-49.5 115t-15 137q0 73 16 139.5t51.5 117.5t92 81t138.5 30q113 0 176 -58t88 -164l-153 -26q-3 25 -9.5 50.5t-19 45.5t-32.5 33t-51 13q-36 0 -61.5 -19t-41.5 -55t-23 -86.5t-7 -113.5
q0 -55 7 -99.5t22.5 -76.5t39.5 -49.5t59 -17.5q31 0 53.5 14t36.5 36t22 49t11 53zM398 738l-53 56l-56 -56h-114l101 112h140l99 -112h-117z" />
    <glyph glyph-name="ccircumflex" unicode="&#x109;" horiz-adv-x="496" 
d="M478 159q-14 -88 -68 -129.5t-142 -41.5q-59 0 -101 18.5t-70 52.5t-41 81.5t-13 105.5q0 54 14.5 102.5t44 85t73 57.5t102.5 21q82 0 133.5 -42.5t65.5 -124.5l-124 -20q-2 16 -7 31.5t-13.5 28t-22 20t-31.5 7.5q-29 0 -46 -18t-26 -43.5t-12 -53.5t-3 -49t2.5 -48.5
t11 -52t25.5 -42t46 -17.5q20 0 34 7.5t23 19.5t14.5 28t9.5 33zM330 571l-53 66l-56 -66h-114l106 132h130l104 -132h-117z" />
    <glyph glyph-name="Cdotaccent" unicode="&#x10a;" horiz-adv-x="649" 
d="M621 225q-17 -114 -87 -175.5t-188 -61.5q-82 0 -138 29.5t-90.5 79.5t-49.5 115t-15 137q0 73 16 139.5t51.5 117.5t92 81t138.5 30q113 0 176 -58t88 -164l-153 -26q-3 25 -9.5 50.5t-19 45.5t-32.5 33t-51 13q-36 0 -61.5 -19t-41.5 -55t-23 -86.5t-7 -113.5
q0 -55 7 -99.5t22.5 -76.5t39.5 -49.5t59 -17.5q31 0 53.5 14t36.5 36t22 49t11 53zM417 807q0 -33 -20.5 -51t-51.5 -18t-51.5 18t-20.5 51t20.5 51t51.5 18t51.5 -18t20.5 -51z" />
    <glyph glyph-name="cdotaccent" unicode="&#x10b;" horiz-adv-x="496" 
d="M478 159q-14 -88 -68 -129.5t-142 -41.5q-59 0 -101 18.5t-70 52.5t-41 81.5t-13 105.5q0 54 14.5 102.5t44 85t73 57.5t102.5 21q82 0 133.5 -42.5t65.5 -124.5l-124 -20q-2 16 -7 31.5t-13.5 28t-22 20t-31.5 7.5q-29 0 -46 -18t-26 -43.5t-12 -53.5t-3 -49t2.5 -48.5
t11 -52t25.5 -42t46 -17.5q20 0 34 7.5t23 19.5t14.5 28t9.5 33zM357 636q0 -37 -23 -57t-57 -20t-57 20t-23 57t23 57t57 20t57 -20t23 -57z" />
    <glyph glyph-name="Ccaron" unicode="&#x10c;" horiz-adv-x="649" 
d="M621 225q-17 -114 -87 -175.5t-188 -61.5q-82 0 -138 29.5t-90.5 79.5t-49.5 115t-15 137q0 73 16 139.5t51.5 117.5t92 81t138.5 30q113 0 176 -58t88 -164l-153 -26q-3 25 -9.5 50.5t-19 45.5t-32.5 33t-51 13q-36 0 -61.5 -19t-41.5 -55t-23 -86.5t-7 -113.5
q0 -55 7 -99.5t22.5 -76.5t39.5 -49.5t59 -17.5q31 0 53.5 14t36.5 36t22 49t11 53zM415 738h-140l-99 112h117l53 -56l56 56h114z" />
    <glyph glyph-name="ccaron" unicode="&#x10d;" horiz-adv-x="496" 
d="M478 159q-14 -88 -68 -129.5t-142 -41.5q-59 0 -101 18.5t-70 52.5t-41 81.5t-13 105.5q0 54 14.5 102.5t44 85t73 57.5t102.5 21q82 0 133.5 -42.5t65.5 -124.5l-124 -20q-2 16 -7 31.5t-13.5 28t-22 20t-31.5 7.5q-29 0 -46 -18t-26 -43.5t-12 -53.5t-3 -49t2.5 -48.5
t11 -52t25.5 -42t46 -17.5q20 0 34 7.5t23 19.5t14.5 28t9.5 33zM341 571h-130l-106 132h114l56 -66l53 66h117z" />
    <glyph glyph-name="Dcaron" unicode="&#x10e;" horiz-adv-x="670" 
d="M617 354q0 -170 -81 -262t-253 -92h-205v703h196q178 0 260.5 -86t82.5 -263zM457 354q0 48 -5.5 91t-24 76t-53 52.5t-92.5 19.5h-52v-483h37q61 0 98.5 17.5t58 50t27 77.5t6.5 99zM386 738h-140l-99 112h117l53 -56l56 56h114z" />
    <glyph glyph-name="dcaron" unicode="&#x10f;" horiz-adv-x="650" 
d="M371 0l-8 53q-29 -32 -61.5 -48.5t-75.5 -16.5q-51 0 -85.5 22t-56.5 58t-31.5 83.5t-9.5 98.5q0 45 10 91.5t32.5 84t57.5 61.5t86 24q38 0 70 -17t53 -46v255h143v-570q0 -12 1 -29.5t2.5 -37t3 -37t2.5 -29.5h-133zM352 355q-16 21 -36 34t-45 13t-41 -15t-25.5 -37.5
t-13 -49t-3.5 -49.5q0 -24 3 -52.5t12 -53t25 -41t42 -16.5q24 0 46 15t36 35v217zM673 622q0 -33 -10 -61t-26 -51t-36 -43t-39 -36l-44 33q22 23 38.5 45.5t16.5 50.5q0 10 -6 17.5t-13 15.5t-13 18t-6 25q0 31 19 50.5t49 19.5q19 0 32.5 -7t21.5 -19t12 -27t4 -31z" />
    <glyph glyph-name="Dcroat" unicode="&#x110;" horiz-adv-x="670" 
d="M617 354q0 -170 -81 -262t-253 -92h-205v301h-58v117h58v285h196q178 0 260.5 -86t82.5 -263zM457 354q0 48 -5.5 91t-24 76t-53 52.5t-92.5 19.5h-52v-175h165v-117h-165v-191h37q61 0 98.5 17.5t58 50t27 77.5t6.5 99z" />
    <glyph glyph-name="dcroat" unicode="&#x111;" horiz-adv-x="563" 
d="M495 537v-404q0 -12 1 -29.5t2.5 -37t3 -37t2.5 -29.5h-133l-8 53q-29 -32 -61.5 -48.5t-75.5 -16.5q-51 0 -85.5 22t-56.5 58t-31.5 83.5t-9.5 98.5q0 45 10 91.5t32.5 84t57.5 61.5t86 24q38 0 70 -17t53 -46v89h-106v93h106v73h143v-73h50v-93h-50zM352 355
q-16 21 -36 34t-45 13t-41 -15t-25.5 -37.5t-13 -49t-3.5 -49.5q0 -24 3 -52.5t12 -53t25 -41t42 -16.5q24 0 46 15t36 35v217z" />
    <glyph glyph-name="Emacron" unicode="&#x112;" horiz-adv-x="554" 
d="M78 0v703h423v-116h-271v-169h225v-117h-225v-185h281v-116h-433zM142 752v84h294v-84h-294z" />
    <glyph glyph-name="emacron" unicode="&#x113;" horiz-adv-x="528" 
d="M485 254q0 -8 -0.5 -15t-1.5 -15h-296v-6q0 -24 4 -48t14 -43.5t27 -31.5t43 -12q34 0 53 20.5t30 54.5l125 -14q-18 -81 -74 -118.5t-137 -37.5q-115 0 -172 66t-57 189q0 57 13.5 106t41.5 85t70.5 56.5t101.5 20.5q58 0 99 -20.5t66.5 -56t37.5 -82t12 -98.5zM352 303
q0 21 -4 42t-13.5 37.5t-25 26.5t-38.5 10t-38 -10t-25 -26.5t-14.5 -37t-5.5 -42.5h164zM120 594v84h294v-84h-294z" />
    <glyph glyph-name="Ebreve" unicode="&#x114;" horiz-adv-x="554" 
d="M78 0v703h423v-116h-271v-169h225v-117h-225v-185h281v-116h-433zM436 881q-2 -64 -41 -103.5t-105 -39.5t-106 39.5t-42 103.5h65q5 -30 26.5 -46.5t55.5 -16.5t55.5 16.5t26.5 46.5h65z" />
    <glyph glyph-name="ebreve" unicode="&#x115;" horiz-adv-x="528" 
d="M485 254q0 -8 -0.5 -15t-1.5 -15h-296v-6q0 -24 4 -48t14 -43.5t27 -31.5t43 -12q34 0 53 20.5t30 54.5l125 -14q-18 -81 -74 -118.5t-137 -37.5q-115 0 -172 66t-57 189q0 57 13.5 106t41.5 85t70.5 56.5t101.5 20.5q58 0 99 -20.5t66.5 -56t37.5 -82t12 -98.5zM352 303
q0 21 -4 42t-13.5 37.5t-25 26.5t-38.5 10t-38 -10t-25 -26.5t-14.5 -37t-5.5 -42.5h164zM414 714q-2 -64 -41 -103.5t-105 -39.5t-106 39.5t-42 103.5h65q5 -30 26.5 -46.5t55.5 -16.5t55.5 16.5t26.5 46.5h65z" />
    <glyph glyph-name="Edotaccent" unicode="&#x116;" horiz-adv-x="554" 
d="M78 0v703h423v-116h-271v-169h225v-117h-225v-185h281v-116h-433zM361 807q0 -33 -20.5 -51t-51.5 -18t-51.5 18t-20.5 51t20.5 51t51.5 18t51.5 -18t20.5 -51z" />
    <glyph glyph-name="edotaccent" unicode="&#x117;" horiz-adv-x="528" 
d="M485 254q0 -8 -0.5 -15t-1.5 -15h-296v-6q0 -24 4 -48t14 -43.5t27 -31.5t43 -12q34 0 53 20.5t30 54.5l125 -14q-18 -81 -74 -118.5t-137 -37.5q-115 0 -172 66t-57 189q0 57 13.5 106t41.5 85t70.5 56.5t101.5 20.5q58 0 99 -20.5t66.5 -56t37.5 -82t12 -98.5zM352 303
q0 21 -4 42t-13.5 37.5t-25 26.5t-38.5 10t-38 -10t-25 -26.5t-14.5 -37t-5.5 -42.5h164zM347 636q0 -37 -23 -57t-57 -20t-57 20t-23 57t23 57t57 20t57 -20t23 -57z" />
    <glyph glyph-name="Eogonek" unicode="&#x118;" horiz-adv-x="554" 
d="M511 0q-15 -2 -30.5 -9t-28 -18.5t-20.5 -26t-8 -31.5q0 -37 33 -37q13 0 27.5 4.5t26.5 10.5v-65q-13 -8 -32 -12.5t-37 -4.5q-20 0 -37.5 5t-31 16t-21.5 28t-8 42q0 31 17.5 56.5t43.5 41.5h-327v703h423v-116h-271v-169h225v-117h-225v-185h281v-116z" />
    <glyph glyph-name="eogonek" unicode="&#x119;" horiz-adv-x="528" 
d="M382 -172q-13 -8 -32 -12.5t-37 -4.5q-20 0 -37.5 5t-31 16t-21.5 28t-8 42q0 26 12 48t32 38q-108 4 -162 69.5t-54 185.5q0 57 13.5 106t41.5 85t70.5 56.5t101.5 20.5q58 0 99 -20.5t66.5 -56t37.5 -82t12 -98.5q0 -8 -0.5 -15t-1.5 -15h-296v-6q0 -24 4 -48t14 -43.5
t27 -31.5t43 -12q34 0 53 20.5t30 54.5l125 -14q-11 -49 -37.5 -82.5t-81.5 -58.5q-28 -13 -48.5 -36t-20.5 -52q0 -37 33 -37q13 0 27.5 4.5t26.5 10.5v-65zM352 303q0 21 -4 42t-13.5 37.5t-25 26.5t-38.5 10t-38 -10t-25 -26.5t-14.5 -37t-5.5 -42.5h164z" />
    <glyph glyph-name="Ecaron" unicode="&#x11a;" horiz-adv-x="554" 
d="M78 0v703h423v-116h-271v-169h225v-117h-225v-185h281v-116h-433zM359 738h-140l-99 112h117l53 -56l56 56h114z" />
    <glyph glyph-name="ecaron" unicode="&#x11b;" horiz-adv-x="528" 
d="M485 254q0 -8 -0.5 -15t-1.5 -15h-296v-6q0 -24 4 -48t14 -43.5t27 -31.5t43 -12q34 0 53 20.5t30 54.5l125 -14q-18 -81 -74 -118.5t-137 -37.5q-115 0 -172 66t-57 189q0 57 13.5 106t41.5 85t70.5 56.5t101.5 20.5q58 0 99 -20.5t66.5 -56t37.5 -82t12 -98.5zM352 303
q0 21 -4 42t-13.5 37.5t-25 26.5t-38.5 10t-38 -10t-25 -26.5t-14.5 -37t-5.5 -42.5h164zM331 571h-130l-106 132h114l56 -66l53 66h117z" />
    <glyph glyph-name="Gcircumflex" unicode="&#x11c;" horiz-adv-x="676" 
d="M500 0l-9 67q-24 -39 -67.5 -59t-101.5 -20q-133 0 -201 94.5t-68 264.5q0 71 16.5 138t51.5 118.5t91 82.5t136 31q110 0 169 -55t81 -156l-139 -26q-8 64 -35.5 99t-73.5 35t-72.5 -29.5t-40 -71.5t-17.5 -88.5t-4 -80.5q0 -35 2.5 -78.5t15 -81t39 -63t74.5 -25.5
q34 0 56 13t34.5 34.5t17 48.5t4.5 56h-113v109h252v-357h-98zM398 738l-53 56l-56 -56h-114l101 112h140l99 -112h-117z" />
    <glyph glyph-name="gcircumflex" unicode="&#x11d;" horiz-adv-x="502" 
d="M505 422q-16 0 -31.5 -2.5t-32.5 -6.5q16 -31 16 -73q0 -43 -17.5 -75t-47 -53.5t-66.5 -32t-76 -10.5q-29 0 -56 6q-7 -7 -12.5 -15t-5.5 -16q0 -17 13 -21.5t24 -6.5l148 -16q24 -3 49 -10t45.5 -21t33.5 -37t13 -58q0 -47 -18 -78.5t-51.5 -51t-81 -27.5t-106.5 -8
q-42 0 -81.5 4.5t-70.5 16.5t-50 34t-19 57t21.5 60.5t47.5 42.5q-18 10 -30 26t-12 42q0 18 7 34t19 29t26.5 23.5t29.5 17.5q-39 20 -64.5 56t-25.5 88q0 43 17.5 75t47 53.5t66.5 32t76 10.5q37 0 72.5 -9t64.5 -29q23 25 53.5 34.5t64.5 9.5v-95zM322 340q0 36 -16.5 61
t-55.5 25t-55.5 -25t-16.5 -61t16.5 -61t55.5 -25t55.5 25t16.5 61zM369 -48q0 22 -16 27.5t-35 7.5l-150 17q-10 -11 -18.5 -24.5t-8.5 -27.5q0 -21 13 -33t31.5 -17.5t38.5 -6.5t34 -1q22 0 42 3.5t35.5 10.5t24.5 18t9 26zM305 571l-53 66l-56 -66h-114l106 132h130
l104 -132h-117z" />
    <glyph glyph-name="Gbreve" unicode="&#x11e;" horiz-adv-x="676" 
d="M500 0l-9 67q-24 -39 -67.5 -59t-101.5 -20q-133 0 -201 94.5t-68 264.5q0 71 16.5 138t51.5 118.5t91 82.5t136 31q110 0 169 -55t81 -156l-139 -26q-8 64 -35.5 99t-73.5 35t-72.5 -29.5t-40 -71.5t-17.5 -88.5t-4 -80.5q0 -35 2.5 -78.5t15 -81t39 -63t74.5 -25.5
q34 0 56 13t34.5 34.5t17 48.5t4.5 56h-113v109h252v-357h-98zM492 881q-2 -64 -41 -103.5t-105 -39.5t-106 39.5t-42 103.5h65q5 -30 26.5 -46.5t55.5 -16.5t55.5 16.5t26.5 46.5h65z" />
    <glyph glyph-name="gbreve" unicode="&#x11f;" horiz-adv-x="502" 
d="M505 422q-16 0 -31.5 -2.5t-32.5 -6.5q16 -31 16 -73q0 -43 -17.5 -75t-47 -53.5t-66.5 -32t-76 -10.5q-29 0 -56 6q-7 -7 -12.5 -15t-5.5 -16q0 -17 13 -21.5t24 -6.5l148 -16q24 -3 49 -10t45.5 -21t33.5 -37t13 -58q0 -47 -18 -78.5t-51.5 -51t-81 -27.5t-106.5 -8
q-42 0 -81.5 4.5t-70.5 16.5t-50 34t-19 57t21.5 60.5t47.5 42.5q-18 10 -30 26t-12 42q0 18 7 34t19 29t26.5 23.5t29.5 17.5q-39 20 -64.5 56t-25.5 88q0 43 17.5 75t47 53.5t66.5 32t76 10.5q37 0 72.5 -9t64.5 -29q23 25 53.5 34.5t64.5 9.5v-95zM322 340q0 36 -16.5 61
t-55.5 25t-55.5 -25t-16.5 -61t16.5 -61t55.5 -25t55.5 25t16.5 61zM369 -48q0 22 -16 27.5t-35 7.5l-150 17q-10 -11 -18.5 -24.5t-8.5 -27.5q0 -21 13 -33t31.5 -17.5t38.5 -6.5t34 -1q22 0 42 3.5t35.5 10.5t24.5 18t9 26zM399 714q-2 -64 -41 -103.5t-105 -39.5
t-106 39.5t-42 103.5h65q5 -30 26.5 -46.5t55.5 -16.5t55.5 16.5t26.5 46.5h65z" />
    <glyph glyph-name="Gdotaccent" unicode="&#x120;" horiz-adv-x="676" 
d="M500 0l-9 67q-24 -39 -67.5 -59t-101.5 -20q-133 0 -201 94.5t-68 264.5q0 71 16.5 138t51.5 118.5t91 82.5t136 31q110 0 169 -55t81 -156l-139 -26q-8 64 -35.5 99t-73.5 35t-72.5 -29.5t-40 -71.5t-17.5 -88.5t-4 -80.5q0 -35 2.5 -78.5t15 -81t39 -63t74.5 -25.5
q34 0 56 13t34.5 34.5t17 48.5t4.5 56h-113v109h252v-357h-98zM417 807q0 -33 -20.5 -51t-51.5 -18t-51.5 18t-20.5 51t20.5 51t51.5 18t51.5 -18t20.5 -51z" />
    <glyph glyph-name="gdotaccent" unicode="&#x121;" horiz-adv-x="502" 
d="M505 422q-16 0 -31.5 -2.5t-32.5 -6.5q16 -31 16 -73q0 -43 -17.5 -75t-47 -53.5t-66.5 -32t-76 -10.5q-29 0 -56 6q-7 -7 -12.5 -15t-5.5 -16q0 -17 13 -21.5t24 -6.5l148 -16q24 -3 49 -10t45.5 -21t33.5 -37t13 -58q0 -47 -18 -78.5t-51.5 -51t-81 -27.5t-106.5 -8
q-42 0 -81.5 4.5t-70.5 16.5t-50 34t-19 57t21.5 60.5t47.5 42.5q-18 10 -30 26t-12 42q0 18 7 34t19 29t26.5 23.5t29.5 17.5q-39 20 -64.5 56t-25.5 88q0 43 17.5 75t47 53.5t66.5 32t76 10.5q37 0 72.5 -9t64.5 -29q23 25 53.5 34.5t64.5 9.5v-95zM322 340q0 36 -16.5 61
t-55.5 25t-55.5 -25t-16.5 -61t16.5 -61t55.5 -25t55.5 25t16.5 61zM369 -48q0 22 -16 27.5t-35 7.5l-150 17q-10 -11 -18.5 -24.5t-8.5 -27.5q0 -21 13 -33t31.5 -17.5t38.5 -6.5t34 -1q22 0 42 3.5t35.5 10.5t24.5 18t9 26zM332 636q0 -37 -23 -57t-57 -20t-57 20t-23 57
t23 57t57 20t57 -20t23 -57z" />
    <glyph glyph-name="Gcommaaccent" unicode="&#x122;" horiz-adv-x="676" 
d="M500 0l-9 67q-24 -39 -67.5 -59t-101.5 -20q-133 0 -201 94.5t-68 264.5q0 71 16.5 138t51.5 118.5t91 82.5t136 31q110 0 169 -55t81 -156l-139 -26q-8 64 -35.5 99t-73.5 35t-72.5 -29.5t-40 -71.5t-17.5 -88.5t-4 -80.5q0 -35 2.5 -78.5t15 -81t39 -63t74.5 -25.5
q34 0 56 13t34.5 34.5t17 48.5t4.5 56h-113v109h252v-357h-98zM392 -99q0 -30 -8.5 -55t-23 -46.5t-32.5 -40t-37 -34.5l-44 33q22 21 33.5 40.5t11.5 42.5q0 9 -6 16t-13 15t-13 18t-6 25q0 29 19 47t49 18q37 0 53.5 -23.5t16.5 -55.5z" />
    <glyph glyph-name="gcommaaccent" unicode="&#x123;" horiz-adv-x="502" 
d="M505 422q-16 0 -31.5 -2.5t-32.5 -6.5q16 -31 16 -73q0 -43 -17.5 -75t-47 -53.5t-66.5 -32t-76 -10.5q-29 0 -56 6q-7 -7 -12.5 -15t-5.5 -16q0 -17 13 -21.5t24 -6.5l148 -16q24 -3 49 -10t45.5 -21t33.5 -37t13 -58q0 -47 -18 -78.5t-51.5 -51t-81 -27.5t-106.5 -8
q-42 0 -81.5 4.5t-70.5 16.5t-50 34t-19 57t21.5 60.5t47.5 42.5q-18 10 -30 26t-12 42q0 18 7 34t19 29t26.5 23.5t29.5 17.5q-39 20 -64.5 56t-25.5 88q0 43 17.5 75t47 53.5t66.5 32t76 10.5q37 0 72.5 -9t64.5 -29q23 25 53.5 34.5t64.5 9.5v-95zM322 340q0 36 -16.5 61
t-55.5 25t-55.5 -25t-16.5 -61t16.5 -61t55.5 -25t55.5 25t16.5 61zM369 -48q0 22 -16 27.5t-35 7.5l-150 17q-10 -11 -18.5 -24.5t-8.5 -27.5q0 -21 13 -33t31.5 -17.5t38.5 -6.5t34 -1q22 0 42 3.5t35.5 10.5t24.5 18t9 26zM338 800q-22 -23 -38.5 -45.5t-16.5 -50.5
q0 -10 6 -17.5t13 -15.5t13 -18t6 -25q0 -31 -19 -50.5t-49 -19.5q-19 0 -32.5 7t-21.5 19t-12 27t-4 31q0 34 10 61.5t26 50.5t36 42.5t39 36.5z" />
    <glyph glyph-name="Hcircumflex" unicode="&#x124;" horiz-adv-x="677" 
d="M447 0v302h-217v-302h-152v703h152v-286h217v286h152v-703h-152zM391 738l-53 56l-56 -56h-114l101 112h140l99 -112h-117z" />
    <glyph glyph-name="hcircumflex" unicode="&#x125;" horiz-adv-x="561" 
d="M350 0v324q0 14 -2.5 28t-8.5 24.5t-17 17t-28 6.5q-24 0 -46 -15.5t-37 -33.5v-351h-143v703h143v-269q28 34 67 55.5t84 21.5q43 0 69 -15.5t40 -41.5t18 -59.5t4 -68.5v-326h-143zM312 771l-53 66l-56 -66h-114l106 132h130l104 -132h-117z" />
    <glyph glyph-name="Hbar" unicode="&#x126;" horiz-adv-x="677" 
d="M599 503v-503h-152v302h-217v-302h-152v503h-50v103h50v97h152v-97h217v97h152v-97h50v-103h-50zM447 503h-217v-86h217v86z" />
    <glyph glyph-name="hbar" unicode="&#x127;" horiz-adv-x="561" 
d="M350 0v324q0 14 -2.5 28t-8.5 24.5t-17 17t-28 6.5q-24 0 -46 -15.5t-37 -33.5v-351h-143v537h-50v93h50v73h143v-73h106v-93h-106v-103q28 34 67 55.5t84 21.5q43 0 69 -15.5t40 -41.5t18 -59.5t4 -68.5v-326h-143z" />
    <glyph glyph-name="Itilde" unicode="&#x128;" horiz-adv-x="308" 
d="M78 0v703h152v-703h-152zM311 850q-4 -60 -28 -86t-70 -26q-17 0 -32 5.5t-29.5 12.5t-27.5 12.5t-26 5.5q-26 0 -31 -36h-69q0 21 5.5 41.5t17.5 36t30 25t44 9.5q17 0 33 -5.5t31 -12.5t29 -12.5t27 -5.5q16 0 21.5 10t7.5 26h67z" />
    <glyph glyph-name="itilde" unicode="&#x129;" horiz-adv-x="279" 
d="M68 0v500h143v-500h-143zM301 703q-4 -60 -28 -95t-70 -35q-17 0 -34 5.5t-33 12.5t-30.5 12.5t-27.5 5.5q-27 0 -31 -34h-69q0 57 28 92q27 36 69 36q17 0 34.5 -5.5t34.5 -12.5t32.5 -12.5t28.5 -5.5q16 0 21.5 10t7.5 26h67z" />
    <glyph glyph-name="Imacron" unicode="&#x12a;" horiz-adv-x="308" 
d="M78 0v703h152v-703h-152zM7 752v84h294v-84h-294z" />
    <glyph glyph-name="imacron" unicode="&#x12b;" horiz-adv-x="279" 
d="M68 0v500h143v-500h-143zM-8 594v84h294v-84h-294z" />
    <glyph glyph-name="Iogonek" unicode="&#x12e;" horiz-adv-x="308" 
d="M230 0q-15 -2 -30.5 -9t-28 -18.5t-20.5 -26t-8 -31.5q0 -37 33 -37q13 0 27.5 4.5t26.5 10.5v-65q-13 -8 -32 -12.5t-37 -4.5q-20 0 -37.5 5t-31 16t-21.5 28t-8 42q0 31 17.5 56.5t43.5 41.5h-46v703h152v-703z" />
    <glyph glyph-name="iogonek" unicode="&#x12f;" horiz-adv-x="279" 
d="M211 0q-15 -1 -31 -8.5t-29 -19t-21 -26.5t-8 -31q0 -37 33 -37q13 0 27.5 4.5t26.5 10.5v-65q-13 -8 -32 -12.5t-37 -4.5q-20 0 -37.5 5t-31 16t-21.5 28t-8 42q0 31 17.5 56.5t43.5 41.5h-35v500h143v-500zM220 636q0 -37 -23 -57t-57 -20t-57 20t-23 57t23 57t57 20
t57 -20t23 -57z" />
    <glyph glyph-name="Idotaccent" unicode="&#x130;" horiz-adv-x="308" 
d="M78 0v703h152v-703h-152zM226 807q0 -33 -20.5 -51t-51.5 -18t-51.5 18t-20.5 51t20.5 51t51.5 18t51.5 -18t20.5 -51z" />
    <glyph glyph-name="dotlessi" unicode="&#x131;" horiz-adv-x="279" 
d="M68 0v500h143v-500h-143z" />
    <glyph glyph-name="IJ" unicode="&#x132;" horiz-adv-x="814" 
d="M78 0v703h152v-703h-152zM736 223q0 -55 -11.5 -98.5t-37 -74t-67 -46.5t-100.5 -16q-85 0 -133.5 38.5t-68.5 120.5l139 30q3 -15 6.5 -29.5t10.5 -26.5t18.5 -19t29.5 -7q23 0 35.5 13.5t18.5 32.5t7 40.5t1 37.5v484h152v-480z" />
    <glyph glyph-name="ij" unicode="&#x133;" horiz-adv-x="558" 
d="M220 636q0 -37 -23 -57t-57 -20t-57 20t-23 57t23 57t57 20t57 -20t23 -57zM68 0v500h143v-500h-143zM499 636q0 -37 -23 -57t-57 -20t-57 20t-23 57t23 57t57 20t57 -20t23 -57zM491 1q0 -47 -6.5 -82.5t-25 -59.5t-51 -36t-84.5 -12q-17 0 -34 2t-31 5v101
q7 -1 13 -1.5t12 -0.5q40 0 52 21t12 63v499h143v-499z" />
    <glyph glyph-name="Jcircumflex" unicode="&#x134;" horiz-adv-x="506" 
d="M428 223q0 -55 -11.5 -98.5t-37 -74t-67 -46.5t-100.5 -16q-85 0 -133.5 38.5t-68.5 120.5l139 30q3 -15 6.5 -29.5t10.5 -26.5t18.5 -19t29.5 -7q23 0 35.5 13.5t18.5 32.5t7 40.5t1 37.5v484h152v-480zM405 738l-53 56l-56 -56h-114l101 112h140l99 -112h-117z" />
    <glyph glyph-name="jcircumflex" unicode="&#x135;" horiz-adv-x="279" 
d="M212 1q0 -47 -6.5 -82.5t-25 -59.5t-51 -36t-84.5 -12q-17 0 -34 2t-31 5v101q7 -1 13 -1.5t12 -0.5q40 0 52 21t12 63v499h143v-499zM193 571l-53 66l-56 -66h-114l106 132h130l104 -132h-117z" />
    <glyph glyph-name="Kcommaaccent" unicode="&#x136;" horiz-adv-x="611" 
d="M444 0l-161 304l-53 -70v-234h-152v703h152v-289l199 289h168l-213 -286l227 -417h-167zM414 -99q0 -30 -8.5 -55t-23 -46.5t-32.5 -40t-37 -34.5l-44 33q22 21 33.5 40.5t11.5 42.5q0 9 -6 16t-13 15t-13 18t-6 25q0 29 19 47t49 18q37 0 53.5 -23.5t16.5 -55.5z" />
    <glyph glyph-name="kcommaaccent" unicode="&#x137;" horiz-adv-x="512" 
d="M356 0l-104 207l-42 -53v-154h-143v703h143v-380l128 177h157l-149 -185l166 -315h-156zM349 -99q0 -30 -8.5 -55t-23 -46.5t-32.5 -40t-37 -34.5l-44 33q22 21 33.5 40.5t11.5 42.5q0 9 -6 16t-13 15t-13 18t-6 25q0 29 19 47t49 18q37 0 53.5 -23.5t16.5 -55.5z" />
    <glyph glyph-name="Lacute" unicode="&#x139;" horiz-adv-x="530" 
d="M78 0v703h152v-586h267v-117h-419zM198 738h-99l61 112h152z" />
    <glyph glyph-name="lacute" unicode="&#x13a;" horiz-adv-x="288" 
d="M274 0q-14 -3 -36 -6.5t-42 -3.5q-66 0 -97 30t-31 102v581h143v-561q0 -20 5 -34.5t28 -14.5q7 0 15 1t15 3v-97zM182 771h-99l71 132h142z" />
    <glyph glyph-name="Lcommaaccent" unicode="&#x13b;" horiz-adv-x="530" 
d="M78 0v703h152v-586h267v-117h-419zM357 -99q0 -30 -8.5 -55t-23 -46.5t-32.5 -40t-37 -34.5l-44 33q22 21 33.5 40.5t11.5 42.5q0 9 -6 16t-13 15t-13 18t-6 25q0 29 19 47t49 18q37 0 53.5 -23.5t16.5 -55.5z" />
    <glyph glyph-name="lcommaaccent" unicode="&#x13c;" horiz-adv-x="288" 
d="M274 0q-14 -3 -36 -6.5t-42 -3.5q-66 0 -97 30t-31 102v581h143v-561q0 -20 5 -34.5t28 -14.5q7 0 15 1t15 3v-97zM236 -99q0 -30 -8.5 -55t-23 -46.5t-32.5 -40t-37 -34.5l-44 33q22 21 33.5 40.5t11.5 42.5q0 9 -6 16t-13 15t-13 18t-6 25q0 29 19 47t49 18
q37 0 53.5 -23.5t16.5 -55.5z" />
    <glyph glyph-name="Lcaron" unicode="&#x13d;" horiz-adv-x="530" 
d="M78 0v703h152v-586h267v-117h-419zM404 619q0 -33 -10 -61t-26 -51t-36 -43t-39 -36l-44 33q22 23 38.5 45.5t16.5 50.5q0 10 -6 17.5t-13 15.5t-13 18t-6 25q0 31 19 50.5t49 19.5q19 0 32.5 -7t21.5 -19t12 -27t4 -31z" />
    <glyph glyph-name="lcaron" unicode="&#x13e;" horiz-adv-x="366" 
d="M274 0q-14 -3 -36 -6.5t-42 -3.5q-66 0 -97 30t-31 102v581h143v-561q0 -20 5 -34.5t28 -14.5q7 0 15 1t15 3v-97zM389 619q0 -33 -10 -61t-26 -51t-36 -43t-39 -36l-44 33q22 23 38.5 45.5t16.5 50.5q0 10 -6 17.5t-13 15.5t-13 18t-6 25q0 31 19 50.5t49 19.5
q19 0 32.5 -7t21.5 -19t12 -27t4 -31z" />
    <glyph glyph-name="Ldot" unicode="&#x13f;" horiz-adv-x="530" 
d="M78 0v703h152v-586h267v-117h-419zM456 396q0 -34 -22.5 -56.5t-56.5 -22.5t-56.5 22.5t-22.5 56.5t22.5 56.5t56.5 22.5t56.5 -22.5t22.5 -56.5z" />
    <glyph glyph-name="ldot" unicode="&#x140;" horiz-adv-x="424" 
d="M274 0q-14 -3 -36 -6.5t-42 -3.5q-66 0 -97 30t-31 102v581h143v-561q0 -20 5 -34.5t28 -14.5q7 0 15 1t15 3v-97zM424 326q0 -34 -22.5 -56.5t-56.5 -22.5t-56.5 22.5t-22.5 56.5t22.5 56.5t56.5 22.5t56.5 -22.5t22.5 -56.5z" />
    <glyph glyph-name="Lslash" unicode="&#x141;" horiz-adv-x="530" 
d="M78 0v213l-48 -25l-20 83l68 35v397h152v-318l197 102l20 -83l-217 -112v-175h267v-117h-419z" />
    <glyph glyph-name="lslash" unicode="&#x142;" horiz-adv-x="288" 
d="M211 367v-225q0 -20 5 -34.5t28 -14.5q7 0 15 1t15 3v-97q-14 -3 -36 -6.5t-42 -3.5q-66 0 -97 30t-31 102v171l-48 -25l-20 83l68 35v317h143v-243l52 27l20 -83z" />
    <glyph glyph-name="Nacute" unicode="&#x143;" horiz-adv-x="702" 
d="M468 0l-245 528v-528h-145v703h200l200 -434v434h146v-703h-156zM385 738h-99l61 112h152z" />
    <glyph glyph-name="nacute" unicode="&#x144;" horiz-adv-x="562" 
d="M351 0v326q0 13 -2 26.5t-8 24t-16.5 17t-26.5 6.5q-24 0 -46 -13.5t-41 -34.5v-352h-143v500h143v-64q29 33 68.5 54t84.5 21q43 0 68.5 -16t39 -42.5t18 -59.5t4.5 -67v-326h-143zM327 571h-99l71 132h142z" />
    <glyph glyph-name="Ncommaaccent" unicode="&#x145;" horiz-adv-x="702" 
d="M468 0l-245 528v-528h-145v703h200l200 -434v434h146v-703h-156zM431 -99q0 -30 -8.5 -55t-23 -46.5t-32.5 -40t-37 -34.5l-44 33q22 21 33.5 40.5t11.5 42.5q0 9 -6 16t-13 15t-13 18t-6 25q0 29 19 47t49 18q37 0 53.5 -23.5t16.5 -55.5z" />
    <glyph glyph-name="ncommaaccent" unicode="&#x146;" horiz-adv-x="562" 
d="M351 0v326q0 13 -2 26.5t-8 24t-16.5 17t-26.5 6.5q-24 0 -46 -13.5t-41 -34.5v-352h-143v500h143v-64q29 33 68.5 54t84.5 21q43 0 68.5 -16t39 -42.5t18 -59.5t4.5 -67v-326h-143zM349 -99q0 -30 -8.5 -55t-23 -46.5t-32.5 -40t-37 -34.5l-44 33q22 21 33.5 40.5
t11.5 42.5q0 9 -6 16t-13 15t-13 18t-6 25q0 29 19 47t49 18q37 0 53.5 -23.5t16.5 -55.5z" />
    <glyph glyph-name="Ncaron" unicode="&#x147;" horiz-adv-x="702" 
d="M468 0l-245 528v-528h-145v703h200l200 -434v434h146v-703h-156zM411 738h-140l-99 112h117l53 -56l56 56h114z" />
    <glyph glyph-name="ncaron" unicode="&#x148;" horiz-adv-x="562" 
d="M351 0v326q0 13 -2 26.5t-8 24t-16.5 17t-26.5 6.5q-24 0 -46 -13.5t-41 -34.5v-352h-143v500h143v-64q29 33 68.5 54t84.5 21q43 0 68.5 -16t39 -42.5t18 -59.5t4.5 -67v-326h-143zM348 571h-130l-106 132h114l56 -66l53 66h117z" />
    <glyph glyph-name="napostrophe" unicode="&#x149;" horiz-adv-x="576" 
d="M365 0v326q0 13 -2 26.5t-8 24t-16.5 17t-26.5 6.5q-24 0 -46 -13.5t-41 -34.5v-352h-143v500h143v-64q29 33 68.5 54t84.5 21q43 0 68.5 -16t39 -42.5t18 -59.5t4.5 -67v-326h-143zM118 638q0 -33 -10 -61t-26 -51t-36 -43t-39 -36l-44 33q22 23 38.5 45.5t16.5 50.5
q0 10 -6 17.5t-13 15.5t-13 18t-6 25q0 31 19 50.5t49 19.5q19 0 32.5 -7t21.5 -19t12 -27t4 -31z" />
    <glyph glyph-name="Omacron" unicode="&#x14c;" horiz-adv-x="688" 
d="M635 359q0 -74 -15 -141.5t-49.5 -118.5t-91.5 -81t-142 -30q-75 0 -129 28t-88.5 76.5t-50.5 113.5t-16 140q0 74 15.5 141.5t50.5 118.5t90 81t135 30q77 0 132 -27.5t90.5 -76t52 -114t16.5 -140.5zM469 356q0 21 -1.5 48t-5.5 55.5t-12 56t-22 49t-34 34.5t-49 13
q-44 0 -69.5 -28.5t-38 -69.5t-16 -86t-3.5 -77t2.5 -76t14.5 -84t37 -68t70 -28q42 0 67 26.5t38.5 66.5t17.5 85t4 83zM197 752v84h294v-84h-294z" />
    <glyph glyph-name="omacron" unicode="&#x14d;" horiz-adv-x="546" 
d="M503 256q0 -58 -14 -107t-42.5 -85t-72 -56t-101.5 -20t-101 18.5t-71.5 52t-43 80.5t-14.5 105q0 57 14.5 106t43.5 85t72 56t100 20q55 0 98 -18.5t72 -52.5t44.5 -80.5t15.5 -103.5zM358 259q0 21 -2.5 48t-11.5 50t-26 39t-45 16q-27 0 -43.5 -15.5t-26 -39.5
t-12.5 -52t-3 -53t3 -54t12 -53.5t26 -41t45 -16.5q30 0 47 19t25 46t10 56.5t2 50.5zM126 594v84h294v-84h-294z" />
    <glyph glyph-name="Obreve" unicode="&#x14e;" horiz-adv-x="688" 
d="M635 359q0 -74 -15 -141.5t-49.5 -118.5t-91.5 -81t-142 -30q-75 0 -129 28t-88.5 76.5t-50.5 113.5t-16 140q0 74 15.5 141.5t50.5 118.5t90 81t135 30q77 0 132 -27.5t90.5 -76t52 -114t16.5 -140.5zM469 356q0 21 -1.5 48t-5.5 55.5t-12 56t-22 49t-34 34.5t-49 13
q-44 0 -69.5 -28.5t-38 -69.5t-16 -86t-3.5 -77t2.5 -76t14.5 -84t37 -68t70 -28q42 0 67 26.5t38.5 66.5t17.5 85t4 83zM491 881q-2 -64 -41 -103.5t-105 -39.5t-106 39.5t-42 103.5h65q5 -30 26.5 -46.5t55.5 -16.5t55.5 16.5t26.5 46.5h65z" />
    <glyph glyph-name="obreve" unicode="&#x14f;" horiz-adv-x="546" 
d="M503 256q0 -58 -14 -107t-42.5 -85t-72 -56t-101.5 -20t-101 18.5t-71.5 52t-43 80.5t-14.5 105q0 57 14.5 106t43.5 85t72 56t100 20q55 0 98 -18.5t72 -52.5t44.5 -80.5t15.5 -103.5zM358 259q0 21 -2.5 48t-11.5 50t-26 39t-45 16q-27 0 -43.5 -15.5t-26 -39.5
t-12.5 -52t-3 -53t3 -54t12 -53.5t26 -41t45 -16.5q30 0 47 19t25 46t10 56.5t2 50.5zM420 714q-2 -64 -41 -103.5t-105 -39.5t-106 39.5t-42 103.5h65q5 -30 26.5 -46.5t55.5 -16.5t55.5 16.5t26.5 46.5h65z" />
    <glyph glyph-name="Ohungarumlaut" unicode="&#x150;" horiz-adv-x="688" 
d="M635 359q0 -74 -15 -141.5t-49.5 -118.5t-91.5 -81t-142 -30q-75 0 -129 28t-88.5 76.5t-50.5 113.5t-16 140q0 74 15.5 141.5t50.5 118.5t90 81t135 30q77 0 132 -27.5t90.5 -76t52 -114t16.5 -140.5zM469 356q0 21 -1.5 48t-5.5 55.5t-12 56t-22 49t-34 34.5t-49 13
q-44 0 -69.5 -28.5t-38 -69.5t-16 -86t-3.5 -77t2.5 -76t14.5 -84t37 -68t70 -28q42 0 67 26.5t38.5 66.5t17.5 85t4 83zM464 738h-89l71 132h129zM294 738h-89l71 132h129z" />
    <glyph glyph-name="ohungarumlaut" unicode="&#x151;" horiz-adv-x="546" 
d="M503 256q0 -58 -14 -107t-42.5 -85t-72 -56t-101.5 -20t-101 18.5t-71.5 52t-43 80.5t-14.5 105q0 57 14.5 106t43.5 85t72 56t100 20q55 0 98 -18.5t72 -52.5t44.5 -80.5t15.5 -103.5zM358 259q0 21 -2.5 48t-11.5 50t-26 39t-45 16q-27 0 -43.5 -15.5t-26 -39.5
t-12.5 -52t-3 -53t3 -54t12 -53.5t26 -41t45 -16.5q30 0 47 19t25 46t10 56.5t2 50.5zM393 571h-89l71 132h129zM223 571h-89l71 132h129z" />
    <glyph glyph-name="OE" unicode="&#x152;" horiz-adv-x="955" 
d="M479 0v55q-24 -30 -60 -48.5t-88 -18.5q-75 0 -128 28t-86 76.5t-48.5 113.5t-15.5 140q0 74 14.5 141.5t48.5 118.5t88 81t134 30q51 0 84.5 -17.5t56.5 -46.5v50h423v-116h-271v-169h225v-117h-225v-185h281v-116h-433zM479 356q0 21 -1.5 48t-6.5 55.5t-14 56t-23 49
t-34.5 34.5t-49.5 13q-44 0 -70 -28.5t-40 -69.5t-18 -86t-4 -77t3.5 -76t16.5 -84t38.5 -68t70.5 -28q42 0 67.5 26.5t40 66.5t19.5 85t5 83z" />
    <glyph glyph-name="oe" unicode="&#x153;" horiz-adv-x="828" 
d="M785 254q0 -8 -0.5 -15t-1.5 -15h-296v-6q0 -24 4 -48t14 -43.5t27 -31.5t43 -12q34 0 53 20.5t30 54.5l125 -14q-18 -81 -74 -118.5t-137 -37.5q-52 0 -89 14.5t-63 41.5q-25 -26 -60.5 -41t-86.5 -15q-58 0 -101 18.5t-71.5 52t-43 80.5t-14.5 105q0 57 14.5 106
t43.5 85t72 56t100 20q51 0 87 -15t62 -43q25 28 61 43t87 15q58 0 99 -20.5t66.5 -56t37.5 -82t12 -98.5zM652 303q0 21 -4 42t-13.5 37.5t-25 26.5t-38.5 10t-38 -10t-25 -26.5t-14.5 -37t-5.5 -42.5h164zM358 259q0 21 -2.5 48t-11.5 50t-26 39t-45 16q-27 0 -43.5 -15.5
t-26 -39.5t-12.5 -52t-3 -53t3 -54t12 -53.5t26 -41t45 -16.5q30 0 47 19t25 46t10 56.5t2 50.5z" />
    <glyph glyph-name="Racute" unicode="&#x154;" horiz-adv-x="609" 
d="M416 0l-136 302h-50v-302h-152v703h228q49 0 94.5 -9t80 -31.5t55 -59.5t20.5 -93q0 -69 -31 -115t-97 -66l153 -329h-165zM399 503q0 30 -10 47.5t-27 27t-39 12t-46 2.5h-47v-180h56q24 0 45 4t36 14t23.5 28t8.5 45zM323 738h-99l61 112h152z" />
    <glyph glyph-name="racute" unicode="&#x155;" horiz-adv-x="384" 
d="M374 364q-3 1 -18 1h-21q-52 0 -88 -27.5t-36 -83.5v-254h-143v500h139v-105q10 25 22 46t29 36.5t39 24.5t52 9q5 0 12.5 -0.5t12.5 -1.5v-145zM272 571h-99l71 132h142z" />
    <glyph glyph-name="Rcommaaccent" unicode="&#x156;" horiz-adv-x="609" 
d="M416 0l-136 302h-50v-302h-152v703h228q49 0 94.5 -9t80 -31.5t55 -59.5t20.5 -93q0 -69 -31 -115t-97 -66l153 -329h-165zM399 503q0 30 -10 47.5t-27 27t-39 12t-46 2.5h-47v-180h56q24 0 45 4t36 14t23.5 28t8.5 45zM389 -99q0 -30 -8.5 -55t-23 -46.5t-32.5 -40
t-37 -34.5l-44 33q22 21 33.5 40.5t11.5 42.5q0 9 -6 16t-13 15t-13 18t-6 25q0 29 19 47t49 18q37 0 53.5 -23.5t16.5 -55.5z" />
    <glyph glyph-name="rcommaaccent" unicode="&#x157;" horiz-adv-x="384" 
d="M374 364q-3 1 -18 1h-21q-52 0 -88 -27.5t-36 -83.5v-254h-143v500h139v-105q10 25 22 46t29 36.5t39 24.5t52 9q5 0 12.5 -0.5t12.5 -1.5v-145zM207 -99q0 -30 -8.5 -55t-23 -46.5t-32.5 -40t-37 -34.5l-44 33q22 21 33.5 40.5t11.5 42.5q0 9 -6 16t-13 15t-13 18t-6 25
q0 29 19 47t49 18q37 0 53.5 -23.5t16.5 -55.5z" />
    <glyph glyph-name="Rcaron" unicode="&#x158;" horiz-adv-x="609" 
d="M416 0l-136 302h-50v-302h-152v703h228q49 0 94.5 -9t80 -31.5t55 -59.5t20.5 -93q0 -69 -31 -115t-97 -66l153 -329h-165zM399 503q0 30 -10 47.5t-27 27t-39 12t-46 2.5h-47v-180h56q24 0 45 4t36 14t23.5 28t8.5 45zM349 738h-140l-99 112h117l53 -56l56 56h114z" />
    <glyph glyph-name="rcaron" unicode="&#x159;" horiz-adv-x="384" 
d="M374 364q-3 1 -18 1h-21q-52 0 -88 -27.5t-36 -83.5v-254h-143v500h139v-105q10 25 22 46t29 36.5t39 24.5t52 9q5 0 12.5 -0.5t12.5 -1.5v-145zM293 571h-130l-106 132h114l56 -66l53 66h117z" />
    <glyph glyph-name="Sacute" unicode="&#x15a;" horiz-adv-x="587" 
d="M534 211q0 -57 -17.5 -99t-49.5 -69.5t-77.5 -41t-100.5 -13.5q-51 0 -95 10t-78 32.5t-57 59t-33 90.5l146 29q5 -24 13.5 -45t22 -36.5t33.5 -24t47 -8.5q42 0 68 25.5t26 67.5q0 34 -23 54t-59 33l-79 28q-32 11 -62 26t-53.5 37.5t-38 55t-14.5 77.5q0 52 17 93
t48 68.5t72.5 42t91.5 14.5q48 0 88.5 -10.5t72 -32.5t52 -56t28.5 -82l-142 -20q-8 43 -28.5 68t-65.5 25q-37 0 -59.5 -25t-22.5 -61q0 -33 21.5 -52t55.5 -31l79 -28q32 -11 63 -26t55.5 -38t39.5 -56t15 -81zM334 738h-99l61 112h152z" />
    <glyph glyph-name="sacute" unicode="&#x15b;" horiz-adv-x="456" 
d="M413 144q0 -46 -16 -76t-43.5 -48t-63 -25t-74.5 -7q-75 0 -124 32.5t-60 101.5l124 21q5 -26 20 -44.5t44 -18.5q23 0 41.5 12t18.5 37q0 21 -14.5 33t-34.5 19l-76 25q-51 17 -81.5 54t-30.5 98q0 40 16 69.5t42.5 48t61 27.5t70.5 9q70 0 116 -30t59 -93l-123 -22
q-4 23 -16.5 39t-38.5 16q-23 0 -38.5 -12t-15.5 -37q0 -29 21 -41.5t46 -19.5l48 -15q28 -9 50.5 -21t38.5 -29.5t24.5 -42.5t8.5 -60zM273 571h-99l71 132h142z" />
    <glyph glyph-name="Scircumflex" unicode="&#x15c;" horiz-adv-x="587" 
d="M534 211q0 -57 -17.5 -99t-49.5 -69.5t-77.5 -41t-100.5 -13.5q-51 0 -95 10t-78 32.5t-57 59t-33 90.5l146 29q5 -24 13.5 -45t22 -36.5t33.5 -24t47 -8.5q42 0 68 25.5t26 67.5q0 34 -23 54t-59 33l-79 28q-32 11 -62 26t-53.5 37.5t-38 55t-14.5 77.5q0 52 17 93
t48 68.5t72.5 42t91.5 14.5q48 0 88.5 -10.5t72 -32.5t52 -56t28.5 -82l-142 -20q-8 43 -28.5 68t-65.5 25q-37 0 -59.5 -25t-22.5 -61q0 -33 21.5 -52t55.5 -31l79 -28q32 -11 63 -26t55.5 -38t39.5 -56t15 -81zM343 738l-53 56l-56 -56h-114l101 112h140l99 -112h-117z
" />
    <glyph glyph-name="scircumflex" unicode="&#x15d;" horiz-adv-x="456" 
d="M413 144q0 -46 -16 -76t-43.5 -48t-63 -25t-74.5 -7q-75 0 -124 32.5t-60 101.5l124 21q5 -26 20 -44.5t44 -18.5q23 0 41.5 12t18.5 37q0 21 -14.5 33t-34.5 19l-76 25q-51 17 -81.5 54t-30.5 98q0 40 16 69.5t42.5 48t61 27.5t70.5 9q70 0 116 -30t59 -93l-123 -22
q-4 23 -16.5 39t-38.5 16q-23 0 -38.5 -12t-15.5 -37q0 -29 21 -41.5t46 -19.5l48 -15q28 -9 50.5 -21t38.5 -29.5t24.5 -42.5t8.5 -60zM283 571l-53 66l-56 -66h-114l106 132h130l104 -132h-117z" />
    <glyph glyph-name="Scedilla" unicode="&#x15e;" horiz-adv-x="587" 
d="M372 -108q0 -42 -27 -61.5t-70 -19.5q-18 0 -36 4.5t-39 12.5l15 49q11 -5 23.5 -8t18.5 -3q35 0 35 24q0 13 -7.5 20t-27.5 7q-5 0 -13.5 -1t-16.5 -1l19 75q-87 7 -144 50.5t-76 139.5l146 29q5 -24 13.5 -45t22 -36.5t33.5 -24t47 -8.5q42 0 68 25.5t26 67.5
q0 34 -23 54t-59 33l-79 28q-32 11 -62 26t-53.5 37.5t-38 55t-14.5 77.5q0 52 17 93t48 68.5t72.5 42t91.5 14.5q48 0 88.5 -10.5t72 -32.5t52 -56t28.5 -82l-142 -20q-8 43 -28.5 68t-65.5 25q-37 0 -59.5 -25t-22.5 -61q0 -33 21.5 -52t55.5 -31l79 -28q32 -11 63 -26
t55.5 -38t39.5 -56t15 -81q0 -112 -64 -166.5t-172 -56.5l-6 -25h11q33 0 51 -19.5t18 -51.5z" />
    <glyph glyph-name="scedilla" unicode="&#x15f;" horiz-adv-x="456" 
d="M313 -108q0 -42 -27 -61.5t-70 -19.5q-18 0 -36 4.5t-39 12.5l15 49q11 -5 23.5 -8t18.5 -3q35 0 35 24q0 13 -7.5 20t-27.5 7q-5 0 -13.5 -1t-16.5 -1l19 74q-63 6 -104.5 38t-50.5 95l124 21q5 -26 20 -44.5t44 -18.5q23 0 41.5 12t18.5 37q0 21 -14.5 33t-34.5 19
l-76 25q-51 17 -81.5 54t-30.5 98q0 40 16 69.5t42.5 48t61 27.5t70.5 9q70 0 116 -30t59 -93l-123 -22q-4 23 -16.5 39t-38.5 16q-23 0 -38.5 -12t-15.5 -37q0 -29 21 -41.5t46 -19.5l48 -15q28 -9 50.5 -21t38.5 -29.5t24.5 -42.5t8.5 -60q0 -42 -14 -71t-38 -47
t-55.5 -26.5t-66.5 -10.5l-6 -26h11q33 0 51 -19.5t18 -51.5z" />
    <glyph glyph-name="Scaron" unicode="&#x160;" horiz-adv-x="587" 
d="M363 738h-140l-99 112h117l53 -56l56 56h114zM534 211q0 -57 -17.5 -99t-49.5 -69.5t-77.5 -41t-100.5 -13.5q-51 0 -95 10t-78 32.5t-57 59t-33 90.5l146 29q5 -24 13.5 -45t22 -36.5t33.5 -24t47 -8.5q42 0 68 25.5t26 67.5q0 34 -23 54t-59 33l-79 28q-32 11 -62 26
t-53.5 37.5t-38 55t-14.5 77.5q0 52 17 93t48 68.5t72.5 42t91.5 14.5q48 0 88.5 -10.5t72 -32.5t52 -56t28.5 -82l-142 -20q-8 43 -28.5 68t-65.5 25q-37 0 -59.5 -25t-22.5 -61q0 -33 21.5 -52t55.5 -31l79 -28q32 -11 63 -26t55.5 -38t39.5 -56t15 -81z" />
    <glyph glyph-name="scaron" unicode="&#x161;" horiz-adv-x="456" 
d="M294 571h-130l-106 132h114l56 -66l53 66h117zM413 144q0 -46 -16 -76t-43.5 -48t-63 -25t-74.5 -7q-75 0 -124 32.5t-60 101.5l124 21q5 -26 20 -44.5t44 -18.5q23 0 41.5 12t18.5 37q0 21 -14.5 33t-34.5 19l-76 25q-51 17 -81.5 54t-30.5 98q0 40 16 69.5t42.5 48
t61 27.5t70.5 9q70 0 116 -30t59 -93l-123 -22q-4 23 -16.5 39t-38.5 16q-23 0 -38.5 -12t-15.5 -37q0 -29 21 -41.5t46 -19.5l48 -15q28 -9 50.5 -21t38.5 -29.5t24.5 -42.5t8.5 -60z" />
    <glyph glyph-name="Tcommaaccent" unicode="&#x162;" horiz-adv-x="538" 
d="M345 576v-576h-152v576h-173v127h498v-127h-173zM335 -99q0 -30 -8.5 -55t-23 -46.5t-32.5 -40t-37 -34.5l-44 33q22 21 33.5 40.5t11.5 42.5q0 9 -6 16t-13 15t-13 18t-6 25q0 29 19 47t49 18q37 0 53.5 -23.5t16.5 -55.5z" />
    <glyph glyph-name="tcommaaccent" unicode="&#x163;" horiz-adv-x="336" 
d="M321 -2q-18 -2 -43 -5t-47 -3q-79 0 -113.5 33t-34.5 113v271h-73v93h73v133h143v-133h95v-93h-95v-248q0 -33 9 -48.5t38 -15.5q10 0 24.5 1.5t23.5 3.5v-102zM271 -99q0 -30 -8.5 -55t-23 -46.5t-32.5 -40t-37 -34.5l-44 33q22 21 33.5 40.5t11.5 42.5q0 9 -6 16
t-13 15t-13 18t-6 25q0 29 19 47t49 18q37 0 53.5 -23.5t16.5 -55.5z" />
    <glyph glyph-name="Tcaron" unicode="&#x164;" horiz-adv-x="538" 
d="M345 576v-576h-152v576h-173v127h498v-127h-173zM339 738h-140l-99 112h117l53 -56l56 56h114z" />
    <glyph glyph-name="tcaron" unicode="&#x165;" horiz-adv-x="461" 
d="M321 -2q-18 -2 -43 -5t-47 -3q-79 0 -113.5 33t-34.5 113v271h-73v93h73v133h143v-133h95v-93h-95v-248q0 -33 9 -48.5t38 -15.5q10 0 24.5 1.5t23.5 3.5v-102zM484 619q0 -33 -10 -61t-26 -51t-36 -43t-39 -36l-44 33q22 23 38.5 45.5t16.5 50.5q0 10 -6 17.5t-13 15.5
t-13 18t-6 25q0 31 19 50.5t49 19.5q19 0 32.5 -7t21.5 -19t12 -27t4 -31z" />
    <glyph glyph-name="Tbar" unicode="&#x166;" horiz-adv-x="538" 
d="M345 576v-131h91v-103h-91v-342h-152v342h-91v103h91v131h-173v127h498v-127h-173z" />
    <glyph glyph-name="tbar" unicode="&#x167;" horiz-adv-x="336" 
d="M321 -2q-18 -3 -43 -5.5t-47 -2.5q-79 0 -113.5 33t-34.5 113v96h-62v93h62v82h-73v93h73v133h143v-133h95v-93h-95v-82h62v-93h-62v-73q0 -33 9 -48.5t38 -15.5q10 0 24.5 1.5t23.5 3.5v-102z" />
    <glyph glyph-name="Utilde" unicode="&#x168;" horiz-adv-x="660" 
d="M582 263q0 -67 -12.5 -118t-42 -86t-78 -53t-120.5 -18t-120 18t-77 53t-41.5 86t-12.5 118v440h153v-457q0 -27 2 -53.5t12 -48t30 -34.5t55 -13t55 13t30 34.5t12.5 48t2.5 53.5v457h152v-440zM487 850q-4 -60 -28 -86t-70 -26q-17 0 -32 5.5t-29.5 12.5t-27.5 12.5
t-26 5.5q-26 0 -31 -36h-69q0 21 5.5 41.5t17.5 36t30 25t44 9.5q17 0 33 -5.5t31 -12.5t29 -12.5t27 -5.5q16 0 21.5 10t7.5 26h67z" />
    <glyph glyph-name="utilde" unicode="&#x169;" horiz-adv-x="561" 
d="M360 0l-5 69q-32 -37 -72.5 -59t-86.5 -22q-44 0 -69 16.5t-38.5 43.5t-17 60.5t-3.5 67.5v324h143v-317q0 -14 2 -29t7.5 -27t16 -20t28.5 -8q23 0 45 14t40 34v353h143v-500h-133zM442 703q-4 -60 -28 -95t-70 -35q-17 0 -34 5.5t-33 12.5t-30.5 12.5t-27.5 5.5
q-27 0 -31 -34h-69q0 57 28 92q27 36 69 36q17 0 34.5 -5.5t34.5 -12.5t32.5 -12.5t28.5 -5.5q16 0 21.5 10t7.5 26h67z" />
    <glyph glyph-name="Umacron" unicode="&#x16a;" horiz-adv-x="660" 
d="M582 263q0 -67 -12.5 -118t-42 -86t-78 -53t-120.5 -18t-120 18t-77 53t-41.5 86t-12.5 118v440h153v-457q0 -27 2 -53.5t12 -48t30 -34.5t55 -13t55 13t30 34.5t12.5 48t2.5 53.5v457h152v-440zM183 752v84h294v-84h-294z" />
    <glyph glyph-name="umacron" unicode="&#x16b;" horiz-adv-x="561" 
d="M360 0l-5 69q-32 -37 -72.5 -59t-86.5 -22q-44 0 -69 16.5t-38.5 43.5t-17 60.5t-3.5 67.5v324h143v-317q0 -14 2 -29t7.5 -27t16 -20t28.5 -8q23 0 45 14t40 34v353h143v-500h-133zM133 594v84h294v-84h-294z" />
    <glyph glyph-name="Ubreve" unicode="&#x16c;" horiz-adv-x="660" 
d="M582 263q0 -67 -12.5 -118t-42 -86t-78 -53t-120.5 -18t-120 18t-77 53t-41.5 86t-12.5 118v440h153v-457q0 -27 2 -53.5t12 -48t30 -34.5t55 -13t55 13t30 34.5t12.5 48t2.5 53.5v457h152v-440zM477 881q-2 -64 -41 -103.5t-105 -39.5t-106 39.5t-42 103.5h65
q5 -30 26.5 -46.5t55.5 -16.5t55.5 16.5t26.5 46.5h65z" />
    <glyph glyph-name="ubreve" unicode="&#x16d;" horiz-adv-x="561" 
d="M360 0l-5 69q-32 -37 -72.5 -59t-86.5 -22q-44 0 -69 16.5t-38.5 43.5t-17 60.5t-3.5 67.5v324h143v-317q0 -14 2 -29t7.5 -27t16 -20t28.5 -8q23 0 45 14t40 34v353h143v-500h-133zM427 714q-2 -64 -41 -103.5t-105 -39.5t-106 39.5t-42 103.5h65q5 -30 26.5 -46.5
t55.5 -16.5t55.5 16.5t26.5 46.5h65z" />
    <glyph glyph-name="Uring" unicode="&#x16e;" horiz-adv-x="660" 
d="M582 263q0 -67 -12.5 -118t-42 -86t-78 -53t-120.5 -18t-120 18t-77 53t-41.5 86t-12.5 118v440h153v-457q0 -27 2 -53.5t12 -48t30 -34.5t55 -13t55 13t30 34.5t12.5 48t2.5 53.5v457h152v-440zM439 756q0 -48 -32 -77.5t-77 -29.5t-77 29.5t-32 77.5t32 77.5t77 29.5
t77 -29.5t32 -77.5zM379 756q0 20 -12 36.5t-37 16.5t-37 -16.5t-12 -36.5t12 -36.5t37 -16.5t37 16.5t12 36.5z" />
    <glyph glyph-name="uring" unicode="&#x16f;" horiz-adv-x="561" 
d="M360 0l-5 69q-32 -37 -72.5 -59t-86.5 -22q-44 0 -69 16.5t-38.5 43.5t-17 60.5t-3.5 67.5v324h143v-317q0 -14 2 -29t7.5 -27t16 -20t28.5 -8q23 0 45 14t40 34v353h143v-500h-133zM389 636q0 -48 -32 -77.5t-77 -29.5t-77 29.5t-32 77.5t32 77.5t77 29.5t77 -29.5
t32 -77.5zM329 636q0 20 -12 36.5t-37 16.5t-37 -16.5t-12 -36.5t12 -36.5t37 -16.5t37 16.5t12 36.5z" />
    <glyph glyph-name="Uhungarumlaut" unicode="&#x170;" horiz-adv-x="660" 
d="M582 263q0 -67 -12.5 -118t-42 -86t-78 -53t-120.5 -18t-120 18t-77 53t-41.5 86t-12.5 118v440h153v-457q0 -27 2 -53.5t12 -48t30 -34.5t55 -13t55 13t30 34.5t12.5 48t2.5 53.5v457h152v-440zM450 738h-89l71 132h129zM280 738h-89l71 132h129z" />
    <glyph glyph-name="uhungarumlaut" unicode="&#x171;" horiz-adv-x="561" 
d="M360 0l-5 69q-32 -37 -72.5 -59t-86.5 -22q-44 0 -69 16.5t-38.5 43.5t-17 60.5t-3.5 67.5v324h143v-317q0 -14 2 -29t7.5 -27t16 -20t28.5 -8q23 0 45 14t40 34v353h143v-500h-133zM400 571h-89l71 132h129zM230 571h-89l71 132h129z" />
    <glyph glyph-name="Uogonek" unicode="&#x172;" horiz-adv-x="660" 
d="M582 263q0 -59 -10 -106t-32.5 -81.5t-59.5 -55.5t-91 -28q-3 0 -11 -7t-17 -18t-15.5 -25t-6.5 -27q0 -37 33 -37q13 0 27.5 4.5t26.5 10.5v-65q-13 -8 -32 -12.5t-37 -4.5q-20 0 -37.5 5t-31 16t-21.5 28t-8 42q0 26 12.5 48t32.5 39q-64 3 -107.5 22.5t-69.5 54
t-37.5 84t-11.5 113.5v440h153v-457q0 -27 2 -53.5t12 -48t30 -34.5t55 -13t55 13t30 34.5t12.5 48t2.5 53.5v457h152v-440z" />
    <glyph glyph-name="uogonek" unicode="&#x173;" horiz-adv-x="561" 
d="M493 0q-15 -1 -30.5 -8.5t-28 -19t-20.5 -26.5t-8 -31q0 -37 33 -37q13 0 27.5 4.5t26.5 10.5v-65q-13 -8 -32 -12.5t-37 -4.5q-20 0 -37.5 5t-31 16t-21.5 28t-8 42q0 31 17.5 56.5t43.5 41.5h-27l-5 69q-32 -37 -72.5 -59t-86.5 -22q-44 0 -69 16.5t-38.5 43.5
t-17 60.5t-3.5 67.5v324h143v-317q0 -14 2 -29t7.5 -27t16 -20t28.5 -8q23 0 45 14t40 34v353h143v-500z" />
    <glyph glyph-name="Wcircumflex" unicode="&#x174;" horiz-adv-x="882" 
d="M736 0h-197l-98 542l-98 -542h-197l-131 703h160l79 -570l101 570h172l101 -570l79 570h160zM494 738l-53 56l-56 -56h-114l101 112h140l99 -112h-117z" />
    <glyph glyph-name="wcircumflex" unicode="&#x175;" horiz-adv-x="767" 
d="M639 0h-176l-80 364l-80 -364h-175l-113 500h149l58 -386l79 386h165l79 -386l58 386h149zM436 571l-53 66l-56 -66h-114l106 132h130l104 -132h-117z" />
    <glyph glyph-name="Ycircumflex" unicode="&#x176;" horiz-adv-x="599" 
d="M374 271v-271h-152v271l-212 432h162l131 -312l132 312h154zM352 738l-53 56l-56 -56h-114l101 112h140l99 -112h-117z" />
    <glyph glyph-name="ycircumflex" unicode="&#x177;" horiz-adv-x="485" 
d="M318 9q-13 -41 -27.5 -76.5t-37 -62t-56 -42t-83.5 -15.5q-21 0 -43 2.5t-36 6.5v98q9 -2 24 -3t29 -1q43 0 62.5 21t32.5 60l-173 503h150l90 -344l83 344h142zM295 571l-53 66l-56 -66h-114l106 132h130l104 -132h-117z" />
    <glyph glyph-name="Ydieresis" unicode="&#x178;" horiz-adv-x="599" 
d="M475 807q0 -33 -20.5 -51t-51.5 -18t-51.5 18t-20.5 51t20.5 51t51.5 18t51.5 -18t20.5 -51zM268 807q0 -33 -20.5 -51t-51.5 -18t-51.5 18t-20.5 51t20.5 51t51.5 18t51.5 -18t20.5 -51zM374 271v-271h-152v271l-212 432h162l131 -312l132 312h154z" />
    <glyph glyph-name="Zacute" unicode="&#x179;" horiz-adv-x="549" 
d="M229 117h276v-117h-452v102l275 484h-261v117h439v-100zM330 738h-99l61 112h152z" />
    <glyph glyph-name="zacute" unicode="&#x17a;" horiz-adv-x="495" 
d="M43 0v93l232 307h-217v100h392v-90l-231 -310h233v-100h-409zM297 571h-99l71 132h142z" />
    <glyph glyph-name="Zdotaccent" unicode="&#x17b;" horiz-adv-x="549" 
d="M229 117h276v-117h-452v102l275 484h-261v117h439v-100zM358 807q0 -33 -20.5 -51t-51.5 -18t-51.5 18t-20.5 51t20.5 51t51.5 18t51.5 -18t20.5 -51z" />
    <glyph glyph-name="zdotaccent" unicode="&#x17c;" horiz-adv-x="495" 
d="M43 0v93l232 307h-217v100h392v-90l-231 -310h233v-100h-409zM334 636q0 -37 -23 -57t-57 -20t-57 20t-23 57t23 57t57 20t57 -20t23 -57z" />
    <glyph glyph-name="Zcaron" unicode="&#x17d;" horiz-adv-x="549" 
d="M369 738h-140l-99 112h117l53 -56l56 56h114zM229 117h276v-117h-452v102l275 484h-261v117h439v-100z" />
    <glyph glyph-name="zcaron" unicode="&#x17e;" horiz-adv-x="495" 
d="M314 571h-130l-106 132h114l56 -66l53 66h117zM43 0v93l232 307h-217v100h392v-90l-231 -310h233v-100h-409z" />
    <glyph glyph-name="florin" unicode="&#x192;" horiz-adv-x="570" 
d="M485 607q-25 5 -42 5q-20 0 -31 -7.5t-17.5 -19.5t-9.5 -27.5t-6 -31.5l-7 -47h91l-11 -94h-94l-51 -374q-6 -46 -16.5 -83t-31 -63.5t-53.5 -41t-85 -14.5q-12 0 -22 0.5t-19 1.5t-19 3t-23 5l15 100q15 -3 21.5 -3.5t17.5 -0.5q19 0 31 9.5t19.5 24t11.5 32.5t6 35
l52 369h-83l13 94h81l8 46q8 45 19.5 81t31.5 60.5t51.5 37.5t80.5 13q20 0 41 -2t45 -7z" />
    <glyph glyph-name="Scommaaccent" unicode="&#x218;" horiz-adv-x="587" 
d="M534 211q0 -57 -17.5 -99t-49.5 -69.5t-77.5 -41t-100.5 -13.5q-51 0 -95 10t-78 32.5t-57 59t-33 90.5l146 29q5 -24 13.5 -45t22 -36.5t33.5 -24t47 -8.5q42 0 68 25.5t26 67.5q0 34 -23 54t-59 33l-79 28q-32 11 -62 26t-53.5 37.5t-38 55t-14.5 77.5q0 52 17 93
t48 68.5t72.5 42t91.5 14.5q48 0 88.5 -10.5t72 -32.5t52 -56t28.5 -82l-142 -20q-8 43 -28.5 68t-65.5 25q-37 0 -59.5 -25t-22.5 -61q0 -33 21.5 -52t55.5 -31l79 -28q32 -11 63 -26t55.5 -38t39.5 -56t15 -81zM349 -99q0 -30 -8.5 -55t-23 -46.5t-32.5 -40t-37 -34.5
l-44 33q22 21 33.5 40.5t11.5 42.5q0 9 -6 16t-13 15t-13 18t-6 25q0 29 19 47t49 18q37 0 53.5 -23.5t16.5 -55.5z" />
    <glyph glyph-name="scommaaccent" unicode="&#x219;" horiz-adv-x="456" 
d="M413 144q0 -46 -16 -76t-43.5 -48t-63 -25t-74.5 -7q-75 0 -124 32.5t-60 101.5l124 21q5 -26 20 -44.5t44 -18.5q23 0 41.5 12t18.5 37q0 21 -14.5 33t-34.5 19l-76 25q-51 17 -81.5 54t-30.5 98q0 40 16 69.5t42.5 48t61 27.5t70.5 9q70 0 116 -30t59 -93l-123 -22
q-4 23 -16.5 39t-38.5 16q-23 0 -38.5 -12t-15.5 -37q0 -29 21 -41.5t46 -19.5l48 -15q28 -9 50.5 -21t38.5 -29.5t24.5 -42.5t8.5 -60zM293 -99q0 -30 -8.5 -55t-23 -46.5t-32.5 -40t-37 -34.5l-44 33q22 21 33.5 40.5t11.5 42.5q0 9 -6 16t-13 15t-13 18t-6 25q0 29 19 47
t49 18q37 0 53.5 -23.5t16.5 -55.5z" />
    <glyph glyph-name="uni021A" unicode="&#x21a;" horiz-adv-x="538" 
d="M345 576v-576h-152v576h-173v127h498v-127h-173zM335 -99q0 -30 -8.5 -55t-23 -46.5t-32.5 -40t-37 -34.5l-44 33q22 21 33.5 40.5t11.5 42.5q0 9 -6 16t-13 15t-13 18t-6 25q0 29 19 47t49 18q37 0 53.5 -23.5t16.5 -55.5z" />
    <glyph glyph-name="uni021B" unicode="&#x21b;" horiz-adv-x="336" 
d="M321 -2q-18 -2 -43 -5t-47 -3q-79 0 -113.5 33t-34.5 113v271h-73v93h73v133h143v-133h95v-93h-95v-248q0 -33 9 -48.5t38 -15.5q10 0 24.5 1.5t23.5 3.5v-102zM271 -99q0 -30 -8.5 -55t-23 -46.5t-32.5 -40t-37 -34.5l-44 33q22 21 33.5 40.5t11.5 42.5q0 9 -6 16
t-13 15t-13 18t-6 25q0 29 19 47t49 18q37 0 53.5 -23.5t16.5 -55.5z" />
    <glyph glyph-name="dotlessj" unicode="&#x237;" horiz-adv-x="279" 
d="M212 1q0 -47 -6.5 -82.5t-25 -59.5t-51 -36t-84.5 -12q-17 0 -34 2t-31 5v101q7 -1 13 -1.5t12 -0.5q40 0 52 21t12 63v499h143v-499z" />
    <glyph glyph-name="circumflex" unicode="&#x2c6;" horiz-adv-x="360" 
d="M233 571l-53 66l-56 -66h-114l106 132h130l104 -132h-117z" />
    <glyph glyph-name="caron" unicode="&#x2c7;" horiz-adv-x="360" 
d="M246 571h-130l-106 132h114l56 -66l53 66h117z" />
    <glyph glyph-name="uni02C9" unicode="&#x2c9;" horiz-adv-x="314" 
d="M10 591v84h294v-84h-294z" />
    <glyph glyph-name="breve" unicode="&#x2d8;" horiz-adv-x="313" 
d="M303 703q-2 -64 -41 -103.5t-105 -39.5t-106 39.5t-42 103.5h65q5 -30 26.5 -46.5t55.5 -16.5t55.5 16.5t26.5 46.5h65z" />
    <glyph glyph-name="dotaccent" unicode="&#x2d9;" horiz-adv-x="164" 
d="M154 634q0 -33 -20.5 -51t-51.5 -18t-51.5 18t-20.5 51t20.5 51t51.5 18t51.5 -18t20.5 -51z" />
    <glyph glyph-name="ring" unicode="&#x2da;" horiz-adv-x="238" 
d="M228 636q0 -48 -32 -77.5t-77 -29.5t-77 29.5t-32 77.5t32 77.5t77 29.5t77 -29.5t32 -77.5zM168 636q0 20 -12 36.5t-37 16.5t-37 -16.5t-12 -36.5t12 -36.5t37 -16.5t37 16.5t12 36.5z" />
    <glyph glyph-name="ogonek" unicode="&#x2db;" horiz-adv-x="192" 
d="M178 10q-15 -5 -31 -14.5t-28.5 -22t-20.5 -28t-8 -31.5q0 -37 33 -37q13 0 27.5 4.5t26.5 10.5v-65q-13 -8 -32 -12.5t-37 -4.5q-20 0 -37.5 5t-31 16t-21.5 28t-8 42q0 21 8.5 39.5t22.5 33.5t32 25.5t37 15.5z" />
    <glyph glyph-name="tilde" unicode="&#x2dc;" horiz-adv-x="343" 
d="M333 703q-4 -60 -28 -95t-70 -35q-17 0 -34 5.5t-33 12.5t-30.5 12.5t-27.5 5.5q-27 0 -31 -34h-69q0 57 28 92q27 36 69 36q17 0 34.5 -5.5t34.5 -12.5t32.5 -12.5t28.5 -5.5q16 0 21.5 10t7.5 26h67z" />
    <glyph glyph-name="hungarumlaut" unicode="&#x2dd;" horiz-adv-x="390" 
d="M269 571h-89l71 132h129zM99 571h-89l71 132h129z" />
    <glyph glyph-name="gravecomb" unicode="&#x300;" 
d="M-321 571l-114 132h142l71 -132h-99z" />
    <glyph glyph-name="acutecomb" unicode="&#x301;" 
d="M-226 571h-99l71 132h142z" />
    <glyph glyph-name="uni0302" unicode="&#x302;" 
d="M-219 571l-53 66l-56 -66h-114l106 132h130l104 -132h-117z" />
    <glyph glyph-name="tildecomb" unicode="&#x303;" 
d="M-110 703q-4 -60 -28 -95t-70 -35q-17 0 -34 5.5t-33 12.5t-30.5 12.5t-27.5 5.5q-27 0 -31 -34h-69q0 57 28 92q27 36 69 36q17 0 34.5 -5.5t34.5 -12.5t32.5 -12.5t28.5 -5.5q16 0 21.5 10t7.5 26h67z" />
    <glyph glyph-name="uni0304" unicode="&#x304;" 
d="M-303 594v84h294v-84h-294z" />
    <glyph glyph-name="uni0306" unicode="&#x306;" 
d="M-9 714q-2 -64 -41 -103.5t-105 -39.5t-106 39.5t-42 103.5h65q5 -30 26.5 -46.5t55.5 -16.5t55.5 16.5t26.5 46.5h65z" />
    <glyph glyph-name="uni0307" unicode="&#x307;" 
d="M-58 636q0 -37 -23 -57t-57 -20t-57 20t-23 57t23 57t57 20t57 -20t23 -57z" />
    <glyph glyph-name="uni0308" unicode="&#x308;" 
d="M-9 634q0 -33 -20.5 -51t-51.5 -18t-51.5 18t-20.5 51t20.5 51t51.5 18t51.5 -18t20.5 -51zM-216 634q0 -33 -20.5 -51t-51.5 -18t-51.5 18t-20.5 51t20.5 51t51.5 18t51.5 -18t20.5 -51z" />
    <glyph glyph-name="uni030A" unicode="&#x30a;" 
d="M-9 636q0 -48 -32 -77.5t-77 -29.5t-77 29.5t-32 77.5t32 77.5t77 29.5t77 -29.5t32 -77.5zM-69 636q0 20 -12 36.5t-37 16.5t-37 -16.5t-12 -36.5t12 -36.5t37 -16.5t37 16.5t12 36.5z" />
    <glyph glyph-name="uni030B" unicode="&#x30b;" 
d="M-120 571h-89l71 132h129zM-290 571h-89l71 132h129z" />
    <glyph glyph-name="uni030C" unicode="&#x30c;" 
d="M-180 571h-130l-106 132h114l56 -66l53 66h117z" />
    <glyph glyph-name="uni0312" unicode="&#x312;" 
d="M-79 800q-22 -23 -38.5 -45.5t-16.5 -50.5q0 -10 6 -17.5t13 -15.5t13 -18t6 -25q0 -31 -19 -50.5t-49 -19.5q-19 0 -32.5 7t-21.5 19t-12 27t-4 31q0 34 10 61.5t26 50.5t36 42.5t39 36.5z" />
    <glyph glyph-name="uni0313" unicode="&#x313;" 
d="M-77 619q0 -33 -10 -61t-26 -51t-36 -43t-39 -36l-44 33q22 23 38.5 45.5t16.5 50.5q0 10 -6 17.5t-13 15.5t-13 18t-6 25q0 31 19 50.5t49 19.5q19 0 32.5 -7t21.5 -19t12 -27t4 -31z" />
    <glyph glyph-name="uni0326" unicode="&#x326;" 
d="M-82 -99q0 -30 -8.5 -55t-23 -46.5t-32.5 -40t-37 -34.5l-44 33q22 21 33.5 40.5t11.5 42.5q0 9 -6 16t-13 15t-13 18t-6 25q0 29 19 47t49 18q37 0 53.5 -23.5t16.5 -55.5z" />
    <glyph glyph-name="uni0327" unicode="&#x327;" 
d="M-9 -108q0 -42 -27 -61.5t-70 -19.5q-18 0 -36 4.5t-39 12.5l15 49q11 -5 23.5 -8t18.5 -3q35 0 35 24q0 13 -7.5 20t-27.5 7q-5 0 -13.5 -1t-16.5 -1l26 101h52l-13 -53h11q33 0 51 -19.5t18 -51.5z" />
    <glyph glyph-name="uni0328" unicode="&#x328;" 
d="M-13 11q-15 -5 -31 -14.5t-28.5 -22t-20.5 -28t-8 -31.5q0 -37 33 -37q13 0 27.5 4.5t26.5 10.5v-65q-13 -8 -32 -12.5t-37 -4.5q-20 0 -37.5 5t-31 16t-21.5 28t-8 42q0 21 8.5 39.5t22.5 33.5t32 25.5t37 15.5z" />
    <glyph glyph-name="uni0335" unicode="&#x335;" 
d="M-303 208v84h294v-84h-294z" />
    <glyph glyph-name="uni0336" unicode="&#x336;" 
d="M-609 194v112h550v-112h-550z" />
    <glyph glyph-name="Delta" unicode="&#x394;" horiz-adv-x="654" 
d="M24 0l230 703h132l246 -703h-608zM320 531l-135 -415h280z" />
    <glyph glyph-name="Omega" unicode="&#x3a9;" horiz-adv-x="741" 
d="M698 409q0 -41 -11.5 -81t-33 -74.5t-53.5 -60.5t-74 -38v-42h164v-113h-274v215q35 5 60 22t42 43t25 57.5t8 63.5q0 41 -12.5 76.5t-36 61t-56.5 40t-75 14.5t-75 -14.5t-56.5 -40t-36 -61t-12.5 -76.5q0 -32 8 -63.5t25 -57.5t42 -43.5t60 -21.5v-215h-274v113h165v42
q-42 12 -74 38t-54 61t-33.5 74t-11.5 81q0 71 25.5 128t70 97t104 61.5t127.5 21.5t127.5 -21.5t104 -61.5t70 -97t25.5 -128z" />
    <glyph glyph-name="mu" unicode="&#x3bc;" horiz-adv-x="561" 
d="M360 0l-5 69q-29 -34 -65.5 -55t-78.5 -25v-169h-143v680h143v-317q0 -14 2 -29t7.5 -27t16 -20t28.5 -8q23 0 45 14t40 34v353h143v-500h-133z" />
    <glyph glyph-name="pi" unicode="&#x3c0;" horiz-adv-x="634" 
d="M523 386v-249q0 -29 7.5 -42.5t32.5 -13.5q4 0 13 1t13 3v-88q-7 -2 -18.5 -3.5t-24 -2t-25.5 -1t-22 -0.5q-27 0 -49 4.5t-37 15t-23.5 28.5t-8.5 46v302h-136v-386h-142v386h-59v114h547v-114h-68z" />
    <glyph glyph-name="endash" unicode="&#x2013;" horiz-adv-x="570" 
d="M60 243v112h450v-112h-450z" />
    <glyph glyph-name="emdash" unicode="&#x2014;" horiz-adv-x="670" 
d="M60 243v112h550v-112h-550z" />
    <glyph glyph-name="quoteleft" unicode="&#x2018;" horiz-adv-x="273" 
d="M217 673q-24 -26 -41 -53t-17 -54q0 -10 7 -17.5t15 -16.5t15 -21t7 -31q0 -33 -21 -54.5t-55 -21.5q-21 0 -36 7.5t-24.5 20.5t-14.5 29t-5 33q0 71 33.5 123t83.5 96z" />
    <glyph glyph-name="quoteright" unicode="&#x2019;" horiz-adv-x="273" 
d="M226 623q0 -36 -9 -66.5t-25 -57t-37 -50t-46 -45.5l-53 40q24 26 41 53t17 54q0 10 -7 17.5t-15 16.5t-15 21t-7 31q0 33 21 54.5t55 21.5q21 0 36 -7.5t24.5 -20.5t14.5 -29t5 -33z" />
    <glyph glyph-name="quotesinglbase" unicode="&#x201a;" horiz-adv-x="294" 
d="M226 56q0 -36 -9 -66.5t-25 -57t-37 -50t-46 -45.5l-53 40q24 26 41 53t17 54q0 10 -7 17.5t-15 16.5t-15 21t-7 31q0 33 21 54.5t55 21.5q21 0 36 -7.5t24.5 -20.5t14.5 -29t5 -33z" />
    <glyph glyph-name="quotedblleft" unicode="&#x201c;" horiz-adv-x="499" 
d="M443 673q-24 -26 -41 -53t-17 -54q0 -10 7 -17.5t15 -16.5t15 -21t7 -31q0 -33 -21 -54.5t-55 -21.5q-21 0 -36 7.5t-24.5 20.5t-14.5 29t-5 33q0 71 33.5 123t83.5 96zM217 673q-24 -26 -41 -53t-17 -54q0 -10 7 -17.5t15 -16.5t15 -21t7 -31q0 -33 -21 -54.5t-55 -21.5
q-21 0 -36 7.5t-24.5 20.5t-14.5 29t-5 33q0 71 33.5 123t83.5 96z" />
    <glyph glyph-name="quotedblright" unicode="&#x201d;" horiz-adv-x="499" 
d="M452 623q0 -36 -9 -66.5t-25 -57t-37 -50t-46 -45.5l-53 40q24 26 41 53t17 54q0 10 -7 17.5t-15 16.5t-15 21t-7 31q0 33 21 54.5t55 21.5q21 0 36 -7.5t24.5 -20.5t14.5 -29t5 -33zM226 623q0 -36 -9 -66.5t-25 -57t-37 -50t-46 -45.5l-53 40q24 26 41 53t17 54
q0 10 -7 17.5t-15 16.5t-15 21t-7 31q0 33 21 54.5t55 21.5q21 0 36 -7.5t24.5 -20.5t14.5 -29t5 -33z" />
    <glyph glyph-name="quotedblbase" unicode="&#x201e;" horiz-adv-x="520" 
d="M452 56q0 -36 -9 -66.5t-25 -57t-37 -50t-46 -45.5l-53 40q24 26 41 53t17 54q0 10 -7 17.5t-15 16.5t-15 21t-7 31q0 33 21 54.5t55 21.5q21 0 36 -7.5t24.5 -20.5t14.5 -29t5 -33zM226 56q0 -36 -9 -66.5t-25 -57t-37 -50t-46 -45.5l-53 40q24 26 41 53t17 54
q0 10 -7 17.5t-15 16.5t-15 21t-7 31q0 33 21 54.5t55 21.5q21 0 36 -7.5t24.5 -20.5t14.5 -29t5 -33z" />
    <glyph glyph-name="dagger" unicode="&#x2020;" horiz-adv-x="543" 
d="M343 385v-385h-143v385h-160v115h160v203h143v-203h160v-115h-160z" />
    <glyph glyph-name="daggerdbl" unicode="&#x2021;" horiz-adv-x="543" 
d="M343 183v-183h-143v183h-160v115h160v107h-160v115h160v183h143v-183h160v-115h-160v-107h160v-115h-160z" />
    <glyph glyph-name="bullet" unicode="&#x2022;" horiz-adv-x="374" 
d="M306 296q0 -26 -9 -47.5t-25 -37.5t-38 -25t-47 -9q-26 0 -47.5 9t-37.5 25t-25 37.5t-9 47.5q0 25 9 47t25 38t37.5 25t47.5 9q25 0 47 -9t38 -25t25 -38t9 -47z" />
    <glyph glyph-name="ellipsis" unicode="&#x2026;" horiz-adv-x="810" 
d="M742 68q0 -34 -22.5 -56.5t-56.5 -22.5t-56.5 22.5t-22.5 56.5t22.5 56.5t56.5 22.5t56.5 -22.5t22.5 -56.5zM484 68q0 -34 -22.5 -56.5t-56.5 -22.5t-56.5 22.5t-22.5 56.5t22.5 56.5t56.5 22.5t56.5 -22.5t22.5 -56.5zM226 68q0 -34 -22.5 -56.5t-56.5 -22.5
t-56.5 22.5t-22.5 56.5t22.5 56.5t56.5 22.5t56.5 -22.5t22.5 -56.5z" />
    <glyph glyph-name="perthousand" unicode="&#x2030;" horiz-adv-x="1428" 
d="M1385 190q0 -50 -14.5 -87.5t-40.5 -63t-62.5 -38.5t-79.5 -13q-44 0 -80 13t-62 38.5t-40.5 63t-14.5 87.5q0 49 14.5 87t40.5 63.5t62 38.5t80 13q43 0 79.5 -13t62.5 -38.5t40.5 -63.5t14.5 -87zM961 190q0 -50 -14.5 -87.5t-40.5 -63t-62.5 -38.5t-79.5 -13
q-44 0 -80 13t-62 38.5t-40.5 63t-14.5 87.5q0 49 14.5 87t40.5 63.5t62 38.5t80 13q43 0 79.5 -13t62.5 -38.5t40.5 -63.5t14.5 -87zM353 0h-148l445 679h149zM437 490q0 -50 -14.5 -87.5t-40.5 -63t-62.5 -38.5t-79.5 -13q-44 0 -80 13t-62 38.5t-40.5 63t-14.5 87.5
q0 49 14.5 87t40.5 63.5t62 38.5t80 13q43 0 79.5 -13t62.5 -38.5t40.5 -63.5t14.5 -87zM1242 190q0 51 -10 82.5t-44 31.5t-44 -31.5t-10 -82.5t10 -82.5t44 -31.5t44 31.5t10 82.5zM818 190q0 51 -10 82.5t-44 31.5t-44 -31.5t-10 -82.5t10 -82.5t44 -31.5t44 31.5
t10 82.5zM294 490q0 51 -10 82.5t-44 31.5t-44 -31.5t-10 -82.5t10 -82.5t44 -31.5t44 31.5t10 82.5z" />
    <glyph glyph-name="guilsinglleft" unicode="&#x2039;" horiz-adv-x="293" 
d="M145 58l-105 205l105 205h108l-78 -205l78 -205h-108z" />
    <glyph glyph-name="guilsinglright" unicode="&#x203a;" horiz-adv-x="293" 
d="M148 58h-108l78 205l-78 205h108l105 -205z" />
    <glyph glyph-name="fraction" unicode="&#x2044;" horiz-adv-x="150" 
d="M-101 -12h-89l441 729h89z" />
    <glyph glyph-name="Euro" unicode="&#x20ac;" horiz-adv-x="709" 
d="M681 165q-24 -86 -86 -131.5t-179 -45.5q-66 0 -114.5 18.5t-83 50.5t-55.5 76.5t-31 96.5h-102l6 78h88q0 8 -0.5 15.5t-0.5 15.5t0.5 15.5t0.5 15.5h-84l6 78h87q10 54 31.5 99.5t56.5 78.5t84.5 52t115.5 19q57 0 98.5 -11.5t72 -33.5t50.5 -54t33 -73l-153 -28
q-3 14 -8.5 30.5t-16.5 30.5t-29.5 23.5t-47.5 9.5q-54 0 -83 -37t-41 -106h220l-6 -78h-222q-1 -5 -1 -11v-51h219l-6 -78h-206q11 -66 40 -101t81 -35q31 0 51.5 10t33 24t19 30.5t9.5 29.5z" />
    <glyph glyph-name="trademark" unicode="&#x2122;" horiz-adv-x="758" 
d="M614 368v253l-53 -253h-86l-52 253v-253h-87v333h139l47 -216l46 216h122v-333h-76zM207 632v-264h-92v264h-95v69h283v-69h-96z" />
    <glyph glyph-name="uni2126" unicode="&#x2126;" horiz-adv-x="741" 
d="M698 409q0 -41 -11.5 -81t-33 -74.5t-53.5 -60.5t-74 -38v-42h164v-113h-274v215q35 5 60 22t42 43t25 57.5t8 63.5q0 41 -12.5 76.5t-36 61t-56.5 40t-75 14.5t-75 -14.5t-56.5 -40t-36 -61t-12.5 -76.5q0 -32 8 -63.5t25 -57.5t42 -43.5t60 -21.5v-215h-274v113h165v42
q-42 12 -74 38t-54 61t-33.5 74t-11.5 81q0 71 25.5 128t70 97t104 61.5t127.5 21.5t127.5 -21.5t104 -61.5t70 -97t25.5 -128z" />
    <glyph glyph-name="partialdiff" unicode="&#x2202;" horiz-adv-x="568" 
d="M527 350q0 -67 -14 -132.5t-44.5 -117t-80 -83.5t-121.5 -32q-49 0 -90.5 17.5t-71.5 48t-47 72.5t-17 91q0 46 16 88t45 73t68.5 49.5t87.5 18.5q36 0 69.5 -13t59.5 -40q0 9 -0.5 17t-1.5 16q-2 40 -8.5 74t-21 59.5t-39 40t-62.5 14.5q-36 0 -61.5 -12.5t-51.5 -37.5
l-72 79q42 38 85.5 57t98.5 19q75 0 127 -30.5t84.5 -81.5t47.5 -117t15 -137zM385 287q-22 24 -48 39t-58 15q-27 0 -46.5 -10.5t-32.5 -28.5t-19.5 -41.5t-6.5 -49.5q0 -23 5.5 -46t17.5 -41t29.5 -29.5t41.5 -11.5q35 0 58 18.5t36 47t18 61.5t5 62v15z" />
    <glyph glyph-name="uni2206" unicode="&#x2206;" horiz-adv-x="654" 
d="M24 0l230 703h132l246 -703h-608zM320 531l-135 -415h280z" />
    <glyph glyph-name="product" unicode="&#x220f;" horiz-adv-x="752" 
d="M534 -182v773h-317v-773h-128v885h574v-885h-129z" />
    <glyph glyph-name="summation" unicode="&#x2211;" horiz-adv-x="669" 
d="M44 -182v96l275 353l-263 339v97h558v-112h-396l256 -324l-270 -336h421v-113h-581z" />
    <glyph glyph-name="minus" unicode="&#x2212;" horiz-adv-x="552" 
d="M40 269v117h472v-117h-472z" />
    <glyph glyph-name="uni2215" unicode="&#x2215;" horiz-adv-x="150" 
d="M-101 -12h-89l441 729h89z" />
    <glyph glyph-name="uni2219" unicode="&#x2219;" horiz-adv-x="294" 
d="M226 296q0 -34 -22.5 -56.5t-56.5 -22.5t-56.5 22.5t-22.5 56.5t22.5 56.5t56.5 22.5t56.5 -22.5t22.5 -56.5z" />
    <glyph glyph-name="radical" unicode="&#x221a;" horiz-adv-x="574" 
d="M373 -182h-134l-141 289l-64 -35l-44 98l175 88l121 -246l156 705h143z" />
    <glyph glyph-name="infinity" unicode="&#x221e;" horiz-adv-x="844" 
d="M801 349q0 -44 -13.5 -79t-38 -59t-58.5 -37t-74 -13q-60 0 -109 30.5t-86 78.5q-38 -48 -84.5 -78.5t-109.5 -30.5q-84 0 -134 49.5t-50 137.5q0 43 13.5 77t38 57.5t58 36t74.5 12.5q63 0 109.5 -30t84.5 -81q38 52 87 81.5t112 29.5q81 0 130.5 -47.5t49.5 -134.5z
M693 346q0 36 -24.5 57t-59.5 21q-29 0 -59.5 -21t-61.5 -59q57 -74 125 -74q32 0 56 20t24 56zM357 344q-11 15 -26.5 29t-32.5 25.5t-34 18.5t-32 7q-32 0 -56 -21.5t-24 -56.5t24 -55.5t58 -20.5q63 0 123 74z" />
    <glyph glyph-name="integral" unicode="&#x222b;" horiz-adv-x="389" 
d="M359 606q-8 1 -18.5 2t-21.5 1q-31 0 -44 -15t-13 -50v-543q0 -47 -6.5 -82.5t-25 -59.5t-51 -36t-84.5 -12q-17 0 -34 2t-31 5v101q7 -1 13 -1.5t12 -0.5q40 0 52 21t12 63v541q0 87 38 130t126 43q20 0 41.5 -3t34.5 -5v-101z" />
    <glyph glyph-name="approxequal" unicode="&#x2248;" horiz-adv-x="589" 
d="M549 435q-23 -49 -59.5 -71.5t-81.5 -22.5q-27 0 -59.5 8t-64.5 19q-30 9 -59 17t-52 8q-53 0 -85 -62l-48 93q21 42 56.5 61t77.5 19q29 0 62 -8.5t66 -19.5q28 -8 55.5 -16t50.5 -8q56 0 89 65zM549 238q-23 -48 -59.5 -70.5t-81.5 -22.5q-27 0 -59.5 7.5t-64.5 18.5
q-30 9 -59 17t-52 8q-54 0 -85 -61l-48 92q21 42 56.5 61.5t77.5 19.5q29 0 62 -9t66 -20q28 -9 55.5 -16t50.5 -7q29 0 51 18.5t39 50.5z" />
    <glyph glyph-name="notequal" unicode="&#x2260;" horiz-adv-x="552" 
d="M246 169l-60 -115l-88 39l39 76h-97v117h158l43 83h-201v117h262l65 126l88 -39l-45 -87h102v-117h-163l-43 -83h206v-117h-266z" />
    <glyph glyph-name="lessequal" unicode="&#x2264;" horiz-adv-x="552" 
d="M37 277v122l508 156v-103l-420 -115l420 -112v-103zM37 4v101h508v-101h-508z" />
    <glyph glyph-name="greaterequal" unicode="&#x2265;" horiz-adv-x="581" 
d="M37 122v103l420 112l-420 115v103l508 -156v-122zM37 4v101h508v-101h-508z" />
    <glyph glyph-name="lozenge" unicode="&#x25ca;" horiz-adv-x="566" 
d="M343 -182h-116l-203 442l203 443h117l200 -443zM285 574l-129 -314l129 -312l129 312z" />
    <glyph glyph-name="fi" unicode="&#xfb01;" horiz-adv-x="596" 
d="M537 626q0 -37 -23 -57t-57 -20t-57 20t-23 57t23 57t57 20t57 -20t23 -57zM385 0v407h-160v-407h-143v407h-72v93h72v42q0 173 179 173q20 0 41.5 -3t34.5 -5v-101q-8 1 -23.5 2t-26.5 1q-31 0 -46.5 -15t-15.5 -50v-44h303v-500h-143z" />
    <glyph glyph-name="fl" unicode="&#xfb02;" horiz-adv-x="606" 
d="M592 0q-14 -3 -36 -6.5t-42 -3.5q-66 0 -97 30t-31 102v581h143v-561q0 -20 5 -34.5t28 -14.5q7 0 15 1t15 3v-97zM322 606q-8 1 -18.5 2t-21.5 1q-31 0 -44 -15t-13 -50v-44h92v-93h-92v-407h-143v407h-72v93h72v42q0 87 38 130t126 43q20 0 41.5 -3t34.5 -5v-101z" />
    </font>
</defs>
</svg>
