<?xml version="1.0" standalone="no"?>
<!DOCTYPE svg PUBLIC "-//W3C//DTD SVG 1.1//EN" "http://www.w3.org/Graphics/SVG/1.1/DTD/svg11.dtd" >
<svg>
<metadata>
Created by FontForge 20110222 at Mon Jan 26 14:37:26 2015
 By www-data
The digitally encoded machine readable outline data for producing the Typefaces licensed to you is copyrighted (c)1999 by and the property of Heidelberger Druckmaschinen AG and/or its subsidiaries. All Rights Reserved. Version 2007 by primetype.com
</metadata>
<defs>
<font id="HeidelbgGothicWebMl-Light" horiz-adv-x="516" >
  <font-face 
    font-family="HeidelbgGothicWebMl-Light"
    font-weight="300"
    font-stretch="normal"
    units-per-em="1000"
    panose-1="2 0 5 6 3 0 0 2 0 4"
    ascent="780"
    descent="-220"
    x-height="500"
    cap-height="703"
    bbox="-551 -209 1215 903"
    underline-thickness="50"
    underline-position="-50"
    unicode-range="U+000D-FB02"
  />
<missing-glyph horiz-adv-x="544" 
d="M71 705h402v-705h-402v705zM398 75v555h-252v-555h252z" />
    <glyph glyph-name=".notdef" horiz-adv-x="544" 
d="M71 705h402v-705h-402v705zM398 75v555h-252v-555h252z" />
    <glyph glyph-name=".null" horiz-adv-x="0" 
 />
    <glyph glyph-name="nonmarkingreturn" horiz-adv-x="1000" 
 />
    <glyph glyph-name="uni000D" unicode="&#xd;" horiz-adv-x="280" 
 />
    <glyph glyph-name="space" unicode=" " horiz-adv-x="280" 
 />
    <glyph glyph-name="exclam" unicode="!" horiz-adv-x="262" 
d="M154 212h-46v491h51zM172 30q0 -19 -11.5 -30t-29.5 -11t-29.5 11t-11.5 30t11.5 30t29.5 11t29.5 -11t11.5 -30z" />
    <glyph glyph-name="quotedbl" unicode="&#x22;" horiz-adv-x="371" 
d="M277 459h-44l-5 220h55zM137 459h-44l-5 220h55z" />
    <glyph glyph-name="numbersign" unicode="#" horiz-adv-x="604" 
d="M449 190v-190h-50v190h-194v-190h-50v190h-90v40h90v220h-90v40h90v189h50v-189h194v189h50v-189h90v-40h-90v-220h90v-40h-90zM399 450h-194v-220h194v220z" />
    <glyph glyph-name="dollar" unicode="$" horiz-adv-x="559" 
d="M491 182q0 -48 -15 -83t-41.5 -59t-63.5 -36.5t-80 -14.5v-109h-40v108q-88 4 -141.5 45t-73.5 122l56 16q15 -56 53 -93t106 -42v290q-34 10 -67 22t-58.5 32t-41.5 51t-16 78q0 42 14 75.5t38.5 56.5t58 36.5t72.5 16.5v105h40v-104q79 -4 128.5 -42t65.5 -113l-56 -12
q-14 55 -46 85t-92 34v-277q36 -10 72 -22t64.5 -32t46 -52t17.5 -82zM251 647q-58 -7 -92 -44t-34 -88q0 -31 10 -52.5t27 -37t40 -25.5t49 -18v265zM434 178q0 33 -11.5 55.5t-31.5 38t-46 25.5t-54 18v-279q71 5 107 45.5t36 96.5z" />
    <glyph glyph-name="percent" unicode="%" horiz-adv-x="897" 
d="M837 170q0 -38 -10.5 -71.5t-31 -58t-51 -38.5t-69.5 -14t-69 14t-51 38.5t-31.5 58t-10.5 71.5t10.5 71.5t31 58t51 38.5t69.5 14t69 -14t51 -38.5t31.5 -58t10.5 -71.5zM278 0h-55l395 679h55zM384 510q0 -38 -10.5 -71.5t-31 -58t-51 -38.5t-69.5 -14t-69 14t-51 38.5
t-31.5 58t-10.5 71.5t10.5 71.5t31 58t51 38.5t69.5 14t69 -14t51 -38.5t31.5 -58t10.5 -71.5zM785 170q0 69 -31 105.5t-79 36.5q-46 0 -78 -36.5t-32 -105.5t31 -105.5t79 -36.5q46 0 78 36.5t32 105.5zM332 510q0 69 -31 105.5t-79 36.5q-46 0 -78 -36.5t-32 -105.5
t31 -105.5t79 -36.5q46 0 78 36.5t32 105.5z" />
    <glyph glyph-name="ampersand" unicode="&#x26;" horiz-adv-x="615" 
d="M577 -9q-20 0 -40 7.5t-39 19.5t-36.5 27t-32.5 30q-39 -37 -81.5 -60.5t-97.5 -23.5q-90 0 -141 51t-51 142q0 36 11.5 66.5t30.5 56t44 46t52 37.5q-21 42 -36.5 83t-15.5 89q0 33 9.5 61t27 48.5t42.5 32t55 11.5q58 0 91 -37t33 -100q0 -35 -13 -64.5t-33.5 -54.5
t-46 -45t-50.5 -36q33 -60 77 -119t89 -110q26 37 46.5 90.5t28.5 104.5l47 -3q-8 -63 -32.5 -120.5t-56.5 -106.5q25 -26 57.5 -49.5t61.5 -27.5v-46zM349 579q0 18 -4 35t-12.5 30t-22 21t-32.5 8q-37 0 -59 -31.5t-22 -79.5q0 -39 13 -76t30 -72q19 13 38.5 30t35.5 38
t25.5 45.5t9.5 51.5zM397 108q-51 54 -98.5 117.5t-83.5 127.5q-20 -12 -38.5 -28.5t-32.5 -37.5t-22.5 -47t-8.5 -56q0 -36 11 -64t29.5 -47.5t43.5 -29.5t53 -10q19 0 39.5 6.5t40 17.5t36.5 24t31 27z" />
    <glyph glyph-name="quotesingle" unicode="'" horiz-adv-x="231" 
d="M137 459h-44l-5 220h55z" />
    <glyph glyph-name="parenleft" unicode="(" horiz-adv-x="295" 
d="M241 -123q-29 43 -56 94t-48 109.5t-34 124.5t-13 141t13 141t34 124.5t48 109t56 94.5l34 -18q-26 -44 -49 -91t-40.5 -101t-28 -117.5t-10.5 -141.5t10.5 -141.5t28 -117.5t40.5 -101t49 -91z" />
    <glyph glyph-name="parenright" unicode=")" horiz-adv-x="295" 
d="M205 346q0 -75 -13 -141t-34 -124.5t-48 -109.5t-56 -94l-34 18q25 45 48 91.5t41 100.5t28.5 117.5t10.5 141.5t-10.5 141.5t-28.5 117.5t-41 100.5t-48 91.5l34 18q29 -44 56 -94.5t48 -109t34 -124.5t13 -141z" />
    <glyph glyph-name="asterisk" unicode="*" horiz-adv-x="418" 
d="M238 550l76 -102l-31 -23l-74 103l-74 -103l-32 23l75 102l-110 33l11 40l111 -39l-4 119h44l-4 -119l113 39l11 -40z" />
    <glyph glyph-name="plus" unicode="+" horiz-adv-x="549" 
d="M300 309v-197h-52v197h-178v47h178v197h52v-197h179v-47h-179z" />
    <glyph glyph-name="comma" unicode="," horiz-adv-x="258" 
d="M170 23q0 -51 -27 -96t-64 -79l-22 18q34 35 46.5 63t12.5 44q0 10 -4 16t-9.5 11.5t-9.5 12t-4 18.5q0 17 11 28.5t28 11.5q20 0 31 -13.5t11 -34.5z" />
    <glyph glyph-name="hyphen" unicode="-" horiz-adv-x="322" 
d="M70 283v42h182v-42h-182z" />
    <glyph glyph-name="period" unicode="." horiz-adv-x="258" 
d="M170 30q0 -19 -11.5 -30t-29.5 -11t-29.5 11t-11.5 30t11.5 30t29.5 11t29.5 -11t11.5 -30z" />
    <glyph glyph-name="slash" unicode="/" horiz-adv-x="431" 
d="M97 -12h-57l294 715h57z" />
    <glyph glyph-name="zero" unicode="0" horiz-adv-x="568" 
d="M500 340q0 -36 -4.5 -76t-14.5 -79t-26.5 -75t-40.5 -63t-56 -43t-74 -16t-74 16t-56 43t-40.5 63t-26.5 75t-14.5 79t-4.5 76q0 54 10.5 116t35 114.5t66 87.5t104.5 35t104.5 -35t66 -87.5t35 -114.5t10.5 -116zM443 340q0 52 -7.5 106.5t-26 99.5t-49 73.5t-76.5 28.5
t-76.5 -28.5t-49 -73.5t-26 -99.5t-7.5 -106.5t7.5 -106.5t26 -99t49 -73t76.5 -28.5t76.5 28.5t49 73t26 99t7.5 106.5z" />
    <glyph glyph-name="one" unicode="1" horiz-adv-x="321" 
d="M158 0v566h-120v33q36 0 60 3.5t40.5 12.5t27.5 24.5t20 39.5h27v-679h-55z" />
    <glyph glyph-name="two" unicode="2" horiz-adv-x="503" 
d="M63 0v25q0 47 16 86t41.5 73t57.5 64t64 59q27 24 51.5 47.5t43 49t30 53t11.5 59.5q0 31 -10 55.5t-27 41t-39 25t-46 8.5q-35 0 -59 -10.5t-41 -29t-27 -43.5t-16 -54l-55 10q17 88 65 131t133 43q45 0 78.5 -14t56 -38t33.5 -56t11 -69q0 -39 -14 -73t-37 -64t-52 -57
t-59 -53q-29 -26 -57 -52t-50 -53t-35 -56t-13 -61h327v-47h-382z" />
    <glyph glyph-name="three" unicode="3" horiz-adv-x="531" 
d="M463 182q0 -46 -16 -82t-43.5 -61t-65 -38t-79.5 -13q-81 0 -130.5 35t-80.5 107l51 21q23 -54 63 -85t97 -31q28 0 55 9.5t47 28.5t32.5 46t12.5 63q0 43 -15 72t-41 46t-60 24.5t-73 7.5h-27v47h29q34 0 64.5 7.5t53 25t35.5 45t13 66.5q0 28 -9.5 51t-26.5 39
t-39.5 24.5t-47.5 8.5q-50 0 -85 -27.5t-61 -67.5l-44 23q36 58 81.5 88.5t108.5 30.5q82 0 131 -45.5t49 -124.5q0 -63 -35.5 -104.5t-87.5 -60.5q64 -14 104 -59t40 -117z" />
    <glyph glyph-name="four" unicode="4" horiz-adv-x="553" 
d="M418 170v-170h-56v170h-314v35l292 474h78v-462h87v-47h-87zM362 626l-253 -409h253v409z" />
    <glyph glyph-name="five" unicode="5" 
d="M448 223q0 -52 -13.5 -95t-40.5 -74t-66 -48.5t-90 -17.5q-66 0 -115 32.5t-75 101.5l49 20q19 -51 57.5 -79t83.5 -28q75 0 114 52t39 136q0 32 -7 62t-22.5 53t-41 36.5t-61.5 13.5q-45 0 -79 -25t-53 -61l-57 14l25 363h338l-2 -47h-284l-18 -257q26 27 58.5 43.5
t77.5 16.5t79 -16.5t57.5 -45t35 -67t11.5 -83.5z" />
    <glyph glyph-name="six" unicode="6" horiz-adv-x="545" 
d="M477 223q0 -54 -15 -97t-42 -74t-64 -47.5t-81 -16.5q-63 0 -103 28t-63.5 72.5t-32 99t-8.5 107.5q0 72 13.5 143t43.5 127.5t78 92t116 35.5q42 0 73.5 -15.5t60.5 -45.5l-36 -30q-19 19 -42 31.5t-56 12.5q-47 0 -82.5 -25.5t-59.5 -70t-37 -103.5t-15 -126
q15 19 33.5 38t40.5 34t47 24t52 9q45 0 78.5 -15.5t56 -42.5t33.5 -64.5t11 -80.5zM420 223q0 33 -8 61.5t-23.5 49.5t-39.5 33t-56 12q-24 0 -48 -10.5t-46.5 -27t-41.5 -36.5t-32 -39q4 -125 43.5 -178.5t106.5 -53.5q34 0 60.5 14t45.5 39t29 60t10 76z" />
    <glyph glyph-name="seven" unicode="7" horiz-adv-x="455" 
d="M166 0h-57l248 632h-319v47h379v-27z" />
    <glyph glyph-name="eight" unicode="8" horiz-adv-x="559" 
d="M491 178q0 -46 -18.5 -81.5t-49 -59.5t-69.5 -36.5t-80 -12.5q-46 0 -84 13t-65 37t-42 58.5t-15 76.5q0 67 38.5 112.5t110.5 74.5q-24 11 -46.5 24.5t-40.5 32.5t-28.5 44t-10.5 60q0 38 14 69.5t39.5 54.5t60.5 35.5t77 12.5t76 -12.5t59 -35t38.5 -54t13.5 -70.5
q0 -34 -11.5 -60t-29.5 -46t-41 -34t-45 -24q72 -31 110.5 -72t38.5 -107zM412 522q0 22 -8 44.5t-24 40.5t-40.5 29.5t-57.5 11.5t-58.5 -11.5t-42 -29.5t-25 -40.5t-8.5 -44.5q0 -53 39 -86t99 -56q54 18 90 53t36 89zM434 177q0 33 -12.5 57.5t-34 43t-50 32.5t-59.5 25
q-29 -7 -56 -21t-49 -34.5t-35 -47.5t-13 -60q0 -27 9 -51.5t27.5 -44t46.5 -31t66 -11.5q40 0 70 12.5t50 33t30 46t10 51.5z" />
    <glyph glyph-name="nine" unicode="9" horiz-adv-x="539" 
d="M471 386q0 -189 -57.5 -293.5t-169.5 -104.5q-42 0 -81 18.5t-68 48.5l39 32q19 -19 48 -35.5t62 -16.5q34 0 64 17.5t53 56t37 99.5t16 147q-15 -18 -32.5 -34.5t-38 -29.5t-43.5 -21t-48 -8q-45 0 -79 15t-57.5 42t-35.5 63.5t-12 80.5q0 49 14.5 91.5t40.5 73t62.5 48
t80.5 17.5q61 0 100.5 -28t62.5 -72.5t32.5 -99t9.5 -107.5zM414 406q-2 64 -13 110t-30.5 75t-46 42.5t-58.5 13.5q-31 0 -57 -13.5t-44.5 -37.5t-29 -58t-10.5 -75q0 -66 33.5 -110t98.5 -44q22 0 44 8.5t42 22t38.5 31t32.5 35.5z" />
    <glyph glyph-name="colon" unicode=":" horiz-adv-x="258" 
d="M170 449q0 -19 -11.5 -30t-29.5 -11t-29.5 11t-11.5 30t11.5 30t29.5 11t29.5 -11t11.5 -30zM170 30q0 -19 -11.5 -30t-29.5 -11t-29.5 11t-11.5 30t11.5 30t29.5 11t29.5 -11t11.5 -30z" />
    <glyph glyph-name="semicolon" unicode=";" horiz-adv-x="258" 
d="M170 449q0 -19 -11.5 -30t-29.5 -11t-29.5 11t-11.5 30t11.5 30t29.5 11t29.5 -11t11.5 -30zM170 23q0 -51 -27 -96t-64 -79l-22 18q34 35 46.5 63t12.5 44q0 10 -4 16t-9.5 11.5t-9.5 12t-4 18.5q0 17 11 28.5t28 11.5q20 0 31 -13.5t11 -34.5z" />
    <glyph glyph-name="less" unicode="&#x3c;" horiz-adv-x="549" 
d="M70 304v46l409 191v-55l-357 -158l357 -167v-55z" />
    <glyph glyph-name="equal" unicode="=" horiz-adv-x="549" 
d="M70 389v47h409v-47h-409zM70 219v47h409v-47h-409z" />
    <glyph glyph-name="greater" unicode="&#x3e;" horiz-adv-x="549" 
d="M70 106v55l357 167l-357 158v55l409 -191v-46z" />
    <glyph glyph-name="question" unicode="?" horiz-adv-x="417" 
d="M357 574q0 -38 -10 -65t-24.5 -50.5t-32 -45t-32 -47t-24.5 -58t-10 -77.5v-19h-52v20q0 47 9.5 81.5t23.5 61.5t31 49.5t31 45t23.5 47.5t9.5 57q0 18 -4.5 35t-14.5 30.5t-26.5 22t-40.5 8.5q-21 0 -39 -8t-32 -20.5t-23.5 -28t-14.5 -30.5l-45 23q20 54 58.5 82.5
t95.5 28.5q66 0 104.5 -36.5t38.5 -106.5zM239 30q0 -19 -11.5 -30t-29.5 -11t-29.5 11t-11.5 30t11.5 30t29.5 11t29.5 -11t11.5 -30z" />
    <glyph glyph-name="at" unicode="@" horiz-adv-x="1007" 
d="M937 322q0 -85 -18.5 -146t-49 -100t-69.5 -57.5t-80 -18.5q-32 0 -55.5 10.5t-39.5 28t-24.5 41t-9.5 49.5q-15 -24 -32.5 -45.5t-36.5 -38t-40 -26t-43 -9.5q-34 0 -58.5 14.5t-40 39t-23 58t-7.5 72.5q0 51 12 106.5t38 102t66.5 76.5t96.5 30q38 0 68.5 -19t52.5 -45
l17 55h40l-42 -240q-10 -57 -13.5 -83.5t-3.5 -33.5q0 -40 20 -69.5t58 -29.5q31 0 60 16t51.5 50t36.5 86.5t14 125.5q0 76 -26 142.5t-74 116t-115.5 77.5t-150.5 28q-84 0 -155.5 -33.5t-124 -93.5t-82 -143.5t-29.5 -183.5q0 -99 29 -173t77.5 -123t112 -73.5
t132.5 -24.5q31 0 61.5 3t57.5 7.5t50 10t39 9.5l8 -46q-15 -4 -37 -9.5t-49.5 -10t-60.5 -8t-69 -3.5q-87 0 -161.5 28.5t-128.5 84.5t-85 138.5t-31 189.5q0 115 34 207.5t94 157.5t141.5 100.5t176.5 35.5q98 0 176 -30.5t132.5 -85.5t83.5 -130t29 -165zM632 404
q-20 26 -47.5 45t-59.5 19q-42 0 -72.5 -28t-50 -69.5t-29 -88.5t-9.5 -86q0 -64 18.5 -104.5t62.5 -40.5q18 0 38 12.5t39.5 32.5t38.5 46.5t36 54.5z" />
    <glyph glyph-name="A" unicode="A" horiz-adv-x="546" 
d="M456 0l-60 218h-246l-60 -218h-60l200 703h86l200 -703h-60zM273 662l-110 -397h220z" />
    <glyph glyph-name="B" unicode="B" horiz-adv-x="564" 
d="M501 194q0 -54 -16.5 -91t-45.5 -60t-69.5 -33t-88.5 -10h-183v703h162q43 0 83 -7.5t70 -27t48 -54.5t18 -89q0 -63 -32 -100.5t-89 -54.5q69 -14 106 -59t37 -117zM424 522q0 42 -14.5 68t-38 41t-54 20t-61.5 5h-103v-264h83q31 0 64.5 4t61 17.5t45 39t17.5 69.5z
M444 196q0 49 -19.5 78t-50 45t-68 21t-73.5 5h-80v-298h108q34 0 67 5.5t58.5 21t41.5 45t16 77.5z" />
    <glyph glyph-name="C" unicode="C" horiz-adv-x="595" 
d="M547 187q-9 -44 -26.5 -81t-45.5 -63t-67 -40.5t-91 -14.5q-72 0 -119.5 32t-76.5 83.5t-41 115.5t-12 129q0 64 13 130t42 119t77 86.5t119 33.5q51 0 87.5 -14t62 -39.5t42 -61t27.5 -78.5l-59 -13q-6 31 -15.5 59.5t-27.5 50.5t-46 35.5t-71 13.5q-51 0 -87.5 -27
t-60 -71.5t-34.5 -102.5t-11 -121q0 -59 10.5 -115t34 -100t59.5 -70.5t87 -26.5q40 0 69.5 13.5t50 36t33 52.5t18.5 63z" />
    <glyph glyph-name="D" unicode="D" horiz-adv-x="622" 
d="M554 355q0 -175 -77 -265t-242 -90h-137v703h137q85 0 145.5 -22t99 -65.5t56.5 -109t18 -151.5zM497 355q0 62 -11.5 117t-40.5 96t-78 64.5t-123 23.5h-91v-609h75q79 0 131 22.5t82.5 63t43 97t12.5 125.5z" />
    <glyph glyph-name="E" unicode="E" horiz-adv-x="510" 
d="M98 0v703h354v-47h-299v-260h231v-47h-231v-302h309v-47h-364z" />
    <glyph glyph-name="F" unicode="F" horiz-adv-x="500" 
d="M153 656v-260h241v-47h-241v-349h-55v703h354v-47h-299z" />
    <glyph glyph-name="G" unicode="G" horiz-adv-x="632" 
d="M491 0l-3 114q-10 -26 -26.5 -49t-38.5 -40t-50 -27t-61 -10q-67 0 -113.5 29t-75.5 78.5t-42 115.5t-13 140q0 64 13 129.5t43 118t78.5 85.5t119.5 33q46 0 81 -12.5t60.5 -36t42.5 -57t28 -76.5l-53 -15q-7 32 -19 59.5t-31 47.5t-46 31.5t-64 11.5q-54 0 -91.5 -29.5
t-60.5 -75.5t-33.5 -102t-10.5 -108q0 -57 9 -114t31.5 -102.5t60.5 -74t97 -28.5q46 0 77 23.5t50 59.5t26.5 79.5t7.5 84.5h-159v47h209v-330h-43z" />
    <glyph glyph-name="H" unicode="H" horiz-adv-x="645" 
d="M492 0v349h-339v-349h-55v703h55v-307h339v307h55v-703h-55z" />
    <glyph glyph-name="I" unicode="I" horiz-adv-x="251" 
d="M98 0v703h55v-703h-55z" />
    <glyph glyph-name="J" unicode="J" horiz-adv-x="438" 
d="M340 196q0 -47 -9 -85.5t-29 -65.5t-51 -42t-75 -15q-57 0 -91 27t-55 87l54 19q12 -35 34.5 -60t57.5 -25q33 0 54 14.5t33.5 37t17 49.5t4.5 53v513h55v-507z" />
    <glyph glyph-name="K" unicode="K" horiz-adv-x="555" 
d="M470 0l-213 364l-104 -135v-229h-55v703h55v-392l301 392h65l-228 -295l244 -408h-65z" />
    <glyph glyph-name="L" unicode="L" horiz-adv-x="487" 
d="M98 0v703h55v-656h286v-47h-341z" />
    <glyph glyph-name="M" unicode="M" horiz-adv-x="765" 
d="M612 0v647l-198 -647h-68l-193 647v-647h-55v703h90l192 -650l197 650h90v-703h-55z" />
    <glyph glyph-name="N" unicode="N" horiz-adv-x="643" 
d="M478 0l-325 646v-646h-55v703h80l312 -619v619h55v-703h-67z" />
    <glyph glyph-name="O" unicode="O" horiz-adv-x="638" 
d="M570 353q0 -81 -16.5 -148t-48 -115.5t-78.5 -75t-108 -26.5t-107.5 26.5t-78.5 75t-48.5 115.5t-16.5 148t17.5 148t50 115t79 74.5t104.5 26.5t104.5 -26.5t79 -74.5t50 -115t17.5 -148zM513 353q0 69 -12.5 127t-37 100.5t-60.5 66t-84 23.5q-45 0 -81 -23.5t-61 -66
t-38.5 -100.5t-13.5 -127t12 -127.5t36 -100.5t60.5 -66t85.5 -24t85.5 24t60.5 66t36 100.5t12 127.5z" />
    <glyph glyph-name="P" unicode="P" horiz-adv-x="538" 
d="M480 510q0 -54 -17.5 -91t-48 -59.5t-72.5 -32t-90 -9.5h-99v-318h-55v703h147q50 0 93 -9t74.5 -31.5t49.5 -59.5t18 -93zM423 511q0 42 -14 70t-38.5 44.5t-57 23.5t-68.5 7h-92v-288h86q37 0 70 5t58.5 20.5t40.5 43.5t15 74z" />
    <glyph glyph-name="Q" unicode="Q" horiz-adv-x="638" 
d="M548 -77l-99 106q-55 -41 -130 -41q-61 0 -107.5 26.5t-78.5 75t-48.5 115.5t-16.5 148t17.5 148t50 115t79 74.5t104.5 26.5t104.5 -26.5t79 -74.5t50 -115t17.5 -148q0 -94 -21.5 -169t-64.5 -123l98 -105zM513 353q0 69 -12.5 127t-37 100.5t-60.5 66t-84 23.5
q-45 0 -81 -23.5t-61 -66t-38.5 -100.5t-13.5 -127t12 -127.5t36 -100.5t60.5 -66t85.5 -24q55 0 95 31l-102 108l34 33l102 -108q33 43 49 108t16 146z" />
    <glyph glyph-name="R" unicode="R" horiz-adv-x="556" 
d="M448 0l-174 329q-11 -1 -22.5 -1.5t-23.5 -0.5h-75v-327h-55v703h149q53 0 97.5 -9t76.5 -30t49.5 -56t17.5 -87q0 -41 -12 -72t-33.5 -53.5t-51 -37t-63.5 -21.5l180 -337h-60zM431 521q0 41 -15.5 67.5t-41.5 41.5t-61.5 20.5t-75.5 5.5h-84v-281h90q41 0 75.5 8
t59.5 25.5t39 45t14 67.5z" />
    <glyph glyph-name="S" unicode="S" horiz-adv-x="539" 
d="M471 182q0 -97 -57.5 -145.5t-153.5 -48.5q-183 0 -224 167l56 16q16 -60 56 -98t114 -38q40 0 69 12t47.5 32t27 46t8.5 53q0 51 -25.5 80t-64 47t-83.5 32t-83.5 36t-64 58.5t-25.5 99.5q0 43 14.5 77.5t40 58.5t61 37t78.5 13q82 0 134 -38.5t69 -116.5l-56 -12
q-15 60 -48 90t-99 30q-33 0 -59 -11.5t-43 -30.5t-26 -42.5t-9 -48.5q0 -52 25.5 -81t64 -47.5t83.5 -32.5t83.5 -36t64 -58.5t25.5 -99.5z" />
    <glyph glyph-name="T" unicode="T" horiz-adv-x="489" 
d="M273 651v-651h-55v651h-188v52h429v-52h-186z" />
    <glyph glyph-name="U" unicode="U" horiz-adv-x="631" 
d="M533 241q0 -122 -52 -187.5t-168 -65.5q-58 0 -98.5 16.5t-66.5 49t-38 79.5t-12 108v462h55v-461q0 -45 8 -82.5t26.5 -64.5t49.5 -42.5t76 -15.5t76.5 15.5t51 42.5t28.5 64.5t9 82.5v461h55v-462z" />
    <glyph glyph-name="V" unicode="V" horiz-adv-x="532" 
d="M307 0h-78l-204 703h60l184 -651l178 651h60z" />
    <glyph glyph-name="W" unicode="W" horiz-adv-x="788" 
d="M618 0h-77l-147 660l-147 -660h-77l-135 703h60l116 -647l139 647h88l139 -647l116 647h60z" />
    <glyph glyph-name="X" unicode="X" horiz-adv-x="498" 
d="M413 0l-164 314l-164 -314h-65l195 364l-185 339h65l154 -293l154 293h65l-183 -339l193 -364h-65z" />
    <glyph glyph-name="Y" unicode="Y" horiz-adv-x="513" 
d="M283 281v-281h-55v281l-208 422h63l175 -369l172 369h63z" />
    <glyph glyph-name="Z" unicode="Z" horiz-adv-x="503" 
d="M128 50h313v-50h-383v36l317 617h-288v50h358v-39z" />
    <glyph glyph-name="bracketleft" unicode="[" horiz-adv-x="250" 
d="M88 -103v876h142v-47h-87v-782h87v-47h-142z" />
    <glyph glyph-name="backslash" unicode="\" horiz-adv-x="411" 
d="M324 -12l-294 715h57l294 -715h-57z" />
    <glyph glyph-name="bracketright" unicode="]" horiz-adv-x="192" 
d="M20 -103v47h87v782h-87v47h142v-876h-142z" />
    <glyph glyph-name="asciicircum" unicode="^" horiz-adv-x="571" 
d="M456 259l-171 361l-170 -361h-57l203 420h47l205 -420h-57z" />
    <glyph glyph-name="underscore" unicode="_" horiz-adv-x="382" 
d="M0 -179v42h382v-42h-382z" />
    <glyph glyph-name="grave" unicode="`" horiz-adv-x="175" 
d="M113 581l-83 122h55l60 -122h-32z" />
    <glyph glyph-name="a" unicode="a" horiz-adv-x="482" 
d="M353 0q-1 6 -2.5 16t-2.5 22t-2.5 24.5t-2.5 21.5q-16 -16 -34.5 -33t-39.5 -30.5t-43.5 -22t-47.5 -8.5q-56 0 -93 30t-37 95q0 52 27.5 86t70 55.5t94.5 34t102 23.5v35q0 25 -4 46.5t-15.5 37.5t-32.5 25t-55 9q-45 0 -78 -22.5t-47 -60.5l-45 14q19 49 63 80t107 31
q82 0 120.5 -39.5t38.5 -127.5v-232q0 -17 1 -35.5t3 -35.5q1 -10 2 -19.5t3 -19.5h-50zM342 275q-37 -8 -79 -18.5t-78 -28t-59.5 -44t-23.5 -65.5q0 -45 24.5 -67t58.5 -22q21 0 42.5 9.5t42.5 23.5t39.5 31t32.5 31v150z" />
    <glyph glyph-name="b" unicode="b" horiz-adv-x="510" 
d="M452 247q0 -44 -10 -89.5t-32 -82.5t-55.5 -61t-81.5 -24t-80.5 22t-57.5 51l-15 -63h-32v703h52v-276q12 13 27 27.5t32.5 26.5t37.5 20t42 8q45 0 77.5 -20t54 -55.5t31.5 -83.5t10 -103zM398 247q0 103 -30.5 162t-90.5 59q-40 0 -74.5 -26t-62.5 -58v-282
q23 -29 56 -50t73 -21q29 0 53 16t41 44.5t26 68.5t9 87z" />
    <glyph glyph-name="c" unicode="c" horiz-adv-x="442" 
d="M414 121q-20 -63 -63 -97t-106 -34q-51 0 -86.5 20.5t-58 55.5t-32.5 81.5t-10 98.5q0 47 11.5 94t34.5 84.5t59 61t86 23.5q63 0 101 -33.5t57 -97.5l-45 -11q-6 21 -14.5 39.5t-22 32t-32 21t-44.5 7.5q-36 0 -62 -20t-42.5 -52t-24.5 -71.5t-8 -77.5q0 -41 7.5 -79.5
t23.5 -68.5t42 -48t62 -18q30 0 50 9t34 23.5t23 33t17 38.5z" />
    <glyph glyph-name="d" unicode="d" horiz-adv-x="510" 
d="M380 0q-2 11 -4 32.5t-4 41.5q-12 -14 -27 -29t-33 -27t-38.5 -20t-42.5 -8q-45 0 -77.5 20t-54 55.5t-31.5 83t-10 103.5q0 43 10 89t32 83t55.5 61t81.5 24q46 0 77.5 -20t55.5 -49v263h52v-600q0 -14 0.5 -31.5t2.5 -33.5l3 -38h-48zM370 397q-23 29 -56 50t-73 21
q-29 0 -53 -16t-41 -44.5t-26 -68.5t-9 -87q0 -103 30.5 -162t90.5 -59q39 0 74 26t63 58v282z" />
    <glyph glyph-name="e" unicode="e" horiz-adv-x="473" 
d="M418 112q-18 -54 -62.5 -88t-107.5 -34q-91 0 -140.5 66t-49.5 192q0 58 13.5 106t37.5 82.5t58 53.5t75 19q51 0 84.5 -22t53 -58t27.5 -81t8 -90v-7h-304v-4q0 -105 37 -160t100 -55q48 0 78 23.5t49 71.5zM363 288q-1 38 -8 71t-21.5 57.5t-37 38.5t-54.5 14
q-52 0 -87 -45.5t-42 -135.5h250z" />
    <glyph glyph-name="f" unicode="f" horiz-adv-x="247" 
d="M247 667q-8 1 -18.5 2t-19.5 1q-40 0 -54.5 -24.5t-14.5 -61.5v-84h102v-40h-102v-460h-52v460h-72v40h72v80q0 134 117 134q14 0 23.5 -2t18.5 -4v-41z" />
    <glyph glyph-name="g" unicode="g" horiz-adv-x="454" 
d="M438 -34q0 -37 -18.5 -65.5t-49 -47.5t-70.5 -29t-82 -10q-27 0 -58 6t-57 19.5t-43 36t-17 55.5q0 22 8.5 41.5t22.5 35t31 27.5t34 20q-26 8 -45.5 24.5t-19.5 48.5q0 27 20 47.5t47 31.5q-36 19 -59.5 54t-23.5 87q0 39 14 69.5t37.5 50.5t54 30.5t63.5 10.5
q32 0 62.5 -10t53.5 -30q18 20 40.5 31.5t54.5 11.5v-48q-13 0 -33.5 -3.5t-39.5 -14.5q14 -19 22.5 -43.5t8.5 -54.5q0 -39 -13.5 -69.5t-37 -50.5t-54 -30.5t-64.5 -10.5q-31 0 -53 7q-15 -7 -32 -20.5t-17 -31.5q0 -19 15 -30t37 -15l141 -25q24 -5 46 -12.5t38.5 -19.5
t26 -30t9.5 -44zM346 348q0 57 -31 90t-88 33q-51 0 -85 -33t-34 -90q0 -60 34 -91.5t85 -31.5t85 33t34 90zM386 -43q0 32 -20 47t-56 21l-128 22q-18 -8 -34.5 -20t-29 -26t-20 -30t-7.5 -32q0 -45 37 -65.5t97 -20.5q32 0 61.5 7t51.5 20.5t35 33t13 43.5z" />
    <glyph glyph-name="h" unicode="h" 
d="M376 0v349q0 54 -16.5 83.5t-61.5 29.5q-40 0 -78 -27t-80 -69v-366h-52v702h52v-294q16 17 34 35t38.5 32.5t43.5 24t49 9.5q38 0 62 -13t37.5 -35t18.5 -51t5 -60v-350h-52z" />
    <glyph glyph-name="i" unicode="i" horiz-adv-x="228" 
d="M153 640q0 -18 -11 -28.5t-28 -10.5t-28 10.5t-11 28.5t11 28.5t28 10.5t28 -10.5t11 -28.5zM88 0v500h52v-500h-52z" />
    <glyph glyph-name="j" unicode="j" horiz-adv-x="228" 
d="M153 640q0 -18 -11 -28.5t-28 -10.5t-28 10.5t-11 28.5t11 28.5t28 10.5t28 -10.5t11 -28.5zM140 -55q0 -66 -23.5 -97.5t-77.5 -31.5q-11 0 -22 1t-17 3v40q6 -1 17.5 -1.5t17.5 -0.5q16 0 26.5 7t16.5 18.5t8 26.5t2 31v559h52v-555z" />
    <glyph glyph-name="k" unicode="k" horiz-adv-x="439" 
d="M362 0l-146 271l-76 -94v-177h-52v703h52v-456l201 253h62l-154 -189l170 -311h-57z" />
    <glyph glyph-name="l" unicode="l" horiz-adv-x="228" 
d="M207 4l-22 -5q-11 -3 -24 -3q-73 0 -73 88v619h52v-618q0 -21 6.5 -33.5t23.5 -12.5q8 0 18.5 1t18.5 3v-39z" />
    <glyph glyph-name="m" unicode="m" horiz-adv-x="784" 
d="M644 0v349q0 54 -17 83.5t-62 29.5q-36 0 -73 -25t-75 -64q0 -6 0.5 -11.5t0.5 -11.5v-350h-52v349q0 54 -17 83.5t-62 29.5q-36 0 -72.5 -24t-74.5 -62v-376h-52v500h52v-82q15 16 32.5 32.5t36.5 29.5t40.5 21t45.5 8q56 0 82.5 -27.5t34.5 -68.5q15 17 32.5 34t38 31
t43 22.5t47.5 8.5q38 0 62 -13t37.5 -35t18.5 -51t5 -60v-350h-52z" />
    <glyph glyph-name="n" unicode="n" 
d="M376 0v349q0 54 -16.5 83.5t-61.5 29.5q-40 0 -78 -27t-80 -69v-366h-52v500h52v-92q16 17 34 35t38.5 32.5t43.5 24t49 9.5q38 0 62 -13t37.5 -35t18.5 -51t5 -60v-350h-52z" />
    <glyph glyph-name="o" unicode="o" horiz-adv-x="496" 
d="M438 249q0 -120 -50 -189.5t-140 -69.5q-91 0 -140.5 69t-49.5 190q0 59 13 107t37 82t59.5 52.5t80.5 18.5t80 -18.5t59.5 -52t37.5 -81.5t13 -108zM384 250q0 103 -36 161t-100 58q-63 0 -99.5 -57t-36.5 -162q0 -103 36.5 -160.5t99.5 -57.5t99.5 56.5t36.5 161.5z
" />
    <glyph glyph-name="p" unicode="p" horiz-adv-x="510" 
d="M452 247q0 -44 -10 -89.5t-32 -82.5t-55.5 -61t-81.5 -24q-45 0 -77 20t-56 48v-237h-52v679h52v-73q12 13 27 27.5t32.5 26.5t37.5 20t42 8q45 0 77.5 -20t54 -55.5t31.5 -83.5t10 -103zM398 247q0 103 -30.5 162t-90.5 59q-40 0 -74.5 -26t-62.5 -58v-282
q23 -29 56 -50t73 -21q29 0 53 16t41 44.5t26 68.5t9 87z" />
    <glyph glyph-name="q" unicode="q" horiz-adv-x="510" 
d="M370 -179v251q-12 -14 -27 -28.5t-32.5 -26.5t-37.5 -19.5t-42 -7.5q-45 0 -77.5 20t-54 55.5t-31.5 83t-10 103.5q0 43 10.5 89t32.5 83t56 61t82 24q46 0 77.5 -20t55.5 -49l7 60h43v-679h-52zM370 399q-23 28 -55.5 48.5t-71.5 20.5q-29 0 -53.5 -16t-41.5 -44.5
t-26.5 -68.5t-9.5 -87q0 -103 30.5 -162t90.5 -59q39 0 74 26t63 58v284z" />
    <glyph glyph-name="r" unicode="r" horiz-adv-x="325" 
d="M305 456q-3 1 -12 1h-12q-29 0 -55 -19.5t-45 -48.5t-30 -62t-11 -60v-267h-52v500h49l2 -120q12 24 26 47.5t31.5 41.5t39.5 29t50 11l19 -2v-51z" />
    <glyph glyph-name="s" unicode="s" horiz-adv-x="415" 
d="M360 132q0 -35 -12.5 -61.5t-34 -44.5t-51.5 -27t-65 -9q-63 0 -101 25.5t-60 77.5l45 17q14 -38 46.5 -58t75.5 -20q18 0 36.5 5t34 16t25 29.5t9.5 44.5q0 34 -18.5 54t-47 33t-61 23.5t-61 26.5t-47 41.5t-18.5 68.5q0 63 41 99t110 36q57 0 91 -23t54 -65l-40 -19
q-14 30 -40.5 47.5t-64.5 17.5q-42 0 -70.5 -21.5t-28.5 -66.5q0 -33 18.5 -52.5t47 -32.5t61 -23.5t61 -27t47 -42.5t18.5 -69z" />
    <glyph glyph-name="t" unicode="t" horiz-adv-x="268" 
d="M248 2q-11 -2 -29.5 -5t-38.5 -3q-51 0 -70.5 29t-19.5 95v342h-75v40h75v148h52v-148h105v-40h-105v-343q0 -16 1.5 -30.5t6.5 -26t14.5 -18t25.5 -6.5q9 0 28.5 2.5t29.5 4.5v-41z" />
    <glyph glyph-name="u" unicode="u" 
d="M381 0l-4 87q-15 -17 -33 -34.5t-38 -31t-42.5 -22t-47.5 -8.5q-38 0 -62.5 13t-39 35t-20.5 50.5t-6 60.5v350h52v-349q0 -54 19 -85t64 -31q37 0 75.5 26t77.5 68v371h52v-500h-47z" />
    <glyph glyph-name="v" unicode="v" horiz-adv-x="430" 
d="M249 0h-68l-156 500h57l133 -453l133 453h57z" />
    <glyph glyph-name="w" unicode="w" horiz-adv-x="682" 
d="M523 0h-62l-120 441l-120 -441h-62l-124 500h57l99 -443l118 443h64l118 -443l99 443h57z" />
    <glyph glyph-name="x" unicode="x" horiz-adv-x="418" 
d="M337 0l-128 223l-128 -223h-61l159 263l-149 237h61l118 -197l118 197h61l-148 -237l158 -263h-61z" />
    <glyph glyph-name="y" unicode="y" horiz-adv-x="433" 
d="M242 -1q-11 -33 -24 -66t-31 -58.5t-44 -41.5t-64 -16q-21 0 -43 5v39q13 -2 22 -3t20 -1q27 0 46.5 14t33.5 36t24 49t18 53l-175 491h55l141 -422l131 422h56z" />
    <glyph glyph-name="z" unicode="z" horiz-adv-x="424" 
d="M48 0v39l262 419h-247v42h312v-31l-268 -427h269v-42h-328z" />
    <glyph glyph-name="braceleft" unicode="{" horiz-adv-x="239" 
d="M206 -98q-125 0 -125 138v211q0 32 -10.5 49.5t-40.5 17.5h-10v39h10q30 0 40.5 17.5t10.5 49.5v211q0 69 29.5 103.5t95.5 34.5h13v-47q-45 0 -64 -20.5t-19 -65.5v-212q0 -39 -16 -59t-42 -31v-1q26 -11 42 -31t16 -59v-212q0 -45 19 -65.5t64 -20.5v-47h-13z" />
    <glyph glyph-name="bar" unicode="|" horiz-adv-x="251" 
d="M98 -120v943h55v-943h-55z" />
    <glyph glyph-name="braceright" unicode="}" horiz-adv-x="239" 
d="M209 318q-30 0 -40.5 -17.5t-10.5 -49.5v-211q0 -69 -29.5 -103.5t-95.5 -34.5h-13v47q45 0 64 20.5t19 65.5v212q0 39 16 59t42 31v1q-26 11 -42 31t-16 59v212q0 45 -19 65.5t-64 20.5v47h13q125 0 125 -138v-211q0 -32 10.5 -49.5t40.5 -17.5h10v-39h-10z" />
    <glyph glyph-name="asciitilde" unicode="~" horiz-adv-x="569" 
d="M499 341q-21 -43 -51.5 -68.5t-75.5 -25.5q-18 0 -42 9.5t-49 21t-48.5 21t-40.5 9.5q-32 0 -52.5 -19t-36.5 -46l-33 29q20 35 51 59t76 24q22 0 46.5 -9.5t48.5 -21t45.5 -21t38.5 -9.5q30 0 51.5 20.5t35.5 46.5z" />
    <glyph glyph-name="uni00A0" unicode="&#xa0;" horiz-adv-x="280" 
 />
    <glyph glyph-name="exclamdown" unicode="&#xa1;" horiz-adv-x="262" 
d="M172 494q0 -19 -11.5 -30t-29.5 -11t-29.5 11t-11.5 30t11.5 30t29.5 11t29.5 -11t11.5 -30zM103 -179v491h51v-491h-51z" />
    <glyph glyph-name="cent" unicode="&#xa2;" horiz-adv-x="462" 
d="M424 121q-18 -57 -55 -90.5t-91 -39.5v-111h-40v111q-47 3 -80.5 23.5t-56 54.5t-33 79.5t-10.5 97.5q0 47 11.5 92t34 81t56.5 60t78 29v112h40v-112q54 -5 88 -37.5t51 -92.5l-45 -11q-11 39 -31.5 66.5t-62.5 32.5v-433q24 3 40.5 13t28 24t19.5 31t15 35zM238 465
q-31 -6 -54.5 -27.5t-39.5 -52t-24 -67t-8 -72.5q0 -40 8 -76.5t23.5 -65.5t39 -48t55.5 -23v432z" />
    <glyph glyph-name="sterling" unicode="&#xa3;" horiz-adv-x="489" 
d="M390 534q-6 24 -15 45t-22.5 36t-33 24t-46.5 9q-26 0 -47 -10t-37 -27.5t-24.5 -41.5t-8.5 -52q0 -42 11.5 -80.5t22.5 -83.5h176l-6 -43h-161q3 -14 4.5 -28.5t1.5 -34.5q0 -61 -23 -112t-65 -88h313v-47h-380v32q98 92 98 213q0 17 -2 33t-5 32h-91l6 43h75
q-11 42 -21.5 82t-10.5 82q0 36 12 68t34.5 56.5t54.5 39t73 14.5q72 0 110 -35.5t56 -113.5z" />
    <glyph glyph-name="currency" unicode="&#xa4;" horiz-adv-x="550" 
d="M459 140l-70 72q-52 -40 -115 -40q-31 0 -58.5 10.5t-57.5 30.5l-65 -72l-36 38l69 71q-21 32 -30 58.5t-9 58.5q0 33 8 59.5t31 58.5l-69 72l36 38l66 -72q29 22 58 30.5t60 8.5q32 0 58.5 -9t53.5 -29l70 71l35 -38l-68 -72q23 -33 31 -60t8 -60q0 -32 -9 -57.5
t-30 -57.5l68 -71zM410 367q0 27 -10 53t-27.5 45.5t-42 31.5t-53.5 12q-30 0 -55 -11.5t-42.5 -31t-27.5 -45.5t-10 -54q0 -27 10 -52.5t28 -45t42 -31.5t53 -12t54 11t43 30.5t28 45t10 54.5z" />
    <glyph glyph-name="yen" unicode="&#xa5;" horiz-adv-x="513" 
d="M299 293h137v-38h-153v-92h153v-38h-153v-125h-55v125h-153v38h153v92h-153v38h138l-193 386h63l175 -366l172 366h63z" />
    <glyph glyph-name="brokenbar" unicode="&#xa6;" horiz-adv-x="251" 
d="M98 410v413h55v-413h-55zM98 -120v413h55v-413h-55z" />
    <glyph glyph-name="section" unicode="&#xa7;" horiz-adv-x="530" 
d="M472 245q0 -79 -83 -138q25 -20 40.5 -47.5t15.5 -69.5q0 -37 -14.5 -67t-39.5 -51t-58.5 -32.5t-71.5 -11.5q-81 0 -135 43.5t-70 131.5l56 17q15 -66 51.5 -105.5t97.5 -39.5q24 0 47 8t41 23t28.5 36t10.5 48q0 24 -10 43t-26.5 34t-39 27t-47.5 23l-93 41
q-48 21 -81.5 53t-33.5 82q0 74 90 136q-24 20 -39.5 48t-15.5 66q0 36 13 65.5t36 50.5t54.5 32.5t69.5 11.5q78 0 122 -41t69 -113l-52 -17q-9 25 -20 47t-27 39t-38.5 27t-53.5 10q-23 0 -43.5 -8t-37 -22.5t-26 -35.5t-9.5 -46q0 -22 8.5 -39.5t23.5 -32.5t35.5 -27.5
t43.5 -23.5l90 -42q25 -12 47 -25t38.5 -29t26.5 -35.5t10 -43.5zM415 226q0 37 -23 60.5t-65 43.5l-84 41q-17 8 -34 16.5t-34 19.5q-22 -20 -41.5 -44.5t-19.5 -54.5q0 -35 21.5 -57.5t63.5 -42.5l89 -42q18 -8 37 -17.5t36 -20.5q24 24 39 48t15 50z" />
    <glyph glyph-name="dieresis" unicode="&#xa8;" horiz-adv-x="294" 
d="M264 640q0 -18 -11 -28.5t-28 -10.5t-28 10.5t-11 28.5t11 28.5t28 10.5t28 -10.5t11 -28.5zM108 640q0 -18 -11 -28.5t-28 -10.5t-28 10.5t-11 28.5t11 28.5t28 10.5t28 -10.5t11 -28.5z" />
    <glyph glyph-name="copyright" unicode="&#xa9;" horiz-adv-x="930" 
d="M862 339q0 -88 -30 -163.5t-83 -131t-126 -87t-158 -31.5q-86 0 -158.5 31.5t-125.5 87t-83 131t-30 163.5t30 163.5t83 131t125.5 87t158.5 31.5q85 0 158 -31.5t126 -87t83 -131t30 -163.5zM810 339q0 82 -27.5 149.5t-74.5 115.5t-110 74t-133 26q-71 0 -133.5 -26
t-109.5 -74t-74.5 -115.5t-27.5 -149.5q0 -83 27.5 -150t74.5 -115t109.5 -74t133.5 -26q70 0 133 26t110 74t74.5 115t27.5 150zM637 224q-20 -63 -63 -100t-106 -37q-51 0 -87 19.5t-59 53.5t-33.5 79.5t-10.5 98.5q0 47 11.5 93.5t35.5 83t60.5 59.5t86.5 23
q63 0 101 -36t57 -100l-45 -11q-6 22 -14.5 41t-22 33t-32 22.5t-44.5 8.5q-36 0 -62.5 -19.5t-44 -50.5t-25.5 -70t-8 -77q0 -41 8 -79t24.5 -67t43 -46t62.5 -17q30 0 50 10t34 25.5t23 35t17 39.5z" />
    <glyph glyph-name="ordfeminine" unicode="&#xaa;" horiz-adv-x="422" 
d="M293 310q-2 10 -4 27t-4 32q-26 -24 -58 -45.5t-70 -21.5q-48 0 -78.5 24t-30.5 78q0 34 14.5 58t38 40.5t52 27t55.5 17.5q18 5 37 8.5t39 8.5v23q0 19 -3 35t-12 28t-25 18.5t-41 6.5q-35 0 -60.5 -17t-36.5 -49l-46 13q17 45 54.5 70t88.5 25q69 0 100.5 -31.5
t31.5 -103.5v-181q0 -13 1 -28.5t3 -29.5l4 -33h-50zM284 523q-31 -6 -63 -14.5t-58.5 -22t-43.5 -32.5t-17 -46q0 -32 18 -48.5t43 -16.5q15 0 30.5 6.5t31 16.5t30.5 23t29 26v108z" />
    <glyph glyph-name="guillemotleft" unicode="&#xab;" horiz-adv-x="423" 
d="M323 78l-98 185l98 185h35l-75 -185l75 -185h-35zM163 78l-98 185l98 185h35l-75 -185l75 -185h-35z" />
    <glyph glyph-name="logicalnot" unicode="&#xac;" horiz-adv-x="549" 
d="M427 112v197h-357v47h409v-244h-52z" />
    <glyph glyph-name="uni00AD" unicode="&#xad;" horiz-adv-x="322" 
d="M70 283v42h182v-42h-182z" />
    <glyph glyph-name="registered" unicode="&#xae;" horiz-adv-x="576" 
d="M508 520q0 -51 -16.5 -93t-46 -73t-69.5 -48t-88 -17t-88 17t-69.5 48t-46 73t-16.5 93t16.5 93t46 73t69.5 48t88 17t88 -17t69.5 -48t46 -73t16.5 -93zM458 520q0 47 -14 83t-37 60t-54 36t-65 12t-65 -12t-54 -36t-37 -60t-14 -83t14 -83t37 -60t54 -36t65 -12t65 12
t54 36t37 60t14 83zM346 398l-50 103h-36v-103h-40v253h71q42 0 65 -20.5t23 -52.5q0 -23 -11.5 -41.5t-33.5 -26.5l55 -112h-43zM339 576q0 43 -51 43h-28v-86h30q49 0 49 43z" />
    <glyph glyph-name="macron" unicode="&#xaf;" horiz-adv-x="282" 
d="M30 622v40h222v-40h-222z" />
    <glyph glyph-name="degree" unicode="&#xb0;" horiz-adv-x="382" 
d="M314 589q0 -30 -9.5 -53.5t-26.5 -40t-39.5 -25.5t-47.5 -9t-47.5 8.5t-39 25t-26.5 40.5t-10 54t9.5 53.5t26.5 40t39 25.5t48 9q25 0 47.5 -9t39 -25.5t26.5 -40t10 -53.5zM264 589q0 35 -17.5 61.5t-55.5 26.5q-37 0 -55 -26.5t-18 -61.5t17.5 -61.5t55.5 -26.5
q37 0 55 26.5t18 61.5z" />
    <glyph glyph-name="plusminus" unicode="&#xb1;" horiz-adv-x="549" 
d="M300 309v-187h-52v187h-178v47h178v197h52v-197h179v-47h-179zM70 20v47h409v-47h-409z" />
    <glyph glyph-name="twosuperior" unicode="&#xb2;" horiz-adv-x="385" 
d="M50 286v24q0 24 15 49t36 48.5t44.5 44t40.5 35.5q13 11 27.5 23.5t26.5 26.5t20 30t8 34q0 31 -20.5 53.5t-52.5 22.5q-39 0 -58.5 -24t-29.5 -62l-52 9q14 54 47.5 85.5t93.5 31.5q28 0 52 -9t41 -25t26.5 -37.5t9.5 -46.5q0 -22 -11 -43t-27.5 -40t-36.5 -36t-37 -31
q-32 -26 -63 -55t-46 -67h231v-41h-285z" />
    <glyph glyph-name="threesuperior" unicode="&#xb3;" horiz-adv-x="394" 
d="M344 403q0 -57 -42 -91t-109 -34q-52 0 -86 19.5t-57 64.5l48 19q18 -32 41.5 -47.5t56.5 -15.5q40 0 66 22.5t26 60.5q0 27 -11.5 44t-30.5 26.5t-43 13t-49 3.5h-9v38h10q22 0 43.5 3t38 11.5t27 23t10.5 38.5q0 32 -20.5 54t-55.5 22q-29 0 -51 -14.5t-39 -38.5
l-40 20q26 36 57 54t76 18q57 0 93 -31.5t36 -79.5q0 -32 -19 -55t-62 -42q51 -15 73 -42.5t22 -63.5z" />
    <glyph glyph-name="acute" unicode="&#xb4;" horiz-adv-x="175" 
d="M62 581h-32l60 122h55z" />
    <glyph glyph-name="uni00B5" unicode="&#xb5;" 
d="M381 0l-4 87q-15 -17 -33 -34.5t-38 -31t-42.5 -22t-47.5 -8.5q-24 0 -43 5.5t-33 15.5v-191h-52v679h52v-349q0 -54 19 -85t64 -31q37 0 75.5 26t77.5 68v371h52v-500h-47z" />
    <glyph glyph-name="paragraph" unicode="&#xb6;" horiz-adv-x="646" 
d="M498 -100v756h-130v-756h-50v418h-32q-48 0 -90 9.5t-72.5 32t-48 59.5t-17.5 91q0 56 18 93t49.5 59.5t74.5 31.5t93 9h255v-803h-50zM318 656h-27q-36 0 -68.5 -6.5t-57 -23t-38.5 -44.5t-14 -71q0 -45 15 -73t40.5 -43.5t58.5 -21t70 -5.5h21v288z" />
    <glyph glyph-name="periodcentered" unicode="&#xb7;" horiz-adv-x="258" 
d="M170 300q0 -19 -11.5 -30t-29.5 -11t-29.5 11t-11.5 30t11.5 30t29.5 11t29.5 -11t11.5 -30z" />
    <glyph glyph-name="cedilla" unicode="&#xb8;" horiz-adv-x="199" 
d="M169 -110q0 -35 -24 -52t-53 -17q-30 0 -62 16l10 30q11 -4 25.5 -8t24.5 -4q16 0 26 9t10 26t-11 25t-25 8q-6 0 -15 -1t-19 -2l27 96h40l-18 -64h7q21 0 39 -16t18 -46z" />
    <glyph glyph-name="onesuperior" unicode="&#xb9;" horiz-adv-x="295" 
d="M55 286v39h71v308h-76v33q30 1 55.5 9.5t37.5 34.5h36v-385h66v-39h-190z" />
    <glyph glyph-name="ordmasculine" unicode="&#xba;" horiz-adv-x="430" 
d="M372 510q0 -97 -41 -152t-116 -55t-116 55t-41 152q0 94 41 151t116 57t116 -57t41 -151zM319 511q0 81 -28 123.5t-76 42.5t-76 -42.5t-28 -123.5t28 -123.5t76 -42.5t76 42.5t28 123.5z" />
    <glyph glyph-name="guillemotright" unicode="&#xbb;" horiz-adv-x="423" 
d="M260 78h-35l75 185l-75 185h35l98 -185zM100 78h-35l75 185l-75 185h35l98 -185z" />
    <glyph glyph-name="onequarter" unicode="&#xbc;" horiz-adv-x="810" 
d="M691 104v-104h-51v104h-206v33l184 285h73v-280h69v-38h-69zM194 -13h-47l447 730h48zM55 286v39h71v308h-76v33q30 1 55.5 9.5t37.5 34.5h36v-385h66v-39h-190zM640 384l-152 -242h152v242z" />
    <glyph glyph-name="onehalf" unicode="&#xbd;" horiz-adv-x="833" 
d="M498 0v24q0 25 15.5 51.5t38.5 51.5t48 46.5t45 36.5q26 20 48.5 45t22.5 60q0 31 -20.5 53.5t-52.5 22.5q-39 0 -58.5 -24t-29.5 -62l-52 9q14 54 47.5 85.5t93.5 31.5q28 0 52 -9t41 -25t26.5 -37.5t9.5 -46.5q0 -23 -11.5 -44t-27 -39t-32.5 -32.5t-28 -23.5
q-35 -28 -68.5 -57.5t-53.5 -75.5h231v-41h-285zM194 -12l-47 12l446 717h49zM55 286v39h71v308h-76v33q30 1 55.5 9.5t37.5 34.5h36v-385h66v-39h-190z" />
    <glyph glyph-name="threequarters" unicode="&#xbe;" horiz-adv-x="868" 
d="M749 104v-104h-51v104h-206v33l184 285h73v-280h69v-38h-69zM252 -13h-46l447 730h48zM344 403q0 -57 -42 -91t-109 -34q-52 0 -86 19.5t-57 64.5l48 19q18 -32 41.5 -47.5t56.5 -15.5q40 0 66 22.5t26 60.5q0 27 -11.5 44t-30.5 26.5t-43 13t-49 3.5h-9v38h10
q22 0 43.5 3t38 11.5t27 23t10.5 38.5q0 32 -20.5 54t-55.5 22q-29 0 -51 -14.5t-39 -38.5l-40 20q26 36 57 54t76 18q57 0 93 -31.5t36 -79.5q0 -32 -19 -55t-62 -42q51 -15 73 -42.5t22 -63.5zM698 384l-152 -242h152v242z" />
    <glyph glyph-name="questiondown" unicode="&#xbf;" horiz-adv-x="417" 
d="M260 494q0 -19 -11.5 -30t-29.5 -11t-29.5 11t-11.5 30t11.5 30t29.5 11t29.5 -11t11.5 -30zM357 -82q-20 -54 -58.5 -82.5t-95.5 -28.5q-66 0 -104.5 36.5t-38.5 106.5q0 37 10 64.5t24.5 51t32 45t32 47t24.5 58t10 77.5v19h52v-20q0 -47 -9.5 -81.5t-23.5 -61.5
t-31 -49.5t-31 -45t-23.5 -47.5t-9.5 -57q0 -18 4.5 -35.5t14.5 -31t26.5 -21.5t40.5 -8q21 0 39 8t32 20.5t23.5 28t14.5 30.5z" />
    <glyph glyph-name="Agrave" unicode="&#xc0;" horiz-adv-x="546" 
d="M255 738l-80 92h58l57 -92h-35zM456 0l-60 218h-246l-60 -218h-60l200 703h86l200 -703h-60zM273 662l-110 -397h220z" />
    <glyph glyph-name="Aacute" unicode="&#xc1;" horiz-adv-x="546" 
d="M293 738h-35l57 92h58zM456 0l-60 218h-246l-60 -218h-60l200 703h86l200 -703h-60zM273 662l-110 -397h220z" />
    <glyph glyph-name="Acircumflex" unicode="&#xc2;" horiz-adv-x="546" 
d="M339 738l-66 56l-66 -56h-50l95 92h42l95 -92h-50zM456 0l-67 218h-239l-60 -218h-60l200 703h86l200 -703h-60zM273 662l-110 -397h220z" />
    <glyph glyph-name="Atilde" unicode="&#xc3;" horiz-adv-x="546" 
d="M399 824q-2 -33 -17.5 -54.5t-53.5 -21.5q-16 0 -30.5 5.5t-27.5 12.5t-24.5 12.5t-21.5 5.5q-14 0 -25 -8.5t-11 -29.5h-40q4 36 22 57t53 21q16 0 30 -5.5t26 -12.5t24 -12.5t24 -5.5q15 0 24.5 9.5t9.5 26.5h38zM456 0l-60 218h-246l-60 -218h-60l200 703h86l200 -703
h-60zM273 662l-110 -397h220z" />
    <glyph glyph-name="Adieresis" unicode="&#xc4;" horiz-adv-x="546" 
d="M390 777q0 -18 -11 -28.5t-28 -10.5t-28 10.5t-11 28.5t11 28.5t28 10.5t28 -10.5t11 -28.5zM234 777q0 -18 -11 -28.5t-28 -10.5t-28 10.5t-11 28.5t11 28.5t28 10.5t28 -10.5t11 -28.5zM456 0l-60 218h-246l-60 -218h-60l200 703h86l200 -703h-60zM273 662l-110 -397
h220z" />
    <glyph glyph-name="Aring" unicode="&#xc5;" horiz-adv-x="546" 
d="M456 0l-60 218h-246l-60 -218h-60l194 682q-36 23 -36 67q0 34 23.5 57.5t61.5 23.5t61.5 -23.5t23.5 -57.5q0 -44 -36 -67l194 -682h-60zM318 749q0 22 -12 36.5t-33 14.5t-33 -14.5t-12 -36.5t12 -36.5t33 -14.5t33 14.5t12 36.5zM273 662l-110 -397h220z" />
    <glyph glyph-name="AE" unicode="&#xc6;" horiz-adv-x="848" 
d="M436 0v218h-231l-112 -218h-63l367 703h393v-47h-299v-260h231v-47h-231v-302h309v-47h-364zM436 667l-207 -402h207v402z" />
    <glyph glyph-name="Ccedilla" unicode="&#xc7;" horiz-adv-x="595" 
d="M547 187q-17 -85 -67.5 -139t-144.5 -60l-10 -36h7q21 0 39 -16t18 -46q0 -35 -24 -52t-53 -17q-30 0 -62 16l10 30q11 -4 25.5 -8t24.5 -4q16 0 26 9t10 26t-11 25t-25 8q-6 0 -15 -1t-19 -2l19 69q-65 5 -109 38.5t-70 84.5t-37 113t-11 123q0 64 13 130t42 119
t77 86.5t119 33.5q51 0 87.5 -14t62 -39.5t42 -61t27.5 -78.5l-59 -13q-6 31 -15.5 59.5t-27.5 50.5t-46 35.5t-71 13.5q-51 0 -87.5 -27t-60 -71.5t-34.5 -102.5t-11 -121q0 -59 10.5 -115t34 -100t59.5 -70.5t87 -26.5q40 0 69.5 13.5t50 36t33 52.5t18.5 63z" />
    <glyph glyph-name="Egrave" unicode="&#xc8;" horiz-adv-x="510" 
d="M270 738l-80 92h58l57 -92h-35zM98 0v703h354v-47h-299v-260h231v-47h-231v-302h309v-47h-364z" />
    <glyph glyph-name="Eacute" unicode="&#xc9;" horiz-adv-x="510" 
d="M268 738h-35l57 92h58zM98 0v703h354v-47h-299v-260h231v-47h-231v-302h309v-47h-364z" />
    <glyph glyph-name="Ecircumflex" unicode="&#xca;" horiz-adv-x="510" 
d="M346 738l-66 56l-66 -56h-50l95 92h42l95 -92h-50zM98 0v703h354v-47h-299v-260h231v-47h-231v-302h309v-47h-364z" />
    <glyph glyph-name="Edieresis" unicode="&#xcb;" horiz-adv-x="510" 
d="M397 777q0 -18 -11 -28.5t-28 -10.5t-28 10.5t-11 28.5t11 28.5t28 10.5t28 -10.5t11 -28.5zM241 777q0 -18 -11 -28.5t-28 -10.5t-28 10.5t-11 28.5t11 28.5t28 10.5t28 -10.5t11 -28.5zM98 0v703h354v-47h-299v-260h231v-47h-231v-302h309v-47h-364z" />
    <glyph glyph-name="Igrave" unicode="&#xcc;" horiz-adv-x="251" 
d="M105 738l-80 92h58l57 -92h-35zM98 0v703h55v-703h-55z" />
    <glyph glyph-name="Iacute" unicode="&#xcd;" horiz-adv-x="251" 
d="M145 738h-35l57 92h58zM98 0v703h55v-703h-55z" />
    <glyph glyph-name="Icircumflex" unicode="&#xce;" horiz-adv-x="251" 
d="M192 738l-66 56l-66 -56h-50l95 92h42l95 -92h-50zM98 0v703h55v-703h-55z" />
    <glyph glyph-name="Idieresis" unicode="&#xcf;" horiz-adv-x="251" 
d="M243 777q0 -18 -11 -28.5t-28 -10.5t-28 10.5t-11 28.5t11 28.5t28 10.5t28 -10.5t11 -28.5zM87 777q0 -18 -11 -28.5t-28 -10.5t-28 10.5t-11 28.5t11 28.5t28 10.5t28 -10.5t11 -28.5zM98 0v703h55v-703h-55z" />
    <glyph glyph-name="Eth" unicode="&#xd0;" horiz-adv-x="622" 
d="M554 355q0 -175 -77 -265t-242 -90h-137v349h-65v47h65v307h137q85 0 145.5 -22t99 -65.5t56.5 -109t18 -151.5zM497 355q0 62 -11.5 117t-40.5 96t-78 64.5t-123 23.5h-91v-260h211v-47h-211v-302h75q79 0 131 22.5t82.5 63t43 97t12.5 125.5z" />
    <glyph glyph-name="Ntilde" unicode="&#xd1;" horiz-adv-x="643" 
d="M447 824q-2 -33 -17.5 -54.5t-53.5 -21.5q-16 0 -30.5 5.5t-27.5 12.5t-24.5 12.5t-21.5 5.5q-14 0 -25 -8.5t-11 -29.5h-40q4 36 22 57t53 21q16 0 30 -5.5t26 -12.5t24 -12.5t24 -5.5q15 0 24.5 9.5t9.5 26.5h38zM478 0l-325 646v-646h-55v703h80l312 -619v619h55v-703
h-67z" />
    <glyph glyph-name="Ograve" unicode="&#xd2;" horiz-adv-x="638" 
d="M302 738l-80 92h58l57 -92h-35zM570 353q0 -81 -16.5 -148t-48 -115.5t-78.5 -75t-108 -26.5t-107.5 26.5t-78.5 75t-48.5 115.5t-16.5 148t17.5 148t50 115t79 74.5t104.5 26.5t104.5 -26.5t79 -74.5t50 -115t17.5 -148zM513 353q0 69 -12.5 127t-37 100.5t-60.5 66
t-84 23.5q-45 0 -81 -23.5t-61 -66t-38.5 -100.5t-13.5 -127t12 -127.5t36 -100.5t60.5 -66t85.5 -24t85.5 24t60.5 66t36 100.5t12 127.5z" />
    <glyph glyph-name="Oacute" unicode="&#xd3;" horiz-adv-x="638" 
d="M337 738h-35l57 92h58zM570 353q0 -81 -16.5 -148t-48 -115.5t-78.5 -75t-108 -26.5t-107.5 26.5t-78.5 75t-48.5 115.5t-16.5 148t17.5 148t50 115t79 74.5t104.5 26.5t104.5 -26.5t79 -74.5t50 -115t17.5 -148zM513 353q0 69 -12.5 127t-37 100.5t-60.5 66t-84 23.5
q-45 0 -81 -23.5t-61 -66t-38.5 -100.5t-13.5 -127t12 -127.5t36 -100.5t60.5 -66t85.5 -24t85.5 24t60.5 66t36 100.5t12 127.5z" />
    <glyph glyph-name="Ocircumflex" unicode="&#xd4;" horiz-adv-x="638" 
d="M385 738l-66 56l-66 -56h-50l95 92h42l95 -92h-50zM570 353q0 -81 -16.5 -148t-48 -115.5t-78.5 -75t-108 -26.5t-107.5 26.5t-78.5 75t-48.5 115.5t-16.5 148t17.5 148t50 115t79 74.5t104.5 26.5t104.5 -26.5t79 -74.5t50 -115t17.5 -148zM513 353q0 69 -12.5 127
t-37 100.5t-60.5 66t-84 23.5q-45 0 -81 -23.5t-61 -66t-38.5 -100.5t-13.5 -127t12 -127.5t36 -100.5t60.5 -66t85.5 -24t85.5 24t60.5 66t36 100.5t12 127.5z" />
    <glyph glyph-name="Otilde" unicode="&#xd5;" horiz-adv-x="638" 
d="M445 824q-2 -33 -17.5 -54.5t-53.5 -21.5q-16 0 -30.5 5.5t-27.5 12.5t-24.5 12.5t-21.5 5.5q-14 0 -25 -8.5t-11 -29.5h-40q4 36 22 57t53 21q16 0 30 -5.5t26 -12.5t24 -12.5t24 -5.5q15 0 24.5 9.5t9.5 26.5h38zM570 353q0 -81 -16.5 -148t-48 -115.5t-78.5 -75
t-108 -26.5t-107.5 26.5t-78.5 75t-48.5 115.5t-16.5 148t17.5 148t50 115t79 74.5t104.5 26.5t104.5 -26.5t79 -74.5t50 -115t17.5 -148zM513 353q0 69 -12.5 127t-37 100.5t-60.5 66t-84 23.5q-45 0 -81 -23.5t-61 -66t-38.5 -100.5t-13.5 -127t12 -127.5t36 -100.5
t60.5 -66t85.5 -24t85.5 24t60.5 66t36 100.5t12 127.5z" />
    <glyph glyph-name="Odieresis" unicode="&#xd6;" horiz-adv-x="638" 
d="M436 777q0 -18 -11 -28.5t-28 -10.5t-28 10.5t-11 28.5t11 28.5t28 10.5t28 -10.5t11 -28.5zM280 777q0 -18 -11 -28.5t-28 -10.5t-28 10.5t-11 28.5t11 28.5t28 10.5t28 -10.5t11 -28.5zM570 353q0 -81 -16.5 -148t-48 -115.5t-78.5 -75t-108 -26.5t-107.5 26.5
t-78.5 75t-48.5 115.5t-16.5 148t17.5 148t50 115t79 74.5t104.5 26.5t104.5 -26.5t79 -74.5t50 -115t17.5 -148zM513 353q0 69 -12.5 127t-37 100.5t-60.5 66t-84 23.5q-45 0 -81 -23.5t-61 -66t-38.5 -100.5t-13.5 -127t12 -127.5t36 -100.5t60.5 -66t85.5 -24t85.5 24
t60.5 66t36 100.5t12 127.5z" />
    <glyph glyph-name="multiply" unicode="&#xd7;" horiz-adv-x="549" 
d="M415 152l-141 141l-141 -141l-37 37l141 141l-141 141l37 37l141 -141l141 141l37 -37l-141 -141l141 -141z" />
    <glyph glyph-name="Oslash" unicode="&#xd8;" horiz-adv-x="638" 
d="M512 600q28 -48 43 -110t15 -137q0 -81 -16.5 -148t-48 -115.5t-78.5 -75t-108 -26.5q-54 0 -95 20t-72 56l-70 -104l-35 24l79 117q-58 95 -58 252q0 81 17.5 148t50 115t79 74.5t104.5 26.5q51 0 93 -21t74 -59l71 105l35 -23zM456 592q-24 37 -58 57.5t-79 20.5
t-81 -23.5t-61 -66t-38.5 -100.5t-13.5 -127q0 -117 35 -201zM513 353q0 58 -8.5 107.5t-25.5 89.5l-296 -440q24 -35 57.5 -55t78.5 -20q49 0 85.5 24t60.5 66t36 100.5t12 127.5z" />
    <glyph glyph-name="Ugrave" unicode="&#xd9;" horiz-adv-x="631" 
d="M299 738l-80 92h58l57 -92h-35zM533 241q0 -122 -52 -187.5t-168 -65.5q-58 0 -98.5 16.5t-66.5 49t-38 79.5t-12 108v462h55v-461q0 -45 8 -82.5t26.5 -64.5t49.5 -42.5t76 -15.5t76.5 15.5t51 42.5t28.5 64.5t9 82.5v461h55v-462z" />
    <glyph glyph-name="Uacute" unicode="&#xda;" horiz-adv-x="631" 
d="M323 738h-35l57 92h58zM533 241q0 -122 -52 -187.5t-168 -65.5q-58 0 -98.5 16.5t-66.5 49t-38 79.5t-12 108v462h55v-461q0 -45 8 -82.5t26.5 -64.5t49.5 -42.5t76 -15.5t76.5 15.5t51 42.5t28.5 64.5t9 82.5v461h55v-462z" />
    <glyph glyph-name="Ucircumflex" unicode="&#xdb;" horiz-adv-x="631" 
d="M382 738l-66 56l-66 -56h-50l95 92h42l95 -92h-50zM533 241q0 -122 -52 -187.5t-168 -65.5q-58 0 -98.5 16.5t-66.5 49t-38 79.5t-12 108v462h55v-461q0 -45 8 -82.5t26.5 -64.5t49.5 -42.5t76 -15.5t76.5 15.5t51 42.5t28.5 64.5t9 82.5v461h55v-462z" />
    <glyph glyph-name="Udieresis" unicode="&#xdc;" horiz-adv-x="631" 
d="M433 777q0 -18 -11 -28.5t-28 -10.5t-28 10.5t-11 28.5t11 28.5t28 10.5t28 -10.5t11 -28.5zM277 777q0 -18 -11 -28.5t-28 -10.5t-28 10.5t-11 28.5t11 28.5t28 10.5t28 -10.5t11 -28.5zM533 241q0 -122 -52 -187.5t-168 -65.5q-58 0 -98.5 16.5t-66.5 49t-38 79.5
t-12 108v462h55v-461q0 -45 8 -82.5t26.5 -64.5t49.5 -42.5t76 -15.5t76.5 15.5t51 42.5t28.5 64.5t9 82.5v461h55v-462z" />
    <glyph glyph-name="Yacute" unicode="&#xdd;" horiz-adv-x="513" 
d="M277 738h-35l57 92h58zM283 281v-281h-55v281l-208 422h63l175 -369l172 369h63z" />
    <glyph glyph-name="Thorn" unicode="&#xde;" horiz-adv-x="538" 
d="M480 375q0 -54 -17.5 -91t-48 -59.5t-72.5 -32t-90 -9.5h-99v-183h-55v703h55v-135h92q50 0 93 -9t74.5 -31.5t49.5 -59.5t18 -93zM423 376q0 42 -14 70t-38.5 44.5t-57 23.5t-68.5 7h-92v-288h86q37 0 70 5t58.5 20.5t40.5 43.5t15 74z" />
    <glyph glyph-name="germandbls" unicode="&#xdf;" horiz-adv-x="524" 
d="M471 141q0 -76 -43.5 -115t-110.5 -39q-25 0 -46.5 3.5t-38.5 8.5l4 41q20 -5 40 -8t41 -3q45 0 73.5 27.5t28.5 81.5q0 40 -22.5 66.5t-49.5 50t-49.5 49t-22.5 61.5q0 28 13 52t28.5 48.5t28.5 52.5t13 64q0 40 -28.5 66.5t-70.5 26.5q-51 0 -85 -34.5t-34 -98.5v-542
h-52v542q0 78 43 126.5t128 48.5q72 0 111.5 -37t39.5 -98q0 -40 -13 -70.5t-28.5 -54.5t-28.5 -44t-13 -39q0 -18 10.5 -33t26.5 -30t35 -31t35 -36t26.5 -45t10.5 -58z" />
    <glyph glyph-name="agrave" unicode="&#xe0;" horiz-adv-x="482" 
d="M213 581l-83 122h55l60 -122h-32zM353 0q-1 5 -2.5 15.5t-2.5 22.5t-2.5 24.5t-2.5 21.5q-16 -16 -34.5 -33t-39.5 -30.5t-43.5 -22t-47.5 -8.5q-56 0 -93 30t-37 95q0 52 27.5 86t70 55.5t94.5 34t102 23.5v35q0 25 -4 46.5t-15.5 37.5t-32.5 25t-55 9q-45 0 -78 -22.5
t-47 -60.5l-45 14q19 49 63 80t107 31q82 0 120.5 -39.5t38.5 -127.5v-232q0 -17 1 -35.5t3 -35.5q1 -10 2 -19.5t3 -19.5h-50zM342 275q-37 -8 -79 -18.5t-78 -28t-59.5 -44t-23.5 -65.5q0 -45 24.5 -67t58.5 -22q21 0 42.5 9.5t42.5 23.5t39.5 31t32.5 31v150z" />
    <glyph glyph-name="aacute" unicode="&#xe1;" horiz-adv-x="482" 
d="M246 581h-32l60 122h55zM353 0q-1 5 -2.5 15.5t-2.5 22.5t-2.5 24.5t-2.5 21.5q-16 -16 -34.5 -33t-39.5 -30.5t-43.5 -22t-47.5 -8.5q-56 0 -93 30t-37 95q0 52 27.5 86t70 55.5t94.5 34t102 23.5v35q0 25 -4 46.5t-15.5 37.5t-32.5 25t-55 9q-45 0 -78 -22.5t-47 -60.5
l-45 14q19 49 63 80t107 31q82 0 120.5 -39.5t38.5 -127.5v-232q0 -17 1 -35.5t3 -35.5q1 -10 2 -19.5t3 -19.5h-50zM342 275q-37 -8 -79 -18.5t-78 -28t-59.5 -44t-23.5 -65.5q0 -45 24.5 -67t58.5 -22q21 0 42.5 9.5t42.5 23.5t39.5 31t32.5 31v150z" />
    <glyph glyph-name="acircumflex" unicode="&#xe2;" horiz-adv-x="482" 
d="M307 581l-66 81l-66 -81h-50l95 122h42l95 -122h-50zM353 0q-1 5 -2.5 15.5t-2.5 22.5t-2.5 24.5t-2.5 21.5q-16 -16 -34.5 -33t-39.5 -30.5t-43.5 -22t-47.5 -8.5q-56 0 -93 30t-37 95q0 52 27.5 86t70 55.5t94.5 34t102 23.5v35q0 25 -4 46.5t-15.5 37.5t-32.5 25
t-55 9q-45 0 -78 -22.5t-47 -60.5l-45 14q19 49 63 80t107 31q82 0 120.5 -39.5t38.5 -127.5v-232q0 -17 1 -35.5t3 -35.5q1 -10 2 -19.5t3 -19.5h-50zM342 275q-37 -8 -79 -18.5t-78 -28t-59.5 -44t-23.5 -65.5q0 -45 24.5 -67t58.5 -22q21 0 42.5 9.5t42.5 23.5t39.5 31
t32.5 31v150z" />
    <glyph glyph-name="atilde" unicode="&#xe3;" horiz-adv-x="482" 
d="M372 680q-2 -33 -17.5 -54.5t-53.5 -21.5q-17 0 -33.5 5.5t-31 12.5t-27 12.5t-22.5 5.5q-14 0 -25 -8.5t-11 -29.5h-40q4 36 22 57t53 21q16 0 31 -5.5t29.5 -12.5t28 -12.5t25.5 -5.5q15 0 24.5 9.5t9.5 26.5h38zM353 0q-1 5 -2.5 15.5t-2.5 22.5t-2.5 24.5t-2.5 21.5
q-16 -16 -34.5 -33t-39.5 -30.5t-43.5 -22t-47.5 -8.5q-56 0 -93 30t-37 95q0 52 27.5 86t70 55.5t94.5 34t102 23.5v35q0 25 -4 46.5t-15.5 37.5t-32.5 25t-55 9q-45 0 -78 -22.5t-47 -60.5l-45 14q19 49 63 80t107 31q82 0 120.5 -39.5t38.5 -127.5v-232q0 -17 1 -35.5
t3 -35.5q1 -10 2 -19.5t3 -19.5h-50zM342 275q-37 -8 -79 -18.5t-78 -28t-59.5 -44t-23.5 -65.5q0 -45 24.5 -67t58.5 -22q21 0 42.5 9.5t42.5 23.5t39.5 31t32.5 31v150z" />
    <glyph glyph-name="adieresis" unicode="&#xe4;" horiz-adv-x="482" 
d="M358 640q0 -18 -11 -28.5t-28 -10.5t-28 10.5t-11 28.5t11 28.5t28 10.5t28 -10.5t11 -28.5zM202 640q0 -18 -11 -28.5t-28 -10.5t-28 10.5t-11 28.5t11 28.5t28 10.5t28 -10.5t11 -28.5zM353 0q-1 5 -2.5 15.5t-2.5 22.5t-2.5 24.5t-2.5 21.5q-16 -16 -34.5 -33
t-39.5 -30.5t-43.5 -22t-47.5 -8.5q-56 0 -93 30t-37 95q0 52 27.5 86t70 55.5t94.5 34t102 23.5v35q0 25 -4 46.5t-15.5 37.5t-32.5 25t-55 9q-45 0 -78 -22.5t-47 -60.5l-45 14q19 49 63 80t107 31q82 0 120.5 -39.5t38.5 -127.5v-232q0 -17 1 -35.5t3 -35.5
q1 -10 2 -19.5t3 -19.5h-50zM342 275q-37 -8 -79 -18.5t-78 -28t-59.5 -44t-23.5 -65.5q0 -45 24.5 -67t58.5 -22q21 0 42.5 9.5t42.5 23.5t39.5 31t32.5 31v150z" />
    <glyph glyph-name="aring" unicode="&#xe5;" horiz-adv-x="482" 
d="M326 642q0 -34 -23.5 -57.5t-61.5 -23.5t-61.5 23.5t-23.5 57.5t23.5 57.5t61.5 23.5t61.5 -23.5t23.5 -57.5zM353 0q-1 5 -2.5 15.5t-2.5 22.5t-2.5 24.5t-2.5 21.5q-16 -16 -34.5 -33t-39.5 -30.5t-43.5 -22t-47.5 -8.5q-56 0 -93 30t-37 95q0 52 27.5 86t70 55.5
t94.5 34t102 23.5v35q0 25 -4 46.5t-15.5 37.5t-32.5 25t-55 9q-45 0 -78 -22.5t-47 -60.5l-45 14q19 49 63 80t107 31q82 0 120.5 -39.5t38.5 -127.5v-232q0 -17 1 -35.5t3 -35.5q1 -10 2 -19.5t3 -19.5h-50zM286 642q0 22 -12 36.5t-33 14.5t-33 -14.5t-12 -36.5t12 -36.5
t33 -14.5t33 14.5t12 36.5zM342 275q-37 -8 -79 -18.5t-78 -28t-59.5 -44t-23.5 -65.5q0 -45 24.5 -67t58.5 -22q21 0 42.5 9.5t42.5 23.5t39.5 31t32.5 31v150z" />
    <glyph glyph-name="ae" unicode="&#xe6;" horiz-adv-x="756" 
d="M701 112q-18 -54 -62.5 -88t-107.5 -34q-119 0 -165 112q-17 -18 -38 -38t-45 -36.5t-50 -27t-53 -10.5q-28 0 -52 7.5t-42 22.5t-28 38.5t-10 56.5q0 49 27.5 79.5t70 49.5t94.5 29t102 17v59q0 25 -4 46.5t-15.5 37.5t-32.5 25t-55 9q-45 0 -78 -22.5t-47 -60.5l-45 14
q19 49 63 80t107 31t98.5 -23t48.5 -74q23 45 59 71t84 26q51 0 84.5 -22t53 -58t27.5 -81t8 -90v-7h-304v-3q0 -105 37 -160.5t100 -55.5q48 0 78 23.5t49 71.5zM646 288q-1 38 -8 71t-21.5 57.5t-37 38.5t-54.5 14q-52 0 -87 -45.5t-42 -135.5h250zM353 138
q-12 48 -12 110v3q-39 -5 -81 -13t-77.5 -23t-58 -38t-22.5 -58q0 -45 24 -67t58 -22q22 0 46 11.5t46.5 28.5t42.5 35.5t34 32.5z" />
    <glyph glyph-name="ccedilla" unicode="&#xe7;" horiz-adv-x="442" 
d="M414 121q-18 -57 -56 -90.5t-92 -39.5l-11 -39h7q21 0 39 -16t18 -46q0 -35 -24 -52t-53 -17q-30 0 -62 16l10 30q11 -4 25.5 -8t24.5 -4q16 0 26 9t10 26t-11 25t-25 8q-6 0 -15 -1t-19 -2l20 71q-45 4 -77 26t-52.5 56.5t-29.5 79t-9 93.5q0 47 11.5 94t34.5 84.5
t59 61t86 23.5q63 0 101 -33.5t57 -97.5l-45 -11q-6 21 -14.5 39.5t-22 32t-32 21t-44.5 7.5q-36 0 -62 -20t-42.5 -52t-24.5 -71.5t-8 -77.5q0 -41 7.5 -79.5t23.5 -68.5t42 -48t62 -18q30 0 50 9t34 23.5t23 33t17 38.5z" />
    <glyph glyph-name="egrave" unicode="&#xe8;" horiz-adv-x="473" 
d="M225 581l-83 122h55l60 -122h-32zM418 112q-18 -54 -62.5 -88t-107.5 -34q-91 0 -140.5 66t-49.5 192q0 58 13.5 106t37.5 82.5t58 53.5t75 19q51 0 84.5 -22t53 -58t27.5 -81t8 -90v-7h-304v-3q0 -105 37 -160.5t100 -55.5q48 0 78 23.5t49 71.5zM363 288q-1 38 -8 71
t-21.5 57.5t-37 38.5t-54.5 14q-52 0 -87 -45.5t-42 -135.5h250z" />
    <glyph glyph-name="eacute" unicode="&#xe9;" horiz-adv-x="473" 
d="M258 581h-32l60 122h55zM418 112q-18 -54 -62.5 -88t-107.5 -34q-91 0 -140.5 66t-49.5 192q0 58 13.5 106t37.5 82.5t58 53.5t75 19q51 0 84.5 -22t53 -58t27.5 -81t8 -90v-7h-304v-3q0 -105 37 -160.5t100 -55.5q48 0 78 23.5t49 71.5zM363 288q-1 38 -8 71t-21.5 57.5
t-37 38.5t-54.5 14q-52 0 -87 -45.5t-42 -135.5h250z" />
    <glyph glyph-name="ecircumflex" unicode="&#xea;" horiz-adv-x="473" 
d="M303 581l-66 81l-66 -81h-50l95 122h42l95 -122h-50zM418 112q-18 -54 -62.5 -88t-107.5 -34q-91 0 -140.5 66t-49.5 192q0 58 13.5 106t37.5 82.5t58 53.5t75 19q51 0 84.5 -22t53 -58t27.5 -81t8 -90v-7h-304v-3q0 -105 37 -160.5t100 -55.5q48 0 78 23.5t49 71.5z
M363 288q-1 38 -8 71t-21.5 57.5t-37 38.5t-54.5 14q-52 0 -87 -45.5t-42 -135.5h250z" />
    <glyph glyph-name="edieresis" unicode="&#xeb;" horiz-adv-x="473" 
d="M354 640q0 -18 -11 -28.5t-28 -10.5t-28 10.5t-11 28.5t11 28.5t28 10.5t28 -10.5t11 -28.5zM198 640q0 -18 -11 -28.5t-28 -10.5t-28 10.5t-11 28.5t11 28.5t28 10.5t28 -10.5t11 -28.5zM418 112q-18 -54 -62.5 -88t-107.5 -34q-91 0 -140.5 66t-49.5 192q0 58 13.5 106
t37.5 82.5t58 53.5t75 19q51 0 84.5 -22t53 -58t27.5 -81t8 -90v-7h-304v-3q0 -105 37 -160.5t100 -55.5q48 0 78 23.5t49 71.5zM363 288q-1 38 -8 71t-21.5 57.5t-37 38.5t-54.5 14q-52 0 -87 -45.5t-42 -135.5h250z" />
    <glyph glyph-name="igrave" unicode="&#xec;" horiz-adv-x="228" 
d="M94 581l-83 122h55l60 -122h-32zM88 0v500h52v-500h-52z" />
    <glyph glyph-name="iacute" unicode="&#xed;" horiz-adv-x="228" 
d="M131 581h-32l60 122h55zM88 0v500h52v-500h-52z" />
    <glyph glyph-name="icircumflex" unicode="&#xee;" horiz-adv-x="228" 
d="M180 581l-66 81l-66 -81h-50l95 122h42l95 -122h-50zM88 0v500h52v-500h-52z" />
    <glyph glyph-name="idieresis" unicode="&#xef;" horiz-adv-x="228" 
d="M231 640q0 -18 -11 -28.5t-28 -10.5t-28 10.5t-11 28.5t11 28.5t28 10.5t28 -10.5t11 -28.5zM75 640q0 -18 -11 -28.5t-28 -10.5t-28 10.5t-11 28.5t11 28.5t28 10.5t28 -10.5t11 -28.5zM88 0v500h52v-500h-52z" />
    <glyph glyph-name="eth" unicode="&#xf0;" horiz-adv-x="494" 
d="M436 261q0 -62 -12.5 -112.5t-36.5 -86.5t-60 -55.5t-83 -19.5q-88 0 -137 68t-49 189q0 55 12.5 101t36 79t56.5 51t74 18q51 0 83 -24.5t54 -63.5q-11 54 -37 100.5t-63 85.5l-125 -56l-18 28l118 53q-22 20 -45 36.5t-48 30.5l37 22q54 -29 97 -71l110 49l15 -29
l-101 -45q63 -70 92.5 -159t29.5 -189zM382 261q0 31 -8 65t-24.5 62t-42 46t-61.5 18q-57 0 -95.5 -51t-38.5 -157q0 -111 37.5 -163t94.5 -52q39 0 65.5 20t42.5 52.5t23 74t7 85.5z" />
    <glyph glyph-name="ntilde" unicode="&#xf1;" 
d="M389 680q-2 -33 -17.5 -54.5t-53.5 -21.5q-17 0 -33.5 5.5t-31 12.5t-27 12.5t-22.5 5.5q-14 0 -25 -8.5t-11 -29.5h-40q4 36 22 57t53 21q16 0 31 -5.5t29.5 -12.5t28 -12.5t25.5 -5.5q15 0 24.5 9.5t9.5 26.5h38zM376 0v349q0 54 -16.5 83.5t-61.5 29.5q-40 0 -78 -27
t-80 -69v-366h-52v500h52v-92q16 17 34 35t38.5 32.5t43.5 24t49 9.5q38 0 62 -13t37.5 -35t18.5 -51t5 -60v-350h-52z" />
    <glyph glyph-name="ograve" unicode="&#xf2;" horiz-adv-x="496" 
d="M233 581l-83 122h55l60 -122h-32zM438 249q0 -120 -50 -189.5t-140 -69.5q-91 0 -140.5 69t-49.5 190q0 59 13 107t37 82t59.5 52.5t80.5 18.5t80 -18.5t59.5 -52t37.5 -81.5t13 -108zM384 250q0 103 -36 161t-100 58q-63 0 -99.5 -57t-36.5 -162q0 -103 36.5 -160.5
t99.5 -57.5t99.5 56.5t36.5 161.5z" />
    <glyph glyph-name="oacute" unicode="&#xf3;" horiz-adv-x="496" 
d="M264 581h-32l60 122h55zM438 249q0 -120 -50 -189.5t-140 -69.5q-91 0 -140.5 69t-49.5 190q0 59 13 107t37 82t59.5 52.5t80.5 18.5t80 -18.5t59.5 -52t37.5 -81.5t13 -108zM384 250q0 103 -36 161t-100 58q-63 0 -99.5 -57t-36.5 -162q0 -103 36.5 -160.5t99.5 -57.5
t99.5 56.5t36.5 161.5z" />
    <glyph glyph-name="ocircumflex" unicode="&#xf4;" horiz-adv-x="496" 
d="M314 581l-66 81l-66 -81h-50l95 122h42l95 -122h-50zM438 249q0 -120 -50 -189.5t-140 -69.5q-91 0 -140.5 69t-49.5 190q0 59 13 107t37 82t59.5 52.5t80.5 18.5t80 -18.5t59.5 -52t37.5 -81.5t13 -108zM384 250q0 103 -36 161t-100 58q-63 0 -99.5 -57t-36.5 -162
q0 -103 36.5 -160.5t99.5 -57.5t99.5 56.5t36.5 161.5z" />
    <glyph glyph-name="otilde" unicode="&#xf5;" horiz-adv-x="496" 
d="M379 680q-2 -33 -17.5 -54.5t-53.5 -21.5q-17 0 -33.5 5.5t-31 12.5t-27 12.5t-22.5 5.5q-14 0 -25 -8.5t-11 -29.5h-40q4 36 22 57t53 21q16 0 31 -5.5t29.5 -12.5t28 -12.5t25.5 -5.5q15 0 24.5 9.5t9.5 26.5h38zM438 249q0 -120 -50 -189.5t-140 -69.5
q-91 0 -140.5 69t-49.5 190q0 59 13 107t37 82t59.5 52.5t80.5 18.5t80 -18.5t59.5 -52t37.5 -81.5t13 -108zM384 250q0 103 -36 161t-100 58q-63 0 -99.5 -57t-36.5 -162q0 -103 36.5 -160.5t99.5 -57.5t99.5 56.5t36.5 161.5z" />
    <glyph glyph-name="odieresis" unicode="&#xf6;" horiz-adv-x="496" 
d="M365 640q0 -18 -11 -28.5t-28 -10.5t-28 10.5t-11 28.5t11 28.5t28 10.5t28 -10.5t11 -28.5zM209 640q0 -18 -11 -28.5t-28 -10.5t-28 10.5t-11 28.5t11 28.5t28 10.5t28 -10.5t11 -28.5zM438 249q0 -120 -50 -189.5t-140 -69.5q-91 0 -140.5 69t-49.5 190q0 59 13 107
t37 82t59.5 52.5t80.5 18.5t80 -18.5t59.5 -52t37.5 -81.5t13 -108zM384 250q0 103 -36 161t-100 58q-63 0 -99.5 -57t-36.5 -162q0 -103 36.5 -160.5t99.5 -57.5t99.5 56.5t36.5 161.5z" />
    <glyph glyph-name="divide" unicode="&#xf7;" horiz-adv-x="549" 
d="M315 512q0 -19 -11.5 -30t-29.5 -11t-29.5 11t-11.5 30t11.5 30t29.5 11t29.5 -11t11.5 -30zM70 309v47h409v-47h-409zM315 153q0 -19 -11.5 -30t-29.5 -11t-29.5 11t-11.5 30t11.5 30t29.5 11t29.5 -11t11.5 -30z" />
    <glyph glyph-name="oslash" unicode="&#xf8;" horiz-adv-x="496" 
d="M393 430q22 -34 33.5 -79t11.5 -102q0 -121 -49.5 -190t-140.5 -69q-71 0 -118 44l-48 -72l-35 24l55 82q-44 68 -44 181q0 60 13 108t37 81.5t59.5 52t80.5 18.5q69 0 117 -45l49 73l35 -23zM339 424q-36 45 -91 45q-64 0 -100 -57t-36 -162q0 -83 22 -133zM384 250
q0 79 -22 133l-204 -307q35 -44 90 -44q63 0 99.5 56.5t36.5 161.5z" />
    <glyph glyph-name="ugrave" unicode="&#xf9;" 
d="M235 581l-83 122h55l60 -122h-32zM381 0l-4 87q-15 -17 -33 -34.5t-38 -31t-42.5 -22t-47.5 -8.5q-38 0 -62.5 13t-39 35t-20.5 50.5t-6 60.5v350h52v-349q0 -54 19 -85t64 -31q37 0 75.5 26t77.5 68v371h52v-500h-47z" />
    <glyph glyph-name="uacute" unicode="&#xfa;" 
d="M265 581h-32l60 122h55zM381 0l-4 87q-15 -17 -33 -34.5t-38 -31t-42.5 -22t-47.5 -8.5q-38 0 -62.5 13t-39 35t-20.5 50.5t-6 60.5v350h52v-349q0 -54 19 -85t64 -31q37 0 75.5 26t77.5 68v371h52v-500h-47z" />
    <glyph glyph-name="ucircumflex" unicode="&#xfb;" 
d="M324 581l-66 81l-66 -81h-50l95 122h42l95 -122h-50zM381 0l-7 87q-14 -17 -31.5 -34.5t-37 -31t-42 -22t-47.5 -8.5q-38 0 -62.5 13t-39 35t-20.5 50.5t-6 60.5v350h52v-349q0 -54 19 -85t64 -31q37 0 75.5 26t77.5 68v371h52v-500h-47z" />
    <glyph glyph-name="udieresis" unicode="&#xfc;" 
d="M375 640q0 -18 -11 -28.5t-28 -10.5t-28 10.5t-11 28.5t11 28.5t28 10.5t28 -10.5t11 -28.5zM219 640q0 -18 -11 -28.5t-28 -10.5t-28 10.5t-11 28.5t11 28.5t28 10.5t28 -10.5t11 -28.5zM381 0l-4 87q-15 -17 -33 -34.5t-38 -31t-42.5 -22t-47.5 -8.5q-38 0 -62.5 13
t-39 35t-20.5 50.5t-6 60.5v350h52v-349q0 -54 19 -85t64 -31q37 0 75.5 26t77.5 68v371h52v-500h-47z" />
    <glyph glyph-name="yacute" unicode="&#xfd;" horiz-adv-x="433" 
d="M221 581h-32l60 122h55zM242 -1q-11 -33 -24 -66t-31 -58.5t-44 -41.5t-64 -16q-21 0 -43 5v39q13 -2 22 -3t20 -1q27 0 46.5 14t33.5 36t24 49t18 53l-175 491h55l141 -422l131 422h56z" />
    <glyph glyph-name="thorn" unicode="&#xfe;" horiz-adv-x="510" 
d="M452 247q0 -44 -10 -89.5t-32 -82.5t-55.5 -61t-81.5 -24q-45 0 -77 20t-56 48v-237h-52v882h52v-276q12 13 27 27.5t32.5 26.5t37.5 20t42 8q45 0 77.5 -20t54 -55.5t31.5 -83.5t10 -103zM398 247q0 103 -30.5 162t-90.5 59q-40 0 -74.5 -26t-62.5 -58v-282
q23 -29 56 -50t73 -21q29 0 53 16t41 44.5t26 68.5t9 87z" />
    <glyph glyph-name="ydieresis" unicode="&#xff;" horiz-adv-x="433" 
d="M334 640q0 -18 -11 -28.5t-28 -10.5t-28 10.5t-11 28.5t11 28.5t28 10.5t28 -10.5t11 -28.5zM178 640q0 -18 -11 -28.5t-28 -10.5t-28 10.5t-11 28.5t11 28.5t28 10.5t28 -10.5t11 -28.5zM242 -1q-11 -33 -24 -66t-31 -58.5t-44 -41.5t-64 -16q-21 0 -43 5v39
q13 -2 22 -3t20 -1q27 0 46.5 14t33.5 36t24 49t18 53l-175 491h55l141 -422l131 422h56z" />
    <glyph glyph-name="Amacron" unicode="&#x100;" horiz-adv-x="546" 
d="M456 0l-60 218h-246l-60 -218h-60l200 703h86l200 -703h-60zM273 662l-110 -397h220zM162 764v40h222v-40h-222z" />
    <glyph glyph-name="amacron" unicode="&#x101;" horiz-adv-x="482" 
d="M353 0q-1 6 -2.5 16t-2.5 22t-2.5 24.5t-2.5 21.5q-16 -16 -34.5 -33t-39.5 -30.5t-43.5 -22t-47.5 -8.5q-56 0 -93 30t-37 95q0 52 27.5 86t70 55.5t94.5 34t102 23.5v35q0 25 -4 46.5t-15.5 37.5t-32.5 25t-55 9q-45 0 -78 -22.5t-47 -60.5l-45 14q19 49 63 80t107 31
q82 0 120.5 -39.5t38.5 -127.5v-232q0 -17 1 -35.5t3 -35.5q1 -10 2 -19.5t3 -19.5h-50zM342 275q-37 -8 -79 -18.5t-78 -28t-59.5 -44t-23.5 -65.5q0 -45 24.5 -67t58.5 -22q21 0 42.5 9.5t42.5 23.5t39.5 31t32.5 31v150zM119 620v40h222v-40h-222z" />
    <glyph glyph-name="Abreve" unicode="&#x102;" horiz-adv-x="546" 
d="M456 0l-60 218h-246l-60 -218h-60l200 703h86l200 -703h-60zM273 662l-110 -397h220zM393 849q-4 -60 -38 -85.5t-82 -25.5t-82 25.5t-38 85.5h37q5 -34 26 -52.5t57 -18.5t57 18.5t26 52.5h37z" />
    <glyph glyph-name="abreve" unicode="&#x103;" horiz-adv-x="482" 
d="M353 0q-1 6 -2.5 16t-2.5 22t-2.5 24.5t-2.5 21.5q-16 -16 -34.5 -33t-39.5 -30.5t-43.5 -22t-47.5 -8.5q-56 0 -93 30t-37 95q0 52 27.5 86t70 55.5t94.5 34t102 23.5v35q0 25 -4 46.5t-15.5 37.5t-32.5 25t-55 9q-45 0 -78 -22.5t-47 -60.5l-45 14q19 49 63 80t107 31
q82 0 120.5 -39.5t38.5 -127.5v-232q0 -17 1 -35.5t3 -35.5q1 -10 2 -19.5t3 -19.5h-50zM342 275q-37 -8 -79 -18.5t-78 -28t-59.5 -44t-23.5 -65.5q0 -45 24.5 -67t58.5 -22q21 0 42.5 9.5t42.5 23.5t39.5 31t32.5 31v150zM350 692q-4 -60 -38 -85.5t-82 -25.5t-82 25.5
t-38 85.5h37q5 -34 26 -52.5t57 -18.5t57 18.5t26 52.5h37z" />
    <glyph glyph-name="Aogonek" unicode="&#x104;" horiz-adv-x="546" 
d="M516 -162q-26 -17 -64 -17q-33 0 -55.5 22t-22.5 60q0 36 24 63.5t56 41.5l-58 210h-246l-60 -218h-60l200 703h86l200 -703q-45 -11 -71 -36t-26 -61q0 -20 10 -32.5t29 -12.5q13 0 29.5 4.5t28.5 10.5v-35zM273 662l-110 -397h220z" />
    <glyph glyph-name="aogonek" unicode="&#x105;" horiz-adv-x="482" 
d="M403 -162q-26 -17 -64 -17q-33 0 -55.5 22t-22.5 60q0 19 7.5 36.5t20.5 31.5t29 24.5t33 16.5q-2 15 -4.5 36t-3.5 36q-16 -16 -34.5 -33t-39.5 -30.5t-43.5 -22t-47.5 -8.5q-56 0 -93 30t-37 95q0 52 27.5 86t70 55.5t94.5 34t102 23.5v35q0 25 -4 46.5t-15.5 37.5
t-32.5 25t-55 9q-45 0 -78 -22.5t-47 -60.5l-45 14q19 49 63 80t107 31q82 0 120.5 -39.5t38.5 -127.5v-232q0 -17 1 -35.5t3 -35.5q1 -10 2 -19.5t3 -19.5q-46 -12 -71.5 -36.5t-25.5 -60.5q0 -20 10 -32.5t29 -12.5q13 0 29.5 4.5t28.5 10.5v-35zM342 275
q-37 -8 -79 -18.5t-78 -28t-59.5 -44t-23.5 -65.5q0 -45 24.5 -67t58.5 -22q21 0 42.5 9.5t42.5 23.5t39.5 31t32.5 31v150z" />
    <glyph glyph-name="Cacute" unicode="&#x106;" horiz-adv-x="595" 
d="M547 187q-9 -44 -26.5 -81t-45.5 -63t-67 -40.5t-91 -14.5q-72 0 -119.5 32t-76.5 83.5t-41 115.5t-12 129q0 64 13 130t42 119t77 86.5t119 33.5q51 0 87.5 -14t62 -39.5t42 -61t27.5 -78.5l-59 -13q-6 31 -15.5 59.5t-27.5 50.5t-46 35.5t-71 13.5q-51 0 -87.5 -27
t-60 -71.5t-34.5 -102.5t-11 -121q0 -59 10.5 -115t34 -100t59.5 -70.5t87 -26.5q40 0 69.5 13.5t50 36t33 52.5t18.5 63zM330 738h-35l57 92h58z" />
    <glyph glyph-name="cacute" unicode="&#x107;" horiz-adv-x="442" 
d="M414 121q-20 -63 -63 -97t-106 -34q-51 0 -86.5 20.5t-58 55.5t-32.5 81.5t-10 98.5q0 47 11.5 94t34.5 84.5t59 61t86 23.5q63 0 101 -33.5t57 -97.5l-45 -11q-6 21 -14.5 39.5t-22 32t-32 21t-44.5 7.5q-36 0 -62 -20t-42.5 -52t-24.5 -71.5t-8 -77.5q0 -41 7.5 -79.5
t23.5 -68.5t42 -48t62 -18q30 0 50 9t34 23.5t23 33t17 38.5zM261 581h-32l60 122h55z" />
    <glyph glyph-name="Ccircumflex" unicode="&#x108;" horiz-adv-x="595" 
d="M547 187q-9 -44 -26.5 -81t-45.5 -63t-67 -40.5t-91 -14.5q-72 0 -119.5 32t-76.5 83.5t-41 115.5t-12 129q0 64 13 130t42 119t77 86.5t119 33.5q51 0 87.5 -14t62 -39.5t42 -61t27.5 -78.5l-59 -13q-6 31 -15.5 59.5t-27.5 50.5t-46 35.5t-71 13.5q-51 0 -87.5 -27
t-60 -71.5t-34.5 -102.5t-11 -121q0 -59 10.5 -115t34 -100t59.5 -70.5t87 -26.5q40 0 69.5 13.5t50 36t33 52.5t18.5 63zM382 738l-66 56l-66 -56h-50l95 92h42l95 -92h-50z" />
    <glyph glyph-name="ccircumflex" unicode="&#x109;" horiz-adv-x="442" 
d="M414 121q-20 -63 -63 -97t-106 -34q-51 0 -86.5 20.5t-58 55.5t-32.5 81.5t-10 98.5q0 47 11.5 94t34.5 84.5t59 61t86 23.5q63 0 101 -33.5t57 -97.5l-45 -11q-6 21 -14.5 39.5t-22 32t-32 21t-44.5 7.5q-36 0 -62 -20t-42.5 -52t-24.5 -71.5t-8 -77.5q0 -41 7.5 -79.5
t23.5 -68.5t42 -48t62 -18q30 0 50 9t34 23.5t23 33t17 38.5zM315 581l-66 81l-66 -81h-50l95 122h42l95 -122h-50z" />
    <glyph glyph-name="Cdotaccent" unicode="&#x10a;" horiz-adv-x="595" 
d="M547 187q-9 -44 -26.5 -81t-45.5 -63t-67 -40.5t-91 -14.5q-72 0 -119.5 32t-76.5 83.5t-41 115.5t-12 129q0 64 13 130t42 119t77 86.5t119 33.5q51 0 87.5 -14t62 -39.5t42 -61t27.5 -78.5l-59 -13q-6 31 -15.5 59.5t-27.5 50.5t-46 35.5t-71 13.5q-51 0 -87.5 -27
t-60 -71.5t-34.5 -102.5t-11 -121q0 -59 10.5 -115t34 -100t59.5 -70.5t87 -26.5q40 0 69.5 13.5t50 36t33 52.5t18.5 63zM355 777q0 -18 -11 -28.5t-28 -10.5t-28 10.5t-11 28.5t11 28.5t28 10.5t28 -10.5t11 -28.5z" />
    <glyph glyph-name="cdotaccent" unicode="&#x10b;" horiz-adv-x="442" 
d="M414 121q-20 -63 -63 -97t-106 -34q-51 0 -86.5 20.5t-58 55.5t-32.5 81.5t-10 98.5q0 47 11.5 94t34.5 84.5t59 61t86 23.5q63 0 101 -33.5t57 -97.5l-45 -11q-6 21 -14.5 39.5t-22 32t-32 21t-44.5 7.5q-36 0 -62 -20t-42.5 -52t-24.5 -71.5t-8 -77.5q0 -41 7.5 -79.5
t23.5 -68.5t42 -48t62 -18q30 0 50 9t34 23.5t23 33t17 38.5zM288 640q0 -18 -11 -28.5t-28 -10.5t-28 10.5t-11 28.5t11 28.5t28 10.5t28 -10.5t11 -28.5z" />
    <glyph glyph-name="Ccaron" unicode="&#x10c;" horiz-adv-x="595" 
d="M547 187q-9 -44 -26.5 -81t-45.5 -63t-67 -40.5t-91 -14.5q-72 0 -119.5 32t-76.5 83.5t-41 115.5t-12 129q0 64 13 130t42 119t77 86.5t119 33.5q51 0 87.5 -14t62 -39.5t42 -61t27.5 -78.5l-59 -13q-6 31 -15.5 59.5t-27.5 50.5t-46 35.5t-71 13.5q-51 0 -87.5 -27
t-60 -71.5t-34.5 -102.5t-11 -121q0 -59 10.5 -115t34 -100t59.5 -70.5t87 -26.5q40 0 69.5 13.5t50 36t33 52.5t18.5 63zM334 738h-42l-95 92h50l66 -56l66 56h50z" />
    <glyph glyph-name="ccaron" unicode="&#x10d;" horiz-adv-x="442" 
d="M414 121q-20 -63 -63 -97t-106 -34q-51 0 -86.5 20.5t-58 55.5t-32.5 81.5t-10 98.5q0 47 11.5 94t34.5 84.5t59 61t86 23.5q63 0 101 -33.5t57 -97.5l-45 -11q-6 21 -14.5 39.5t-22 32t-32 21t-44.5 7.5q-36 0 -62 -20t-42.5 -52t-24.5 -71.5t-8 -77.5q0 -41 7.5 -79.5
t23.5 -68.5t42 -48t62 -18q30 0 50 9t34 23.5t23 33t17 38.5zM266 581h-42l-95 122h50l66 -81l66 81h50z" />
    <glyph glyph-name="Dcaron" unicode="&#x10e;" horiz-adv-x="622" 
d="M554 355q0 -175 -77 -265t-242 -90h-137v703h137q85 0 145.5 -22t99 -65.5t56.5 -109t18 -151.5zM497 355q0 62 -11.5 117t-40.5 96t-78 64.5t-123 23.5h-91v-609h75q79 0 131 22.5t82.5 63t43 97t12.5 125.5zM304 738h-42l-95 92h50l66 -56l66 56h50z" />
    <glyph glyph-name="dcaron" unicode="&#x10f;" horiz-adv-x="510" 
d="M380 0q-2 11 -4 32.5t-4 41.5q-12 -14 -27 -29t-33 -27t-38.5 -20t-42.5 -8q-45 0 -77.5 20t-54 55.5t-31.5 83t-10 103.5q0 43 10 89t32 83t55.5 61t81.5 24q46 0 77.5 -20t55.5 -49v263h52v-600q0 -14 0.5 -31.5t2.5 -33.5l3 -38h-48zM370 397q-23 29 -56 50t-73 21
q-29 0 -53 -16t-41 -44.5t-26 -68.5t-9 -87q0 -103 30.5 -162t90.5 -59q39 0 74 26t63 58v282zM548 655q0 -26 -6.5 -47t-16.5 -38.5t-23 -32.5t-26 -27l-22 18q22 23 31 42t9 35q0 10 -4 16t-9.5 11.5t-9.5 12t-4 18.5q0 17 11 28.5t28 11.5q20 0 31 -13.5t11 -34.5z" />
    <glyph glyph-name="Dcroat" unicode="&#x110;" horiz-adv-x="622" 
d="M554 355q0 -175 -77 -265t-242 -90h-137v349h-65v47h65v307h137q85 0 145.5 -22t99 -65.5t56.5 -109t18 -151.5zM497 355q0 62 -11.5 117t-40.5 96t-78 64.5t-123 23.5h-91v-260h211v-47h-211v-302h75q79 0 131 22.5t82.5 63t43 97t12.5 125.5z" />
    <glyph glyph-name="dcroat" unicode="&#x111;" horiz-adv-x="510" 
d="M380 0q-2 11 -4 32.5t-4 41.5q-12 -14 -27 -29t-33 -27t-38.5 -20t-42.5 -8q-45 0 -77.5 20t-54 55.5t-31.5 83t-10 103.5q0 43 10 89t32 83t55.5 61t81.5 24q46 0 77.5 -20t55.5 -49v130h-100v40h100v93h52v-93h60v-40h-60v-467q0 -14 0.5 -31.5t2.5 -33.5l3 -38h-48z
M370 397q-23 29 -56 50t-73 21q-29 0 -53 -16t-41 -44.5t-26 -68.5t-9 -87q0 -103 30.5 -162t90.5 -59q39 0 74 26t63 58v282z" />
    <glyph glyph-name="Emacron" unicode="&#x112;" horiz-adv-x="510" 
d="M98 0v703h354v-47h-299v-260h231v-47h-231v-302h309v-47h-364zM164 764v40h222v-40h-222z" />
    <glyph glyph-name="emacron" unicode="&#x113;" horiz-adv-x="473" 
d="M418 112q-18 -54 -62.5 -88t-107.5 -34q-91 0 -140.5 66t-49.5 192q0 58 13.5 106t37.5 82.5t58 53.5t75 19q51 0 84.5 -22t53 -58t27.5 -81t8 -90v-7h-304v-4q0 -105 37 -160t100 -55q48 0 78 23.5t49 71.5zM363 288q-1 38 -8 71t-21.5 57.5t-37 38.5t-54.5 14
q-52 0 -87 -45.5t-42 -135.5h250zM131 620v40h222v-40h-222z" />
    <glyph glyph-name="Ebreve" unicode="&#x114;" horiz-adv-x="510" 
d="M98 0v703h354v-47h-299v-260h231v-47h-231v-302h309v-47h-364zM395 849q-4 -60 -38 -85.5t-82 -25.5t-82 25.5t-38 85.5h37q5 -34 26 -52.5t57 -18.5t57 18.5t26 52.5h37z" />
    <glyph glyph-name="ebreve" unicode="&#x115;" horiz-adv-x="473" 
d="M418 112q-18 -54 -62.5 -88t-107.5 -34q-91 0 -140.5 66t-49.5 192q0 58 13.5 106t37.5 82.5t58 53.5t75 19q51 0 84.5 -22t53 -58t27.5 -81t8 -90v-7h-304v-4q0 -105 37 -160t100 -55q48 0 78 23.5t49 71.5zM363 288q-1 38 -8 71t-21.5 57.5t-37 38.5t-54.5 14
q-52 0 -87 -45.5t-42 -135.5h250zM362 692q-4 -60 -38 -85.5t-82 -25.5t-82 25.5t-38 85.5h37q5 -34 26 -52.5t57 -18.5t57 18.5t26 52.5h37z" />
    <glyph glyph-name="Edotaccent" unicode="&#x116;" horiz-adv-x="510" 
d="M98 0v703h354v-47h-299v-260h231v-47h-231v-302h309v-47h-364zM314 777q0 -18 -11 -28.5t-28 -10.5t-28 10.5t-11 28.5t11 28.5t28 10.5t28 -10.5t11 -28.5z" />
    <glyph glyph-name="edotaccent" unicode="&#x117;" horiz-adv-x="473" 
d="M418 112q-18 -54 -62.5 -88t-107.5 -34q-91 0 -140.5 66t-49.5 192q0 58 13.5 106t37.5 82.5t58 53.5t75 19q51 0 84.5 -22t53 -58t27.5 -81t8 -90v-7h-304v-4q0 -105 37 -160t100 -55q48 0 78 23.5t49 71.5zM363 288q-1 38 -8 71t-21.5 57.5t-37 38.5t-54.5 14
q-52 0 -87 -45.5t-42 -135.5h250zM281 640q0 -18 -11 -28.5t-28 -10.5t-28 10.5t-11 28.5t11 28.5t28 10.5t28 -10.5t11 -28.5z" />
    <glyph glyph-name="Eogonek" unicode="&#x118;" horiz-adv-x="510" 
d="M462 -162q-26 -17 -64 -17q-33 0 -55.5 22t-22.5 60q0 31 19 56.5t45 40.5h-286v703h354v-47h-299v-260h231v-47h-231v-302h309v-47q-45 -11 -71 -36t-26 -61q0 -20 10 -32.5t29 -12.5q13 0 29.5 4.5t28.5 10.5v-35z" />
    <glyph glyph-name="eogonek" unicode="&#x119;" horiz-adv-x="473" 
d="M333 -162q-26 -17 -64 -17q-33 0 -55.5 22t-22.5 60q0 26 14 48.5t34 38.5q-88 3 -134.5 69t-46.5 189q0 58 13.5 106t37.5 82.5t58 53.5t75 19q51 0 84.5 -22t53 -58t27.5 -81t8 -90v-7h-304v-4q0 -105 37 -160t100 -55q48 0 78 23.5t49 71.5l43 -15
q-13 -38 -39.5 -66.5t-61.5 -43.5q-38 -17 -59.5 -41.5t-21.5 -57.5q0 -20 10 -32.5t29 -12.5q13 0 29.5 4.5t28.5 10.5v-35zM363 288q-1 38 -8 71t-21.5 57.5t-37 38.5t-54.5 14q-52 0 -87 -45.5t-42 -135.5h250z" />
    <glyph glyph-name="Ecaron" unicode="&#x11a;" horiz-adv-x="510" 
d="M98 0v703h354v-47h-299v-260h231v-47h-231v-302h309v-47h-364zM293 738h-42l-95 92h50l66 -56l66 56h50z" />
    <glyph glyph-name="ecaron" unicode="&#x11b;" horiz-adv-x="473" 
d="M418 112q-18 -54 -62.5 -88t-107.5 -34q-91 0 -140.5 66t-49.5 192q0 58 13.5 106t37.5 82.5t58 53.5t75 19q51 0 84.5 -22t53 -58t27.5 -81t8 -90v-7h-304v-4q0 -105 37 -160t100 -55q48 0 78 23.5t49 71.5zM363 288q-1 38 -8 71t-21.5 57.5t-37 38.5t-54.5 14
q-52 0 -87 -45.5t-42 -135.5h250zM259 581h-42l-95 122h50l66 -81l66 81h50z" />
    <glyph glyph-name="Gcircumflex" unicode="&#x11c;" horiz-adv-x="632" 
d="M491 0l-3 114q-10 -26 -26.5 -49t-38.5 -40t-50 -27t-61 -10q-67 0 -113.5 29t-75.5 78.5t-42 115.5t-13 140q0 64 13 129.5t43 118t78.5 85.5t119.5 33q46 0 81 -12.5t60.5 -36t42.5 -57t28 -76.5l-53 -15q-7 32 -19 59.5t-31 47.5t-46 31.5t-64 11.5q-54 0 -91.5 -29.5
t-60.5 -75.5t-33.5 -102t-10.5 -108q0 -57 9 -114t31.5 -102.5t60.5 -74t97 -28.5q46 0 77 23.5t50 59.5t26.5 79.5t7.5 84.5h-159v47h209v-330h-43zM388 738l-66 56l-66 -56h-50l95 92h42l95 -92h-50z" />
    <glyph glyph-name="gcircumflex" unicode="&#x11d;" horiz-adv-x="454" 
d="M438 -34q0 -37 -18.5 -65.5t-49 -47.5t-70.5 -29t-82 -10q-27 0 -58 6t-57 19.5t-43 36t-17 55.5q0 22 8.5 41.5t22.5 35t31 27.5t34 20q-26 8 -45.5 24.5t-19.5 48.5q0 27 20 47.5t47 31.5q-36 19 -59.5 54t-23.5 87q0 39 14 69.5t37.5 50.5t54 30.5t63.5 10.5
q32 0 62.5 -10t53.5 -30q18 20 40.5 31.5t54.5 11.5v-48q-13 0 -33.5 -3.5t-39.5 -14.5q14 -19 22.5 -43.5t8.5 -54.5q0 -39 -13.5 -69.5t-37 -50.5t-54 -30.5t-64.5 -10.5q-31 0 -53 7q-15 -7 -32 -20.5t-17 -31.5q0 -19 15 -30t37 -15l141 -25q24 -5 46 -12.5t38.5 -19.5
t26 -30t9.5 -44zM346 348q0 57 -31 90t-88 33q-51 0 -85 -33t-34 -90q0 -60 34 -91.5t85 -31.5t85 33t34 90zM386 -43q0 32 -20 47t-56 21l-128 22q-18 -8 -34.5 -20t-29 -26t-20 -30t-7.5 -32q0 -45 37 -65.5t97 -20.5q32 0 61.5 7t51.5 20.5t35 33t13 43.5zM286 581
l-66 81l-66 -81h-50l95 122h42l95 -122h-50z" />
    <glyph glyph-name="Gbreve" unicode="&#x11e;" horiz-adv-x="632" 
d="M491 0l-3 114q-10 -26 -26.5 -49t-38.5 -40t-50 -27t-61 -10q-67 0 -113.5 29t-75.5 78.5t-42 115.5t-13 140q0 64 13 129.5t43 118t78.5 85.5t119.5 33q46 0 81 -12.5t60.5 -36t42.5 -57t28 -76.5l-53 -15q-7 32 -19 59.5t-31 47.5t-46 31.5t-64 11.5q-54 0 -91.5 -29.5
t-60.5 -75.5t-33.5 -102t-10.5 -108q0 -57 9 -114t31.5 -102.5t60.5 -74t97 -28.5q46 0 77 23.5t50 59.5t26.5 79.5t7.5 84.5h-159v47h209v-330h-43zM442 849q-4 -60 -38 -85.5t-82 -25.5t-82 25.5t-38 85.5h37q5 -34 26 -52.5t57 -18.5t57 18.5t26 52.5h37z" />
    <glyph glyph-name="gbreve" unicode="&#x11f;" horiz-adv-x="454" 
d="M438 -34q0 -37 -18.5 -65.5t-49 -47.5t-70.5 -29t-82 -10q-27 0 -58 6t-57 19.5t-43 36t-17 55.5q0 22 8.5 41.5t22.5 35t31 27.5t34 20q-26 8 -45.5 24.5t-19.5 48.5q0 27 20 47.5t47 31.5q-36 19 -59.5 54t-23.5 87q0 39 14 69.5t37.5 50.5t54 30.5t63.5 10.5
q32 0 62.5 -10t53.5 -30q18 20 40.5 31.5t54.5 11.5v-48q-13 0 -33.5 -3.5t-39.5 -14.5q14 -19 22.5 -43.5t8.5 -54.5q0 -39 -13.5 -69.5t-37 -50.5t-54 -30.5t-64.5 -10.5q-31 0 -53 7q-15 -7 -32 -20.5t-17 -31.5q0 -19 15 -30t37 -15l141 -25q24 -5 46 -12.5t38.5 -19.5
t26 -30t9.5 -44zM346 348q0 57 -31 90t-88 33q-51 0 -85 -33t-34 -90q0 -60 34 -91.5t85 -31.5t85 33t34 90zM386 -43q0 32 -20 47t-56 21l-128 22q-18 -8 -34.5 -20t-29 -26t-20 -30t-7.5 -32q0 -45 37 -65.5t97 -20.5q32 0 61.5 7t51.5 20.5t35 33t13 43.5zM340 692
q-4 -60 -38 -85.5t-82 -25.5t-82 25.5t-38 85.5h37q5 -34 26 -52.5t57 -18.5t57 18.5t26 52.5h37z" />
    <glyph glyph-name="Gdotaccent" unicode="&#x120;" horiz-adv-x="632" 
d="M491 0l-3 114q-10 -26 -26.5 -49t-38.5 -40t-50 -27t-61 -10q-67 0 -113.5 29t-75.5 78.5t-42 115.5t-13 140q0 64 13 129.5t43 118t78.5 85.5t119.5 33q46 0 81 -12.5t60.5 -36t42.5 -57t28 -76.5l-53 -15q-7 32 -19 59.5t-31 47.5t-46 31.5t-64 11.5q-54 0 -91.5 -29.5
t-60.5 -75.5t-33.5 -102t-10.5 -108q0 -57 9 -114t31.5 -102.5t60.5 -74t97 -28.5q46 0 77 23.5t50 59.5t26.5 79.5t7.5 84.5h-159v47h209v-330h-43zM361 777q0 -18 -11 -28.5t-28 -10.5t-28 10.5t-11 28.5t11 28.5t28 10.5t28 -10.5t11 -28.5z" />
    <glyph glyph-name="gdotaccent" unicode="&#x121;" horiz-adv-x="454" 
d="M438 -34q0 -37 -18.5 -65.5t-49 -47.5t-70.5 -29t-82 -10q-27 0 -58 6t-57 19.5t-43 36t-17 55.5q0 22 8.5 41.5t22.5 35t31 27.5t34 20q-26 8 -45.5 24.5t-19.5 48.5q0 27 20 47.5t47 31.5q-36 19 -59.5 54t-23.5 87q0 39 14 69.5t37.5 50.5t54 30.5t63.5 10.5
q32 0 62.5 -10t53.5 -30q18 20 40.5 31.5t54.5 11.5v-48q-13 0 -33.5 -3.5t-39.5 -14.5q14 -19 22.5 -43.5t8.5 -54.5q0 -39 -13.5 -69.5t-37 -50.5t-54 -30.5t-64.5 -10.5q-31 0 -53 7q-15 -7 -32 -20.5t-17 -31.5q0 -19 15 -30t37 -15l141 -25q24 -5 46 -12.5t38.5 -19.5
t26 -30t9.5 -44zM346 348q0 57 -31 90t-88 33q-51 0 -85 -33t-34 -90q0 -60 34 -91.5t85 -31.5t85 33t34 90zM386 -43q0 32 -20 47t-56 21l-128 22q-18 -8 -34.5 -20t-29 -26t-20 -30t-7.5 -32q0 -45 37 -65.5t97 -20.5q32 0 61.5 7t51.5 20.5t35 33t13 43.5zM259 640
q0 -18 -11 -28.5t-28 -10.5t-28 10.5t-11 28.5t11 28.5t28 10.5t28 -10.5t11 -28.5z" />
    <glyph glyph-name="Gcommaaccent" unicode="&#x122;" horiz-adv-x="632" 
d="M491 0l-3 114q-10 -26 -26.5 -49t-38.5 -40t-50 -27t-61 -10q-67 0 -113.5 29t-75.5 78.5t-42 115.5t-13 140q0 64 13 129.5t43 118t78.5 85.5t119.5 33q46 0 81 -12.5t60.5 -36t42.5 -57t28 -76.5l-53 -15q-7 32 -19 59.5t-31 47.5t-46 31.5t-64 11.5q-54 0 -91.5 -29.5
t-60.5 -75.5t-33.5 -102t-10.5 -108q0 -57 9 -114t31.5 -102.5t60.5 -74t97 -28.5q46 0 77 23.5t50 59.5t26.5 79.5t7.5 84.5h-159v47h209v-330h-43zM343 -68q0 -42 -22 -71t-47 -49l-22 18q17 17 27 31.5t10 30.5q0 7 -4 12t-8.5 10t-8.5 11t-4 15q0 17 10.5 28.5
t27.5 11.5q20 0 30.5 -13.5t10.5 -34.5z" />
    <glyph glyph-name="gcommaaccent" unicode="&#x123;" horiz-adv-x="454" 
d="M438 -34q0 -37 -18.5 -65.5t-49 -47.5t-70.5 -29t-82 -10q-27 0 -58 6t-57 19.5t-43 36t-17 55.5q0 22 8.5 41.5t22.5 35t31 27.5t34 20q-26 8 -45.5 24.5t-19.5 48.5q0 27 20 47.5t47 31.5q-36 19 -59.5 54t-23.5 87q0 39 14 69.5t37.5 50.5t54 30.5t63.5 10.5
q32 0 62.5 -10t53.5 -30q18 20 40.5 31.5t54.5 11.5v-48q-13 0 -33.5 -3.5t-39.5 -14.5q14 -19 22.5 -43.5t8.5 -54.5q0 -39 -13.5 -69.5t-37 -50.5t-54 -30.5t-64.5 -10.5q-31 0 -53 7q-15 -7 -32 -20.5t-17 -31.5q0 -19 15 -30t37 -15l141 -25q24 -5 46 -12.5t38.5 -19.5
t26 -30t9.5 -44zM346 348q0 57 -31 90t-88 33q-51 0 -85 -33t-34 -90q0 -60 34 -91.5t85 -31.5t85 33t34 90zM386 -43q0 32 -20 47t-56 21l-128 22q-18 -8 -34.5 -20t-29 -26t-20 -30t-7.5 -32q0 -45 37 -65.5t97 -20.5q32 0 61.5 7t51.5 20.5t35 33t13 43.5zM272 776
q-22 -23 -31 -42t-9 -35q0 -11 4 -17t9.5 -11t9.5 -11.5t4 -18.5q0 -17 -11 -28.5t-28 -11.5q-20 0 -31 13.5t-11 34.5q0 26 6.5 47t16.5 38.5t23 32t26 27.5z" />
    <glyph glyph-name="Hcircumflex" unicode="&#x124;" horiz-adv-x="645" 
d="M492 0v349h-339v-349h-55v703h55v-307h339v307h55v-703h-55zM388 738l-66 56l-66 -56h-50l95 92h42l95 -92h-50z" />
    <glyph glyph-name="hcircumflex" unicode="&#x125;" 
d="M376 0v349q0 54 -16.5 83.5t-61.5 29.5q-40 0 -78 -27t-80 -69v-366h-52v702h52v-294q16 17 34 35t38.5 32.5t43.5 24t49 9.5q38 0 62 -13t37.5 -35t18.5 -51t5 -60v-350h-52zM310 781l-66 81l-66 -81h-50l95 122h42l95 -122h-50z" />
    <glyph glyph-name="Hbar" unicode="&#x126;" horiz-adv-x="645" 
d="M547 519v-519h-55v349h-339v-349h-55v519h-60v47h60v137h55v-137h339v137h55v-137h60v-47h-60zM492 519h-339v-123h339v123z" />
    <glyph glyph-name="hbar" unicode="&#x127;" 
d="M376 0v349q0 54 -16.5 83.5t-61.5 29.5q-40 0 -78 -27t-80 -69v-366h-52v570h-60v40h60v92h52v-92h120v-40h-120v-162q16 17 34 35t38.5 32.5t43.5 24t49 9.5q38 0 62 -13t37.5 -35t18.5 -51t5 -60v-350h-52z" />
    <glyph glyph-name="Itilde" unicode="&#x128;" horiz-adv-x="251" 
d="M98 0v703h55v-703h-55zM251 824q-2 -33 -17.5 -54.5t-53.5 -21.5q-16 0 -30.5 5.5t-27.5 12.5t-24.5 12.5t-21.5 5.5q-14 0 -25 -8.5t-11 -29.5h-40q4 36 22 57t53 21q16 0 30 -5.5t26 -12.5t24 -12.5t24 -5.5q15 0 24.5 9.5t9.5 26.5h38z" />
    <glyph glyph-name="itilde" unicode="&#x129;" horiz-adv-x="228" 
d="M88 0v500h52v-500h-52zM245 680q-2 -33 -17.5 -54.5t-53.5 -21.5q-17 0 -33.5 5.5t-31 12.5t-27 12.5t-22.5 5.5q-14 0 -25 -8.5t-11 -29.5h-40q4 36 22 57t53 21q16 0 31 -5.5t29.5 -12.5t28 -12.5t25.5 -5.5q15 0 24.5 9.5t9.5 26.5h38z" />
    <glyph glyph-name="Imacron" unicode="&#x12a;" horiz-adv-x="251" 
d="M98 0v703h55v-703h-55zM14 764v40h222v-40h-222z" />
    <glyph glyph-name="imacron" unicode="&#x12b;" horiz-adv-x="228" 
d="M88 0v500h52v-500h-52zM3 620v40h222v-40h-222z" />
    <glyph glyph-name="Iogonek" unicode="&#x12e;" horiz-adv-x="251" 
d="M175 -162q-26 -17 -64 -17q-33 0 -55.5 22t-22.5 60q0 32 19 57.5t46 39.5v703h55v-703q-35 -18 -55 -41.5t-20 -55.5q0 -20 10 -32.5t29 -12.5q13 0 29.5 4.5t28.5 10.5v-35z" />
    <glyph glyph-name="iogonek" unicode="&#x12f;" horiz-adv-x="228" 
d="M165 -162q-26 -17 -64 -17q-33 0 -55.5 22t-22.5 60q0 32 19 57.5t46 39.5v500h52v-502q-34 -17 -53 -40.5t-19 -54.5q0 -20 10 -32.5t29 -12.5q13 0 29.5 4.5t28.5 10.5v-35zM153 640q0 -18 -11 -28.5t-28 -10.5t-28 10.5t-11 28.5t11 28.5t28 10.5t28 -10.5t11 -28.5z
" />
    <glyph glyph-name="Idotaccent" unicode="&#x130;" horiz-adv-x="251" 
d="M98 0v703h55v-703h-55zM164 777q0 -18 -11 -28.5t-28 -10.5t-28 10.5t-11 28.5t11 28.5t28 10.5t28 -10.5t11 -28.5z" />
    <glyph glyph-name="dotlessi" unicode="&#x131;" horiz-adv-x="228" 
d="M88 0v500h52v-500h-52z" />
    <glyph glyph-name="IJ" unicode="&#x132;" horiz-adv-x="689" 
d="M98 0v703h55v-703h-55zM591 196q0 -47 -9 -85.5t-29 -65.5t-51 -42t-75 -15q-57 0 -91 27t-55 87l54 19q12 -35 34.5 -60t57.5 -25q33 0 54 14.5t33.5 37t17 49.5t4.5 53v513h55v-507z" />
    <glyph glyph-name="ij" unicode="&#x133;" horiz-adv-x="456" 
d="M153 640q0 -18 -11 -28.5t-28 -10.5t-28 10.5t-11 28.5t11 28.5t28 10.5t28 -10.5t11 -28.5zM88 0v500h52v-500h-52zM381 640q0 -18 -11 -28.5t-28 -10.5t-28 10.5t-11 28.5t11 28.5t28 10.5t28 -10.5t11 -28.5zM368 -55q0 -66 -23.5 -97.5t-77.5 -31.5q-11 0 -22 1
t-17 3v40q6 -1 17.5 -1.5t17.5 -0.5q16 0 26.5 7t16.5 18.5t8 26.5t2 31v559h52v-555z" />
    <glyph glyph-name="Jcircumflex" unicode="&#x134;" horiz-adv-x="438" 
d="M340 196q0 -47 -9 -85.5t-29 -65.5t-51 -42t-75 -15q-57 0 -91 27t-55 87l54 19q12 -35 34.5 -60t57.5 -25q33 0 54 14.5t33.5 37t17 49.5t4.5 53v513h55v-507zM378 738l-66 56l-66 -56h-50l95 92h42l95 -92h-50z" />
    <glyph glyph-name="jcircumflex" unicode="&#x135;" horiz-adv-x="228" 
d="M140 -55q0 -66 -23.5 -97.5t-77.5 -31.5q-11 0 -22 1t-17 3v40q6 -1 17.5 -1.5t17.5 -0.5q16 0 26.5 7t16.5 18.5t8 26.5t2 31v559h52v-555zM180 581l-66 81l-66 -81h-50l95 122h42l95 -122h-50z" />
    <glyph glyph-name="Kcommaaccent" unicode="&#x136;" horiz-adv-x="555" 
d="M470 0l-213 364l-104 -135v-229h-55v703h55v-392l301 392h65l-228 -295l244 -408h-65zM331 -68q0 -42 -22 -71t-47 -49l-22 18q17 17 27 31.5t10 30.5q0 7 -4 12t-8.5 10t-8.5 11t-4 15q0 17 10.5 28.5t27.5 11.5q20 0 30.5 -13.5t10.5 -34.5z" />
    <glyph glyph-name="kcommaaccent" unicode="&#x137;" horiz-adv-x="439" 
d="M362 0l-146 271l-76 -94v-177h-52v703h52v-456l201 253h62l-154 -189l170 -311h-57zM294 -67q0 -42 -22 -71t-47 -49l-22 18q17 17 27 31.5t10 30.5q0 7 -4 12t-8.5 10t-8.5 11t-4 15q0 17 10.5 28.5t27.5 11.5q20 0 30.5 -13.5t10.5 -34.5z" />
    <glyph glyph-name="Lacute" unicode="&#x139;" horiz-adv-x="487" 
d="M98 0v703h55v-656h286v-47h-341zM139 738h-35l57 92h58z" />
    <glyph glyph-name="lacute" unicode="&#x13a;" horiz-adv-x="228" 
d="M207 4l-22 -5q-11 -3 -24 -3q-73 0 -73 88v619h52v-618q0 -21 6.5 -33.5t23.5 -12.5q8 0 18.5 1t18.5 3v-39zM126 781h-32l60 122h55z" />
    <glyph glyph-name="Lcommaaccent" unicode="&#x13b;" horiz-adv-x="487" 
d="M98 0v703h55v-656h286v-47h-341zM309 -68q0 -42 -22 -71t-47 -49l-22 18q17 17 27 31.5t10 30.5q0 7 -4 12t-8.5 10t-8.5 11t-4 15q0 17 10.5 28.5t27.5 11.5q20 0 30.5 -13.5t10.5 -34.5z" />
    <glyph glyph-name="lcommaaccent" unicode="&#x13c;" horiz-adv-x="228" 
d="M207 4l-22 -5q-11 -3 -24 -3q-73 0 -73 88v619h52v-618q0 -21 6.5 -33.5t23.5 -12.5q8 0 18.5 1t18.5 3v-39zM192 -67q0 -42 -22 -71t-47 -49l-22 18q17 17 27 31.5t10 30.5q0 7 -4 12t-8.5 10t-8.5 11t-4 15q0 17 10.5 28.5t27.5 11.5q20 0 30.5 -13.5t10.5 -34.5z" />
    <glyph glyph-name="Lcaron" unicode="&#x13d;" horiz-adv-x="487" 
d="M98 0v703h55v-656h286v-47h-341zM277 652q0 -26 -6.5 -47t-16.5 -38.5t-23 -32.5t-26 -27l-22 18q22 23 31 42t9 35q0 10 -4 16t-9.5 11.5t-9.5 12t-4 18.5q0 17 11 28.5t28 11.5q20 0 31 -13.5t11 -34.5z" />
    <glyph glyph-name="lcaron" unicode="&#x13e;" horiz-adv-x="228" 
d="M207 4l-22 -5q-11 -3 -24 -3q-73 0 -73 88v619h52v-618q0 -21 6.5 -33.5t23.5 -12.5q8 0 18.5 1t18.5 3v-39zM266 652q0 -26 -6.5 -47t-16.5 -38.5t-23 -32.5t-26 -27l-22 18q22 23 31 42t9 35q0 10 -4 16t-9.5 11.5t-9.5 12t-4 18.5q0 17 11 28.5t28 11.5q20 0 31 -13.5
t11 -34.5z" />
    <glyph glyph-name="Ldot" unicode="&#x13f;" horiz-adv-x="487" 
d="M98 0v703h55v-656h286v-47h-341zM387 350q0 -19 -11.5 -30t-29.5 -11t-29.5 11t-11.5 30t11.5 30t29.5 11t29.5 -11t11.5 -30z" />
    <glyph glyph-name="ldot" unicode="&#x140;" horiz-adv-x="268" 
d="M207 4l-22 -5q-11 -3 -24 -3q-73 0 -73 88v619h52v-618q0 -21 6.5 -33.5t23.5 -12.5q8 0 18.5 1t18.5 3v-39zM268 300q0 -19 -11.5 -30t-29.5 -11t-29.5 11t-11.5 30t11.5 30t29.5 11t29.5 -11t11.5 -30z" />
    <glyph glyph-name="Lslash" unicode="&#x141;" horiz-adv-x="487" 
d="M98 0v257l-78 -44l-10 43l88 49v398h55v-367l236 133l10 -43l-246 -138v-241h286v-47h-341z" />
    <glyph glyph-name="lslash" unicode="&#x142;" horiz-adv-x="228" 
d="M140 380v-295q0 -21 6.5 -33.5t23.5 -12.5q8 0 18.5 1t18.5 3v-39l-22 -5q-11 -3 -24 -3q-73 0 -73 88v266l-67 -38l-10 43l77 44v304h52v-275l70 40l10 -43z" />
    <glyph glyph-name="Nacute" unicode="&#x143;" horiz-adv-x="643" 
d="M478 0l-325 646v-646h-55v703h80l312 -619v619h55v-703h-67zM335 738h-35l57 92h58z" />
    <glyph glyph-name="nacute" unicode="&#x144;" 
d="M376 0v349q0 54 -16.5 83.5t-61.5 29.5q-40 0 -78 -27t-80 -69v-366h-52v500h52v-92q16 17 34 35t38.5 32.5t43.5 24t49 9.5q38 0 62 -13t37.5 -35t18.5 -51t5 -60v-350h-52zM277 581h-32l60 122h55z" />
    <glyph glyph-name="Ncommaaccent" unicode="&#x145;" horiz-adv-x="643" 
d="M478 0l-325 646v-646h-55v703h80l312 -619v619h55v-703h-67zM352 -68q0 -42 -22 -71t-47 -49l-22 18q17 17 27 31.5t10 30.5q0 7 -4 12t-8.5 10t-8.5 11t-4 15q0 17 10.5 28.5t27.5 11.5q20 0 30.5 -13.5t10.5 -34.5z" />
    <glyph glyph-name="ncommaaccent" unicode="&#x146;" 
d="M376 0v349q0 54 -16.5 83.5t-61.5 29.5q-40 0 -78 -27t-80 -69v-366h-52v500h52v-92q16 17 34 35t38.5 32.5t43.5 24t49 9.5q38 0 62 -13t37.5 -35t18.5 -51t5 -60v-350h-52zM299 -67q0 -42 -22 -71t-47 -49l-22 18q17 17 27 31.5t10 30.5q0 7 -4 12t-8.5 10t-8.5 11
t-4 15q0 17 10.5 28.5t27.5 11.5q20 0 30.5 -13.5t10.5 -34.5z" />
    <glyph glyph-name="Ncaron" unicode="&#x147;" horiz-adv-x="643" 
d="M478 0l-325 646v-646h-55v703h80l312 -619v619h55v-703h-67zM339 738h-42l-95 92h50l66 -56l66 56h50z" />
    <glyph glyph-name="ncaron" unicode="&#x148;" 
d="M376 0v349q0 54 -16.5 83.5t-61.5 29.5q-40 0 -78 -27t-80 -69v-366h-52v500h52v-92q16 17 34 35t38.5 32.5t43.5 24t49 9.5q38 0 62 -13t37.5 -35t18.5 -51t5 -60v-350h-52zM282 581h-42l-95 122h50l66 -81l66 81h50z" />
    <glyph glyph-name="napostrophe" unicode="&#x149;" 
d="M376 0v349q0 54 -16.5 83.5t-61.5 29.5q-40 0 -78 -27t-80 -69v-366h-52v500h52v-92q16 17 34 35t38.5 32.5t43.5 24t49 9.5q38 0 62 -13t37.5 -35t18.5 -51t5 -60v-350h-52zM95 662q0 -26 -6.5 -47t-16.5 -38.5t-23 -32.5t-26 -27l-22 18q22 23 31 42t9 35q0 10 -4 16
t-9.5 11.5t-9.5 12t-4 18.5q0 17 11 28.5t28 11.5q20 0 31 -13.5t11 -34.5z" />
    <glyph glyph-name="Omacron" unicode="&#x14c;" horiz-adv-x="638" 
d="M570 353q0 -81 -16.5 -148t-48 -115.5t-78.5 -75t-108 -26.5t-107.5 26.5t-78.5 75t-48.5 115.5t-16.5 148t17.5 148t50 115t79 74.5t104.5 26.5t104.5 -26.5t79 -74.5t50 -115t17.5 -148zM513 353q0 69 -12.5 127t-37 100.5t-60.5 66t-84 23.5q-45 0 -81 -23.5t-61 -66
t-38.5 -100.5t-13.5 -127t12 -127.5t36 -100.5t60.5 -66t85.5 -24t85.5 24t60.5 66t36 100.5t12 127.5zM208 764v40h222v-40h-222z" />
    <glyph glyph-name="omacron" unicode="&#x14d;" horiz-adv-x="496" 
d="M438 249q0 -120 -50 -189.5t-140 -69.5q-91 0 -140.5 69t-49.5 190q0 59 13 107t37 82t59.5 52.5t80.5 18.5t80 -18.5t59.5 -52t37.5 -81.5t13 -108zM384 250q0 103 -36 161t-100 58q-63 0 -99.5 -57t-36.5 -162q0 -103 36.5 -160.5t99.5 -57.5t99.5 56.5t36.5 161.5z
M137 620v40h222v-40h-222z" />
    <glyph glyph-name="Obreve" unicode="&#x14e;" horiz-adv-x="638" 
d="M570 353q0 -81 -16.5 -148t-48 -115.5t-78.5 -75t-108 -26.5t-107.5 26.5t-78.5 75t-48.5 115.5t-16.5 148t17.5 148t50 115t79 74.5t104.5 26.5t104.5 -26.5t79 -74.5t50 -115t17.5 -148zM513 353q0 69 -12.5 127t-37 100.5t-60.5 66t-84 23.5q-45 0 -81 -23.5t-61 -66
t-38.5 -100.5t-13.5 -127t12 -127.5t36 -100.5t60.5 -66t85.5 -24t85.5 24t60.5 66t36 100.5t12 127.5zM439 849q-4 -60 -38 -85.5t-82 -25.5t-82 25.5t-38 85.5h37q5 -34 26 -52.5t57 -18.5t57 18.5t26 52.5h37z" />
    <glyph glyph-name="obreve" unicode="&#x14f;" horiz-adv-x="496" 
d="M438 249q0 -120 -50 -189.5t-140 -69.5q-91 0 -140.5 69t-49.5 190q0 59 13 107t37 82t59.5 52.5t80.5 18.5t80 -18.5t59.5 -52t37.5 -81.5t13 -108zM384 250q0 103 -36 161t-100 58q-63 0 -99.5 -57t-36.5 -162q0 -103 36.5 -160.5t99.5 -57.5t99.5 56.5t36.5 161.5z
M368 692q-4 -60 -38 -85.5t-82 -25.5t-82 25.5t-38 85.5h37q5 -34 26 -52.5t57 -18.5t57 18.5t26 52.5h37z" />
    <glyph glyph-name="Ohungarumlaut" unicode="&#x150;" horiz-adv-x="638" 
d="M570 353q0 -81 -16.5 -148t-48 -115.5t-78.5 -75t-108 -26.5t-107.5 26.5t-78.5 75t-48.5 115.5t-16.5 148t17.5 148t50 115t79 74.5t104.5 26.5t104.5 -26.5t79 -74.5t50 -115t17.5 -148zM513 353q0 69 -12.5 127t-37 100.5t-60.5 66t-84 23.5q-45 0 -81 -23.5t-61 -66
t-38.5 -100.5t-13.5 -127t12 -127.5t36 -100.5t60.5 -66t85.5 -24t85.5 24t60.5 66t36 100.5t12 127.5zM372 738h-32l50 122h55zM267 738h-32l50 122h55z" />
    <glyph glyph-name="ohungarumlaut" unicode="&#x151;" horiz-adv-x="496" 
d="M438 249q0 -120 -50 -189.5t-140 -69.5q-91 0 -140.5 69t-49.5 190q0 59 13 107t37 82t59.5 52.5t80.5 18.5t80 -18.5t59.5 -52t37.5 -81.5t13 -108zM384 250q0 103 -36 161t-100 58q-63 0 -99.5 -57t-36.5 -162q0 -103 36.5 -160.5t99.5 -57.5t99.5 56.5t36.5 161.5z
M306 581h-32l50 122h55zM201 581h-32l50 122h55z" />
    <glyph glyph-name="OE" unicode="&#x152;" horiz-adv-x="917" 
d="M505 0v107q-28 -57 -73.5 -88t-112.5 -31q-61 0 -107.5 26.5t-78.5 75t-48.5 115.5t-16.5 148t17.5 148t50 115t79 74.5t104.5 26.5q66 0 111.5 -32.5t74.5 -92.5v111h354v-47h-299v-260h231v-47h-231v-302h309v-47h-364zM513 353q0 69 -12.5 127t-37 100.5t-60.5 66
t-84 23.5q-45 0 -81 -23.5t-61 -66t-38.5 -100.5t-13.5 -127t12 -127.5t36 -100.5t60.5 -66t85.5 -24t85.5 24t60.5 66t36 100.5t12 127.5z" />
    <glyph glyph-name="oe" unicode="&#x153;" horiz-adv-x="799" 
d="M744 112q-18 -54 -62.5 -88t-107.5 -34q-124 0 -164 121q-21 -58 -61.5 -89.5t-100.5 -31.5q-91 0 -140.5 69t-49.5 190q0 59 13 107t37 82t59.5 52.5t80.5 18.5q61 0 102.5 -33.5t61.5 -93.5q21 60 60 93.5t96 33.5q51 0 84.5 -22t53 -58t27.5 -81t8 -90v-7h-304v-3
q0 -105 37 -160.5t100 -55.5q48 0 78 23.5t49 71.5zM689 288q-1 38 -8 71t-21.5 57.5t-37 38.5t-54.5 14q-52 0 -87 -45.5t-42 -135.5h250zM384 250q0 103 -36 161t-100 58q-63 0 -99.5 -57t-36.5 -162q0 -103 36.5 -160.5t99.5 -57.5t99.5 56.5t36.5 161.5z" />
    <glyph glyph-name="Racute" unicode="&#x154;" horiz-adv-x="556" 
d="M448 0l-174 329q-11 -1 -22.5 -1.5t-23.5 -0.5h-75v-327h-55v703h149q53 0 97.5 -9t76.5 -30t49.5 -56t17.5 -87q0 -41 -12 -72t-33.5 -53.5t-51 -37t-63.5 -21.5l180 -337h-60zM431 521q0 41 -15.5 67.5t-41.5 41.5t-61.5 20.5t-75.5 5.5h-84v-281h90q41 0 75.5 8
t59.5 25.5t39 45t14 67.5zM267 738h-35l57 92h58z" />
    <glyph glyph-name="racute" unicode="&#x155;" horiz-adv-x="325" 
d="M305 456q-3 1 -12 1h-12q-29 0 -55 -19.5t-45 -48.5t-30 -62t-11 -60v-267h-52v500h49l2 -120q12 24 26 47.5t31.5 41.5t39.5 29t50 11l19 -2v-51zM208 581h-32l60 122h55z" />
    <glyph glyph-name="Rcommaaccent" unicode="&#x156;" horiz-adv-x="556" 
d="M448 0l-174 329q-11 -1 -22.5 -1.5t-23.5 -0.5h-75v-327h-55v703h149q53 0 97.5 -9t76.5 -30t49.5 -56t17.5 -87q0 -41 -12 -72t-33.5 -53.5t-51 -37t-63.5 -21.5l180 -337h-60zM431 521q0 41 -15.5 67.5t-41.5 41.5t-61.5 20.5t-75.5 5.5h-84v-281h90q41 0 75.5 8
t59.5 25.5t39 45t14 67.5zM324 -68q0 -42 -22 -71t-47 -49l-22 18q17 17 27 31.5t10 30.5q0 7 -4 12t-8.5 10t-8.5 11t-4 15q0 17 10.5 28.5t27.5 11.5q20 0 30.5 -13.5t10.5 -34.5z" />
    <glyph glyph-name="rcommaaccent" unicode="&#x157;" horiz-adv-x="325" 
d="M305 456q-3 1 -12 1h-12q-29 0 -55 -19.5t-45 -48.5t-30 -62t-11 -60v-267h-52v500h49l2 -120q12 24 26 47.5t31.5 41.5t39.5 29t50 11l19 -2v-51zM155 -67q0 -42 -22 -71t-47 -49l-22 18q17 17 27 31.5t10 30.5q0 7 -4 12t-8.5 10t-8.5 11t-4 15q0 17 10.5 28.5
t27.5 11.5q20 0 30.5 -13.5t10.5 -34.5z" />
    <glyph glyph-name="Rcaron" unicode="&#x158;" horiz-adv-x="556" 
d="M448 0l-174 329q-11 -1 -22.5 -1.5t-23.5 -0.5h-75v-327h-55v703h149q53 0 97.5 -9t76.5 -30t49.5 -56t17.5 -87q0 -41 -12 -72t-33.5 -53.5t-51 -37t-63.5 -21.5l180 -337h-60zM431 521q0 41 -15.5 67.5t-41.5 41.5t-61.5 20.5t-75.5 5.5h-84v-281h90q41 0 75.5 8
t59.5 25.5t39 45t14 67.5zM271 738h-42l-95 92h50l66 -56l66 56h50z" />
    <glyph glyph-name="rcaron" unicode="&#x159;" horiz-adv-x="325" 
d="M305 456q-3 1 -12 1h-12q-29 0 -55 -19.5t-45 -48.5t-30 -62t-11 -60v-267h-52v500h49l2 -120q12 24 26 47.5t31.5 41.5t39.5 29t50 11l19 -2v-51zM213 581h-42l-95 122h50l66 -81l66 81h50z" />
    <glyph glyph-name="Sacute" unicode="&#x15a;" horiz-adv-x="539" 
d="M471 182q0 -97 -57.5 -145.5t-153.5 -48.5q-183 0 -224 167l56 16q16 -60 56 -98t114 -38q40 0 69 12t47.5 32t27 46t8.5 53q0 51 -25.5 80t-64 47t-83.5 32t-83.5 36t-64 58.5t-25.5 99.5q0 43 14.5 77.5t40 58.5t61 37t78.5 13q82 0 134 -38.5t69 -116.5l-56 -12
q-15 60 -48 90t-99 30q-33 0 -59 -11.5t-43 -30.5t-26 -42.5t-9 -48.5q0 -52 25.5 -81t64 -47.5t83.5 -32.5t83.5 -36t64 -58.5t25.5 -99.5zM273 738h-35l57 92h58z" />
    <glyph glyph-name="sacute" unicode="&#x15b;" horiz-adv-x="415" 
d="M360 132q0 -35 -12.5 -61.5t-34 -44.5t-51.5 -27t-65 -9q-63 0 -101 25.5t-60 77.5l45 17q14 -38 46.5 -58t75.5 -20q18 0 36.5 5t34 16t25 29.5t9.5 44.5q0 34 -18.5 54t-47 33t-61 23.5t-61 26.5t-47 41.5t-18.5 68.5q0 63 41 99t110 36q57 0 91 -23t54 -65l-40 -19
q-14 30 -40.5 47.5t-64.5 17.5q-42 0 -70.5 -21.5t-28.5 -66.5q0 -33 18.5 -52.5t47 -32.5t61 -23.5t61 -27t47 -42.5t18.5 -69zM212 581h-32l60 122h55z" />
    <glyph glyph-name="Scircumflex" unicode="&#x15c;" horiz-adv-x="539" 
d="M471 182q0 -97 -57.5 -145.5t-153.5 -48.5q-183 0 -224 167l56 16q16 -60 56 -98t114 -38q40 0 69 12t47.5 32t27 46t8.5 53q0 51 -25.5 80t-64 47t-83.5 32t-83.5 36t-64 58.5t-25.5 99.5q0 43 14.5 77.5t40 58.5t61 37t78.5 13q82 0 134 -38.5t69 -116.5l-56 -12
q-15 60 -48 90t-99 30q-33 0 -59 -11.5t-43 -30.5t-26 -42.5t-9 -48.5q0 -52 25.5 -81t64 -47.5t83.5 -32.5t83.5 -36t64 -58.5t25.5 -99.5zM325 738l-66 56l-66 -56h-50l95 92h42l95 -92h-50z" />
    <glyph glyph-name="scircumflex" unicode="&#x15d;" horiz-adv-x="415" 
d="M360 132q0 -35 -12.5 -61.5t-34 -44.5t-51.5 -27t-65 -9q-63 0 -101 25.5t-60 77.5l45 17q14 -38 46.5 -58t75.5 -20q18 0 36.5 5t34 16t25 29.5t9.5 44.5q0 34 -18.5 54t-47 33t-61 23.5t-61 26.5t-47 41.5t-18.5 68.5q0 63 41 99t110 36q57 0 91 -23t54 -65l-40 -19
q-14 30 -40.5 47.5t-64.5 17.5q-42 0 -70.5 -21.5t-28.5 -66.5q0 -33 18.5 -52.5t47 -32.5t61 -23.5t61 -27t47 -42.5t18.5 -69zM266 581l-66 81l-66 -81h-50l95 122h42l95 -122h-50z" />
    <glyph glyph-name="Scedilla" unicode="&#x15e;" horiz-adv-x="539" 
d="M336 -110q0 -35 -24 -52t-53 -17q-30 0 -62 16l10 30q11 -4 25.5 -8t24.5 -4q16 0 26 9t10 26t-11 25t-25 8q-6 0 -15 -1t-19 -2l19 69q-85 4 -136 44.5t-70 121.5l56 16q16 -60 56 -98t114 -38q40 0 69 12t47.5 32t27 46t8.5 53q0 51 -25.5 80t-64 47t-83.5 32t-83.5 36
t-64 58.5t-25.5 99.5q0 43 14.5 77.5t40 58.5t61 37t78.5 13q82 0 134 -38.5t69 -116.5l-56 -12q-15 60 -48 90t-99 30q-33 0 -59 -11.5t-43 -30.5t-26 -42.5t-9 -48.5q0 -52 25.5 -81t64 -47.5t83.5 -32.5t83.5 -36t64 -58.5t25.5 -99.5q0 -93 -50.5 -140.5t-138.5 -52.5
l-10 -37h7q21 0 39 -16t18 -46z" />
    <glyph glyph-name="scedilla" unicode="&#x15f;" horiz-adv-x="415" 
d="M273 -110q0 -35 -24 -52t-53 -17q-30 0 -62 16l10 30q11 -4 25.5 -8t24.5 -4q16 0 26 9t10 26t-11 25t-25 8q-6 0 -15 -1t-19 -2l20 71q-55 3 -89.5 28.5t-54.5 73.5l45 17q14 -38 46.5 -58t75.5 -20q18 0 36.5 5t34 16t25 29.5t9.5 44.5q0 34 -18.5 54t-47 33t-61 23.5
t-61 26.5t-47 41.5t-18.5 68.5q0 63 41 99t110 36q57 0 91 -23t54 -65l-40 -19q-14 30 -40.5 47.5t-64.5 17.5q-42 0 -70.5 -21.5t-28.5 -66.5q0 -33 18.5 -52.5t47 -32.5t61 -23.5t61 -27t47 -42.5t18.5 -69q0 -64 -39.5 -99.5t-100.5 -41.5l-11 -39h7q21 0 39 -16t18 -46z
" />
    <glyph glyph-name="Scaron" unicode="&#x160;" horiz-adv-x="539" 
d="M285 738h-42l-95 92h50l66 -56l66 56h50zM471 182q0 -97 -57.5 -145.5t-153.5 -48.5q-183 0 -224 167l56 16q16 -60 56 -98t114 -38q40 0 69 12t47.5 32t27 46t8.5 53q0 51 -25.5 80t-64 47t-83.5 32t-83.5 36t-64 58.5t-25.5 99.5q0 43 14.5 77.5t40 58.5t61 37t78.5 13
q82 0 134 -38.5t69 -116.5l-56 -12q-15 60 -48 90t-99 30q-33 0 -59 -11.5t-43 -30.5t-26 -42.5t-9 -48.5q0 -52 25.5 -81t64 -47.5t83.5 -32.5t83.5 -36t64 -58.5t25.5 -99.5z" />
    <glyph glyph-name="scaron" unicode="&#x161;" horiz-adv-x="415" 
d="M229 581h-42l-95 122h50l66 -81l66 81h50zM360 132q0 -35 -12.5 -61.5t-34 -44.5t-51.5 -27t-65 -9q-63 0 -101 25.5t-60 77.5l45 17q14 -38 46.5 -58t75.5 -20q18 0 36.5 5t34 16t25 29.5t9.5 44.5q0 34 -18.5 54t-47 33t-61 23.5t-61 26.5t-47 41.5t-18.5 68.5
q0 63 41 99t110 36q57 0 91 -23t54 -65l-40 -19q-14 30 -40.5 47.5t-64.5 17.5q-42 0 -70.5 -21.5t-28.5 -66.5q0 -33 18.5 -52.5t47 -32.5t61 -23.5t61 -27t47 -42.5t18.5 -69z" />
    <glyph glyph-name="Tcommaaccent" unicode="&#x162;" horiz-adv-x="489" 
d="M273 651v-651h-55v651h-188v52h429v-52h-186zM286 -68q0 -42 -22 -71t-47 -49l-22 18q17 17 27 31.5t10 30.5q0 7 -4 12t-8.5 10t-8.5 11t-4 15q0 17 10.5 28.5t27.5 11.5q20 0 30.5 -13.5t10.5 -34.5z" />
    <glyph glyph-name="tcommaaccent" unicode="&#x163;" horiz-adv-x="268" 
d="M248 2q-11 -2 -29.5 -5t-38.5 -3q-51 0 -70.5 29t-19.5 95v342h-75v40h75v148h52v-148h105v-40h-105v-343q0 -16 1.5 -30.5t6.5 -26t14.5 -18t25.5 -6.5q9 0 28.5 2.5t29.5 4.5v-41zM211 -67q0 -42 -22 -71t-47 -49l-22 18q17 17 27 31.5t10 30.5q0 7 -4 12t-8.5 10
t-8.5 11t-4 15q0 17 10.5 28.5t27.5 11.5q20 0 30.5 -13.5t10.5 -34.5z" />
    <glyph glyph-name="Tcaron" unicode="&#x164;" horiz-adv-x="489" 
d="M273 651v-651h-55v651h-188v52h429v-52h-186zM262 738h-42l-95 92h50l66 -56l66 56h50z" />
    <glyph glyph-name="tcaron" unicode="&#x165;" horiz-adv-x="268" 
d="M248 2q-11 -2 -29.5 -5t-38.5 -3q-51 0 -70.5 29t-19.5 95v342h-75v40h75v148h52v-148h105v-40h-105v-343q0 -16 1.5 -30.5t6.5 -26t14.5 -18t25.5 -6.5q9 0 28.5 2.5t29.5 4.5v-41zM268 652q0 -26 -6.5 -47t-16.5 -38.5t-23 -32.5t-26 -27l-22 18q22 23 31 42t9 35
q0 10 -4 16t-9.5 11.5t-9.5 12t-4 18.5q0 17 11 28.5t28 11.5q20 0 31 -13.5t11 -34.5z" />
    <glyph glyph-name="Tbar" unicode="&#x166;" horiz-adv-x="489" 
d="M273 651v-151h129v-47h-129v-453h-55v453h-129v47h129v151h-188v52h429v-52h-186z" />
    <glyph glyph-name="tbar" unicode="&#x167;" horiz-adv-x="268" 
d="M142 332v-215q0 -16 1.5 -30.5t6.5 -26t14.5 -18t25.5 -6.5q9 0 28.5 2.5t29.5 4.5v-41q-11 -2 -29.5 -5t-38.5 -3q-51 0 -70.5 29t-19.5 95v214h-67v40h67v88h-75v40h75v148h52v-148h105v-40h-105v-88h67v-40h-67z" />
    <glyph glyph-name="Utilde" unicode="&#x168;" horiz-adv-x="631" 
d="M533 241q0 -122 -52 -187.5t-168 -65.5q-58 0 -98.5 16.5t-66.5 49t-38 79.5t-12 108v462h55v-461q0 -45 8 -82.5t26.5 -64.5t49.5 -42.5t76 -15.5t76.5 15.5t51 42.5t28.5 64.5t9 82.5v461h55v-462zM441 824q-2 -33 -17.5 -54.5t-53.5 -21.5q-16 0 -30.5 5.5t-27.5 12.5
t-24.5 12.5t-21.5 5.5q-14 0 -25 -8.5t-11 -29.5h-40q4 36 22 57t53 21q16 0 30 -5.5t26 -12.5t24 -12.5t24 -5.5q15 0 24.5 9.5t9.5 26.5h38z" />
    <glyph glyph-name="utilde" unicode="&#x169;" 
d="M381 0l-4 87q-15 -17 -33 -34.5t-38 -31t-42.5 -22t-47.5 -8.5q-38 0 -62.5 13t-39 35t-20.5 50.5t-6 60.5v350h52v-349q0 -54 19 -85t64 -31q37 0 75.5 26t77.5 68v371h52v-500h-47zM389 680q-2 -33 -17.5 -54.5t-53.5 -21.5q-17 0 -33.5 5.5t-31 12.5t-27 12.5
t-22.5 5.5q-14 0 -25 -8.5t-11 -29.5h-40q4 36 22 57t53 21q16 0 31 -5.5t29.5 -12.5t28 -12.5t25.5 -5.5q15 0 24.5 9.5t9.5 26.5h38z" />
    <glyph glyph-name="Umacron" unicode="&#x16a;" horiz-adv-x="631" 
d="M533 241q0 -122 -52 -187.5t-168 -65.5q-58 0 -98.5 16.5t-66.5 49t-38 79.5t-12 108v462h55v-461q0 -45 8 -82.5t26.5 -64.5t49.5 -42.5t76 -15.5t76.5 15.5t51 42.5t28.5 64.5t9 82.5v461h55v-462zM204 764v40h222v-40h-222z" />
    <glyph glyph-name="umacron" unicode="&#x16b;" 
d="M381 0l-4 87q-15 -17 -33 -34.5t-38 -31t-42.5 -22t-47.5 -8.5q-38 0 -62.5 13t-39 35t-20.5 50.5t-6 60.5v350h52v-349q0 -54 19 -85t64 -31q37 0 75.5 26t77.5 68v371h52v-500h-47zM147 620v40h222v-40h-222z" />
    <glyph glyph-name="Ubreve" unicode="&#x16c;" horiz-adv-x="631" 
d="M533 241q0 -122 -52 -187.5t-168 -65.5q-58 0 -98.5 16.5t-66.5 49t-38 79.5t-12 108v462h55v-461q0 -45 8 -82.5t26.5 -64.5t49.5 -42.5t76 -15.5t76.5 15.5t51 42.5t28.5 64.5t9 82.5v461h55v-462zM435 849q-4 -60 -38 -85.5t-82 -25.5t-82 25.5t-38 85.5h37
q5 -34 26 -52.5t57 -18.5t57 18.5t26 52.5h37z" />
    <glyph glyph-name="ubreve" unicode="&#x16d;" 
d="M381 0l-4 87q-15 -17 -33 -34.5t-38 -31t-42.5 -22t-47.5 -8.5q-38 0 -62.5 13t-39 35t-20.5 50.5t-6 60.5v350h52v-349q0 -54 19 -85t64 -31q37 0 75.5 26t77.5 68v371h52v-500h-47zM378 692q-4 -60 -38 -85.5t-82 -25.5t-82 25.5t-38 85.5h37q5 -34 26 -52.5t57 -18.5
t57 18.5t26 52.5h37z" />
    <glyph glyph-name="Uring" unicode="&#x16e;" horiz-adv-x="631" 
d="M533 241q0 -122 -52 -187.5t-168 -65.5q-58 0 -98.5 16.5t-66.5 49t-38 79.5t-12 108v462h55v-461q0 -45 8 -82.5t26.5 -64.5t49.5 -42.5t76 -15.5t76.5 15.5t51 42.5t28.5 64.5t9 82.5v461h55v-462zM400 749q0 -34 -23.5 -57.5t-61.5 -23.5t-61.5 23.5t-23.5 57.5
t23.5 57.5t61.5 23.5t61.5 -23.5t23.5 -57.5zM360 749q0 22 -12 36.5t-33 14.5t-33 -14.5t-12 -36.5t12 -36.5t33 -14.5t33 14.5t12 36.5z" />
    <glyph glyph-name="uring" unicode="&#x16f;" 
d="M381 0l-4 87q-15 -17 -33 -34.5t-38 -31t-42.5 -22t-47.5 -8.5q-38 0 -62.5 13t-39 35t-20.5 50.5t-6 60.5v350h52v-349q0 -54 19 -85t64 -31q37 0 75.5 26t77.5 68v371h52v-500h-47zM343 642q0 -34 -23.5 -57.5t-61.5 -23.5t-61.5 23.5t-23.5 57.5t23.5 57.5t61.5 23.5
t61.5 -23.5t23.5 -57.5zM303 642q0 22 -12 36.5t-33 14.5t-33 -14.5t-12 -36.5t12 -36.5t33 -14.5t33 14.5t12 36.5z" />
    <glyph glyph-name="Uhungarumlaut" unicode="&#x170;" horiz-adv-x="631" 
d="M533 241q0 -122 -52 -187.5t-168 -65.5q-58 0 -98.5 16.5t-66.5 49t-38 79.5t-12 108v462h55v-461q0 -45 8 -82.5t26.5 -64.5t49.5 -42.5t76 -15.5t76.5 15.5t51 42.5t28.5 64.5t9 82.5v461h55v-462zM368 738h-32l50 122h55zM263 738h-32l50 122h55z" />
    <glyph glyph-name="uhungarumlaut" unicode="&#x171;" 
d="M381 0l-4 87q-15 -17 -33 -34.5t-38 -31t-42.5 -22t-47.5 -8.5q-38 0 -62.5 13t-39 35t-20.5 50.5t-6 60.5v350h52v-349q0 -54 19 -85t64 -31q37 0 75.5 26t77.5 68v371h52v-500h-47zM316 581h-32l50 122h55zM211 581h-32l50 122h55z" />
    <glyph glyph-name="Uogonek" unicode="&#x172;" horiz-adv-x="631" 
d="M395 -162q-26 -17 -64 -17q-33 0 -55.5 22t-22.5 60q0 26 13 47.5t33 37.5q-108 4 -154.5 69t-46.5 184v462h55v-461q0 -45 8 -82.5t26.5 -64.5t49.5 -42.5t76 -15.5t76.5 15.5t51 42.5t28.5 64.5t9 82.5v461h55v-462q0 -103 -36 -166t-117 -80q-14 -3 -28.5 -11
t-26.5 -20t-19.5 -27.5t-7.5 -33.5q0 -20 10 -32.5t29 -12.5q13 0 29.5 4.5t28.5 10.5v-35z" />
    <glyph glyph-name="uogonek" unicode="&#x173;" 
d="M429 -162q-26 -17 -64 -17q-33 0 -55.5 22t-22.5 60q0 20 8 37.5t21 32t30 25t34 15.5l-3 74q-15 -17 -33 -34.5t-38 -31t-42.5 -22t-47.5 -8.5q-38 0 -62.5 13t-39 35t-20.5 50.5t-6 60.5v350h52v-349q0 -54 19 -85t64 -31q37 0 75.5 26t77.5 68v371h52v-500
q-45 -11 -70.5 -36t-25.5 -61q0 -20 10 -32.5t29 -12.5q13 0 29.5 4.5t28.5 10.5v-35z" />
    <glyph glyph-name="Wcircumflex" unicode="&#x174;" horiz-adv-x="788" 
d="M618 0h-77l-147 660l-147 -660h-77l-135 703h60l116 -647l139 647h88l139 -647l116 647h60zM460 738l-66 56l-66 -56h-50l95 92h42l95 -92h-50z" />
    <glyph glyph-name="wcircumflex" unicode="&#x175;" horiz-adv-x="682" 
d="M523 0h-62l-120 441l-120 -441h-62l-124 500h57l99 -443l118 443h64l118 -443l99 443h57zM407 581l-66 81l-66 -81h-50l95 122h42l95 -122h-50z" />
    <glyph glyph-name="Ycircumflex" unicode="&#x176;" horiz-adv-x="513" 
d="M283 281v-281h-55v281l-208 422h63l175 -369l172 369h63zM322 738l-66 56l-66 -56h-50l95 92h42l95 -92h-50z" />
    <glyph glyph-name="ycircumflex" unicode="&#x177;" horiz-adv-x="433" 
d="M242 -1q-11 -33 -24 -66t-31 -58.5t-44 -41.5t-64 -16q-21 0 -43 5v39q13 -2 22 -3t20 -1q27 0 46.5 14t33.5 36t24 49t18 53l-175 491h55l141 -422l131 422h56zM282 581l-66 81l-66 -81h-50l95 122h42l95 -122h-50z" />
    <glyph glyph-name="Ydieresis" unicode="&#x178;" horiz-adv-x="513" 
d="M374 777q0 -18 -11 -28.5t-28 -10.5t-28 10.5t-11 28.5t11 28.5t28 10.5t28 -10.5t11 -28.5zM218 777q0 -18 -11 -28.5t-28 -10.5t-28 10.5t-11 28.5t11 28.5t28 10.5t28 -10.5t11 -28.5zM283 281v-281h-55v281l-208 422h63l175 -369l172 369h63z" />
    <glyph glyph-name="Zacute" unicode="&#x179;" horiz-adv-x="503" 
d="M128 50h313v-50h-383v36l317 617h-288v50h358v-39zM280 738h-35l57 92h58z" />
    <glyph glyph-name="zacute" unicode="&#x17a;" horiz-adv-x="424" 
d="M48 0v39l262 419h-247v42h312v-31l-268 -427h269v-42h-328zM231 581h-32l60 122h55z" />
    <glyph glyph-name="Zdotaccent" unicode="&#x17b;" horiz-adv-x="503" 
d="M128 50h313v-50h-383v36l317 617h-288v50h358v-39zM305 777q0 -18 -11 -28.5t-28 -10.5t-28 10.5t-11 28.5t11 28.5t28 10.5t28 -10.5t11 -28.5z" />
    <glyph glyph-name="zdotaccent" unicode="&#x17c;" horiz-adv-x="424" 
d="M48 0v39l262 419h-247v42h312v-31l-268 -427h269v-42h-328zM258 640q0 -18 -11 -28.5t-28 -10.5t-28 10.5t-11 28.5t11 28.5t28 10.5t28 -10.5t11 -28.5z" />
    <glyph glyph-name="Zcaron" unicode="&#x17d;" horiz-adv-x="503" 
d="M273 738h-42l-95 92h50l66 -56l66 56h50zM128 50h313v-50h-383v36l317 617h-288v50h358v-39z" />
    <glyph glyph-name="zcaron" unicode="&#x17e;" horiz-adv-x="424" 
d="M233 581h-42l-95 122h50l66 -81l66 81h50zM48 0v39l262 419h-247v42h312v-31l-268 -427h269v-42h-328z" />
    <glyph glyph-name="florin" unicode="&#x192;" horiz-adv-x="500" 
d="M443 644q-8 2 -20 4t-21 2q-40 0 -57 -24.5t-24 -61.5l-15 -84h102l-7 -40h-102l-88 -500q-11 -66 -38 -95t-78 -29q-11 0 -24 2.5t-21 4.5l7 40q7 -2 19.5 -3.5t18.5 -1.5q17 0 28 7t18.5 18.5t11.5 26.5t7 31l87 499h-72l7 40h72l14 80q11 66 43 100t90 34
q14 0 27.5 -3t21.5 -6z" />
    <glyph glyph-name="Scommaaccent" unicode="&#x218;" horiz-adv-x="539" 
d="M471 182q0 -97 -57.5 -145.5t-153.5 -48.5q-183 0 -224 167l56 16q16 -60 56 -98t114 -38q40 0 69 12t47.5 32t27 46t8.5 53q0 51 -25.5 80t-64 47t-83.5 32t-83.5 36t-64 58.5t-25.5 99.5q0 43 14.5 77.5t40 58.5t61 37t78.5 13q82 0 134 -38.5t69 -116.5l-56 -12
q-15 60 -48 90t-99 30q-33 0 -59 -11.5t-43 -30.5t-26 -42.5t-9 -48.5q0 -52 25.5 -81t64 -47.5t83.5 -32.5t83.5 -36t64 -58.5t25.5 -99.5zM301 -68q0 -42 -22 -71t-47 -49l-22 18q17 17 27 31.5t10 30.5q0 7 -4 12t-8.5 10t-8.5 11t-4 15q0 17 10.5 28.5t27.5 11.5
q20 0 30.5 -13.5t10.5 -34.5z" />
    <glyph glyph-name="scommaaccent" unicode="&#x219;" horiz-adv-x="415" 
d="M360 132q0 -35 -12.5 -61.5t-34 -44.5t-51.5 -27t-65 -9q-63 0 -101 25.5t-60 77.5l45 17q14 -38 46.5 -58t75.5 -20q18 0 36.5 5t34 16t25 29.5t9.5 44.5q0 34 -18.5 54t-47 33t-61 23.5t-61 26.5t-47 41.5t-18.5 68.5q0 63 41 99t110 36q57 0 91 -23t54 -65l-40 -19
q-14 30 -40.5 47.5t-64.5 17.5q-42 0 -70.5 -21.5t-28.5 -66.5q0 -33 18.5 -52.5t47 -32.5t61 -23.5t61 -27t47 -42.5t18.5 -69zM238 -67q0 -42 -22 -71t-47 -49l-22 18q17 17 27 31.5t10 30.5q0 7 -4 12t-8.5 10t-8.5 11t-4 15q0 17 10.5 28.5t27.5 11.5q20 0 30.5 -13.5
t10.5 -34.5z" />
    <glyph glyph-name="uni021A" unicode="&#x21a;" horiz-adv-x="489" 
d="M273 651v-651h-55v651h-188v52h429v-52h-186zM286 -68q0 -42 -22 -71t-47 -49l-22 18q17 17 27 31.5t10 30.5q0 7 -4 12t-8.5 10t-8.5 11t-4 15q0 17 10.5 28.5t27.5 11.5q20 0 30.5 -13.5t10.5 -34.5z" />
    <glyph glyph-name="uni021B" unicode="&#x21b;" horiz-adv-x="268" 
d="M248 2q-11 -2 -29.5 -5t-38.5 -3q-51 0 -70.5 29t-19.5 95v342h-75v40h75v148h52v-148h105v-40h-105v-343q0 -16 1.5 -30.5t6.5 -26t14.5 -18t25.5 -6.5q9 0 28.5 2.5t29.5 4.5v-41zM211 -67q0 -42 -22 -71t-47 -49l-22 18q17 17 27 31.5t10 30.5q0 7 -4 12t-8.5 10
t-8.5 11t-4 15q0 17 10.5 28.5t27.5 11.5q20 0 30.5 -13.5t10.5 -34.5z" />
    <glyph glyph-name="dotlessj" unicode="&#x237;" horiz-adv-x="228" 
d="M140 -55q0 -66 -23.5 -97.5t-77.5 -31.5q-11 0 -22 1t-17 3v40q6 -1 17.5 -1.5t17.5 -0.5q16 0 26.5 7t16.5 18.5t8 26.5t2 31v559h52v-555z" />
    <glyph glyph-name="circumflex" unicode="&#x2c6;" horiz-adv-x="292" 
d="M212 581l-66 81l-66 -81h-50l95 122h42l95 -122h-50z" />
    <glyph glyph-name="caron" unicode="&#x2c7;" horiz-adv-x="292" 
d="M167 581h-42l-95 122h50l66 -81l66 81h50z" />
    <glyph glyph-name="uni02C9" unicode="&#x2c9;" horiz-adv-x="282" 
d="M30 622v40h222v-40h-222z" />
    <glyph glyph-name="breve" unicode="&#x2d8;" horiz-adv-x="300" 
d="M270 703q-4 -60 -38 -85.5t-82 -25.5t-82 25.5t-38 85.5h37q5 -34 26 -52.5t57 -18.5t57 18.5t26 52.5h37z" />
    <glyph glyph-name="dotaccent" unicode="&#x2d9;" horiz-adv-x="138" 
d="M108 640q0 -18 -11 -28.5t-28 -10.5t-28 10.5t-11 28.5t11 28.5t28 10.5t28 -10.5t11 -28.5z" />
    <glyph glyph-name="ring" unicode="&#x2da;" horiz-adv-x="230" 
d="M200 642q0 -34 -23.5 -57.5t-61.5 -23.5t-61.5 23.5t-23.5 57.5t23.5 57.5t61.5 23.5t61.5 -23.5t23.5 -57.5zM160 642q0 22 -12 36.5t-33 14.5t-33 -14.5t-12 -36.5t12 -36.5t33 -14.5t33 14.5t12 36.5z" />
    <glyph glyph-name="ogonek" unicode="&#x2db;" horiz-adv-x="202" 
d="M172 -162q-26 -17 -64 -17q-33 0 -55.5 22t-22.5 60q0 21 9 39.5t23 33t32 24.5t36 15l42 -5q-45 -19 -71 -45t-26 -62q0 -20 10 -32.5t29 -12.5q13 0 29.5 4.5t28.5 10.5v-35z" />
    <glyph glyph-name="tilde" unicode="&#x2dc;" horiz-adv-x="321" 
d="M291 680q-2 -33 -17.5 -54.5t-53.5 -21.5q-17 0 -33.5 5.5t-31 12.5t-27 12.5t-22.5 5.5q-14 0 -25 -8.5t-11 -29.5h-40q4 36 22 57t53 21q16 0 31 -5.5t29.5 -12.5t28 -12.5t25.5 -5.5q15 0 24.5 9.5t9.5 26.5h38z" />
    <glyph glyph-name="hungarumlaut" unicode="&#x2dd;" horiz-adv-x="270" 
d="M167 581h-32l50 122h55zM62 581h-32l50 122h55z" />
    <glyph glyph-name="gravecomb" unicode="&#x300;" horiz-adv-x="1" 
d="M-262 581l-83 122h55l60 -122h-32z" />
    <glyph glyph-name="acutecomb" unicode="&#x301;" horiz-adv-x="1" 
d="M-231 581h-32l60 122h55z" />
    <glyph glyph-name="uni0302" unicode="&#x302;" horiz-adv-x="1" 
d="M-181 581l-66 81l-66 -81h-50l95 122h42l95 -122h-50z" />
    <glyph glyph-name="tildecomb" unicode="&#x303;" horiz-adv-x="1" 
d="M-116 680q-2 -33 -17.5 -54.5t-53.5 -21.5q-17 0 -33.5 5.5t-31 12.5t-27 12.5t-22.5 5.5q-14 0 -25 -8.5t-11 -29.5h-40q4 36 22 57t53 21q16 0 31 -5.5t29.5 -12.5t28 -12.5t25.5 -5.5q15 0 24.5 9.5t9.5 26.5h38z" />
    <glyph glyph-name="uni0304" unicode="&#x304;" horiz-adv-x="1" 
d="M-251 620v40h222v-40h-222z" />
    <glyph glyph-name="uni0306" unicode="&#x306;" horiz-adv-x="1" 
d="M-29 692q-4 -60 -38 -85.5t-82 -25.5t-82 25.5t-38 85.5h37q5 -34 26 -52.5t57 -18.5t57 18.5t26 52.5h37z" />
    <glyph glyph-name="uni0307" unicode="&#x307;" horiz-adv-x="1" 
d="M-74 640q0 -18 -11 -28.5t-28 -10.5t-28 10.5t-11 28.5t11 28.5t28 10.5t28 -10.5t11 -28.5z" />
    <glyph glyph-name="uni0308" unicode="&#x308;" horiz-adv-x="1" 
d="M-29 640q0 -18 -11 -28.5t-28 -10.5t-28 10.5t-11 28.5t11 28.5t28 10.5t28 -10.5t11 -28.5zM-185 640q0 -18 -11 -28.5t-28 -10.5t-28 10.5t-11 28.5t11 28.5t28 10.5t28 -10.5t11 -28.5z" />
    <glyph glyph-name="uni030A" unicode="&#x30a;" horiz-adv-x="1" 
d="M-29 642q0 -34 -23.5 -57.5t-61.5 -23.5t-61.5 23.5t-23.5 57.5t23.5 57.5t61.5 23.5t61.5 -23.5t23.5 -57.5zM-69 642q0 22 -12 36.5t-33 14.5t-33 -14.5t-12 -36.5t12 -36.5t33 -14.5t33 14.5t12 36.5z" />
    <glyph glyph-name="uni030B" unicode="&#x30b;" horiz-adv-x="1" 
d="M-102 581h-32l50 122h55zM-207 581h-32l50 122h55z" />
    <glyph glyph-name="uni030C" unicode="&#x30c;" horiz-adv-x="1" 
d="M-190 581h-42l-95 122h50l66 -81l66 81h50z" />
    <glyph glyph-name="uni0312" unicode="&#x312;" horiz-adv-x="1" 
d="M-106 776q-22 -23 -31 -42t-9 -35q0 -11 4 -17t9.5 -11t9.5 -11.5t4 -18.5q0 -17 -11 -28.5t-28 -11.5q-20 0 -31 13.5t-11 34.5q0 26 6.5 47t16.5 38.5t23 32t26 27.5z" />
    <glyph glyph-name="uni0313" unicode="&#x313;" horiz-adv-x="1" 
d="M-87 652q0 -26 -6.5 -47t-16.5 -38.5t-23 -32.5t-26 -27l-22 18q22 23 31 42t9 35q0 10 -4 16t-9.5 11.5t-9.5 12t-4 18.5q0 17 11 28.5t28 11.5q20 0 31 -13.5t11 -34.5z" />
    <glyph glyph-name="uni0326" unicode="&#x326;" horiz-adv-x="1" 
d="M-87 -67q0 -42 -22 -71t-47 -49l-22 18q17 17 27 31.5t10 30.5q0 7 -4 12t-8.5 10t-8.5 11t-4 15q0 17 10.5 28.5t27.5 11.5q20 0 30.5 -13.5t10.5 -34.5z" />
    <glyph glyph-name="uni0327" unicode="&#x327;" horiz-adv-x="1" 
d="M-29 -110q0 -35 -24 -52t-53 -17q-30 0 -62 16l10 30q11 -4 25.5 -8t24.5 -4q16 0 26 9t10 26t-11 25t-25 8q-6 0 -15 -1t-19 -2l27 96h40l-18 -64h7q21 0 39 -16t18 -46z" />
    <glyph glyph-name="uni0328" unicode="&#x328;" horiz-adv-x="1" 
d="M-29 -162q-26 -17 -64 -17q-33 0 -55.5 22t-22.5 60q0 21 9 39.5t23 33t32 24.5t36 15l42 -5q-45 -19 -71 -45t-26 -62q0 -20 10 -32.5t29 -12.5q13 0 29.5 4.5t28.5 10.5v-35z" />
    <glyph glyph-name="uni0335" unicode="&#x335;" horiz-adv-x="1" 
d="M-251 230v40h222v-40h-222z" />
    <glyph glyph-name="uni0336" unicode="&#x336;" horiz-adv-x="1" 
d="M-551 227v47h482v-47h-482z" />
    <glyph glyph-name="Delta" unicode="&#x394;" horiz-adv-x="679" 
d="M70 0l241 703h48l250 -703h-539zM335 616l-194 -569h396z" />
    <glyph glyph-name="Omega" unicode="&#x3a9;" horiz-adv-x="722" 
d="M652 416q0 -44 -11.5 -86t-34 -77.5t-56 -61.5t-77.5 -38v-106h168v-47h-223v186q41 4 74 24t56.5 51t36 71t12.5 84q0 55 -18 102t-49.5 80.5t-75 52.5t-93.5 19t-93.5 -19t-75 -52.5t-49.5 -80.5t-18 -102q0 -44 12.5 -84t35.5 -71t56.5 -51t74.5 -24v-186h-223v47h168
v106q-44 12 -77.5 38t-56 61.5t-34 77.5t-11.5 86q0 69 23 125t63 95t93 60t112 21t112 -21t92.5 -60t63 -95t23.5 -125z" />
    <glyph glyph-name="mu" unicode="&#x3bc;" 
d="M381 0l-4 87q-15 -17 -33 -34.5t-38 -31t-42.5 -22t-47.5 -8.5q-24 0 -43 5.5t-33 15.5v-191h-52v679h52v-349q0 -54 19 -85t64 -31q37 0 75.5 26t77.5 68v371h52v-500h-47z" />
    <glyph glyph-name="pi" unicode="&#x3c0;" horiz-adv-x="608" 
d="M439 460v-349q0 -15 1 -28.5t5 -24t12.5 -16.5t23.5 -6q9 0 27.5 2.5t28.5 4.5v-41q-11 -2 -28.5 -5t-37.5 -3q-50 0 -67 29.5t-17 94.5v342h-203v-460h-52v460h-62v40h468v-40h-99z" />
    <glyph glyph-name="endash" unicode="&#x2013;" horiz-adv-x="522" 
d="M70 283v42h382v-42h-382z" />
    <glyph glyph-name="emdash" unicode="&#x2014;" horiz-adv-x="622" 
d="M70 283v42h482v-42h-482z" />
    <glyph glyph-name="quoteleft" unicode="&#x2018;" horiz-adv-x="258" 
d="M192 693q-31 -35 -40.5 -58t-9.5 -39q0 -11 4 -16.5t9.5 -11t9.5 -12t4 -18.5q0 -17 -11 -28.5t-28 -11.5q-20 0 -31 13.5t-11 34.5q0 51 24.5 92t57.5 73z" />
    <glyph glyph-name="quoteright" unicode="&#x2019;" horiz-adv-x="258" 
d="M170 663q0 -51 -24.5 -92t-57.5 -73l-22 18q31 35 40.5 58t9.5 39q0 10 -4 16t-9.5 11.5t-9.5 12t-4 18.5q0 17 11 28.5t28 11.5q20 0 31 -13.5t11 -34.5z" />
    <glyph glyph-name="quotesinglbase" unicode="&#x201a;" horiz-adv-x="258" 
d="M170 23q0 -51 -24.5 -92t-57.5 -73l-22 18q31 35 40.5 58t9.5 39q0 10 -4 16t-9.5 11.5t-9.5 12t-4 18.5q0 17 11 28.5t28 11.5q20 0 31 -13.5t11 -34.5z" />
    <glyph glyph-name="quotedblleft" unicode="&#x201c;" horiz-adv-x="409" 
d="M343 693q-31 -35 -40.5 -58t-9.5 -39q0 -11 4 -16.5t9.5 -11t9.5 -12t4 -18.5q0 -17 -11 -28.5t-28 -11.5q-20 0 -31 13.5t-11 34.5q0 51 24.5 92t57.5 73zM192 693q-31 -35 -40.5 -58t-9.5 -39q0 -11 4 -16.5t9.5 -11t9.5 -12t4 -18.5q0 -17 -11 -28.5t-28 -11.5
q-20 0 -31 13.5t-11 34.5q0 51 24.5 92t57.5 73z" />
    <glyph glyph-name="quotedblright" unicode="&#x201d;" horiz-adv-x="409" 
d="M321 663q0 -51 -24.5 -92t-57.5 -73l-22 18q31 35 40.5 58t9.5 39q0 10 -4 16t-9.5 11.5t-9.5 12t-4 18.5q0 17 11 28.5t28 11.5q20 0 31 -13.5t11 -34.5zM170 663q0 -51 -24.5 -92t-57.5 -73l-22 18q31 35 40.5 58t9.5 39q0 10 -4 16t-9.5 11.5t-9.5 12t-4 18.5
q0 17 11 28.5t28 11.5q20 0 31 -13.5t11 -34.5z" />
    <glyph glyph-name="quotedblbase" unicode="&#x201e;" horiz-adv-x="409" 
d="M321 23q0 -51 -24.5 -92t-57.5 -73l-22 18q31 35 40.5 58t9.5 39q0 10 -4 16t-9.5 11.5t-9.5 12t-4 18.5q0 17 11 28.5t28 11.5q20 0 31 -13.5t11 -34.5zM170 23q0 -51 -24.5 -92t-57.5 -73l-22 18q31 35 40.5 58t9.5 39q0 10 -4 16t-9.5 11.5t-9.5 12t-4 18.5
q0 17 11 28.5t28 11.5q20 0 31 -13.5t11 -34.5z" />
    <glyph glyph-name="dagger" unicode="&#x2020;" horiz-adv-x="504" 
d="M279 423v-423h-55v423h-154v47h154v209h55v-209h155v-47h-155z" />
    <glyph glyph-name="daggerdbl" unicode="&#x2021;" horiz-adv-x="504" 
d="M280 189v-189h-56v189h-154v47h154v207h-154v47h154v189h56v-189h154v-47h-154v-207h154v-47h-154z" />
    <glyph glyph-name="bullet" unicode="&#x2022;" horiz-adv-x="298" 
d="M210 300q0 -27 -17.5 -44t-43.5 -17t-43.5 17t-17.5 44t17.5 44t43.5 17t43.5 -17t17.5 -44z" />
    <glyph glyph-name="ellipsis" unicode="&#x2026;" horiz-adv-x="658" 
d="M570 30q0 -19 -11.5 -30t-29.5 -11t-29.5 11t-11.5 30t11.5 30t29.5 11t29.5 -11t11.5 -30zM370 30q0 -19 -11.5 -30t-29.5 -11t-29.5 11t-11.5 30t11.5 30t29.5 11t29.5 -11t11.5 -30zM170 30q0 -19 -11.5 -30t-29.5 -11t-29.5 11t-11.5 30t11.5 30t29.5 11t29.5 -11
t11.5 -30z" />
    <glyph glyph-name="perthousand" unicode="&#x2030;" horiz-adv-x="1283" 
d="M1215 170q0 -38 -10.5 -71.5t-31 -58t-51 -38.5t-69.5 -14t-69 14t-51 38.5t-31.5 58t-10.5 71.5t10.5 71.5t31 58t51 38.5t69.5 14t69 -14t51 -38.5t31.5 -58t10.5 -71.5zM825 170q0 -38 -10.5 -71.5t-31 -58t-51 -38.5t-69.5 -14t-69 14t-51 38.5t-31.5 58t-10.5 71.5
t10.5 71.5t31 58t51 38.5t69.5 14t69 -14t51 -38.5t31.5 -58t10.5 -71.5zM266 0h-55l415 679h55zM392 510q0 -38 -10.5 -71.5t-31 -58t-51 -38.5t-69.5 -14t-69 14t-51 38.5t-31.5 58t-10.5 71.5t10.5 71.5t31 58t51 38.5t69.5 14t69 -14t51 -38.5t31.5 -58t10.5 -71.5z
M1163 170q0 69 -31 105.5t-79 36.5q-46 0 -78 -36.5t-32 -105.5t31 -105.5t79 -36.5q46 0 78 36.5t32 105.5zM773 170q0 69 -31 105.5t-79 36.5q-46 0 -78 -36.5t-32 -105.5t31 -105.5t79 -36.5q46 0 78 36.5t32 105.5zM340 510q0 69 -31 105.5t-79 36.5q-46 0 -78 -36.5
t-32 -105.5t31 -105.5t79 -36.5q46 0 78 36.5t32 105.5z" />
    <glyph glyph-name="guilsinglleft" unicode="&#x2039;" horiz-adv-x="263" 
d="M163 78l-98 185l98 185h35l-75 -185l75 -185h-35z" />
    <glyph glyph-name="guilsinglright" unicode="&#x203a;" horiz-adv-x="263" 
d="M100 78h-35l75 185l-75 185h35l98 -185z" />
    <glyph glyph-name="fraction" unicode="&#x2044;" horiz-adv-x="150" 
d="M-126 -12h-47l447 729h49z" />
    <glyph glyph-name="Euro" unicode="&#x20ac;" horiz-adv-x="659" 
d="M601 135q-18 -66 -66.5 -106.5t-140.5 -40.5q-55 0 -96.5 21t-70 56.5t-46 82t-24.5 97.5h-107l6 38h96q-1 7 -1.5 13.5t-0.5 13.5v51q0 6 0.5 12t1.5 12h-92l6 38h90q7 52 24.5 101.5t47 87t71 60.5t97.5 23q46 0 78.5 -10.5t55.5 -29.5t38 -45t25 -56l-51 -16
q-6 20 -15 40t-25.5 35.5t-42 25t-63.5 9.5q-41 0 -72.5 -17t-54 -47.5t-37 -71.5t-20.5 -89h261l-6 -38h-258q-1 -11 -1.5 -23t-0.5 -24v-28q0 -7 0.5 -13.5t1.5 -13.5h254l-6 -38h-243q7 -44 21.5 -82t36.5 -66.5t52.5 -45t69.5 -16.5q37 0 64.5 10t46 26t30 36.5
t17.5 41.5z" />
    <glyph glyph-name="trademark" unicode="&#x2122;" horiz-adv-x="702" 
d="M569 380v278l-84 -278h-35l-83 280v-280h-45v323h72l75 -252l77 252h68v-323h-45zM172 668v-288h-46v288h-96v35h234v-35h-92z" />
    <glyph glyph-name="uni2126" unicode="&#x2126;" horiz-adv-x="722" 
d="M652 416q0 -44 -11.5 -86t-34 -77.5t-56 -61.5t-77.5 -38v-106h168v-47h-223v186q41 4 74 24t56.5 51t36 71t12.5 84q0 55 -18 102t-49.5 80.5t-75 52.5t-93.5 19t-93.5 -19t-75 -52.5t-49.5 -80.5t-18 -102q0 -44 12.5 -84t35.5 -71t56.5 -51t74.5 -24v-186h-223v47h168
v106q-44 12 -77.5 38t-56 61.5t-34 77.5t-11.5 86q0 69 23 125t63 95t93 60t112 21t112 -21t92.5 -60t63 -95t23.5 -125z" />
    <glyph glyph-name="partialdiff" unicode="&#x2202;" 
d="M458 350q0 -61 -9 -125.5t-33.5 -117.5t-67 -87t-109.5 -34q-45 0 -79 18t-56.5 48t-34 70t-11.5 85q0 43 12.5 82.5t36 69.5t58 48t79.5 18q54 0 93 -27t66 -61q1 6 1 12v37q0 49 -8 99.5t-27.5 91t-51.5 66t-79 25.5q-35 0 -60.5 -13t-54.5 -36l-34 35q35 32 69.5 44
t79.5 12q66 0 108.5 -32t67.5 -83t34.5 -115.5t9.5 -129.5zM400 285q-14 17 -30.5 34.5t-35.5 31.5t-41.5 23t-47.5 9q-31 0 -55.5 -14.5t-42 -39t-26.5 -56.5t-9 -66q0 -36 8.5 -68.5t24.5 -57t40 -39t54 -14.5q72 0 111 61t50 196z" />
    <glyph glyph-name="uni2206" unicode="&#x2206;" horiz-adv-x="679" 
d="M70 0l241 703h48l250 -703h-539zM335 616l-194 -569h396z" />
    <glyph glyph-name="product" unicode="&#x220f;" horiz-adv-x="672" 
d="M529 -179v835h-386v-835h-55v882h496v-882h-55z" />
    <glyph glyph-name="summation" unicode="&#x2211;" horiz-adv-x="610" 
d="M70 -179v38l264 407l-251 399v38h446v-47h-381l245 -390l-259 -398h406v-47h-470z" />
    <glyph glyph-name="minus" unicode="&#x2212;" horiz-adv-x="549" 
d="M70 309v47h409v-47h-409z" />
    <glyph glyph-name="uni2215" unicode="&#x2215;" horiz-adv-x="150" 
d="M-126 -12h-47l447 729h49z" />
    <glyph glyph-name="uni2219" unicode="&#x2219;" horiz-adv-x="258" 
d="M170 300q0 -19 -11.5 -30t-29.5 -11t-29.5 11t-11.5 30t11.5 30t29.5 11t29.5 -11t11.5 -30z" />
    <glyph glyph-name="radical" unicode="&#x221a;" horiz-adv-x="656" 
d="M379 -178h-56l-163 347l-71 -36l-19 38l117 58l155 -332l189 820h55z" />
    <glyph glyph-name="infinity" unicode="&#x221e;" horiz-adv-x="832" 
d="M762 320q0 -69 -42.5 -110t-111.5 -41q-30 0 -55 9t-47.5 24t-44 36t-45.5 45q-24 -24 -45.5 -44.5t-44 -36t-47.5 -24.5t-55 -9q-69 0 -111.5 41t-42.5 110t42.5 110t111.5 41q30 0 55 -9t47.5 -24t44 -36t45.5 -45q24 24 45.5 45t44 36t47.5 24t55 9q69 0 111.5 -41
t42.5 -110zM381 320q-14 15 -32.5 33.5t-38.5 34t-42 26t-43 10.5q-26 0 -45.5 -8.5t-32 -23t-19 -33.5t-6.5 -39t6 -39t19 -33.5t32.5 -23t45.5 -8.5q21 0 42.5 10.5t42 26.5t38.5 34zM710 320q0 20 -6.5 39t-19 33.5t-32 23t-45.5 8.5q-22 0 -43 -10.5t-41 -26t-39 -34.5
l-33 -33q14 -15 32.5 -33.5t38.5 -34t42 -26t43 -10.5q26 0 45.5 8.5t32 23t19 33.5t6.5 39z" />
    <glyph glyph-name="integral" unicode="&#x222b;" horiz-adv-x="387" 
d="M317 667q-8 1 -18.5 2t-19.5 1q-40 0 -54.5 -24.5t-14.5 -61.5v-639q0 -66 -23.5 -97.5t-77.5 -31.5q-11 0 -22 1t-17 3v40q6 -1 17.5 -1.5t17.5 -0.5q16 0 26.5 7t16.5 18.5t8 26.5t2 31v639q0 134 117 134q14 0 23.5 -2t18.5 -4v-41z" />
    <glyph glyph-name="approxequal" unicode="&#x2248;" horiz-adv-x="569" 
d="M499 452q-21 -43 -51.5 -68.5t-75.5 -25.5q-18 0 -42 9.5t-49 21t-48.5 21t-40.5 9.5q-32 0 -52.5 -19t-36.5 -46l-33 29q20 35 51 59t76 24q22 0 46.5 -9.5t48.5 -21t45.5 -21t38.5 -9.5q30 0 51.5 20.5t35.5 46.5zM499 292q-21 -43 -51.5 -68.5t-75.5 -25.5
q-18 0 -42 9.5t-49 21t-48.5 21t-40.5 9.5q-32 0 -52.5 -19t-36.5 -46l-33 29q20 35 51 59t76 24q22 0 46.5 -9.5t48.5 -21t45.5 -21t38.5 -9.5q30 0 51.5 20.5t35.5 46.5z" />
    <glyph glyph-name="notequal" unicode="&#x2260;" horiz-adv-x="549" 
d="M239 219l-80 -145l-38 19l69 126h-120v47h146l68 123h-214v47h240l80 146l38 -18l-70 -128h121v-47h-147l-68 -123h215v-47h-240z" />
    <glyph glyph-name="lessequal" unicode="&#x2264;" horiz-adv-x="549" 
d="M70 304v46l409 191v-55l-357 -158l357 -167v-55zM70 20v47h409v-47h-409z" />
    <glyph glyph-name="greaterequal" unicode="&#x2265;" horiz-adv-x="549" 
d="M70 106v55l357 167l-357 158v55l409 -191v-46zM70 20v47h409v-47h-409z" />
    <glyph glyph-name="lozenge" unicode="&#x25ca;" horiz-adv-x="582" 
d="M310 -179h-41l-199 441l200 441h40l202 -441zM290 638l-166 -376l166 -375l167 375z" />
    <glyph glyph-name="uniE000" unicode="&#xe000;" horiz-adv-x="500" 
d="M0 500h500v-500h-500v500z" />
    <glyph glyph-name="fi" unicode="&#xfb01;" horiz-adv-x="475" 
d="M400 640q0 -18 -11 -28.5t-28 -10.5t-28 10.5t-11 28.5t11 28.5t28 10.5t28 -10.5t11 -28.5zM335 0v460h-195v-460h-52v460h-72v40h72v80q0 134 127 134q16 0 30 -3t22 -5v-41q-8 2 -22.5 3.5t-25.5 1.5q-43 0 -61 -24.5t-18 -61.5v-84h247v-500h-52z" />
    <glyph glyph-name="fl" unicode="&#xfb02;" horiz-adv-x="475" 
d="M247 667q-8 1 -18.5 2t-19.5 1q-40 0 -54.5 -24.5t-14.5 -61.5v-84h102v-40h-102v-460h-52v460h-72v40h72v80q0 134 117 134q14 0 23.5 -2t18.5 -4v-41zM454 4l-22 -5q-11 -3 -24 -3q-73 0 -73 88v619h52v-618q0 -21 6.5 -33.5t23.5 -12.5q8 0 18.5 1t18.5 3v-39z" />
    </font>
</defs>
</svg>
