<?xml version="1.0" standalone="no"?>
<!DOCTYPE svg PUBLIC "-//W3C//DTD SVG 1.1//EN" "http://www.w3.org/Graphics/SVG/1.1/DTD/svg11.dtd" >
<svg xmlns="http://www.w3.org/2000/svg" xmlns:xlink="http://www.w3.org/1999/xlink" version="1.1">
<metadata>
Created by FontForge 20150913 at Fri Apr 22 15:44:08 2016
 By Jimmy Wärting
The digitally encoded machine readable outline data for producing the Typefaces licensed to you is copyrighted (c)1999 by and the property of Heidelberger Druckmaschinen AG and/or its subsidiaries. All Rights Reserved. Version 2007 by primetype.com
</metadata>
<defs>
<font id="HeidelbgGothicWebMl" horiz-adv-x="525" >
  <font-face 
    font-family="HeidelbgGothicWebMl"
    font-weight="400"
    font-stretch="normal"
    units-per-em="1000"
    panose-1="2 0 5 6 4 0 0 2 0 4"
    ascent="780"
    descent="-220"
    x-height="500"
    cap-height="703"
    bbox="-571 -246 1262 903"
    underline-thickness="50"
    underline-position="-100"
    unicode-range="U+0020-FB02"
  />
<missing-glyph horiz-adv-x="544" 
d="M71 705h402v-705h-402v705zM398 75v555h-252v-555h252z" />
    <glyph glyph-name=".notdef" horiz-adv-x="544" 
d="M71 705h402v-705h-402v705zM398 75v555h-252v-555h252z" />
    <glyph glyph-name=".null" horiz-adv-x="0" 
 />
    <glyph glyph-name="nonmarkingreturn" horiz-adv-x="280" 
 />
    <glyph glyph-name="space" unicode=" " horiz-adv-x="280" 
 />
    <glyph glyph-name="exclam" unicode="!" horiz-adv-x="314" 
d="M190 212h-66l-17 491h99zM214 45q0 -25 -16 -40.5t-41 -15.5t-41 15.5t-16 40.5t16 40.5t41 15.5t41 -15.5t16 -40.5z" />
    <glyph glyph-name="quotedbl" unicode="&#x22;" horiz-adv-x="384" 
d="M299 459h-69l-5 220h81zM154 459h-71l-5 220h82z" />
    <glyph glyph-name="numbersign" unicode="#" horiz-adv-x="624" 
d="M474 180v-180h-80v180h-164v-180h-80v180h-90v66h90v187h-90v66h90v180h80v-180h164v180h80v-180h90v-66h-90v-187h90v-66h-90zM394 433h-164v-187h164v187z" />
    <glyph glyph-name="dollar" unicode="$" horiz-adv-x="555" 
d="M497 184q0 -43 -14.5 -77.5t-41 -59t-62.5 -39.5t-79 -19v-109h-60v109q-78 7 -136 51t-78 130l79 19q14 -51 47.5 -87t87.5 -44v255l-31 8q-30 8 -57.5 23.5t-48.5 38.5t-33.5 54t-12.5 70t14 71t39 56t58 39t72 20v106h60v-106q69 -8 121.5 -49t69.5 -118l-79 -15
q-13 49 -41.5 77.5t-70.5 36.5v-241l34 -8q33 -8 62.5 -23.5t52 -39t35.5 -56t13 -73.5zM240 625q-41 -8 -68 -37t-27 -70q0 -47 29 -76t66 -42v225zM410 176q0 27 -9.5 47t-25 34.5t-35.5 24t-40 15.5v-238q46 8 78 39.5t32 77.5z" />
    <glyph glyph-name="percent" unicode="%" horiz-adv-x="958" 
d="M898 180q0 -38 -11 -73t-33.5 -61.5t-55.5 -42t-77 -15.5t-77 15.5t-55.5 42t-33.5 61.5t-11 73t11 73t33.5 61.5t55.5 42t77 15.5t77 -15.5t55.5 -42t33.5 -61.5t11 -73zM310 0h-88l425 679h89zM414 500q0 -38 -11 -73t-33.5 -61.5t-55.5 -42t-77 -15.5t-77 15.5
t-55.5 42t-33.5 61.5t-11 73t11 73t33.5 61.5t55.5 42t77 15.5t77 -15.5t55.5 -42t33.5 -61.5t11 -73zM815 180q0 69 -25 101.5t-69 32.5t-69 -32.5t-25 -101.5t25 -101.5t69 -32.5t69 32.5t25 101.5zM331 500q0 69 -25 101.5t-69 32.5t-69 -32.5t-25 -101.5t25 -101.5
t69 -32.5t69 32.5t25 101.5z" />
    <glyph glyph-name="ampersand" unicode="&#x26;" horiz-adv-x="635" 
d="M607 -9q-48 0 -86.5 23.5t-71.5 55.5q-40 -38 -83.5 -58.5t-100.5 -20.5q-44 0 -82 14t-66 40t-43.5 62.5t-15.5 81.5q0 74 38 121.5t98 82.5q-21 39 -35.5 78.5t-14.5 83.5q0 33 11 62t30.5 50.5t47 34.5t60.5 13q31 0 57 -11t44 -30.5t28 -45.5t10 -57
q0 -34 -11.5 -62.5t-31 -52.5t-44.5 -43.5t-52 -36.5q12 -23 30 -50t38 -54t40.5 -51.5t38.5 -42.5q24 38 38 80t22 87l77 -4q-8 -61 -27.5 -110.5t-52.5 -99.5q13 -11 25 -22t24.5 -20t27 -15t33.5 -8v-75zM358 574q0 29 -16 53t-49 24q-18 0 -31.5 -8.5t-22.5 -21.5
t-13 -29.5t-4 -32.5q0 -34 11.5 -67t25.5 -63q19 14 36.5 29t31.5 32t22.5 37.5t8.5 46.5zM394 120q-48 46 -89 102t-73 113q-40 -28 -66.5 -60t-26.5 -83q0 -27 10 -52t27.5 -43.5t41 -29.5t51.5 -11q40 0 69.5 18t55.5 46z" />
    <glyph glyph-name="quotesingle" unicode="'" horiz-adv-x="238" 
d="M154 459h-71l-5 220h82z" />
    <glyph glyph-name="parenleft" unicode="(" horiz-adv-x="306" 
d="M231 -123q-29 44 -56 93t-48 106t-34 124t-13 146t13 146t34 124t48 106t56 93l55 -29q-26 -47 -48 -95t-39 -101.5t-26.5 -113.5t-9.5 -130t9.5 -130t26.5 -113.5t39 -102t48 -94.5z" />
    <glyph glyph-name="parenright" unicode=")" horiz-adv-x="306" 
d="M226 346q0 -79 -13 -146t-34 -124t-48 -106t-56 -93l-55 29q25 46 47.5 94.5t39.5 102t26.5 113.5t9.5 130t-9.5 130t-26.5 113.5t-39.5 101.5t-47.5 95l55 29q29 -44 56 -93t48 -106t34 -124t13 -146z" />
    <glyph glyph-name="asterisk" unicode="*" horiz-adv-x="440" 
d="M274 527l68 -92l-55 -41l-67 93l-67 -93l-56 41l67 92l-103 31l19 69l105 -37l-3 113h75l-4 -113l107 37l19 -69z" />
    <glyph glyph-name="plus" unicode="+" horiz-adv-x="562" 
d="M319 289v-197h-77v197h-182v77h182v197h77v-197h183v-77h-183z" />
    <glyph glyph-name="comma" unicode="," horiz-adv-x="270" 
d="M192 35q0 -58 -29 -107.5t-80 -92.5l-31 26q38 39 50 68.5t12 43.5q0 10 -5.5 16.5t-12.5 13.5t-12.5 16.5t-5.5 25.5q0 25 16 40.5t41 15.5q28 0 42.5 -20.5t14.5 -45.5z" />
    <glyph glyph-name="hyphen" unicode="-" horiz-adv-x="332" 
d="M60 265v70h212v-70h-212z" />
    <glyph glyph-name="period" unicode="." horiz-adv-x="270" 
d="M192 45q0 -25 -16 -40.5t-41 -15.5t-41 15.5t-16 40.5t16 40.5t41 15.5t41 -15.5t16 -40.5z" />
    <glyph glyph-name="slash" unicode="/" horiz-adv-x="441" 
d="M119 -12h-89l294 715h87z" />
    <glyph glyph-name="zero" unicode="0" horiz-adv-x="578" 
d="M520 351q0 -55 -9.5 -118.5t-35.5 -118t-71.5 -90.5t-117.5 -36q-70 0 -114 35t-69.5 88t-35 114.5t-9.5 114.5q0 54 10 116t36 114.5t71 87.5t115 35q69 0 113.5 -33.5t70.5 -84.5t36 -111t10 -113zM430 347q0 34 -4.5 81t-19.5 90.5t-42.5 74t-73.5 30.5q-48 0 -76 -32
t-42.5 -77t-18.5 -93.5t-4 -82.5q0 -23 1.5 -53t6.5 -61.5t14.5 -61.5t25 -53.5t38 -38t53.5 -14.5t54 15.5t39 40.5t25.5 56.5t14.5 63.5t7 62.5t2 52.5z" />
    <glyph glyph-name="one" unicode="1" horiz-adv-x="331" 
d="M146 0v550h-118v59q25 0 48 2.5t42 10t33.5 21t22.5 36.5h59v-679h-87z" />
    <glyph glyph-name="two" unicode="2" horiz-adv-x="513" 
d="M53 0v51q0 41 18 78t46 71t60 64t61 56q21 19 43.5 39.5t40.5 44t29.5 50t11.5 59.5q0 48 -28 78t-76 30q-57 0 -85.5 -33.5t-40.5 -92.5l-85 14q17 87 68 135.5t145 48.5q44 0 79.5 -13.5t61 -37.5t39.5 -57.5t14 -73.5q0 -42 -14.5 -76.5t-37 -63.5t-50 -54t-54.5 -49
q-24 -21 -50.5 -44t-48 -47.5t-35.5 -50.5t-14 -53h314v-73h-412z" />
    <glyph glyph-name="three" unicode="3" horiz-adv-x="541" 
d="M483 192q0 -46 -17 -83.5t-47.5 -64.5t-72.5 -41.5t-92 -14.5q-81 0 -133 35.5t-83 106.5l78 32q45 -103 143 -103q28 0 52.5 9.5t42 26.5t27.5 40.5t10 52.5q0 41 -16.5 67t-44 41t-62.5 20.5t-71 5.5h-17v67h19q33 0 64 5t55.5 18t39 36t14.5 59q0 51 -29.5 83.5
t-79.5 32.5q-42 0 -74 -24t-57 -61l-70 36q36 58 86 88.5t119 30.5q43 0 78.5 -13.5t61.5 -37.5t40.5 -57t14.5 -72q0 -57 -30.5 -96.5t-82.5 -58.5q64 -14 99 -58.5t35 -107.5z" />
    <glyph glyph-name="four" unicode="4" horiz-adv-x="563" 
d="M428 156v-156h-84v156h-306v59l268 464h122v-452h97v-71h-97zM344 600l-214 -373h214v373z" />
    <glyph glyph-name="five" unicode="5" horiz-adv-x="526" 
d="M468 223q0 -52 -14.5 -95t-43 -74t-70.5 -48.5t-97 -17.5q-71 0 -123 33t-82 101l79 34q20 -46 51.5 -72t76.5 -26q35 0 60 12t41 33.5t23.5 51t7.5 63.5q0 32 -7 60.5t-22.5 49.5t-39.5 33t-58 12q-42 0 -71 -23t-45 -65l-73 18l24 376h368l-5 -74h-289l-14 -211
q26 27 56 39t69 12q49 0 86 -18t62 -48.5t37.5 -70.5t12.5 -85z" />
    <glyph glyph-name="six" unicode="6" horiz-adv-x="555" 
d="M497 223q0 -48 -14.5 -91t-42.5 -75t-68.5 -50.5t-91.5 -18.5q-68 0 -111 28t-67.5 72.5t-34 99t-9.5 107.5q0 67 12.5 137.5t43 128.5t81.5 95t129 37q45 0 82 -15t69 -50l-66 -48q-38 42 -92 42q-43 0 -73 -23.5t-49.5 -61t-29.5 -86t-13 -97.5q29 36 67 59t87 23
q46 0 81.5 -17.5t60 -47t37 -68t12.5 -80.5zM407 222q0 28 -6 53.5t-20 45t-36.5 31t-54.5 11.5q-22 0 -43 -7.5t-39 -20t-33 -28.5t-25 -33q3 -112 33.5 -165.5t99.5 -53.5q34 0 57.5 15.5t38.5 39.5t21.5 53.5t6.5 58.5z" />
    <glyph glyph-name="seven" unicode="7" horiz-adv-x="465" 
d="M196 0h-100l236 601h-304v78h409v-48z" />
    <glyph glyph-name="eight" unicode="8" horiz-adv-x="569" 
d="M511 178q0 -46 -18 -81.5t-49.5 -59.5t-74 -36.5t-90.5 -12.5q-51 0 -91.5 13t-69.5 37t-44.5 58.5t-15.5 76.5q0 65 38 113t111 74q-54 19 -90 57.5t-36 103.5q0 38 15 69.5t42 54.5t65 35.5t84 12.5q45 0 82 -12.5t64 -35t41.5 -54t14.5 -70.5q0 -63 -36.5 -102.5
t-90.5 -61.5q74 -30 111.5 -73t37.5 -106zM403 522q0 44 -33 73t-86 29q-25 0 -46.5 -8t-37 -21.5t-24.5 -33t-9 -41.5q0 -25 10.5 -44t27.5 -34.5t39.5 -27.5t46.5 -23q21 10 41.5 22t36 28t25 35.5t9.5 45.5zM421 175q0 31 -12.5 54t-32.5 40t-44.5 30t-48.5 24
q-26 -11 -50 -23.5t-43 -29.5t-30.5 -39.5t-11.5 -53.5q0 -54 37 -87.5t97 -33.5q62 0 100.5 33.5t38.5 85.5z" />
    <glyph glyph-name="nine" unicode="9" horiz-adv-x="549" 
d="M491 382q0 -87 -12 -159.5t-41 -124.5t-77 -81t-119 -29q-53 0 -90.5 18.5t-66.5 54.5l66 46q23 -24 44 -37t46 -13q75 0 113 67t45 196q-29 -31 -66.5 -49.5t-84.5 -18.5q-42 0 -77 15.5t-60 43t-39 66t-14 85.5q0 50 15.5 92.5t43.5 73t67.5 48t86.5 17.5
q65 0 107.5 -29t67.5 -74.5t35 -100.5t10 -107zM400 403q-1 45 -7.5 85t-21.5 69.5t-40 47t-63 17.5q-26 0 -48 -11.5t-38 -32t-25 -50t-9 -65.5q0 -66 31 -101.5t85 -35.5q36 0 74 20t62 57z" />
    <glyph glyph-name="colon" unicode=":" horiz-adv-x="270" 
d="M192 434q0 -25 -16 -40.5t-41 -15.5t-41 15.5t-16 40.5t16 40.5t41 15.5t41 -15.5t16 -40.5zM192 45q0 -25 -16 -40.5t-41 -15.5t-41 15.5t-16 40.5t16 40.5t41 15.5t41 -15.5t16 -40.5z" />
    <glyph glyph-name="semicolon" unicode=";" horiz-adv-x="270" 
d="M192 434q0 -25 -16 -40.5t-41 -15.5t-41 15.5t-16 40.5t16 40.5t41 15.5t41 -15.5t16 -40.5zM192 35q0 -58 -29 -107.5t-80 -92.5l-31 26q38 39 50 68.5t12 43.5q0 10 -5.5 16.5t-12.5 13.5t-12.5 16.5t-5.5 25.5q0 25 16 40.5t41 15.5q28 0 42.5 -20.5t14.5 -45.5z" />
    <glyph glyph-name="less" unicode="&#x3c;" horiz-adv-x="562" 
d="M60 288v78l442 195v-83l-367 -150l367 -160v-82z" />
    <glyph glyph-name="equal" unicode="=" horiz-adv-x="562" 
d="M60 379v77h442v-77h-442zM60 199v77h442v-77h-442z" />
    <glyph glyph-name="greater" unicode="&#x3e;" horiz-adv-x="562" 
d="M60 86v82l367 160l-367 150v83l442 -195v-78z" />
    <glyph glyph-name="question" unicode="?" horiz-adv-x="426" 
d="M376 564q0 -42 -10 -70.5t-25 -50.5t-32 -41t-32 -42t-25 -53.5t-10 -75.5v-18h-77v19q0 48 9.5 82t23.5 60t30.5 46.5t30.5 40.5t23.5 43t9.5 55q0 36 -20.5 63t-60.5 27q-34 0 -58.5 -22.5t-34.5 -53.5l-68 36q10 27 27.5 47t39.5 33.5t48 20.5t54 7q70 0 113.5 -40.5
t43.5 -112.5zM262 45q0 -25 -16 -40.5t-41 -15.5t-41 15.5t-16 40.5t16 40.5t41 15.5t41 -15.5t16 -40.5z" />
    <glyph glyph-name="at" unicode="@" horiz-adv-x="1017" 
d="M957 322q0 -92 -21 -154t-54 -99.5t-74.5 -53.5t-82.5 -16q-62 0 -97 32.5t-44 79.5q-27 -45 -67 -73t-85 -28q-63 0 -97.5 48.5t-34.5 143.5q0 51 13.5 105.5t41 99t68.5 73.5t95 29q39 0 68.5 -16t49.5 -39l14 46h71l-57 -330q-3 -15 -3 -29q0 -30 14.5 -52.5
t51.5 -22.5q31 0 58 15t47 46t31.5 79.5t11.5 115.5q0 73 -24 136t-70 108.5t-111.5 71.5t-148.5 26q-84 0 -153 -33t-119 -90.5t-77.5 -136.5t-27.5 -172q0 -88 26.5 -156.5t72.5 -116t107.5 -72.5t130.5 -25q63 0 119.5 11t88.5 19l12 -70q-29 -8 -84.5 -19.5
t-135.5 -11.5q-89 0 -166 28.5t-133.5 84.5t-89 138.5t-32.5 189.5q0 115 34.5 207.5t96 157.5t146 100.5t184.5 35.5t180.5 -30.5t137.5 -85.5t87.5 -130t30.5 -165zM620 398q-17 19 -39 31t-51 12q-38 0 -65 -23t-45 -57.5t-26.5 -76t-8.5 -78.5q0 -28 2.5 -52t10 -41.5
t21.5 -27.5t37 -10q27 0 64.5 34.5t69.5 108.5z" />
    <glyph glyph-name="A" unicode="A" horiz-adv-x="558" 
d="M444 0l-54 207h-225l-55 -207h-90l200 703h119l199 -703h-94zM278 632l-95 -357h189z" />
    <glyph glyph-name="B" unicode="B" horiz-adv-x="576" 
d="M521 194q0 -54 -17 -91t-47.5 -60t-71.5 -33t-89 -10h-208v703h177q45 0 87 -7.5t75 -27t52.5 -54.5t19.5 -89q0 -63 -32 -100.5t-89 -54.5q69 -14 106 -59t37 -117zM407 522q0 38 -14 60.5t-37 34t-53 14.5t-62 3h-62v-232h52q31 0 62.5 3.5t57 16t41 36t15.5 64.5z
M427 196q0 46 -17.5 73.5t-45.5 42t-64 19t-72 4.5h-49v-266h67q34 0 66.5 3t58 15.5t41 38t15.5 70.5z" />
    <glyph glyph-name="C" unicode="C" horiz-adv-x="604" 
d="M566 207q-10 -49 -29.5 -89t-49.5 -69t-71 -45t-94 -16q-77 0 -127.5 32t-81 83.5t-43 116t-12.5 128.5t13 130t43.5 119t81.5 86.5t128 33.5q52 0 90.5 -15.5t66.5 -43.5t46.5 -67.5t29.5 -86.5l-88 -17q-6 31 -16 60t-26.5 52t-41.5 37t-61 14q-51 0 -84 -27.5
t-52.5 -71.5t-27 -98t-7.5 -107q0 -50 7.5 -101.5t27 -93.5t52.5 -68.5t84 -26.5q36 0 62.5 15t44.5 39t29.5 54t17.5 61z" />
    <glyph glyph-name="D" unicode="D" horiz-adv-x="632" 
d="M574 355q0 -174 -81 -264.5t-253 -90.5h-152v703h152q175 0 254.5 -88t79.5 -260zM479 355q0 61 -10 112t-36 88t-70.5 58t-113.5 21h-70v-565h54q71 0 118 19t75.5 55.5t40.5 89.5t12 122z" />
    <glyph glyph-name="E" unicode="E" horiz-adv-x="530" 
d="M88 0v703h384v-71h-293v-226h225v-71h-225v-264h303v-71h-394z" />
    <glyph glyph-name="F" unicode="F" horiz-adv-x="520" 
d="M179 632v-226h235v-71h-235v-335h-91v703h384v-71h-293z" />
    <glyph glyph-name="G" unicode="G" horiz-adv-x="642" 
d="M491 0l-3 94q-19 -49 -66.5 -77.5t-104.5 -28.5q-72 0 -121 29t-80 78.5t-44.5 115.5t-13.5 140q0 64 13.5 129.5t45 118t83 85.5t127.5 33q50 0 87.5 -14.5t65 -41.5t45.5 -64t29 -82l-80 -18q-6 33 -18.5 61t-30.5 48.5t-43 32.5t-56 12q-54 0 -88 -31t-52.5 -76
t-25.5 -96.5t-7 -92.5q0 -45 5.5 -97t24 -97t53 -75t92.5 -30q46 0 75 20t44.5 51t21 69.5t5.5 75.5h-144v68h224v-340h-63z" />
    <glyph glyph-name="H" unicode="H" horiz-adv-x="655" 
d="M476 0v333h-297v-333h-91v703h91v-297h297v297h91v-703h-91z" />
    <glyph glyph-name="I" unicode="I" horiz-adv-x="267" 
d="M88 0v703h91v-703h-91z" />
    <glyph glyph-name="J" unicode="J" horiz-adv-x="448" 
d="M360 216q0 -47 -7.5 -88.5t-27 -72.5t-54.5 -49t-90 -18q-60 0 -100 27.5t-61 86.5l79 28q12 -35 30.5 -54.5t53.5 -19.5q30 0 47 14t25.5 35t11 46.5t2.5 48.5v503h91v-487z" />
    <glyph glyph-name="K" unicode="K" horiz-adv-x="573" 
d="M455 0l-187 352l-89 -115v-237h-91v703h91v-348l258 348h102l-214 -277l230 -426h-100z" />
    <glyph glyph-name="L" unicode="L" horiz-adv-x="497" 
d="M88 0v703h91v-631h280v-72h-371z" />
    <glyph glyph-name="M" unicode="M" horiz-adv-x="775" 
d="M602 0v635l-174 -635h-81l-174 634v-634h-85v703h143l160 -585l154 585h142v-703h-85z" />
    <glyph glyph-name="N" unicode="N" horiz-adv-x="653" 
d="M472 0l-297 601v-601h-87v703h122l269 -544v544h86v-703h-93z" />
    <glyph glyph-name="O" unicode="O" horiz-adv-x="649" 
d="M591 357q0 -66 -13 -132t-44 -118.5t-83 -85.5t-131 -33q-65 0 -114 26t-82 73t-49.5 114t-16.5 150q0 81 16.5 148.5t50 115.5t83.5 75t116 27t116 -26t83.5 -73t50.5 -113.5t17 -147.5zM496 361q0 42 -6 92t-24 94t-52 73.5t-89 29.5q-38 0 -65.5 -14.5t-46.5 -38.5
t-30.5 -55.5t-18 -64.5t-9 -66t-2.5 -61q0 -41 6 -92.5t24 -96.5t51.5 -75.5t89.5 -30.5q45 0 77.5 24.5t53.5 66.5t31 97.5t10 117.5z" />
    <glyph glyph-name="P" unicode="P" horiz-adv-x="548" 
d="M500 505q0 -57 -20 -95t-53.5 -60.5t-77.5 -32t-92 -9.5h-78v-308h-91v703h162q50 0 95 -9t79.5 -31.5t55 -60.5t20.5 -97zM407 506q0 38 -12 63t-33.5 39.5t-50 20.5t-61.5 6h-71v-256h65q34 0 64 5.5t52 19.5t34.5 38.5t12.5 63.5z" />
    <glyph glyph-name="Q" unicode="Q" horiz-adv-x="649" 
d="M583 -77l-97 101q-56 -36 -136 -36q-65 0 -114 26t-82 73t-49.5 114t-16.5 150q0 81 16.5 148.5t50 115.5t83.5 75t116 27t116 -26t83.5 -73t50.5 -113.5t17 -147.5q0 -39 -4 -78.5t-13.5 -76t-25 -70t-37.5 -60.5l93 -97zM526 361q0 42 -6 92t-24 94t-52 73.5t-89 29.5
q-38 0 -65.5 -14.5t-46.5 -38.5t-30.5 -55.5t-18 -64.5t-9 -66t-2.5 -61q0 -41 6 -92.5t24 -96.5t51.5 -75.5t89.5 -30.5q44 0 78 25l-98 103l51 52l95 -99q24 42 35 100.5t11 124.5z" />
    <glyph glyph-name="R" unicode="R" horiz-adv-x="566" 
d="M427 0l-149 316q-12 0 -26 0.5t-29 0.5h-44v-317h-91v703h164q53 0 100 -8.5t81.5 -29.5t54.5 -57.5t20 -91.5q0 -73 -37 -119t-104 -64l161 -333h-101zM416 514q0 41 -15.5 65t-40.5 36t-56 15.5t-62 3.5h-63v-247h69q35 0 65.5 5t53.5 19t36 38.5t13 64.5z" />
    <glyph glyph-name="S" unicode="S" horiz-adv-x="549" 
d="M491 190q0 -48 -16.5 -86t-46 -63.5t-71 -39t-92.5 -13.5q-91 0 -153.5 45t-85.5 142l81 20q16 -60 53.5 -98.5t106.5 -38.5q58 0 96 34t38 89q0 29 -9.5 49t-25 33.5t-35.5 23t-41 17.5l-86 32q-30 11 -57 27t-46.5 38t-31 52t-11.5 70q0 43 16 79t43.5 61.5t66 39.5
t83.5 14q82 0 140 -43.5t78 -131.5l-82 -15q-15 60 -48 90t-88 30q-53 0 -86 -31.5t-33 -81.5q0 -27 8.5 -46.5t23 -33.5t33.5 -23.5t40 -17.5l79 -30q33 -12 61.5 -28t50.5 -38.5t34.5 -53.5t12.5 -73z" />
    <glyph glyph-name="T" unicode="T" horiz-adv-x="499" 
d="M296 626v-626h-91v626h-185v77h459v-77h-183z" />
    <glyph glyph-name="U" unicode="U" horiz-adv-x="640" 
d="M552 262q0 -61 -9.5 -111.5t-35.5 -86.5t-71.5 -56t-117.5 -20t-117 20t-70 56t-34 86.5t-9 111.5v441h91v-461q0 -36 5 -69.5t20 -59.5t43 -41.5t73 -15.5t72.5 15.5t43 41.5t20.5 59.5t5 69.5v461h91v-441z" />
    <glyph glyph-name="V" unicode="V" horiz-adv-x="542" 
d="M323 0h-102l-206 703h98l162 -607l161 607h91z" />
    <glyph glyph-name="W" unicode="W" horiz-adv-x="797" 
d="M642 0h-108l-135 615l-132 -615h-107l-135 703h92l98 -612l130 612h110l131 -612l97 612h89z" />
    <glyph glyph-name="X" unicode="X" horiz-adv-x="513" 
d="M398 0l-145 295l-142 -295h-101l193 367l-178 336h106l128 -267l124 267h98l-173 -336l195 -367h-105z" />
    <glyph glyph-name="Y" unicode="Y" horiz-adv-x="523" 
d="M306 286v-286h-91v286l-205 417h99l154 -344l155 344h95z" />
    <glyph glyph-name="Z" unicode="Z" horiz-adv-x="513" 
d="M151 72h310v-72h-413v58l314 573h-285v72h388v-61z" />
    <glyph glyph-name="bracketleft" unicode="[" horiz-adv-x="292" 
d="M100 -103v876h172v-59h-94v-756h94v-61h-172z" />
    <glyph glyph-name="backslash" unicode="\" horiz-adv-x="441" 
d="M322 -12l-292 715h87l294 -715h-89z" />
    <glyph glyph-name="bracketright" unicode="]" horiz-adv-x="292" 
d="M20 -103v61h94v756h-94v59h172v-876h-172z" />
    <glyph glyph-name="asciicircum" unicode="^" horiz-adv-x="581" 
d="M452 259l-162 341l-160 -341h-82l203 420h77l205 -420h-81z" />
    <glyph glyph-name="underscore" unicode="_" horiz-adv-x="412" 
d="M0 -179v70h412v-70h-412z" />
    <glyph glyph-name="grave" unicode="`" horiz-adv-x="185" 
d="M103 571l-83 132h95l50 -132h-62z" />
    <glyph glyph-name="a" unicode="a" horiz-adv-x="499" 
d="M351 0q-2 14 -4.5 33t-4.5 33q-33 -33 -68 -54.5t-84 -21.5q-31 0 -57.5 9t-46 26.5t-30.5 43t-11 57.5q0 55 30.5 90t75 56.5t95.5 33t92 19.5v14q0 50 -20 78t-73 28q-38 0 -66.5 -17t-42.5 -52l-74 22q10 29 28.5 50t43 34.5t53.5 20t60 6.5q90 0 132 -44.5t42 -132.5
v-212q0 -19 1.5 -39.5t3.5 -38.5q2 -21 5 -42h-80zM338 268q-27 -7 -63.5 -15.5t-69 -23.5t-55.5 -38.5t-23 -60.5q0 -34 23.5 -56.5t57.5 -22.5q19 0 37.5 6.5t35 17t31 24t26.5 26.5v143z" />
    <glyph glyph-name="b" unicode="b" horiz-adv-x="522" 
d="M474 259q0 -57 -12.5 -106t-36.5 -85.5t-60 -57t-82 -20.5q-40 0 -69.5 15.5t-59.5 50.5l-11 -56h-65v703h83v-267q26 32 60 52.5t76 20.5q52 0 86.5 -23.5t54.5 -60.5t28 -81t8 -85zM390 255q0 27 -4.5 59.5t-17 61t-35 48t-57.5 19.5q-30 0 -56 -15.5t-59 -50.5v-264
q22 -29 48 -45t57 -16q38 0 62.5 20.5t38 51t18.5 66t5 65.5z" />
    <glyph glyph-name="c" unicode="c" horiz-adv-x="462" 
d="M434 132q-20 -67 -66.5 -104.5t-117.5 -37.5q-54 0 -92 20.5t-62.5 55.5t-36 81.5t-11.5 98.5q0 47 12 94t37.5 84.5t64 61t92.5 23.5q69 0 112 -38.5t61 -104.5l-73 -15q-9 38 -33.5 66t-66.5 28q-36 0 -59.5 -20.5t-37 -51t-18.5 -65t-5 -62.5t5 -61.5t18 -63t36 -49
t59 -19.5q24 0 41 8t30 21.5t22.5 31t17.5 37.5z" />
    <glyph glyph-name="d" unicode="d" horiz-adv-x="520" 
d="M371 0l-6 62q-32 -38 -65 -55t-74 -17q-45 0 -78.5 20t-55.5 55.5t-33 83t-11 103.5q0 42 10 87t32.5 83t57 62.5t84.5 24.5q41 0 71.5 -17t55.5 -47v258h83v-590q0 -14 0.5 -33t2.5 -37q2 -21 4 -43h-78zM359 381q-48 61 -106 61q-29 0 -51.5 -15.5t-38 -41.5
t-23.5 -60.5t-8 -72.5q0 -40 7 -76t21 -63t35.5 -43t50.5 -16t59.5 18t53.5 47v262z" />
    <glyph glyph-name="e" unicode="e" horiz-adv-x="483" 
d="M438 122q-10 -31 -28 -55.5t-42.5 -41.5t-54 -26t-60.5 -9q-98 0 -151.5 66.5t-53.5 191.5q0 58 13 106t38 82.5t61.5 53.5t84.5 19q54 0 90 -22t58.5 -58t32 -81t9.5 -90v-18h-303v-9q0 -37 8 -70t24 -57.5t38.5 -38.5t51.5 -14q39 0 66 22.5t50 67.5zM354 297
q-3 66 -29 109t-79 43q-25 0 -45 -11.5t-34.5 -32t-23 -48.5t-10.5 -60h221z" />
    <glyph glyph-name="f" unicode="f" horiz-adv-x="277" 
d="M282 645q-8 1 -17.5 2t-18.5 1q-45 0 -58 -23.5t-13 -60.5v-64h102v-60h-102v-440h-83v440h-72v60h72v60q0 72 31.5 113t101.5 41q14 0 31 -2t26 -4v-63z" />
    <glyph glyph-name="g" unicode="g" horiz-adv-x="464" 
d="M458 -37q0 -42 -21 -70.5t-54.5 -46t-75.5 -25t-84 -7.5q-27 0 -60.5 5t-62 18t-48 36t-19.5 58q0 20 8 37.5t20.5 32t28.5 25.5t33 18q-25 9 -43 25t-18 45q0 30 21 50t47 31q-37 20 -59.5 56t-22.5 87q0 41 15 73t40 53.5t58.5 33t70.5 11.5q32 0 61 -9t53 -26
q23 23 51 32t61 9v-66q-19 0 -38.5 -2.5t-36.5 -8.5q33 -42 33 -100q0 -40 -15 -71t-40 -52.5t-58.5 -32.5t-70.5 -11q-31 0 -61 8q-13 -7 -24 -17.5t-11 -22.5q0 -11 5.5 -17.5t13.5 -10t17.5 -5.5t17.5 -3l150 -23q21 -3 42 -10.5t38 -21t27.5 -34.5t10.5 -51zM337 338
q0 48 -27.5 80.5t-77.5 32.5t-77.5 -32.5t-27.5 -80.5t27.5 -78.5t77.5 -30.5t77.5 30.5t27.5 78.5zM379 -43q0 25 -15 36.5t-35 14.5l-151 23q-32 -17 -54 -40.5t-22 -46.5t14 -37.5t34 -22t42 -10t39 -2.5q22 0 47.5 4.5t48 14t37.5 26t15 40.5z" />
    <glyph glyph-name="h" unicode="h" 
d="M364 0v339q0 18 -3 36.5t-11 32.5t-22.5 23t-37.5 9q-31 0 -64.5 -21t-64.5 -57v-362h-83v703h83v-284q32 36 72 63t91 27q40 0 64 -14.5t37 -38.5t17.5 -54.5t4.5 -61.5v-340h-83z" />
    <glyph glyph-name="i" unicode="i" horiz-adv-x="239" 
d="M174 640q0 -24 -15.5 -38.5t-38.5 -14.5t-38.5 14.5t-15.5 38.5t15.5 38.5t38.5 14.5t38.5 -14.5t15.5 -38.5zM78 0v500h83v-500h-83z" />
    <glyph glyph-name="j" unicode="j" horiz-adv-x="238" 
d="M161 -35q0 -33 -5.5 -60.5t-19.5 -47t-38.5 -30.5t-63.5 -11q-11 0 -20 1t-22 3v65q6 -1 11 -1h12q39 0 51 22.5t12 54.5v539h83v-535zM174 640q0 -24 -15.5 -38.5t-38.5 -14.5t-38.5 14.5t-15.5 38.5t15.5 38.5t38.5 14.5t38.5 -14.5t15.5 -38.5z" />
    <glyph glyph-name="k" unicode="k" horiz-adv-x="470" 
d="M361 0l-124 255l-76 -96v-159h-83v703h83v-443l182 240h96l-145 -181l161 -319h-94z" />
    <glyph glyph-name="l" unicode="l" horiz-adv-x="244" 
d="M228 1q-12 -3 -29.5 -5.5t-31.5 -2.5q-46 0 -67.5 29t-21.5 79v602h83v-591q0 -21 5.5 -38.5t29.5 -17.5q8 0 17 1t15 3v-59z" />
    <glyph glyph-name="m" unicode="m" horiz-adv-x="791" 
d="M630 0v339q0 17 -3 35t-10.5 32.5t-21 23.5t-35.5 9q-19 0 -36.5 -7t-33.5 -18t-30 -24.5t-26 -26.5v-363h-83v333q0 18 -1.5 37t-8.5 34t-20 25t-37 10q-18 0 -35 -7t-32.5 -18.5t-29.5 -25t-26 -25.5v-363h-83v500h83v-81q40 45 77 67.5t78 22.5q42 0 71.5 -23
t40.5 -68q15 17 32.5 33.5t38 29t42.5 20.5t46 8q40 0 65 -14.5t38.5 -38t18 -54t4.5 -63.5v-339h-83z" />
    <glyph glyph-name="n" unicode="n" 
d="M364 0v339q0 18 -3 36.5t-11 32.5t-22.5 23t-37.5 9q-31 0 -64.5 -21t-64.5 -57v-362h-83v500h83v-81q32 36 72 63t91 27q40 0 64 -14.5t37 -38.5t17.5 -54.5t4.5 -61.5v-340h-83z" />
    <glyph glyph-name="o" unicode="o" horiz-adv-x="506" 
d="M458 257q0 -61 -13.5 -110.5t-39.5 -84t-64 -53.5t-88 -19q-100 0 -152.5 69t-52.5 187q0 59 13.5 107.5t40 83t64.5 53.5t87 19q48 0 86 -18t64.5 -51t40.5 -79.5t14 -103.5zM373 260q0 29 -5 61.5t-18.5 60t-37 45.5t-60.5 18q-31 0 -53.5 -15t-37.5 -41.5t-22 -62
t-7 -77.5q0 -41 7 -76.5t21.5 -62t37.5 -41.5t55 -15q40 0 64 20.5t36.5 51t16 66.5t3.5 68z" />
    <glyph glyph-name="p" unicode="p" horiz-adv-x="522" 
d="M474 259q0 -56 -12 -105t-36 -85.5t-60 -57.5t-83 -21q-41 0 -68.5 14t-53.5 37v-220h-83v679h83v-64q27 32 60 52.5t76 20.5q51 0 85 -23.5t54.5 -60t29 -81t8.5 -85.5zM390 260q0 27 -5 59t-17.5 59.5t-35 46t-57.5 18.5q-60 0 -114 -65v-274q23 -21 48 -36t54 -15
q32 0 56 16t39.5 43.5t23.5 65.5t8 82z" />
    <glyph glyph-name="q" unicode="q" horiz-adv-x="520" 
d="M359 -179v237q-26 -32 -57 -50t-73 -18t-75.5 18.5t-57 53t-36 83.5t-12.5 109q0 42 10 87t32.5 82.5t57 61.5t84.5 24q42 0 73 -20.5t57 -49.5l4 61h76v-679h-83zM359 378q-22 27 -48 45t-60 18q-33 0 -55.5 -17.5t-36.5 -45t-20.5 -61t-6.5 -64.5q0 -33 6 -68t19.5 -64
t36.5 -47.5t57 -18.5q29 0 57 16t51 46v261z" />
    <glyph glyph-name="r" unicode="r" horiz-adv-x="340" 
d="M325 420q-4 1 -13 1.5t-14 0.5q-30 0 -55 -15.5t-43 -40t-28.5 -53.5t-10.5 -56v-257h-83v500h82v-116q12 26 26 49.5t31.5 41t37.5 26t45 8.5l25 -1v-88z" />
    <glyph glyph-name="s" unicode="s" horiz-adv-x="428" 
d="M383 139q0 -38 -14.5 -66t-39.5 -46.5t-57 -27.5t-67 -9q-63 0 -108 28t-68 85l72 23q17 -34 43.5 -54.5t66.5 -20.5q17 0 33.5 5.5t30 16t21.5 25.5t8 34q0 32 -20 49t-48 26l-69 23q-24 8 -45.5 19.5t-38 28t-26 39.5t-9.5 54q0 34 13 60t35.5 43t52.5 26t65 9
q116 0 160 -98l-66 -25q-16 28 -39 45.5t-58 17.5q-16 0 -31 -4.5t-27 -13t-19 -21.5t-7 -31q0 -35 22 -52t52 -27l63 -21q25 -8 46.5 -19.5t37.5 -28t25.5 -39t9.5 -53.5z" />
    <glyph glyph-name="t" unicode="t" horiz-adv-x="304" 
d="M284 -1q-12 -2 -33 -5t-41 -3q-62 0 -88.5 29.5t-26.5 94.5v326h-75v59h75v148h83v-148h105v-59h-105v-313q0 -32 9 -52t41 -20q9 0 27.5 2.5t28.5 4.5v-64z" />
    <glyph glyph-name="u" unicode="u" 
d="M370 0l-5 82q-37 -45 -78 -68.5t-86 -23.5q-41 0 -65.5 16t-37 41.5t-16.5 58t-4 65.5v329h83v-332q0 -18 2 -37.5t9.5 -35.5t22 -26t38.5 -10q32 0 65.5 21t65.5 57v363h83v-500h-77z" />
    <glyph glyph-name="v" unicode="v" horiz-adv-x="435" 
d="M266 0h-95l-156 500h89l116 -423l114 423h86z" />
    <glyph glyph-name="w" unicode="w" horiz-adv-x="693" 
d="M545 0h-93l-106 411l-105 -411h-92l-124 500h86l88 -413l100 413h97l102 -413l86 413h84z" />
    <glyph glyph-name="x" unicode="x" horiz-adv-x="425" 
d="M322 0l-110 203l-110 -203h-92l155 258l-145 242h93l101 -183l98 183h88l-142 -240l157 -260h-93z" />
    <glyph glyph-name="y" unicode="y" horiz-adv-x="443" 
d="M262 -1q-11 -33 -25 -66t-35 -58.5t-50.5 -41.5t-70.5 -16q-13 0 -27.5 2t-27.5 5v64q13 -2 24.5 -4t22.5 -2q27 0 45.5 11.5t31 30t21 41.5t16.5 45l-172 490h91l121 -395l115 395h86z" />
    <glyph glyph-name="z" unicode="z" horiz-adv-x="448" 
d="M45 0v63l252 371h-237v66h342v-55l-257 -379h258v-66h-358z" />
    <glyph glyph-name="braceleft" unicode="{" horiz-adv-x="264" 
d="M231 -98q-74 0 -104.5 35t-30.5 103v201q0 32 -13 49.5t-43 17.5h-20v59h20q30 0 43 17.5t13 49.5v201q0 67 30.5 102.5t104.5 35.5h13v-59q-40 0 -55 -15.5t-15 -58.5v-192q0 -39 -13 -69t-45 -41v-1q32 -11 45 -41t13 -69v-192q0 -43 14.5 -58.5t55.5 -15.5v-59h-13z
" />
    <glyph glyph-name="bar" unicode="|" horiz-adv-x="280" 
d="M98 -120v943h84v-943h-84z" />
    <glyph glyph-name="braceright" unicode="}" horiz-adv-x="264" 
d="M224 308q-30 0 -43 -17.5t-13 -49.5v-201q0 -68 -30.5 -103t-104.5 -35h-13v59q40 0 55 15.5t15 58.5v192q0 39 13 69t45 41v1q-32 11 -45 41t-13 69v192q0 43 -14.5 58.5t-55.5 15.5v59h13q74 0 104.5 -35.5t30.5 -102.5v-201q0 -32 13 -49.5t43 -17.5h20v-59h-20z" />
    <glyph glyph-name="asciitilde" unicode="~" horiz-adv-x="579" 
d="M519 324q-21 -43 -54 -68.5t-78 -25.5q-24 0 -51.5 9.5t-56.5 22.5q-27 11 -51 20t-41 9q-32 0 -55 -22t-39 -49l-33 62q20 35 53.5 59t78.5 24q25 0 52.5 -9.5t55.5 -22.5q26 -12 50 -20.5t41 -8.5q30 0 53 22.5t37 48.5z" />
    <glyph glyph-name="uni00A0" unicode="&#xa0;" horiz-adv-x="280" 
 />
    <glyph glyph-name="exclamdown" unicode="&#xa1;" horiz-adv-x="314" 
d="M214 479q0 -25 -16 -40.5t-41 -15.5t-41 15.5t-16 40.5t16 40.5t41 15.5t41 -15.5t16 -40.5zM108 -179l16 491h66l17 -491h-99z" />
    <glyph glyph-name="cent" unicode="&#xa2;" horiz-adv-x="472" 
d="M444 132q-17 -60 -56.5 -96t-99.5 -44v-112h-60v112q-45 6 -79 28.5t-56.5 56.5t-33.5 77.5t-11 91.5q0 43 11.5 86t34 79t56 61.5t78.5 33.5v114h60v-112q58 -7 95 -44.5t54 -97.5l-73 -15q-8 32 -26.5 57.5t-49.5 33.5v-386q34 8 52.5 35t32.5 60zM228 439
q-26 -10 -44 -32.5t-29 -50t-16 -57t-5 -53.5t5 -53t16 -56t29 -48.5t44 -30.5v381z" />
    <glyph glyph-name="sterling" unicode="&#xa3;" horiz-adv-x="499" 
d="M385 531q-6 24 -13.5 42t-19.5 30.5t-29.5 18.5t-44.5 6q-26 0 -44.5 -9.5t-31 -25t-18.5 -35.5t-6 -41q0 -38 10.5 -75.5t20.5 -78.5h177l-6 -63h-159q3 -23 3 -46q0 -57 -23 -102t-65 -83h314v-69h-410v48q44 42 71 89.5t27 107.5q0 14 -1.5 27.5t-3.5 27.5h-93l6 63
h73q-11 38 -20.5 76.5t-9.5 77.5q0 81 51 129.5t138 48.5q80 0 121.5 -35.5t59.5 -113.5z" />
    <glyph glyph-name="currency" unicode="&#xa4;" horiz-adv-x="550" 
d="M458 136l-71 70q-23 -17 -52.5 -26.5t-61.5 -9.5q-33 0 -60.5 10t-53.5 27l-67 -71l-50 51l70 69q-18 27 -27 53t-9 58q0 33 8 59.5t28 52.5l-70 70l50 50l67 -70q50 35 117 35q33 0 60.5 -9t50.5 -25l71 69l49 -50l-69 -70q20 -28 28 -54.5t8 -59.5t-9 -58t-27 -51
l69 -69zM399 367q0 24 -9 47t-25.5 40.5t-39 28t-49.5 10.5q-28 0 -51 -10t-39.5 -27.5t-25.5 -40.5t-9 -48q0 -24 9.5 -47t26 -40t39 -27.5t48.5 -10.5q27 0 50 10t39.5 27t26 39.5t9.5 48.5z" />
    <glyph glyph-name="yen" unicode="&#xa5;" horiz-adv-x="523" 
d="M331 313h125v-58h-150v-82h150v-58h-150v-115h-91v115h-150v58h150v82h-150v58h125l-180 366h99l154 -344l155 344h95z" />
    <glyph glyph-name="brokenbar" unicode="&#xa6;" horiz-adv-x="280" 
d="M98 410v413h84v-413h-84zM98 -120v413h84v-413h-84z" />
    <glyph glyph-name="section" unicode="&#xa7;" horiz-adv-x="541" 
d="M493 245q0 -82 -80 -136q26 -22 39.5 -51.5t13.5 -62.5q0 -38 -16.5 -69t-44 -53t-63.5 -33.5t-75 -11.5q-86 0 -146 47t-75 138l78 20q14 -67 48.5 -103t94.5 -36q23 0 44 7t36.5 20t24.5 30t9 38q0 30 -19 52t-46 38t-57 27.5t-52 21.5q-27 12 -55.5 26t-51.5 33.5
t-37.5 45t-14.5 60.5q0 79 87 135q-27 24 -39.5 51t-12.5 59q0 37 15 67.5t40.5 52t59.5 33.5t73 12q84 0 134 -44.5t75 -119.5l-75 -21q-9 25 -20.5 46.5t-28 37.5t-38 25t-50.5 9q-43 0 -72.5 -25t-29.5 -65q0 -29 17.5 -50t43 -37t54 -27t50.5 -21q28 -12 57 -26t52 -33
t38 -45t15 -62zM415 227q0 32 -21.5 53.5t-63.5 41.5l-84 40q-22 10 -34.5 17t-31.5 18q-20 -19 -38 -38.5t-18 -51.5q0 -31 21.5 -51.5t62.5 -39.5l89 -41q17 -8 35 -18t36 -19q25 23 36 43t11 46z" />
    <glyph glyph-name="dieresis" unicode="&#xa8;" horiz-adv-x="294" 
d="M274 641q0 -22 -14 -35t-35 -13t-35 13t-14 35t14 35t35 13t35 -13t14 -35zM118 641q0 -22 -14 -35t-35 -13t-35 13t-14 35t14 35t35 13t35 -13t14 -35z" />
    <glyph glyph-name="copyright" unicode="&#xa9;" horiz-adv-x="940" 
d="M882 339q0 -93 -31.5 -170.5t-87 -133.5t-131 -87t-163.5 -31q-93 0 -168.5 33t-129.5 90t-83.5 134t-29.5 165q0 92 31.5 169.5t87 134t131 88t162.5 31.5q93 0 169 -33t130 -90.5t83.5 -134.5t29.5 -165zM796 339q0 73 -23 137.5t-65.5 112.5t-102.5 75.5t-135 27.5
q-71 0 -130.5 -26.5t-103 -74t-68 -112t-24.5 -140.5q0 -73 23 -137t65 -112t102 -75.5t135 -27.5q71 0 131 26.5t103.5 73.5t68 111.5t24.5 140.5zM664 257q-7 -35 -22.5 -66t-39.5 -54t-56.5 -36.5t-72.5 -13.5q-51 0 -89.5 19t-64 52.5t-38.5 80t-13 101.5q0 61 15.5 109
t43 81t65.5 50t82 17q34 0 64 -10t54.5 -30t41.5 -51t24 -74l-86 -14q-5 24 -12.5 44.5t-19 35t-27.5 23t-39 8.5q-22 0 -43 -10.5t-37 -33.5t-25.5 -59.5t-9.5 -88.5q0 -91 31.5 -136t83.5 -45q36 0 63 25.5t41 90.5z" />
    <glyph glyph-name="ordfeminine" unicode="&#xaa;" horiz-adv-x="423" 
d="M283 310l-7 46q-24 -23 -50.5 -38.5t-63.5 -15.5q-50 0 -83.5 29t-33.5 82q0 44 23 72t57.5 45.5t74 27t72.5 15.5v7q0 38 -14.5 57.5t-52.5 19.5q-28 0 -49 -13t-33 -42l-66 20q18 51 59 73t90 22q140 0 140 -143v-166q0 -14 1 -31t3 -32q2 -18 5 -35h-72zM272 518
q-20 -4 -46.5 -11t-50.5 -18.5t-40.5 -29t-16.5 -43.5q0 -24 17 -40.5t41 -16.5q28 0 52.5 17.5t43.5 37.5v104z" />
    <glyph glyph-name="guillemotleft" unicode="&#xab;" horiz-adv-x="453" 
d="M335 68l-105 195l105 195h58l-78 -195l78 -195h-58zM165 68l-105 195l105 195h58l-78 -195l78 -195h-58z" />
    <glyph glyph-name="logicalnot" unicode="&#xac;" horiz-adv-x="562" 
d="M425 92v197h-365v77h442v-274h-77z" />
    <glyph glyph-name="uni00AD" unicode="&#xad;" horiz-adv-x="332" 
d="M60 265v70h212v-70h-212z" />
    <glyph glyph-name="registered" unicode="&#xae;" horiz-adv-x="590" 
d="M530 520q0 -55 -19 -98t-51 -72.5t-74.5 -45t-90.5 -15.5t-90.5 15.5t-74.5 45t-51 72.5t-19 98t19 98t51 72.5t74.5 45t90.5 15.5t90.5 -15.5t74.5 -45t51 -72.5t19 -98zM466 520q0 42 -14 75t-37.5 55.5t-54.5 34.5t-65 12t-65 -12t-54.5 -34.5t-37.5 -55.5t-14 -75
t14 -75t37.5 -55.5t54.5 -34.5t65 -12t65 12t54.5 34.5t37.5 55.5t14 75zM345 398l-50 103h-22v-103h-51v253h76q42 0 67.5 -19t25.5 -54q0 -52 -45 -69l55 -111h-56zM338 576q0 13 -8.5 22.5t-34.5 9.5h-22v-65h24q24 0 32.5 9.5t8.5 23.5z" />
    <glyph glyph-name="macron" unicode="&#xaf;" horiz-adv-x="282" 
d="M20 604v58h242v-58h-242z" />
    <glyph glyph-name="degree" unicode="&#xb0;" horiz-adv-x="392" 
d="M334 579q0 -32 -10.5 -57.5t-29.5 -43.5t-44 -27.5t-54 -9.5t-54 9.5t-44 27.5t-29.5 43.5t-10.5 57.5q0 31 10.5 56.5t29.5 43.5t44 28t54 10t54 -10t44 -28t29.5 -43.5t10.5 -56.5zM272 579q0 35 -20 61t-56 26t-56 -26t-20 -61t20 -61t56 -26t56 26t20 61z" />
    <glyph glyph-name="plusminus" unicode="&#xb1;" horiz-adv-x="562" 
d="M319 289v-177h-77v177h-182v77h182v197h77v-197h183v-77h-183zM60 0v77h442v-77h-442z" />
    <glyph glyph-name="twosuperior" unicode="&#xb2;" horiz-adv-x="453" 
d="M44 286v37q6 23 22 47.5t36 47t42 42t39 33.5q12 10 26 21t26 23.5t19.5 27.5t7.5 33q0 27 -18.5 46.5t-47.5 19.5q-37 0 -55.5 -23t-27.5 -61l-66 11q13 57 49 91.5t101 34.5q30 0 55 -9.5t43 -25.5t28 -38.5t10 -47.5t-10.5 -46t-27.5 -39t-37.5 -34.5t-39.5 -31.5
q-32 -25 -56.5 -49t-39.5 -56h221v-54h-299z" />
    <glyph glyph-name="threesuperior" unicode="&#xb3;" horiz-adv-x="443" 
d="M348 406q0 -29 -12 -53t-33 -40.5t-50 -25.5t-63 -9q-56 0 -93 22t-60 70l61 24q17 -33 40 -48t55 -15q38 0 61.5 20t23.5 53q0 23 -10.5 38t-28 23.5t-40.5 12t-48 3.5h-16v51h17q22 0 42.5 3t36 10.5t24.5 20.5t9 33q0 29 -18.5 47.5t-50.5 18.5q-28 0 -49.5 -14
t-38.5 -39l-53 26q28 39 62 59t82 20q60 0 98 -31.5t38 -82.5q0 -33 -18 -56.5t-49 -36.5q38 -11 59.5 -38.5t21.5 -65.5z" />
    <glyph glyph-name="acute" unicode="&#xb4;" horiz-adv-x="185" 
d="M82 571h-62l50 132h95z" />
    <glyph glyph-name="uni00B5" unicode="&#xb5;" 
d="M370 0l-5 82q-37 -45 -78 -68.5t-86 -23.5q-20 0 -40 5v-174h-83v679h83v-332q0 -18 2 -37.5t9.5 -35.5t22 -26t38.5 -10q32 0 65.5 21t65.5 57v363h83v-500h-77z" />
    <glyph glyph-name="paragraph" unicode="&#xb6;" horiz-adv-x="668" 
d="M490 -100v735h-100v-735h-80v388h-29q-48 0 -90.5 11t-74 35.5t-50 64t-18.5 96.5q0 59 19 99t51.5 64t76 34.5t93.5 10.5h282v-803h-80zM310 635h-28q-66 0 -106.5 -31.5t-40.5 -107.5q0 -39 11 -65t31 -42t48 -23t63 -7h22v276z" />
    <glyph glyph-name="periodcentered" unicode="&#xb7;" horiz-adv-x="270" 
d="M192 300q0 -25 -16 -40.5t-41 -15.5t-41 15.5t-16 40.5t16 40.5t41 15.5t41 -15.5t16 -40.5z" />
    <glyph glyph-name="cedilla" unicode="&#xb8;" horiz-adv-x="189" 
d="M169 -114q0 -31 -23.5 -50.5t-61.5 -19.5q-31 0 -64 16l12 37q29 -10 44 -10q16 0 24.5 8t8.5 19q0 13 -8 20.5t-21 7.5q-6 0 -15 -1t-19 -3l29 106h40l-20 -68h10q30 0 47 -18t17 -44z" />
    <glyph glyph-name="onesuperior" unicode="&#xb9;" horiz-adv-x="346" 
d="M52 286v52h71v284h-76v45q34 0 59.5 8.5t36.5 34.5h47v-372h66v-52h-204z" />
    <glyph glyph-name="ordmasculine" unicode="&#xba;" horiz-adv-x="424" 
d="M376 516q0 -97 -41.5 -155t-122.5 -58q-80 0 -122 56t-42 149q0 46 11 85t32 66.5t51.5 43t69.5 15.5t69.5 -14.5t51.5 -41.5t32 -64t11 -82zM301 519q0 23 -4 47.5t-14 45t-27 33.5t-44 13q-45 0 -67 -41t-22 -107q0 -64 21.5 -105.5t67.5 -41.5q29 0 46.5 15t27 38
t12.5 50.5t3 52.5z" />
    <glyph glyph-name="guillemotright" unicode="&#xbb;" horiz-adv-x="453" 
d="M288 68h-58l78 195l-78 195h58l105 -195zM118 68h-58l78 195l-78 195h58l105 -195z" />
    <glyph glyph-name="onequarter" unicode="&#xbc;" horiz-adv-x="935" 
d="M702 101v-101h-65v101h-206v42l186 280h85v-270h69v-52h-69zM202 -13h-64l456 730h65zM52 286v52h71v284h-76v45q34 0 59.5 8.5t36.5 34.5h47v-372h66v-52h-204zM637 355l-133 -202h133v202z" />
    <glyph glyph-name="onehalf" unicode="&#xbd;" horiz-adv-x="946" 
d="M495 0v36q5 24 21 48t36.5 46.5t42 41.5t38.5 33q13 10 27 21.5t26 24t19.5 27t7.5 32.5q0 27 -18.5 47t-48.5 20q-36 0 -55 -22.5t-28 -60.5l-65 11q12 57 48 91t101 34q30 0 55 -9.5t43 -25.5t28 -38.5t10 -47.5t-10.5 -46t-27 -39t-37 -34.5t-39.5 -31.5
q-31 -25 -56.5 -49t-39.5 -56h220v-53h-298zM202 -12h-64l455 729h66zM52 286v52h71v284h-76v45q34 0 59.5 8.5t36.5 34.5h47v-372h66v-52h-204z" />
    <glyph glyph-name="threequarters" unicode="&#xbe;" horiz-adv-x="985" 
d="M754 101v-101h-65v101h-206v42l187 280h84v-270h69v-52h-69zM254 -13h-63l456 730h65zM348 406q0 -29 -12 -53t-33 -40.5t-50 -25.5t-63 -9q-56 0 -93 22t-60 70l61 24q17 -33 40 -48t55 -15q38 0 61.5 20t23.5 53q0 23 -10.5 38t-28 23.5t-40.5 12t-48 3.5h-16v51h17
q22 0 42.5 3t36 10.5t24.5 20.5t9 33q0 29 -18.5 47.5t-50.5 18.5q-28 0 -49.5 -14t-38.5 -39l-53 26q28 39 62 59t82 20q60 0 98 -31.5t38 -82.5q0 -33 -18 -56.5t-49 -36.5q38 -11 59.5 -38.5t21.5 -65.5zM689 355l-132 -202h132v202z" />
    <glyph glyph-name="questiondown" unicode="&#xbf;" horiz-adv-x="426" 
d="M279 479q0 -25 -16 -40.5t-41 -15.5t-41 15.5t-16 40.5t16 40.5t41 15.5t41 -15.5t16 -40.5zM376 -85q-20 -53 -67 -80.5t-102 -27.5q-70 0 -113.5 40.5t-43.5 112.5q0 42 10 70.5t25 50.5t32 41t32 42t25 53.5t10 75.5v18h77v-19q0 -48 -9.5 -82t-23.5 -60t-30.5 -46.5
t-30.5 -40.5t-23.5 -43.5t-9.5 -54.5q0 -36 20.5 -63t60.5 -27q34 0 58.5 22.5t34.5 53.5z" />
    <glyph glyph-name="Agrave" unicode="&#xc0;" horiz-adv-x="558" 
d="M245 738l-83 102h95l50 -102h-62zM444 0l-54 207h-225l-55 -207h-90l200 703h119l199 -703h-94zM278 632l-95 -357h189z" />
    <glyph glyph-name="Aacute" unicode="&#xc1;" horiz-adv-x="558" 
d="M313 738h-62l50 102h95zM444 0l-54 207h-225l-55 -207h-90l200 703h119l199 -703h-94zM278 632l-95 -357h189z" />
    <glyph glyph-name="Acircumflex" unicode="&#xc2;" horiz-adv-x="558" 
d="M337 738l-58 63l-58 -63h-78l95 102h84l93 -102h-78zM444 0l-54 207h-225l-55 -207h-90l200 703h119l199 -703h-94zM278 632l-95 -357h189z" />
    <glyph glyph-name="Atilde" unicode="&#xc3;" horiz-adv-x="558" 
d="M420 830q-4 -39 -21.5 -65.5t-55.5 -26.5q-17 0 -33.5 4.5t-31.5 10t-28.5 10t-25.5 4.5q-14 0 -23 -5t-13 -24h-49q3 47 24.5 69.5t56.5 22.5q16 0 31.5 -4.5t30.5 -10t29 -10t28 -4.5q15 0 22 5.5t12 23.5h47zM444 0l-54 207h-225l-55 -207h-90l200 703h119l199 -703
h-94zM278 632l-95 -357h189z" />
    <glyph glyph-name="Adieresis" unicode="&#xc4;" horiz-adv-x="558" 
d="M406 782q0 -22 -14 -35t-35 -13t-35 13t-14 35t14 35t35 13t35 -13t14 -35zM250 782q0 -22 -14 -35t-35 -13t-35 13t-14 35t14 35t35 13t35 -13t14 -35zM444 0l-54 207h-225l-55 -207h-90l200 703h119l199 -703h-94zM278 632l-95 -357h189z" />
    <glyph glyph-name="Aring" unicode="&#xc5;" horiz-adv-x="558" 
d="M444 0l-54 207h-225l-55 -207h-90l193 677q-29 26 -29 66q0 39 27.5 64.5t67.5 25.5t67.5 -25.5t27.5 -64.5q0 -20 -7.5 -36.5t-20.5 -28.5l192 -678h-94zM329 743q0 20 -13 35t-37 15t-37 -15t-13 -35t13 -35t37 -15t37 15t13 35zM278 632l-95 -357h189z" />
    <glyph glyph-name="AE" unicode="&#xc6;" horiz-adv-x="863" 
d="M421 0v207h-202l-99 -207h-100l346 703h439v-71h-293v-226h225v-71h-225v-264h303v-71h-394zM421 632l-170 -357h170v357z" />
    <glyph glyph-name="Ccedilla" unicode="&#xc7;" horiz-adv-x="604" 
d="M566 207q-10 -47 -28.5 -86t-46.5 -68t-66.5 -46t-87.5 -19l-12 -40h10q30 0 47 -18t17 -44q0 -31 -23.5 -50.5t-61.5 -19.5q-31 0 -64 16l12 37q29 -10 44 -10q16 0 24.5 8t8.5 19q0 13 -8 20.5t-21 7.5q-6 0 -15 -1t-19 -3l22 79q-69 6 -115 39.5t-74 84t-39.5 112
t-11.5 123.5q0 64 13 130t43.5 119t81.5 86.5t128 33.5q52 0 90.5 -15.5t66.5 -43.5t46.5 -67.5t29.5 -86.5l-88 -17q-6 31 -16 60t-26.5 52t-41.5 37t-61 14q-51 0 -84 -27.5t-52.5 -71.5t-27 -98t-7.5 -107q0 -50 7.5 -101.5t27 -93.5t52.5 -68.5t84 -26.5q36 0 62.5 15
t44.5 39t29.5 54t17.5 61z" />
    <glyph glyph-name="Egrave" unicode="&#xc8;" horiz-adv-x="530" 
d="M263 738l-83 102h95l50 -102h-62zM88 0v703h384v-71h-293v-226h225v-71h-225v-264h303v-71h-394z" />
    <glyph glyph-name="Eacute" unicode="&#xc9;" horiz-adv-x="530" 
d="M295 738h-62l50 102h95zM88 0v703h384v-71h-293v-226h225v-71h-225v-264h303v-71h-394z" />
    <glyph glyph-name="Ecircumflex" unicode="&#xca;" horiz-adv-x="530" 
d="M343 738l-58 63l-58 -63h-78l95 102h84l93 -102h-78zM88 0v703h384v-71h-293v-226h225v-71h-225v-264h303v-71h-394z" />
    <glyph glyph-name="Edieresis" unicode="&#xcb;" horiz-adv-x="530" 
d="M412 782q0 -22 -14 -35t-35 -13t-35 13t-14 35t14 35t35 13t35 -13t14 -35zM256 782q0 -22 -14 -35t-35 -13t-35 13t-14 35t14 35t35 13t35 -13t14 -35zM88 0v703h384v-71h-293v-226h225v-71h-225v-264h303v-71h-394z" />
    <glyph glyph-name="Igrave" unicode="&#xcc;" horiz-adv-x="267" 
d="M99 738l-83 102h95l50 -102h-62zM88 0v703h91v-703h-91z" />
    <glyph glyph-name="Iacute" unicode="&#xcd;" horiz-adv-x="267" 
d="M165 738h-62l50 102h95zM88 0v703h91v-703h-91z" />
    <glyph glyph-name="Icircumflex" unicode="&#xce;" horiz-adv-x="267" 
d="M192 738l-58 63l-58 -63h-78l95 102h84l93 -102h-78zM88 0v703h91v-703h-91z" />
    <glyph glyph-name="Idieresis" unicode="&#xcf;" horiz-adv-x="267" 
d="M261 782q0 -22 -14 -35t-35 -13t-35 13t-14 35t14 35t35 13t35 -13t14 -35zM105 782q0 -22 -14 -35t-35 -13t-35 13t-14 35t14 35t35 13t35 -13t14 -35zM88 0v703h91v-703h-91z" />
    <glyph glyph-name="Eth" unicode="&#xd0;" horiz-adv-x="632" 
d="M574 355q0 -174 -81 -264.5t-253 -90.5h-152v335h-70v71h70v297h152q175 0 254.5 -88t79.5 -260zM479 355q0 61 -10 112t-36 88t-70.5 58t-113.5 21h-70v-228h195v-71h-195v-266h54q71 0 118 19t75.5 55.5t40.5 89.5t12 122z" />
    <glyph glyph-name="Ntilde" unicode="&#xd1;" horiz-adv-x="653" 
d="M467 830q-4 -39 -21.5 -65.5t-55.5 -26.5q-17 0 -33.5 4.5t-31.5 10t-28.5 10t-25.5 4.5q-14 0 -23 -5t-13 -24h-49q3 47 24.5 69.5t56.5 22.5q16 0 31.5 -4.5t30.5 -10t29 -10t28 -4.5q15 0 22 5.5t12 23.5h47zM472 0l-297 601v-601h-87v703h122l269 -544v544h86v-703
h-93z" />
    <glyph glyph-name="Ograve" unicode="&#xd2;" horiz-adv-x="649" 
d="M295 738l-83 102h95l50 -102h-62zM591 357q0 -66 -13 -132t-44 -118.5t-83 -85.5t-131 -33q-65 0 -114 26t-82 73t-49.5 114t-16.5 150q0 81 16.5 148.5t50 115.5t83.5 75t116 27t116 -26t83.5 -73t50.5 -113.5t17 -147.5zM496 361q0 42 -6 92t-24 94t-52 73.5t-89 29.5
q-38 0 -65.5 -14.5t-46.5 -38.5t-30.5 -55.5t-18 -64.5t-9 -66t-2.5 -61q0 -41 6 -92.5t24 -96.5t51.5 -75.5t89.5 -30.5q45 0 77.5 24.5t53.5 66.5t31 97.5t10 117.5z" />
    <glyph glyph-name="Oacute" unicode="&#xd3;" horiz-adv-x="649" 
d="M352 738h-62l50 102h95zM591 357q0 -66 -13 -132t-44 -118.5t-83 -85.5t-131 -33q-65 0 -114 26t-82 73t-49.5 114t-16.5 150q0 81 16.5 148.5t50 115.5t83.5 75t116 27t116 -26t83.5 -73t50.5 -113.5t17 -147.5zM496 361q0 42 -6 92t-24 94t-52 73.5t-89 29.5
q-38 0 -65.5 -14.5t-46.5 -38.5t-30.5 -55.5t-18 -64.5t-9 -66t-2.5 -61q0 -41 6 -92.5t24 -96.5t51.5 -75.5t89.5 -30.5q45 0 77.5 24.5t53.5 66.5t31 97.5t10 117.5z" />
    <glyph glyph-name="Ocircumflex" unicode="&#xd4;" horiz-adv-x="649" 
d="M383 738l-58 63l-58 -63h-78l95 102h84l93 -102h-78zM591 357q0 -66 -13 -132t-44 -118.5t-83 -85.5t-131 -33q-65 0 -114 26t-82 73t-49.5 114t-16.5 150q0 81 16.5 148.5t50 115.5t83.5 75t116 27t116 -26t83.5 -73t50.5 -113.5t17 -147.5zM496 361q0 42 -6 92t-24 94
t-52 73.5t-89 29.5q-38 0 -65.5 -14.5t-46.5 -38.5t-30.5 -55.5t-18 -64.5t-9 -66t-2.5 -61q0 -41 6 -92.5t24 -96.5t51.5 -75.5t89.5 -30.5q45 0 77.5 24.5t53.5 66.5t31 97.5t10 117.5z" />
    <glyph glyph-name="Otilde" unicode="&#xd5;" horiz-adv-x="649" 
d="M465 830q-4 -39 -21.5 -65.5t-55.5 -26.5q-17 0 -33.5 4.5t-31.5 10t-28.5 10t-25.5 4.5q-14 0 -23 -5t-13 -24h-49q3 47 24.5 69.5t56.5 22.5q16 0 31.5 -4.5t30.5 -10t29 -10t28 -4.5q15 0 22 5.5t12 23.5h47zM591 357q0 -66 -13 -132t-44 -118.5t-83 -85.5t-131 -33
q-65 0 -114 26t-82 73t-49.5 114t-16.5 150q0 81 16.5 148.5t50 115.5t83.5 75t116 27t116 -26t83.5 -73t50.5 -113.5t17 -147.5zM496 361q0 42 -6 92t-24 94t-52 73.5t-89 29.5q-38 0 -65.5 -14.5t-46.5 -38.5t-30.5 -55.5t-18 -64.5t-9 -66t-2.5 -61q0 -41 6 -92.5
t24 -96.5t51.5 -75.5t89.5 -30.5q45 0 77.5 24.5t53.5 66.5t31 97.5t10 117.5z" />
    <glyph glyph-name="Odieresis" unicode="&#xd6;" horiz-adv-x="649" 
d="M452 782q0 -22 -14 -35t-35 -13t-35 13t-14 35t14 35t35 13t35 -13t14 -35zM296 782q0 -22 -14 -35t-35 -13t-35 13t-14 35t14 35t35 13t35 -13t14 -35zM591 357q0 -66 -13 -132t-44 -118.5t-83 -85.5t-131 -33q-65 0 -114 26t-82 73t-49.5 114t-16.5 150
q0 81 16.5 148.5t50 115.5t83.5 75t116 27t116 -26t83.5 -73t50.5 -113.5t17 -147.5zM496 361q0 42 -6 92t-24 94t-52 73.5t-89 29.5q-38 0 -65.5 -14.5t-46.5 -38.5t-30.5 -55.5t-18 -64.5t-9 -66t-2.5 -61q0 -41 6 -92.5t24 -96.5t51.5 -75.5t89.5 -30.5q45 0 77.5 24.5
t53.5 66.5t31 97.5t10 117.5z" />
    <glyph glyph-name="multiply" unicode="&#xd7;" horiz-adv-x="562" 
d="M427 127l-146 146l-147 -146l-54 54l146 147l-146 146l54 54l147 -146l146 146l54 -54l-146 -146l146 -147z" />
    <glyph glyph-name="Oslash" unicode="&#xd8;" horiz-adv-x="649" 
d="M533 605q29 -47 43.5 -109.5t14.5 -138.5q0 -66 -13 -132t-44 -118.5t-83 -85.5t-131 -33q-100 0 -165 63l-68 -99l-50 34l78 115q-29 47 -43 110t-14 140q0 81 16.5 148.5t50 115.5t83.5 75t116 27q103 0 169 -63l69 100l50 -33zM446 585q-20 29 -49 47t-72 18
q-38 0 -65.5 -14.5t-46.5 -38.5t-30.5 -55.5t-18 -64.5t-9 -66t-2.5 -61q0 -36 4 -79t17 -85zM496 361q0 35 -4.5 77.5t-16.5 82.5l-272 -399q20 -30 49 -48.5t72 -18.5q45 0 77.5 24.5t53.5 66.5t31 97.5t10 117.5z" />
    <glyph glyph-name="Ugrave" unicode="&#xd9;" horiz-adv-x="640" 
d="M292 738l-83 102h95l50 -102h-62zM552 262q0 -61 -9.5 -111.5t-35.5 -86.5t-71.5 -56t-117.5 -20t-117 20t-70 56t-34 86.5t-9 111.5v441h91v-461q0 -36 5 -69.5t20 -59.5t43 -41.5t73 -15.5t72.5 15.5t43 41.5t20.5 59.5t5 69.5v461h91v-441z" />
    <glyph glyph-name="Uacute" unicode="&#xda;" horiz-adv-x="640" 
d="M344 738h-62l50 102h95zM552 262q0 -61 -9.5 -111.5t-35.5 -86.5t-71.5 -56t-117.5 -20t-117 20t-70 56t-34 86.5t-9 111.5v441h91v-461q0 -36 5 -69.5t20 -59.5t43 -41.5t73 -15.5t72.5 15.5t43 41.5t20.5 59.5t5 69.5v461h91v-441z" />
    <glyph glyph-name="Ucircumflex" unicode="&#xdb;" horiz-adv-x="640" 
d="M378 738l-58 63l-58 -63h-78l95 102h84l93 -102h-78zM552 262q0 -61 -9.5 -111.5t-35.5 -86.5t-71.5 -56t-117.5 -20t-117 20t-70 56t-34 86.5t-9 111.5v441h91v-461q0 -36 5 -69.5t20 -59.5t43 -41.5t73 -15.5t72.5 15.5t43 41.5t20.5 59.5t5 69.5v461h91v-441z" />
    <glyph glyph-name="Udieresis" unicode="&#xdc;" horiz-adv-x="640" 
d="M447 782q0 -22 -14 -35t-35 -13t-35 13t-14 35t14 35t35 13t35 -13t14 -35zM291 782q0 -22 -14 -35t-35 -13t-35 13t-14 35t14 35t35 13t35 -13t14 -35zM552 262q0 -61 -9.5 -111.5t-35.5 -86.5t-71.5 -56t-117.5 -20t-117 20t-70 56t-34 86.5t-9 111.5v441h91v-461
q0 -36 5 -69.5t20 -59.5t43 -41.5t73 -15.5t72.5 15.5t43 41.5t20.5 59.5t5 69.5v461h91v-441z" />
    <glyph glyph-name="Yacute" unicode="&#xdd;" horiz-adv-x="523" 
d="M295 738h-62l50 102h95zM306 286v-286h-91v286l-205 417h99l154 -344l155 344h95z" />
    <glyph glyph-name="Thorn" unicode="&#xde;" horiz-adv-x="548" 
d="M500 370q0 -57 -20 -95t-53.5 -60.5t-77.5 -32t-92 -9.5h-78v-173h-91v703h91v-135h71q50 0 95 -9t79.5 -31.5t55 -60.5t20.5 -97zM407 371q0 38 -12 63t-33.5 39.5t-50 20.5t-61.5 6h-71v-256h65q34 0 64 5.5t52 19.5t34.5 38.5t12.5 63.5z" />
    <glyph glyph-name="germandbls" unicode="&#xdf;" horiz-adv-x="529" 
d="M491 141q0 -41 -13 -70t-35.5 -48t-53.5 -27.5t-67 -8.5q-28 0 -45.5 3t-39.5 8l8 63q23 -5 37.5 -7.5t35.5 -2.5q45 0 67.5 22.5t22.5 64.5q0 27 -8.5 45.5t-24.5 32.5l-49 44q-23 20 -40 43.5t-17 58.5q0 30 13 53t28.5 46t28.5 48.5t13 60.5q0 33 -23 58.5t-65 25.5
q-49 0 -76 -34t-27 -88v-532h-83v532q0 39 11.5 73t35 58.5t58 39t81.5 14.5q39 0 70 -11t52.5 -30.5t32.5 -46t11 -57.5q0 -41 -13 -71.5t-28.5 -54t-28.5 -41t-13 -31.5q0 -17 11.5 -30.5t28.5 -28.5l40 -36q13 -12 24.5 -25t20.5 -29.5t14 -37t5 -46.5z" />
    <glyph glyph-name="agrave" unicode="&#xe0;" horiz-adv-x="499" 
d="M216 571l-83 132h95l50 -132h-62zM351 0q-2 14 -4.5 33t-4.5 33q-33 -33 -68 -54.5t-84 -21.5q-31 0 -57.5 9t-46 26.5t-30.5 43t-11 57.5q0 55 30.5 90t75 56.5t95.5 33t92 19.5v14q0 50 -20 78t-73 28q-38 0 -66.5 -17t-42.5 -52l-74 22q10 29 28.5 50t43 34.5t53.5 20
t60 6.5q90 0 132 -44.5t42 -132.5v-212q0 -19 1.5 -39.5t3.5 -38.5q2 -21 5 -42h-80zM338 268q-27 -7 -63.5 -15.5t-69 -23.5t-55.5 -38.5t-23 -60.5q0 -34 23.5 -56.5t57.5 -22.5q19 0 37.5 6.5t35 17t31 24t26.5 26.5v143z" />
    <glyph glyph-name="aacute" unicode="&#xe1;" horiz-adv-x="499" 
d="M282 571h-62l50 132h95zM351 0q-2 14 -4.5 33t-4.5 33q-33 -33 -68 -54.5t-84 -21.5q-31 0 -57.5 9t-46 26.5t-30.5 43t-11 57.5q0 55 30.5 90t75 56.5t95.5 33t92 19.5v14q0 50 -20 78t-73 28q-38 0 -66.5 -17t-42.5 -52l-74 22q10 29 28.5 50t43 34.5t53.5 20t60 6.5
q90 0 132 -44.5t42 -132.5v-212q0 -19 1.5 -39.5t3.5 -38.5q2 -21 5 -42h-80zM338 268q-27 -7 -63.5 -15.5t-69 -23.5t-55.5 -38.5t-23 -60.5q0 -34 23.5 -56.5t57.5 -22.5q19 0 37.5 6.5t35 17t31 24t26.5 26.5v143z" />
    <glyph glyph-name="acircumflex" unicode="&#xe2;" horiz-adv-x="499" 
d="M308 571l-58 83l-58 -83h-78l95 132h84l93 -132h-78zM351 0q-2 14 -4.5 33t-4.5 33q-33 -33 -68 -54.5t-84 -21.5q-31 0 -57.5 9t-46 26.5t-30.5 43t-11 57.5q0 55 30.5 90t75 56.5t95.5 33t92 19.5v14q0 50 -20 78t-73 28q-38 0 -66.5 -17t-42.5 -52l-74 22
q10 29 28.5 50t43 34.5t53.5 20t60 6.5q90 0 132 -44.5t42 -132.5v-212q0 -19 1.5 -39.5t3.5 -38.5q2 -21 5 -42h-80zM338 268q-27 -7 -63.5 -15.5t-69 -23.5t-55.5 -38.5t-23 -60.5q0 -34 23.5 -56.5t57.5 -22.5q19 0 37.5 6.5t35 17t31 24t26.5 26.5v143z" />
    <glyph glyph-name="atilde" unicode="&#xe3;" horiz-adv-x="499" 
d="M390 693q-2 -20 -7 -37.5t-14 -31.5t-23 -22t-33 -8q-17 0 -33.5 5.5t-31.5 12.5t-28.5 12.5t-25.5 5.5q-28 0 -36 -38h-49q3 47 24.5 74t56.5 27q16 0 31.5 -5.5t30.5 -12.5t29 -12.5t28 -5.5q15 0 22 9t12 27h47zM351 0q-2 14 -4.5 33t-4.5 33q-33 -33 -68 -54.5
t-84 -21.5q-31 0 -57.5 9t-46 26.5t-30.5 43t-11 57.5q0 55 30.5 90t75 56.5t95.5 33t92 19.5v14q0 50 -20 78t-73 28q-38 0 -66.5 -17t-42.5 -52l-74 22q10 29 28.5 50t43 34.5t53.5 20t60 6.5q90 0 132 -44.5t42 -132.5v-212q0 -19 1.5 -39.5t3.5 -38.5q2 -21 5 -42h-80z
M338 268q-27 -7 -63.5 -15.5t-69 -23.5t-55.5 -38.5t-23 -60.5q0 -34 23.5 -56.5t57.5 -22.5q19 0 37.5 6.5t35 17t31 24t26.5 26.5v143z" />
    <glyph glyph-name="adieresis" unicode="&#xe4;" horiz-adv-x="499" 
d="M374 641q0 -22 -14 -35t-35 -13t-35 13t-14 35t14 35t35 13t35 -13t14 -35zM218 641q0 -22 -14 -35t-35 -13t-35 13t-14 35t14 35t35 13t35 -13t14 -35zM351 0q-2 14 -4.5 33t-4.5 33q-33 -33 -68 -54.5t-84 -21.5q-31 0 -57.5 9t-46 26.5t-30.5 43t-11 57.5
q0 55 30.5 90t75 56.5t95.5 33t92 19.5v14q0 50 -20 78t-73 28q-38 0 -66.5 -17t-42.5 -52l-74 22q10 29 28.5 50t43 34.5t53.5 20t60 6.5q90 0 132 -44.5t42 -132.5v-212q0 -19 1.5 -39.5t3.5 -38.5q2 -21 5 -42h-80zM338 268q-27 -7 -63.5 -15.5t-69 -23.5t-55.5 -38.5
t-23 -60.5q0 -34 23.5 -56.5t57.5 -22.5q19 0 37.5 6.5t35 17t31 24t26.5 26.5v143z" />
    <glyph glyph-name="aring" unicode="&#xe5;" horiz-adv-x="499" 
d="M345 641q0 -39 -27.5 -64.5t-67.5 -25.5t-67.5 25.5t-27.5 64.5t27.5 64.5t67.5 25.5t67.5 -25.5t27.5 -64.5zM351 0q-2 14 -4.5 33t-4.5 33q-33 -33 -68 -54.5t-84 -21.5q-31 0 -57.5 9t-46 26.5t-30.5 43t-11 57.5q0 55 30.5 90t75 56.5t95.5 33t92 19.5v14
q0 50 -20 78t-73 28q-38 0 -66.5 -17t-42.5 -52l-74 22q10 29 28.5 50t43 34.5t53.5 20t60 6.5q90 0 132 -44.5t42 -132.5v-212q0 -19 1.5 -39.5t3.5 -38.5q2 -21 5 -42h-80zM300 641q0 20 -13 35t-37 15t-37 -15t-13 -35t13 -35t37 -15t37 15t13 35zM338 268
q-27 -7 -63.5 -15.5t-69 -23.5t-55.5 -38.5t-23 -60.5q0 -34 23.5 -56.5t57.5 -22.5q19 0 37.5 6.5t35 17t31 24t26.5 26.5v143z" />
    <glyph glyph-name="ae" unicode="&#xe6;" horiz-adv-x="772" 
d="M727 122q-10 -31 -28 -55.5t-42.5 -41.5t-54 -26t-60.5 -9q-120 0 -172 99q-39 -50 -86 -74.5t-94 -24.5q-31 0 -57.5 9t-46 26.5t-30.5 43t-11 57.5q0 36 14 62.5t37 44.5t53 29.5t62.5 18.5t65.5 11t61 7v40q0 50 -20 78t-73 28q-38 0 -66.5 -17t-42.5 -52l-74 22
q10 29 28.5 50t43 34.5t53.5 20t60 6.5q58 0 93 -18.5t52 -55.5q23 35 58 54.5t84 19.5q54 0 90 -22t58.5 -58t32 -81t9.5 -90v-18h-303v-9q0 -37 8 -70t24 -57.5t38.5 -38.5t51.5 -14q39 0 66 22.5t50 67.5zM643 297q-3 66 -29 109t-79 43q-25 0 -45 -11.5t-34.5 -32
t-23 -48.5t-10.5 -60h221zM351 138q-6 23 -10 48.5t-4 54.5q-29 -4 -65 -8t-68.5 -15t-54.5 -31.5t-22 -56.5q0 -34 23.5 -56.5t57.5 -22.5q38 0 74.5 26t68.5 61z" />
    <glyph glyph-name="ccedilla" unicode="&#xe7;" horiz-adv-x="462" 
d="M434 132q-18 -63 -60.5 -99.5t-106.5 -41.5l-13 -43h10q30 0 47 -18t17 -44q0 -31 -23.5 -50.5t-61.5 -19.5q-31 0 -64 16l12 37q29 -10 44 -10q16 0 24.5 8t8.5 19q0 13 -8 20.5t-21 7.5q-6 0 -15 -1t-19 -3l22 81q-47 4 -81 26t-56 56.5t-32 79t-10 93.5q0 47 12 94
t37.5 84.5t64 61t92.5 23.5q69 0 112 -38.5t61 -104.5l-73 -15q-9 38 -33.5 66t-66.5 28q-36 0 -59.5 -20.5t-37 -51t-18.5 -65t-5 -62.5t5 -61.5t18 -63t36 -49t59 -19.5q24 0 41 8t30 21.5t22.5 31t17.5 37.5z" />
    <glyph glyph-name="egrave" unicode="&#xe8;" horiz-adv-x="483" 
d="M214 571l-83 132h95l50 -132h-62zM438 122q-10 -31 -28 -55.5t-42.5 -41.5t-54 -26t-60.5 -9q-98 0 -151.5 66.5t-53.5 191.5q0 58 13 106t38 82.5t61.5 53.5t84.5 19q54 0 90 -22t58.5 -58t32 -81t9.5 -90v-18h-303v-9q0 -37 8 -70t24 -57.5t38.5 -38.5t51.5 -14
q39 0 66 22.5t50 67.5zM354 297q-3 66 -29 109t-79 43q-25 0 -45 -11.5t-34.5 -32t-23 -48.5t-10.5 -60h221z" />
    <glyph glyph-name="eacute" unicode="&#xe9;" horiz-adv-x="483" 
d="M277 571h-62l50 132h95zM438 122q-10 -31 -28 -55.5t-42.5 -41.5t-54 -26t-60.5 -9q-98 0 -151.5 66.5t-53.5 191.5q0 58 13 106t38 82.5t61.5 53.5t84.5 19q54 0 90 -22t58.5 -58t32 -81t9.5 -90v-18h-303v-9q0 -37 8 -70t24 -57.5t38.5 -38.5t51.5 -14q39 0 66 22.5
t50 67.5zM354 297q-3 66 -29 109t-79 43q-25 0 -45 -11.5t-34.5 -32t-23 -48.5t-10.5 -60h221z" />
    <glyph glyph-name="ecircumflex" unicode="&#xea;" horiz-adv-x="483" 
d="M300 571l-58 83l-58 -83h-78l95 132h84l93 -132h-78zM438 122q-10 -31 -28 -55.5t-42.5 -41.5t-54 -26t-60.5 -9q-98 0 -151.5 66.5t-53.5 191.5q0 58 13 106t38 82.5t61.5 53.5t84.5 19q54 0 90 -22t58.5 -58t32 -81t9.5 -90v-18h-303v-9q0 -37 8 -70t24 -57.5
t38.5 -38.5t51.5 -14q39 0 66 22.5t50 67.5zM354 297q-3 66 -29 109t-79 43q-25 0 -45 -11.5t-34.5 -32t-23 -48.5t-10.5 -60h221z" />
    <glyph glyph-name="edieresis" unicode="&#xeb;" horiz-adv-x="483" 
d="M369 641q0 -22 -14 -35t-35 -13t-35 13t-14 35t14 35t35 13t35 -13t14 -35zM213 641q0 -22 -14 -35t-35 -13t-35 13t-14 35t14 35t35 13t35 -13t14 -35zM438 122q-10 -31 -28 -55.5t-42.5 -41.5t-54 -26t-60.5 -9q-98 0 -151.5 66.5t-53.5 191.5q0 58 13 106t38 82.5
t61.5 53.5t84.5 19q54 0 90 -22t58.5 -58t32 -81t9.5 -90v-18h-303v-9q0 -37 8 -70t24 -57.5t38.5 -38.5t51.5 -14q39 0 66 22.5t50 67.5zM354 297q-3 66 -29 109t-79 43q-25 0 -45 -11.5t-34.5 -32t-23 -48.5t-10.5 -60h221z" />
    <glyph glyph-name="igrave" unicode="&#xec;" horiz-adv-x="239" 
d="M86 571l-83 132h95l50 -132h-62zM78 0v500h83v-500h-83z" />
    <glyph glyph-name="iacute" unicode="&#xed;" horiz-adv-x="239" 
d="M154 571h-62l50 132h95zM78 0v500h83v-500h-83z" />
    <glyph glyph-name="icircumflex" unicode="&#xee;" horiz-adv-x="239" 
d="M178 571l-58 83l-58 -83h-78l95 132h84l93 -132h-78zM78 0v500h83v-500h-83z" />
    <glyph glyph-name="idieresis" unicode="&#xef;" horiz-adv-x="239" 
d="M247 641q0 -22 -14 -35t-35 -13t-35 13t-14 35t14 35t35 13t35 -13t14 -35zM91 641q0 -22 -14 -35t-35 -13t-35 13t-14 35t14 35t35 13t35 -13t14 -35zM78 0v500h83v-500h-83z" />
    <glyph glyph-name="eth" unicode="&#xf0;" horiz-adv-x="504" 
d="M456 261q0 -62 -13 -112.5t-39.5 -86.5t-65 -55.5t-89.5 -19.5q-95 0 -148 68t-53 189q0 55 13 101t38 79t61 51t82 18q39 0 72.5 -21t56.5 -57q-7 35 -24 79t-61 92l-128 -56l-28 43l118 49q-20 16 -40.5 31.5t-46.5 29.5l74 22q43 -24 77 -56l102 44l25 -44l-89 -39
q34 -41 54.5 -87t32 -92t15.5 -90t4 -80zM372 256q0 31 -5.5 63t-19.5 57.5t-37 41.5t-59 16q-57 0 -88 -46.5t-31 -142.5q0 -94 31.5 -145t88.5 -51q39 0 63 19.5t36.5 50t16.5 67t4 70.5z" />
    <glyph glyph-name="ntilde" unicode="&#xf1;" 
d="M403 693q-2 -20 -7 -37.5t-14 -31.5t-23 -22t-33 -8q-17 0 -33.5 5.5t-31.5 12.5t-28.5 12.5t-25.5 5.5q-28 0 -36 -38h-49q3 47 24.5 74t56.5 27q16 0 31.5 -5.5t30.5 -12.5t29 -12.5t28 -5.5q15 0 22 9t12 27h47zM364 0v339q0 18 -3 36.5t-11 32.5t-22.5 23t-37.5 9
q-31 0 -64.5 -21t-64.5 -57v-362h-83v500h83v-81q32 36 72 63t91 27q40 0 64 -14.5t37 -38.5t17.5 -54.5t4.5 -61.5v-340h-83z" />
    <glyph glyph-name="ograve" unicode="&#xf2;" horiz-adv-x="506" 
d="M223 571l-83 132h95l50 -132h-62zM458 257q0 -61 -13.5 -110.5t-39.5 -84t-64 -53.5t-88 -19q-100 0 -152.5 69t-52.5 187q0 59 13.5 107.5t40 83t64.5 53.5t87 19q48 0 86 -18t64.5 -51t40.5 -79.5t14 -103.5zM373 260q0 29 -5 61.5t-18.5 60t-37 45.5t-60.5 18
q-31 0 -53.5 -15t-37.5 -41.5t-22 -62t-7 -77.5q0 -41 7 -76.5t21.5 -62t37.5 -41.5t55 -15q40 0 64 20.5t36.5 51t16 66.5t3.5 68z" />
    <glyph glyph-name="oacute" unicode="&#xf3;" horiz-adv-x="506" 
d="M285 571h-62l50 132h95zM458 257q0 -61 -13.5 -110.5t-39.5 -84t-64 -53.5t-88 -19q-100 0 -152.5 69t-52.5 187q0 59 13.5 107.5t40 83t64.5 53.5t87 19q48 0 86 -18t64.5 -51t40.5 -79.5t14 -103.5zM373 260q0 29 -5 61.5t-18.5 60t-37 45.5t-60.5 18q-31 0 -53.5 -15
t-37.5 -41.5t-22 -62t-7 -77.5q0 -41 7 -76.5t21.5 -62t37.5 -41.5t55 -15q40 0 64 20.5t36.5 51t16 66.5t3.5 68z" />
    <glyph glyph-name="ocircumflex" unicode="&#xf4;" horiz-adv-x="506" 
d="M311 571l-58 83l-58 -83h-78l95 132h84l93 -132h-78zM458 257q0 -61 -13.5 -110.5t-39.5 -84t-64 -53.5t-88 -19q-100 0 -152.5 69t-52.5 187q0 59 13.5 107.5t40 83t64.5 53.5t87 19q48 0 86 -18t64.5 -51t40.5 -79.5t14 -103.5zM373 260q0 29 -5 61.5t-18.5 60
t-37 45.5t-60.5 18q-31 0 -53.5 -15t-37.5 -41.5t-22 -62t-7 -77.5q0 -41 7 -76.5t21.5 -62t37.5 -41.5t55 -15q40 0 64 20.5t36.5 51t16 66.5t3.5 68z" />
    <glyph glyph-name="otilde" unicode="&#xf5;" horiz-adv-x="506" 
d="M394 693q-2 -20 -7 -37.5t-14 -31.5t-23 -22t-33 -8q-17 0 -33.5 5.5t-31.5 12.5t-28.5 12.5t-25.5 5.5q-28 0 -36 -38h-49q3 47 24.5 74t56.5 27q16 0 31.5 -5.5t30.5 -12.5t29 -12.5t28 -5.5q15 0 22 9t12 27h47zM458 257q0 -61 -13.5 -110.5t-39.5 -84t-64 -53.5
t-88 -19q-100 0 -152.5 69t-52.5 187q0 59 13.5 107.5t40 83t64.5 53.5t87 19q48 0 86 -18t64.5 -51t40.5 -79.5t14 -103.5zM373 260q0 29 -5 61.5t-18.5 60t-37 45.5t-60.5 18q-31 0 -53.5 -15t-37.5 -41.5t-22 -62t-7 -77.5q0 -41 7 -76.5t21.5 -62t37.5 -41.5t55 -15
q40 0 64 20.5t36.5 51t16 66.5t3.5 68z" />
    <glyph glyph-name="odieresis" unicode="&#xf6;" horiz-adv-x="506" 
d="M380 641q0 -22 -14 -35t-35 -13t-35 13t-14 35t14 35t35 13t35 -13t14 -35zM224 641q0 -22 -14 -35t-35 -13t-35 13t-14 35t14 35t35 13t35 -13t14 -35zM458 257q0 -61 -13.5 -110.5t-39.5 -84t-64 -53.5t-88 -19q-100 0 -152.5 69t-52.5 187q0 59 13.5 107.5t40 83
t64.5 53.5t87 19q48 0 86 -18t64.5 -51t40.5 -79.5t14 -103.5zM373 260q0 29 -5 61.5t-18.5 60t-37 45.5t-60.5 18q-31 0 -53.5 -15t-37.5 -41.5t-22 -62t-7 -77.5q0 -41 7 -76.5t21.5 -62t37.5 -41.5t55 -15q40 0 64 20.5t36.5 51t16 66.5t3.5 68z" />
    <glyph glyph-name="divide" unicode="&#xf7;" horiz-adv-x="562" 
d="M334 510q0 -23 -15.5 -38t-38.5 -15t-38.5 15t-15.5 38t15.5 38t38.5 15t38.5 -15t15.5 -38zM60 289v77h442v-77h-442zM334 145q0 -23 -15.5 -38t-38.5 -15t-38.5 15t-15.5 38t15.5 38t38.5 15t38.5 -15t15.5 -38z" />
    <glyph glyph-name="oslash" unicode="&#xf8;" horiz-adv-x="506" 
d="M411 429q23 -32 35 -75.5t12 -96.5q0 -61 -13.5 -110.5t-39.5 -84t-64 -53.5t-88 -19q-70 0 -117 35l-49 -73l-50 34l57 83q-46 67 -46 177q0 59 13.5 107.5t40 83t64.5 53.5t87 19q34 0 63.5 -9.5t52.5 -26.5l50 74l50 -33zM328 413q-14 14 -32.5 23t-43.5 9
q-31 0 -53.5 -15t-37.5 -41.5t-22 -62t-7 -77.5q0 -56 14 -103zM373 260q0 23 -3 47t-10 47l-182 -268q30 -32 75 -32q40 0 64 20.5t36.5 51t16 66.5t3.5 68z" />
    <glyph glyph-name="ugrave" unicode="&#xf9;" 
d="M240 571l-83 132h95l50 -132h-62zM370 0l-5 82q-37 -45 -78 -68.5t-86 -23.5q-41 0 -65.5 16t-37 41.5t-16.5 58t-4 65.5v329h83v-332q0 -18 2 -37.5t9.5 -35.5t22 -26t38.5 -10q32 0 65.5 21t65.5 57v363h83v-500h-77z" />
    <glyph glyph-name="uacute" unicode="&#xfa;" 
d="M296 571h-62l50 132h95zM370 0l-5 82q-37 -45 -78 -68.5t-86 -23.5q-41 0 -65.5 16t-37 41.5t-16.5 58t-4 65.5v329h83v-332q0 -18 2 -37.5t9.5 -35.5t22 -26t38.5 -10q32 0 65.5 21t65.5 57v363h83v-500h-77z" />
    <glyph glyph-name="ucircumflex" unicode="&#xfb;" 
d="M321 571l-58 83l-58 -83h-78l95 132h84l93 -132h-78zM370 0l-5 82q-37 -45 -78 -68.5t-86 -23.5q-41 0 -65.5 16t-37 41.5t-16.5 58t-4 65.5v329h83v-332q0 -18 2 -37.5t9.5 -35.5t22 -26t38.5 -10q32 0 65.5 21t65.5 57v363h83v-500h-77z" />
    <glyph glyph-name="udieresis" unicode="&#xfc;" 
d="M390 641q0 -22 -14 -35t-35 -13t-35 13t-14 35t14 35t35 13t35 -13t14 -35zM234 641q0 -22 -14 -35t-35 -13t-35 13t-14 35t14 35t35 13t35 -13t14 -35zM370 0l-5 82q-37 -45 -78 -68.5t-86 -23.5q-41 0 -65.5 16t-37 41.5t-16.5 58t-4 65.5v329h83v-332q0 -18 2 -37.5
t9.5 -35.5t22 -26t38.5 -10q32 0 65.5 21t65.5 57v363h83v-500h-77z" />
    <glyph glyph-name="yacute" unicode="&#xfd;" horiz-adv-x="443" 
d="M254 571h-62l50 132h95zM262 -1q-11 -33 -25 -66t-35 -58.5t-50.5 -41.5t-70.5 -16q-13 0 -27.5 2t-27.5 5v64q13 -2 24.5 -4t22.5 -2q27 0 45.5 11.5t31 30t21 41.5t16.5 45l-172 490h91l121 -395l115 395h86z" />
    <glyph glyph-name="thorn" unicode="&#xfe;" horiz-adv-x="522" 
d="M474 259q0 -56 -12 -105t-36 -85.5t-60 -57.5t-83 -21q-41 0 -68.5 14t-53.5 37v-220h-83v882h83v-267q27 32 60 52.5t76 20.5q51 0 85 -23.5t54.5 -60t29 -81t8.5 -85.5zM390 260q0 27 -5 59t-17.5 59.5t-35 46t-57.5 18.5q-60 0 -114 -65v-274q23 -21 48 -36t54 -15
q32 0 56 16t39.5 43.5t23.5 65.5t8 82z" />
    <glyph glyph-name="ydieresis" unicode="&#xff;" horiz-adv-x="443" 
d="M349 641q0 -22 -14 -35t-35 -13t-35 13t-14 35t14 35t35 13t35 -13t14 -35zM193 641q0 -22 -14 -35t-35 -13t-35 13t-14 35t14 35t35 13t35 -13t14 -35zM262 -1q-11 -33 -25 -66t-35 -58.5t-50.5 -41.5t-70.5 -16q-13 0 -27.5 2t-27.5 5v64q13 -2 24.5 -4t22.5 -2
q27 0 45.5 11.5t31 30t21 41.5t16.5 45l-172 490h91l121 -395l115 395h86z" />
    <glyph glyph-name="Amacron" unicode="&#x100;" horiz-adv-x="558" 
d="M158 760v58h242v-58h-242zM444 0l-54 207h-225l-55 -207h-90l200 703h119l199 -703h-94zM278 632l-95 -357h189z" />
    <glyph glyph-name="amacron" unicode="&#x101;" horiz-adv-x="499" 
d="M351 0q-2 14 -4.5 33t-4.5 33q-33 -33 -68 -54.5t-84 -21.5q-31 0 -57.5 9t-46 26.5t-30.5 43t-11 57.5q0 55 30.5 90t75 56.5t95.5 33t92 19.5v14q0 50 -20 78t-73 28q-38 0 -66.5 -17t-42.5 -52l-74 22q10 29 28.5 50t43 34.5t53.5 20t60 6.5q90 0 132 -44.5t42 -132.5
v-212q0 -19 1.5 -39.5t3.5 -38.5q2 -21 5 -42h-80zM338 268q-27 -7 -63.5 -15.5t-69 -23.5t-55.5 -38.5t-23 -60.5q0 -34 23.5 -56.5t57.5 -22.5q19 0 37.5 6.5t35 17t31 24t26.5 26.5v143zM126 611v58h242v-58h-242z" />
    <glyph glyph-name="Abreve" unicode="&#x102;" horiz-adv-x="558" 
d="M412 868q-5 -58 -42 -94t-94 -36t-91.5 35.5t-38.5 94.5h47q7 -35 29.5 -53t54.5 -18q68 0 87 71h48zM444 0l-54 207h-225l-55 -207h-90l200 703h119l199 -703h-94zM278 632l-95 -357h189z" />
    <glyph glyph-name="abreve" unicode="&#x103;" horiz-adv-x="499" 
d="M351 0q-2 14 -4.5 33t-4.5 33q-33 -33 -68 -54.5t-84 -21.5q-31 0 -57.5 9t-46 26.5t-30.5 43t-11 57.5q0 55 30.5 90t75 56.5t95.5 33t92 19.5v14q0 50 -20 78t-73 28q-38 0 -66.5 -17t-42.5 -52l-74 22q10 29 28.5 50t43 34.5t53.5 20t60 6.5q90 0 132 -44.5t42 -132.5
v-212q0 -19 1.5 -39.5t3.5 -38.5q2 -21 5 -42h-80zM338 268q-27 -7 -63.5 -15.5t-69 -23.5t-55.5 -38.5t-23 -60.5q0 -34 23.5 -56.5t57.5 -22.5q19 0 37.5 6.5t35 17t31 24t26.5 26.5v143zM380 701q-5 -58 -42 -94t-94 -36t-91.5 35.5t-38.5 94.5h47q7 -35 29.5 -53
t54.5 -18q68 0 87 71h48z" />
    <glyph glyph-name="Aogonek" unicode="&#x104;" horiz-adv-x="558" 
d="M538 -167q-26 -17 -64 -17q-40 0 -64 25t-24 63q0 31 17 56t41 40l-54 207h-225l-55 -207h-90l200 703h119l199 -703q-15 -2 -31 -8.5t-29 -17.5t-21.5 -26t-8.5 -33q0 -20 9.5 -34.5t29.5 -14.5q13 0 26 4.5t25 10.5v-48zM278 632l-95 -357h189z" />
    <glyph glyph-name="aogonek" unicode="&#x105;" horiz-adv-x="499" 
d="M421 -167q-26 -17 -64 -17q-40 0 -64 25t-24 63q0 36 24 64t56 41q-2 14 -4 30t-3 27q-33 -33 -68 -54.5t-84 -21.5q-31 0 -57.5 9t-46 26.5t-30.5 43t-11 57.5q0 55 30.5 90t75 56.5t95.5 33t92 19.5v14q0 50 -20 78t-73 28q-38 0 -66.5 -17t-42.5 -52l-74 22
q10 29 28.5 50t43 34.5t53.5 20t60 6.5q90 0 132 -44.5t42 -132.5v-212q0 -19 1.5 -39.5t3.5 -38.5q2 -21 5 -42q-19 -1 -37 -7.5t-32 -18t-22.5 -26.5t-8.5 -33q0 -20 9.5 -34.5t29.5 -14.5q13 0 26 4.5t25 10.5v-48zM338 268q-27 -7 -63.5 -15.5t-69 -23.5t-55.5 -38.5
t-23 -60.5q0 -34 23.5 -56.5t57.5 -22.5q19 0 37.5 6.5t35 17t31 24t26.5 26.5v143z" />
    <glyph glyph-name="Cacute" unicode="&#x106;" horiz-adv-x="604" 
d="M353 738h-62l50 102h95zM566 207q-10 -49 -29.5 -89t-49.5 -69t-71 -45t-94 -16q-77 0 -127.5 32t-81 83.5t-43 116t-12.5 128.5t13 130t43.5 119t81.5 86.5t128 33.5q52 0 90.5 -15.5t66.5 -43.5t46.5 -67.5t29.5 -86.5l-88 -17q-6 31 -16 60t-26.5 52t-41.5 37t-61 14
q-51 0 -84 -27.5t-52.5 -71.5t-27 -98t-7.5 -107q0 -50 7.5 -101.5t27 -93.5t52.5 -68.5t84 -26.5q36 0 62.5 15t44.5 39t29.5 54t17.5 61z" />
    <glyph glyph-name="cacute" unicode="&#x107;" horiz-adv-x="462" 
d="M434 132q-20 -67 -66.5 -104.5t-117.5 -37.5q-54 0 -92 20.5t-62.5 55.5t-36 81.5t-11.5 98.5q0 47 12 94t37.5 84.5t64 61t92.5 23.5q69 0 112 -38.5t61 -104.5l-73 -15q-9 38 -33.5 66t-66.5 28q-36 0 -59.5 -20.5t-37 -51t-18.5 -65t-5 -62.5t5 -61.5t18 -63t36 -49
t59 -19.5q24 0 41 8t30 21.5t22.5 31t17.5 37.5zM284 571h-62l50 132h95z" />
    <glyph glyph-name="Ccircumflex" unicode="&#x108;" horiz-adv-x="604" 
d="M382 738l-58 63l-58 -63h-78l95 102h84l93 -102h-78zM566 207q-10 -49 -29.5 -89t-49.5 -69t-71 -45t-94 -16q-77 0 -127.5 32t-81 83.5t-43 116t-12.5 128.5t13 130t43.5 119t81.5 86.5t128 33.5q52 0 90.5 -15.5t66.5 -43.5t46.5 -67.5t29.5 -86.5l-88 -17
q-6 31 -16 60t-26.5 52t-41.5 37t-61 14q-51 0 -84 -27.5t-52.5 -71.5t-27 -98t-7.5 -107q0 -50 7.5 -101.5t27 -93.5t52.5 -68.5t84 -26.5q36 0 62.5 15t44.5 39t29.5 54t17.5 61z" />
    <glyph glyph-name="ccircumflex" unicode="&#x109;" horiz-adv-x="462" 
d="M434 132q-20 -67 -66.5 -104.5t-117.5 -37.5q-54 0 -92 20.5t-62.5 55.5t-36 81.5t-11.5 98.5q0 47 12 94t37.5 84.5t64 61t92.5 23.5q69 0 112 -38.5t61 -104.5l-73 -15q-9 38 -33.5 66t-66.5 28q-36 0 -59.5 -20.5t-37 -51t-18.5 -65t-5 -62.5t5 -61.5t18 -63t36 -49
t59 -19.5q24 0 41 8t30 21.5t22.5 31t17.5 37.5zM312 571l-58 83l-58 -83h-78l95 132h84l93 -132h-78z" />
    <glyph glyph-name="Cdotaccent" unicode="&#x10a;" horiz-adv-x="604" 
d="M373 782q0 -22 -14 -35t-35 -13t-35 13t-14 35t14 35t35 13t35 -13t14 -35zM566 207q-10 -49 -29.5 -89t-49.5 -69t-71 -45t-94 -16q-77 0 -127.5 32t-81 83.5t-43 116t-12.5 128.5t13 130t43.5 119t81.5 86.5t128 33.5q52 0 90.5 -15.5t66.5 -43.5t46.5 -67.5
t29.5 -86.5l-88 -17q-6 31 -16 60t-26.5 52t-41.5 37t-61 14q-51 0 -84 -27.5t-52.5 -71.5t-27 -98t-7.5 -107q0 -50 7.5 -101.5t27 -93.5t52.5 -68.5t84 -26.5q36 0 62.5 15t44.5 39t29.5 54t17.5 61z" />
    <glyph glyph-name="cdotaccent" unicode="&#x10b;" horiz-adv-x="462" 
d="M434 132q-20 -67 -66.5 -104.5t-117.5 -37.5q-54 0 -92 20.5t-62.5 55.5t-36 81.5t-11.5 98.5q0 47 12 94t37.5 84.5t64 61t92.5 23.5q69 0 112 -38.5t61 -104.5l-73 -15q-9 38 -33.5 66t-66.5 28q-36 0 -59.5 -20.5t-37 -51t-18.5 -65t-5 -62.5t5 -61.5t18 -63t36 -49
t59 -19.5q24 0 41 8t30 21.5t22.5 31t17.5 37.5zM308 640q0 -24 -15.5 -38.5t-38.5 -14.5t-38.5 14.5t-15.5 38.5t15.5 38.5t38.5 14.5t38.5 -14.5t15.5 -38.5z" />
    <glyph glyph-name="Ccaron" unicode="&#x10c;" horiz-adv-x="604" 
d="M367 738h-84l-95 102h78l58 -53l58 53h78zM566 207q-10 -49 -29.5 -89t-49.5 -69t-71 -45t-94 -16q-77 0 -127.5 32t-81 83.5t-43 116t-12.5 128.5t13 130t43.5 119t81.5 86.5t128 33.5q52 0 90.5 -15.5t66.5 -43.5t46.5 -67.5t29.5 -86.5l-88 -17q-6 31 -16 60t-26.5 52
t-41.5 37t-61 14q-51 0 -84 -27.5t-52.5 -71.5t-27 -98t-7.5 -107q0 -50 7.5 -101.5t27 -93.5t52.5 -68.5t84 -26.5q36 0 62.5 15t44.5 39t29.5 54t17.5 61z" />
    <glyph glyph-name="ccaron" unicode="&#x10d;" horiz-adv-x="462" 
d="M434 132q-20 -67 -66.5 -104.5t-117.5 -37.5q-54 0 -92 20.5t-62.5 55.5t-36 81.5t-11.5 98.5q0 47 12 94t37.5 84.5t64 61t92.5 23.5q69 0 112 -38.5t61 -104.5l-73 -15q-9 38 -33.5 66t-66.5 28q-36 0 -59.5 -20.5t-37 -51t-18.5 -65t-5 -62.5t5 -61.5t18 -63t36 -49
t59 -19.5q24 0 41 8t30 21.5t22.5 31t17.5 37.5zM297 571h-85l-95 132h78l58 -83l58 83h79z" />
    <glyph glyph-name="Dcaron" unicode="&#x10e;" horiz-adv-x="632" 
d="M347 738h-84l-95 102h78l58 -53l58 53h78zM574 355q0 -174 -81 -264.5t-253 -90.5h-152v703h152q175 0 254.5 -88t79.5 -260zM479 355q0 61 -10 112t-36 88t-70.5 58t-113.5 21h-70v-565h54q71 0 118 19t75.5 55.5t40.5 89.5t12 122z" />
    <glyph glyph-name="dcaron" unicode="&#x10f;" horiz-adv-x="520" 
d="M371 0l-6 62q-32 -38 -65 -55t-74 -17q-45 0 -78.5 20t-55.5 55.5t-33 83t-11 103.5q0 42 10 87t32.5 83t57 62.5t84.5 24.5q41 0 71.5 -17t55.5 -47v258h83v-590q0 -14 0.5 -33t2.5 -37q2 -21 4 -43h-78zM359 381q-48 61 -106 61q-29 0 -51.5 -15.5t-38 -41.5
t-23.5 -60.5t-8 -72.5q0 -40 7 -76t21 -63t35.5 -43t50.5 -16t59.5 18t53.5 47v262zM585 640q0 -28 -7.5 -50.5t-20 -42t-28.5 -36t-34 -31.5l-31 26q16 15 24.5 27.5t13 22.5t5.5 18t1 15q0 9 -5.5 15.5t-11.5 13t-11.5 15t-5.5 22.5q0 22 15.5 36.5t40.5 14.5
q28 0 41.5 -20.5t13.5 -45.5z" />
    <glyph glyph-name="Dcroat" unicode="&#x110;" horiz-adv-x="632" 
d="M574 355q0 -174 -81 -264.5t-253 -90.5h-152v335h-70v71h70v297h152q175 0 254.5 -88t79.5 -260zM479 355q0 61 -10 112t-36 88t-70.5 58t-113.5 21h-70v-228h195v-71h-195v-266h54q71 0 118 19t75.5 55.5t40.5 89.5t12 122z" />
    <glyph glyph-name="dcroat" unicode="&#x111;" horiz-adv-x="520" 
d="M442 560v-447q0 -14 0.5 -33t2.5 -37q2 -21 4 -43h-78l-6 62q-32 -38 -65 -55t-74 -17q-45 0 -78.5 20t-55.5 55.5t-33 83t-11 103.5q0 42 10 87t32.5 83t57 62.5t84.5 24.5q41 0 71.5 -17t55.5 -47v115h-126v60h126v83h83v-83h55v-60h-55zM359 381q-48 61 -106 61
q-29 0 -51.5 -15.5t-38 -41.5t-23.5 -60.5t-8 -72.5q0 -40 7 -76t21 -63t35.5 -43t50.5 -16t59.5 18t53.5 47v262z" />
    <glyph glyph-name="Emacron" unicode="&#x112;" horiz-adv-x="530" 
d="M159 760v58h242v-58h-242zM88 0v703h384v-71h-293v-226h225v-71h-225v-264h303v-71h-394z" />
    <glyph glyph-name="emacron" unicode="&#x113;" horiz-adv-x="483" 
d="M438 122q-10 -31 -28 -55.5t-42.5 -41.5t-54 -26t-60.5 -9q-98 0 -151.5 66.5t-53.5 191.5q0 58 13 106t38 82.5t61.5 53.5t84.5 19q54 0 90 -22t58.5 -58t32 -81t9.5 -90v-18h-303v-9q0 -37 8 -70t24 -57.5t38.5 -38.5t51.5 -14q39 0 66 22.5t50 67.5zM354 297
q-3 66 -29 109t-79 43q-25 0 -45 -11.5t-34.5 -32t-23 -48.5t-10.5 -60h221zM124 611v58h242v-58h-242z" />
    <glyph glyph-name="Ebreve" unicode="&#x114;" horiz-adv-x="530" 
d="M413 868q-5 -58 -42 -94t-94 -36t-91.5 35.5t-38.5 94.5h47q7 -35 29.5 -53t54.5 -18q68 0 87 71h48zM88 0v703h384v-71h-293v-226h225v-71h-225v-264h303v-71h-394z" />
    <glyph glyph-name="ebreve" unicode="&#x115;" horiz-adv-x="483" 
d="M438 122q-10 -31 -28 -55.5t-42.5 -41.5t-54 -26t-60.5 -9q-98 0 -151.5 66.5t-53.5 191.5q0 58 13 106t38 82.5t61.5 53.5t84.5 19q54 0 90 -22t58.5 -58t32 -81t9.5 -90v-18h-303v-9q0 -37 8 -70t24 -57.5t38.5 -38.5t51.5 -14q39 0 66 22.5t50 67.5zM354 297
q-3 66 -29 109t-79 43q-25 0 -45 -11.5t-34.5 -32t-23 -48.5t-10.5 -60h221zM378 701q-5 -58 -42 -94t-94 -36t-91.5 35.5t-38.5 94.5h47q7 -35 29.5 -53t54.5 -18q68 0 87 71h48z" />
    <glyph glyph-name="Edotaccent" unicode="&#x116;" horiz-adv-x="530" 
d="M329 782q0 -22 -14 -35t-35 -13t-35 13t-14 35t14 35t35 13t35 -13t14 -35zM88 0v703h384v-71h-293v-226h225v-71h-225v-264h303v-71h-394z" />
    <glyph glyph-name="edotaccent" unicode="&#x117;" horiz-adv-x="483" 
d="M438 122q-10 -31 -28 -55.5t-42.5 -41.5t-54 -26t-60.5 -9q-98 0 -151.5 66.5t-53.5 191.5q0 58 13 106t38 82.5t61.5 53.5t84.5 19q54 0 90 -22t58.5 -58t32 -81t9.5 -90v-18h-303v-9q0 -37 8 -70t24 -57.5t38.5 -38.5t51.5 -14q39 0 66 22.5t50 67.5zM354 297
q-3 66 -29 109t-79 43q-25 0 -45 -11.5t-34.5 -32t-23 -48.5t-10.5 -60h221zM299 640q0 -24 -15.5 -38.5t-38.5 -14.5t-38.5 14.5t-15.5 38.5t15.5 38.5t38.5 14.5t38.5 -14.5t15.5 -38.5z" />
    <glyph glyph-name="Eogonek" unicode="&#x118;" horiz-adv-x="530" 
d="M482 -167q-26 -17 -64 -17q-40 0 -64 25t-24 63q0 31 17.5 56t43.5 40h-303v703h384v-71h-293v-226h225v-71h-225v-264h303v-71q-15 -1 -31 -7.5t-29 -18t-21.5 -26.5t-8.5 -33q0 -20 9.5 -34.5t29.5 -14.5q13 0 26 4.5t25 10.5v-48z" />
    <glyph glyph-name="eogonek" unicode="&#x119;" horiz-adv-x="483" 
d="M344 -167q-26 -17 -64 -17q-40 0 -64 25t-24 63q0 26 13 48.5t33 38.5q-91 5 -140.5 70.5t-49.5 186.5q0 58 13 106t38 82.5t61.5 53.5t84.5 19q54 0 90 -22t58.5 -58t32 -81t9.5 -90v-18h-303v-9q0 -37 8 -70t24 -57.5t38.5 -38.5t51.5 -14q39 0 66 22.5t50 67.5l68 -19
q-14 -45 -44.5 -74.5t-72.5 -46.5q-26 -11 -46.5 -35t-20.5 -51q0 -20 9.5 -34.5t29.5 -14.5q13 0 26 4.5t25 10.5v-48zM354 297q-3 66 -29 109t-79 43q-25 0 -45 -11.5t-34.5 -32t-23 -48.5t-10.5 -60h221z" />
    <glyph glyph-name="Ecaron" unicode="&#x11a;" horiz-adv-x="530" 
d="M323 738h-84l-95 102h78l58 -53l58 53h78zM88 0v703h384v-71h-293v-226h225v-71h-225v-264h303v-71h-394z" />
    <glyph glyph-name="ecaron" unicode="&#x11b;" horiz-adv-x="483" 
d="M438 122q-10 -31 -28 -55.5t-42.5 -41.5t-54 -26t-60.5 -9q-98 0 -151.5 66.5t-53.5 191.5q0 58 13 106t38 82.5t61.5 53.5t84.5 19q54 0 90 -22t58.5 -58t32 -81t9.5 -90v-18h-303v-9q0 -37 8 -70t24 -57.5t38.5 -38.5t51.5 -14q39 0 66 22.5t50 67.5zM354 297
q-3 66 -29 109t-79 43q-25 0 -45 -11.5t-34.5 -32t-23 -48.5t-10.5 -60h221zM288 571h-85l-95 132h78l58 -83l58 83h79z" />
    <glyph glyph-name="Gcircumflex" unicode="&#x11c;" horiz-adv-x="642" 
d="M385 738l-58 63l-58 -63h-78l95 102h84l93 -102h-78zM491 0l-3 94q-19 -49 -66.5 -77.5t-104.5 -28.5q-72 0 -121 29t-80 78.5t-44.5 115.5t-13.5 140q0 64 13.5 129.5t45 118t83 85.5t127.5 33q50 0 87.5 -14.5t65 -41.5t45.5 -64t29 -82l-80 -18q-6 33 -18.5 61
t-30.5 48.5t-43 32.5t-56 12q-54 0 -88 -31t-52.5 -76t-25.5 -96.5t-7 -92.5q0 -45 5.5 -97t24 -97t53 -75t92.5 -30q46 0 75 20t44.5 51t21 69.5t5.5 75.5h-144v68h224v-340h-63z" />
    <glyph glyph-name="gcircumflex" unicode="&#x11d;" horiz-adv-x="464" 
d="M458 -37q0 -42 -21 -70.5t-54.5 -46t-75.5 -25t-84 -7.5q-27 0 -60.5 5t-62 18t-48 36t-19.5 58q0 20 8 37.5t20.5 32t28.5 25.5t33 18q-25 9 -43 25t-18 45q0 30 21 50t47 31q-37 20 -59.5 56t-22.5 87q0 41 15 73t40 53.5t58.5 33t70.5 11.5q32 0 61 -9t53 -26
q23 23 51 32t61 9v-66q-19 0 -38.5 -2.5t-36.5 -8.5q33 -42 33 -100q0 -40 -15 -71t-40 -52.5t-58.5 -32.5t-70.5 -11q-31 0 -61 8q-13 -7 -24 -17.5t-11 -22.5q0 -11 5.5 -17.5t13.5 -10t17.5 -5.5t17.5 -3l150 -23q21 -3 42 -10.5t38 -21t27.5 -34.5t10.5 -51zM337 338
q0 48 -27.5 80.5t-77.5 32.5t-77.5 -32.5t-27.5 -80.5t27.5 -78.5t77.5 -30.5t77.5 30.5t27.5 78.5zM379 -43q0 25 -15 36.5t-35 14.5l-151 23q-32 -17 -54 -40.5t-22 -46.5t14 -37.5t34 -22t42 -10t39 -2.5q22 0 47.5 4.5t48 14t37.5 26t15 40.5zM288 571l-58 83l-58 -83
h-78l95 132h84l93 -132h-78z" />
    <glyph glyph-name="Gbreve" unicode="&#x11e;" horiz-adv-x="642" 
d="M460 868q-5 -58 -42 -94t-94 -36t-91.5 35.5t-38.5 94.5h47q7 -35 29.5 -53t54.5 -18q68 0 87 71h48zM491 0l-3 94q-19 -49 -66.5 -77.5t-104.5 -28.5q-72 0 -121 29t-80 78.5t-44.5 115.5t-13.5 140q0 64 13.5 129.5t45 118t83 85.5t127.5 33q50 0 87.5 -14.5t65 -41.5
t45.5 -64t29 -82l-80 -18q-6 33 -18.5 61t-30.5 48.5t-43 32.5t-56 12q-54 0 -88 -31t-52.5 -76t-25.5 -96.5t-7 -92.5q0 -45 5.5 -97t24 -97t53 -75t92.5 -30q46 0 75 20t44.5 51t21 69.5t5.5 75.5h-144v68h224v-340h-63z" />
    <glyph glyph-name="gbreve" unicode="&#x11f;" horiz-adv-x="464" 
d="M458 -37q0 -42 -21 -70.5t-54.5 -46t-75.5 -25t-84 -7.5q-27 0 -60.5 5t-62 18t-48 36t-19.5 58q0 20 8 37.5t20.5 32t28.5 25.5t33 18q-25 9 -43 25t-18 45q0 30 21 50t47 31q-37 20 -59.5 56t-22.5 87q0 41 15 73t40 53.5t58.5 33t70.5 11.5q32 0 61 -9t53 -26
q23 23 51 32t61 9v-66q-19 0 -38.5 -2.5t-36.5 -8.5q33 -42 33 -100q0 -40 -15 -71t-40 -52.5t-58.5 -32.5t-70.5 -11q-31 0 -61 8q-13 -7 -24 -17.5t-11 -22.5q0 -11 5.5 -17.5t13.5 -10t17.5 -5.5t17.5 -3l150 -23q21 -3 42 -10.5t38 -21t27.5 -34.5t10.5 -51zM337 338
q0 48 -27.5 80.5t-77.5 32.5t-77.5 -32.5t-27.5 -80.5t27.5 -78.5t77.5 -30.5t77.5 30.5t27.5 78.5zM379 -43q0 25 -15 36.5t-35 14.5l-151 23q-32 -17 -54 -40.5t-22 -46.5t14 -37.5t34 -22t42 -10t39 -2.5q22 0 47.5 4.5t48 14t37.5 26t15 40.5zM363 701q-5 -58 -42 -94
t-94 -36t-91.5 35.5t-38.5 94.5h47q7 -35 29.5 -53t54.5 -18q68 0 87 71h48z" />
    <glyph glyph-name="Gdotaccent" unicode="&#x120;" horiz-adv-x="642" 
d="M376 782q0 -22 -14 -35t-35 -13t-35 13t-14 35t14 35t35 13t35 -13t14 -35zM491 0l-3 94q-19 -49 -66.5 -77.5t-104.5 -28.5q-72 0 -121 29t-80 78.5t-44.5 115.5t-13.5 140q0 64 13.5 129.5t45 118t83 85.5t127.5 33q50 0 87.5 -14.5t65 -41.5t45.5 -64t29 -82l-80 -18
q-6 33 -18.5 61t-30.5 48.5t-43 32.5t-56 12q-54 0 -88 -31t-52.5 -76t-25.5 -96.5t-7 -92.5q0 -45 5.5 -97t24 -97t53 -75t92.5 -30q46 0 75 20t44.5 51t21 69.5t5.5 75.5h-144v68h224v-340h-63z" />
    <glyph glyph-name="gdotaccent" unicode="&#x121;" horiz-adv-x="464" 
d="M458 -37q0 -42 -21 -70.5t-54.5 -46t-75.5 -25t-84 -7.5q-27 0 -60.5 5t-62 18t-48 36t-19.5 58q0 20 8 37.5t20.5 32t28.5 25.5t33 18q-25 9 -43 25t-18 45q0 30 21 50t47 31q-37 20 -59.5 56t-22.5 87q0 41 15 73t40 53.5t58.5 33t70.5 11.5q32 0 61 -9t53 -26
q23 23 51 32t61 9v-66q-19 0 -38.5 -2.5t-36.5 -8.5q33 -42 33 -100q0 -40 -15 -71t-40 -52.5t-58.5 -32.5t-70.5 -11q-31 0 -61 8q-13 -7 -24 -17.5t-11 -22.5q0 -11 5.5 -17.5t13.5 -10t17.5 -5.5t17.5 -3l150 -23q21 -3 42 -10.5t38 -21t27.5 -34.5t10.5 -51zM337 338
q0 48 -27.5 80.5t-77.5 32.5t-77.5 -32.5t-27.5 -80.5t27.5 -78.5t77.5 -30.5t77.5 30.5t27.5 78.5zM379 -43q0 25 -15 36.5t-35 14.5l-151 23q-32 -17 -54 -40.5t-22 -46.5t14 -37.5t34 -22t42 -10t39 -2.5q22 0 47.5 4.5t48 14t37.5 26t15 40.5zM284 640
q0 -24 -15.5 -38.5t-38.5 -14.5t-38.5 14.5t-15.5 38.5t15.5 38.5t38.5 14.5t38.5 -14.5t15.5 -38.5z" />
    <glyph glyph-name="Gcommaaccent" unicode="&#x122;" horiz-adv-x="642" 
d="M372 -86q0 -28 -7.5 -50.5t-20 -42t-28.5 -36t-34 -31.5l-31 26q16 15 24.5 27.5t13 22.5t5.5 18t1 15q0 9 -5.5 15.5t-11.5 13t-11.5 15t-5.5 22.5q0 22 15.5 36.5t40.5 14.5q28 0 41.5 -20.5t13.5 -45.5zM491 0l-3 94q-19 -49 -66.5 -77.5t-104.5 -28.5q-72 0 -121 29
t-80 78.5t-44.5 115.5t-13.5 140q0 64 13.5 129.5t45 118t83 85.5t127.5 33q50 0 87.5 -14.5t65 -41.5t45.5 -64t29 -82l-80 -18q-6 33 -18.5 61t-30.5 48.5t-43 32.5t-56 12q-54 0 -88 -31t-52.5 -76t-25.5 -96.5t-7 -92.5q0 -45 5.5 -97t24 -97t53 -75t92.5 -30
q46 0 75 20t44.5 51t21 69.5t5.5 75.5h-144v68h224v-340h-63z" />
    <glyph glyph-name="gcommaaccent" unicode="&#x123;" horiz-adv-x="464" 
d="M458 -37q0 -42 -21 -70.5t-54.5 -46t-75.5 -25t-84 -7.5q-27 0 -60.5 5t-62 18t-48 36t-19.5 58q0 20 8 37.5t20.5 32t28.5 25.5t33 18q-25 9 -43 25t-18 45q0 30 21 50t47 31q-37 20 -59.5 56t-22.5 87q0 41 15 73t40 53.5t58.5 33t70.5 11.5q32 0 61 -9t53 -26
q23 23 51 32t61 9v-66q-19 0 -38.5 -2.5t-36.5 -8.5q33 -42 33 -100q0 -40 -15 -71t-40 -52.5t-58.5 -32.5t-70.5 -11q-31 0 -61 8q-13 -7 -24 -17.5t-11 -22.5q0 -11 5.5 -17.5t13.5 -10t17.5 -5.5t17.5 -3l150 -23q21 -3 42 -10.5t38 -21t27.5 -34.5t10.5 -51zM337 338
q0 48 -27.5 80.5t-77.5 32.5t-77.5 -32.5t-27.5 -80.5t27.5 -78.5t77.5 -30.5t77.5 30.5t27.5 78.5zM379 -43q0 25 -15 36.5t-35 14.5l-151 23q-32 -17 -54 -40.5t-22 -46.5t14 -37.5t34 -22t42 -10t39 -2.5q22 0 47.5 4.5t48 14t37.5 26t15 40.5zM296 786
q-16 -15 -24.5 -27.5t-13 -22.5t-5.5 -18t-1 -15q0 -9 5.5 -15.5t11.5 -13t11.5 -15t5.5 -22.5q0 -22 -15.5 -36.5t-40.5 -14.5q-28 0 -41.5 20.5t-13.5 45.5q0 28 7.5 50.5t20 42t28.5 36t34 31.5z" />
    <glyph glyph-name="Hcircumflex" unicode="&#x124;" horiz-adv-x="655" 
d="M385 738l-58 63l-58 -63h-78l95 102h84l93 -102h-78zM476 0v333h-297v-333h-91v703h91v-297h297v297h91v-703h-91z" />
    <glyph glyph-name="hcircumflex" unicode="&#x125;" 
d="M364 0v339q0 18 -3 36.5t-11 32.5t-22.5 23t-37.5 9q-31 0 -64.5 -21t-64.5 -57v-362h-83v703h83v-284q32 36 72 63t91 27q40 0 64 -14.5t37 -38.5t17.5 -54.5t4.5 -61.5v-340h-83zM302 771l-58 83l-58 -83h-78l95 132h84l93 -132h-78z" />
    <glyph glyph-name="Hbar" unicode="&#x126;" horiz-adv-x="655" 
d="M567 510v-510h-91v333h-297v-333h-91v510h-55v70h55v123h91v-123h297v123h91v-123h55v-70h-55zM476 510h-297v-104h297v104z" />
    <glyph glyph-name="hbar" unicode="&#x127;" 
d="M364 0v339q0 18 -3 36.5t-11 32.5t-22.5 23t-37.5 9q-31 0 -64.5 -21t-64.5 -57v-362h-83v560h-55v60h55v83h83v-83h126v-60h-126v-141q32 36 72 63t91 27q40 0 64 -14.5t37 -38.5t17.5 -54.5t4.5 -61.5v-340h-83z" />
    <glyph glyph-name="Itilde" unicode="&#x128;" horiz-adv-x="267" 
d="M274 830q-4 -39 -21.5 -65.5t-55.5 -26.5q-17 0 -33.5 4.5t-31.5 10t-28.5 10t-25.5 4.5q-14 0 -23 -5t-13 -24h-49q3 47 24.5 69.5t56.5 22.5q16 0 31.5 -4.5t30.5 -10t29 -10t28 -4.5q15 0 22 5.5t12 23.5h47zM88 0v703h91v-703h-91z" />
    <glyph glyph-name="itilde" unicode="&#x129;" horiz-adv-x="239" 
d="M78 0v500h83v-500h-83zM260 693q-2 -20 -7 -37.5t-14 -31.5t-23 -22t-33 -8q-17 0 -33.5 5.5t-31.5 12.5t-28.5 12.5t-25.5 5.5q-28 0 -36 -38h-49q3 47 24.5 74t56.5 27q16 0 31.5 -5.5t30.5 -12.5t29 -12.5t28 -5.5q15 0 22 9t12 27h47z" />
    <glyph glyph-name="Imacron" unicode="&#x12a;" horiz-adv-x="267" 
d="M12 760v58h242v-58h-242zM88 0v703h91v-703h-91z" />
    <glyph glyph-name="imacron" unicode="&#x12b;" horiz-adv-x="239" 
d="M78 0v500h83v-500h-83zM-2 611v58h242v-58h-242z" />
    <glyph glyph-name="Iogonek" unicode="&#x12e;" horiz-adv-x="267" 
d="M192 -167q-26 -17 -64 -17q-40 0 -64 25t-24 63q0 31 17.5 56t43.5 40h-13v703h91v-703q-11 -1 -24 -7.5t-25 -18t-20 -26.5t-8 -33q0 -20 9.5 -34.5t29.5 -14.5q13 0 26 4.5t25 10.5v-48z" />
    <glyph glyph-name="iogonek" unicode="&#x12f;" horiz-adv-x="239" 
d="M171 -167q-26 -17 -64 -17q-40 0 -64 25t-24 63q0 31 17 56t42 40v500h84v-500q-12 -1 -26 -7.5t-26.5 -18t-20.5 -26.5t-8 -33q0 -20 9.5 -34.5t29.5 -14.5q13 0 26 4.5t25 10.5v-48zM174 640q0 -24 -15.5 -38.5t-38.5 -14.5t-38.5 14.5t-15.5 38.5t15.5 38.5t38.5 14.5
t38.5 -14.5t15.5 -38.5z" />
    <glyph glyph-name="Idotaccent" unicode="&#x130;" horiz-adv-x="267" 
d="M182 782q0 -22 -14 -35t-35 -13t-35 13t-14 35t14 35t35 13t35 -13t14 -35zM88 0v703h91v-703h-91z" />
    <glyph glyph-name="dotlessi" unicode="&#x131;" horiz-adv-x="239" 
d="M78 0v500h83v-500h-83z" />
    <glyph glyph-name="IJ" unicode="&#x132;" horiz-adv-x="715" 
d="M88 0v703h91v-703h-91zM627 216q0 -47 -7.5 -88.5t-27 -72.5t-54.5 -49t-90 -18q-60 0 -100 27.5t-61 86.5l79 28q12 -35 30.5 -54.5t53.5 -19.5q30 0 47 14t25.5 35t11 46.5t2.5 48.5v503h91v-487z" />
    <glyph glyph-name="ij" unicode="&#x133;" horiz-adv-x="477" 
d="M400 -35q0 -33 -5.5 -60.5t-19.5 -47t-38.5 -30.5t-63.5 -11q-11 0 -20 1t-22 3v65q6 -1 11 -1h12q39 0 51 22.5t12 54.5v539h83v-535zM78 0v500h83v-500h-83zM413 640q0 -24 -15.5 -38.5t-38.5 -14.5t-38.5 14.5t-15.5 38.5t15.5 38.5t38.5 14.5t38.5 -14.5t15.5 -38.5z
M174 640q0 -24 -15.5 -38.5t-38.5 -14.5t-38.5 14.5t-15.5 38.5t15.5 38.5t38.5 14.5t38.5 -14.5t15.5 -38.5z" />
    <glyph glyph-name="Jcircumflex" unicode="&#x134;" horiz-adv-x="448" 
d="M372 738l-58 63l-58 -63h-78l95 102h84l93 -102h-78zM360 216q0 -47 -7.5 -88.5t-27 -72.5t-54.5 -49t-90 -18q-60 0 -100 27.5t-61 86.5l79 28q12 -35 30.5 -54.5t53.5 -19.5q30 0 47 14t25.5 35t11 46.5t2.5 48.5v503h91v-487z" />
    <glyph glyph-name="jcircumflex" unicode="&#x135;" horiz-adv-x="238" 
d="M161 -35q0 -33 -5.5 -60.5t-19.5 -47t-38.5 -30.5t-63.5 -11q-11 0 -20 1t-22 3v65q6 -1 11 -1h12q39 0 51 22.5t12 54.5v539h83v-535zM177 571l-58 83l-58 -83h-78l95 132h84l93 -132h-78z" />
    <glyph glyph-name="Kcommaaccent" unicode="&#x136;" horiz-adv-x="573" 
d="M366 -86q0 -28 -7.5 -50.5t-20 -42t-28.5 -36t-34 -31.5l-31 26q16 15 24.5 27.5t13 22.5t5.5 18t1 15q0 9 -5.5 15.5t-11.5 13t-11.5 15t-5.5 22.5q0 22 15.5 36.5t40.5 14.5q28 0 41.5 -20.5t13.5 -45.5zM455 0l-187 352l-89 -115v-237h-91v703h91v-348l258 348h102
l-214 -277l230 -426h-100z" />
    <glyph glyph-name="kcommaaccent" unicode="&#x137;" horiz-adv-x="470" 
d="M361 0l-124 255l-76 -96v-159h-83v703h83v-443l182 240h96l-145 -181l161 -319h-94zM311 -86q0 -28 -7.5 -50.5t-20 -42t-28.5 -36t-34 -31.5l-31 26q16 15 24.5 27.5t13 22.5t5.5 18t1 15q0 9 -5.5 15.5t-11.5 13t-11.5 15t-5.5 22.5q0 22 15.5 36.5t40.5 14.5
q28 0 41.5 -20.5t13.5 -45.5z" />
    <glyph glyph-name="Lacute" unicode="&#x139;" horiz-adv-x="497" 
d="M162 738h-62l50 102h95zM88 0v703h91v-631h280v-72h-371z" />
    <glyph glyph-name="lacute" unicode="&#x13a;" horiz-adv-x="244" 
d="M228 1q-12 -3 -29.5 -5.5t-31.5 -2.5q-46 0 -67.5 29t-21.5 79v602h83v-591q0 -21 5.5 -38.5t29.5 -17.5q8 0 17 1t15 3v-59zM149 771h-62l50 132h95z" />
    <glyph glyph-name="Lcommaaccent" unicode="&#x13b;" horiz-adv-x="497" 
d="M328 -86q0 -28 -7.5 -50.5t-20 -42t-28.5 -36t-34 -31.5l-31 26q16 15 24.5 27.5t13 22.5t5.5 18t1 15q0 9 -5.5 15.5t-11.5 13t-11.5 15t-5.5 22.5q0 22 15.5 36.5t40.5 14.5q28 0 41.5 -20.5t13.5 -45.5zM88 0v703h91v-631h280v-72h-371z" />
    <glyph glyph-name="lcommaaccent" unicode="&#x13c;" horiz-adv-x="244" 
d="M228 1q-12 -3 -29.5 -5.5t-31.5 -2.5q-46 0 -67.5 29t-21.5 79v602h83v-591q0 -21 5.5 -38.5t29.5 -17.5q8 0 17 1t15 3v-59zM205 -86q0 -28 -7.5 -50.5t-20 -42t-28.5 -36t-34 -31.5l-31 26q16 15 24.5 27.5t13 22.5t5.5 18t1 15q0 9 -5.5 15.5t-11.5 13t-11.5 15
t-5.5 22.5q0 22 15.5 36.5t40.5 14.5q28 0 41.5 -20.5t13.5 -45.5z" />
    <glyph glyph-name="Lcaron" unicode="&#x13d;" horiz-adv-x="497" 
d="M88 0v703h91v-631h280v-72h-371zM318 637q0 -28 -7.5 -50.5t-20 -42t-28.5 -36t-34 -31.5l-31 26q16 15 24.5 27.5t13 22.5t5.5 18t1 15q0 9 -5.5 15.5t-11.5 13t-11.5 15t-5.5 22.5q0 22 15.5 36.5t40.5 14.5q28 0 41.5 -20.5t13.5 -45.5z" />
    <glyph glyph-name="lcaron" unicode="&#x13e;" horiz-adv-x="239" 
d="M228 1q-12 -3 -29.5 -5.5t-31.5 -2.5q-46 0 -67.5 29t-21.5 79v602h83v-591q0 -21 5.5 -38.5t29.5 -17.5q8 0 17 1t15 3v-59zM304 637q0 -28 -7.5 -50.5t-20 -42t-28.5 -36t-34 -31.5l-31 26q16 15 24.5 27.5t13 22.5t5.5 18t1 15q0 9 -5.5 15.5t-11.5 13t-11.5 15
t-5.5 22.5q0 22 15.5 36.5t40.5 14.5q28 0 41.5 -20.5t13.5 -45.5z" />
    <glyph glyph-name="Ldot" unicode="&#x13f;" horiz-adv-x="497" 
d="M88 0v703h91v-631h280v-72h-371zM375 383q0 -25 -16 -40.5t-41 -15.5t-41 15.5t-16 40.5t16 40.5t41 15.5t41 -15.5t16 -40.5z" />
    <glyph glyph-name="ldot" unicode="&#x140;" horiz-adv-x="336" 
d="M228 1q-12 -3 -29.5 -5.5t-31.5 -2.5q-46 0 -67.5 29t-21.5 79v602h83v-591q0 -21 5.5 -38.5t29.5 -17.5q8 0 17 1t15 3v-59zM336 300q0 -25 -16 -40.5t-41 -15.5t-41 15.5t-16 40.5t16 40.5t41 15.5t41 -15.5t16 -40.5z" />
    <glyph glyph-name="Lslash" unicode="&#x141;" horiz-adv-x="497" 
d="M88 0v241l-78 -44l-10 63l88 49v394h91v-343l230 129l10 -63l-240 -134v-220h280v-72h-371z" />
    <glyph glyph-name="lslash" unicode="&#x142;" horiz-adv-x="244" 
d="M161 381v-269q0 -21 5.5 -38.5t29.5 -17.5q8 0 17 1t15 3v-59q-12 -3 -29.5 -5.5t-31.5 -2.5q-46 0 -67.5 29t-21.5 79v234l-68 -38l-10 63l78 44v299h83v-253l68 38l10 -63z" />
    <glyph glyph-name="Nacute" unicode="&#x143;" horiz-adv-x="653" 
d="M345 738h-62l50 102h95zM472 0l-297 601v-601h-87v703h122l269 -544v544h86v-703h-93z" />
    <glyph glyph-name="nacute" unicode="&#x144;" 
d="M364 0v339q0 18 -3 36.5t-11 32.5t-22.5 23t-37.5 9q-31 0 -64.5 -21t-64.5 -57v-362h-83v500h83v-81q32 36 72 63t91 27q40 0 64 -14.5t37 -38.5t17.5 -54.5t4.5 -61.5v-340h-83zM304 571h-62l50 132h95z" />
    <glyph glyph-name="Ncommaaccent" unicode="&#x145;" horiz-adv-x="653" 
d="M391 -86q0 -28 -7.5 -50.5t-20 -42t-28.5 -36t-34 -31.5l-31 26q16 15 24.5 27.5t13 22.5t5.5 18t1 15q0 9 -5.5 15.5t-11.5 13t-11.5 15t-5.5 22.5q0 22 15.5 36.5t40.5 14.5q28 0 41.5 -20.5t13.5 -45.5zM472 0l-297 601v-601h-87v703h122l269 -544v544h86v-703h-93z
" />
    <glyph glyph-name="ncommaaccent" unicode="&#x146;" 
d="M364 0v339q0 18 -3 36.5t-11 32.5t-22.5 23t-37.5 9q-31 0 -64.5 -21t-64.5 -57v-362h-83v500h83v-81q32 36 72 63t91 27q40 0 64 -14.5t37 -38.5t17.5 -54.5t4.5 -61.5v-340h-83zM317 -86q0 -28 -7.5 -50.5t-20 -42t-28.5 -36t-34 -31.5l-31 26q16 15 24.5 27.5t13 22.5
t5.5 18t1 15q0 9 -5.5 15.5t-11.5 13t-11.5 15t-5.5 22.5q0 22 15.5 36.5t40.5 14.5q28 0 41.5 -20.5t13.5 -45.5z" />
    <glyph glyph-name="Ncaron" unicode="&#x147;" horiz-adv-x="653" 
d="M359 738h-84l-95 102h78l58 -53l58 53h78zM472 0l-297 601v-601h-87v703h122l269 -544v544h86v-703h-93z" />
    <glyph glyph-name="ncaron" unicode="&#x148;" 
d="M364 0v339q0 18 -3 36.5t-11 32.5t-22.5 23t-37.5 9q-31 0 -64.5 -21t-64.5 -57v-362h-83v500h83v-81q32 36 72 63t91 27q40 0 64 -14.5t37 -38.5t17.5 -54.5t4.5 -61.5v-340h-83zM317 571h-85l-95 132h78l58 -83l58 83h79z" />
    <glyph glyph-name="napostrophe" unicode="&#x149;" 
d="M364 0v339q0 18 -3 36.5t-11 32.5t-22.5 23t-37.5 9q-31 0 -64.5 -21t-64.5 -57v-362h-83v500h83v-81q32 36 72 63t91 27q40 0 64 -14.5t37 -38.5t17.5 -54.5t4.5 -61.5v-340h-83zM121 637q0 -28 -7.5 -50.5t-20 -42t-28.5 -36t-34 -31.5l-31 26q16 15 24.5 27.5t13 22.5
t5.5 18t1 15q0 9 -5.5 15.5t-11.5 13t-11.5 15t-5.5 22.5q0 22 15.5 36.5t40.5 14.5q28 0 41.5 -20.5t13.5 -45.5z" />
    <glyph glyph-name="Omacron" unicode="&#x14c;" horiz-adv-x="649" 
d="M203 760v58h242v-58h-242zM591 357q0 -66 -13 -132t-44 -118.5t-83 -85.5t-131 -33q-65 0 -114 26t-82 73t-49.5 114t-16.5 150q0 81 16.5 148.5t50 115.5t83.5 75t116 27t116 -26t83.5 -73t50.5 -113.5t17 -147.5zM496 361q0 42 -6 92t-24 94t-52 73.5t-89 29.5
q-38 0 -65.5 -14.5t-46.5 -38.5t-30.5 -55.5t-18 -64.5t-9 -66t-2.5 -61q0 -41 6 -92.5t24 -96.5t51.5 -75.5t89.5 -30.5q45 0 77.5 24.5t53.5 66.5t31 97.5t10 117.5z" />
    <glyph glyph-name="omacron" unicode="&#x14d;" horiz-adv-x="506" 
d="M458 257q0 -61 -13.5 -110.5t-39.5 -84t-64 -53.5t-88 -19q-100 0 -152.5 69t-52.5 187q0 59 13.5 107.5t40 83t64.5 53.5t87 19q48 0 86 -18t64.5 -51t40.5 -79.5t14 -103.5zM373 260q0 29 -5 61.5t-18.5 60t-37 45.5t-60.5 18q-31 0 -53.5 -15t-37.5 -41.5t-22 -62
t-7 -77.5q0 -41 7 -76.5t21.5 -62t37.5 -41.5t55 -15q40 0 64 20.5t36.5 51t16 66.5t3.5 68zM132 611v58h242v-58h-242z" />
    <glyph glyph-name="Obreve" unicode="&#x14e;" horiz-adv-x="649" 
d="M457 868q-5 -58 -42 -94t-94 -36t-91.5 35.5t-38.5 94.5h47q7 -35 29.5 -53t54.5 -18q68 0 87 71h48zM591 357q0 -66 -13 -132t-44 -118.5t-83 -85.5t-131 -33q-65 0 -114 26t-82 73t-49.5 114t-16.5 150q0 81 16.5 148.5t50 115.5t83.5 75t116 27t116 -26t83.5 -73
t50.5 -113.5t17 -147.5zM496 361q0 42 -6 92t-24 94t-52 73.5t-89 29.5q-38 0 -65.5 -14.5t-46.5 -38.5t-30.5 -55.5t-18 -64.5t-9 -66t-2.5 -61q0 -41 6 -92.5t24 -96.5t51.5 -75.5t89.5 -30.5q45 0 77.5 24.5t53.5 66.5t31 97.5t10 117.5z" />
    <glyph glyph-name="obreve" unicode="&#x14f;" horiz-adv-x="506" 
d="M458 257q0 -61 -13.5 -110.5t-39.5 -84t-64 -53.5t-88 -19q-100 0 -152.5 69t-52.5 187q0 59 13.5 107.5t40 83t64.5 53.5t87 19q48 0 86 -18t64.5 -51t40.5 -79.5t14 -103.5zM373 260q0 29 -5 61.5t-18.5 60t-37 45.5t-60.5 18q-31 0 -53.5 -15t-37.5 -41.5t-22 -62
t-7 -77.5q0 -41 7 -76.5t21.5 -62t37.5 -41.5t55 -15q40 0 64 20.5t36.5 51t16 66.5t3.5 68zM386 701q-5 -58 -42 -94t-94 -36t-91.5 35.5t-38.5 94.5h47q7 -35 29.5 -53t54.5 -18q68 0 87 71h48z" />
    <glyph glyph-name="Ohungarumlaut" unicode="&#x150;" horiz-adv-x="649" 
d="M403 738h-55l52 132h83zM279 738h-54l51 132h83zM591 357q0 -66 -13 -132t-44 -118.5t-83 -85.5t-131 -33q-65 0 -114 26t-82 73t-49.5 114t-16.5 150q0 81 16.5 148.5t50 115.5t83.5 75t116 27t116 -26t83.5 -73t50.5 -113.5t17 -147.5zM496 361q0 42 -6 92t-24 94
t-52 73.5t-89 29.5q-38 0 -65.5 -14.5t-46.5 -38.5t-30.5 -55.5t-18 -64.5t-9 -66t-2.5 -61q0 -41 6 -92.5t24 -96.5t51.5 -75.5t89.5 -30.5q45 0 77.5 24.5t53.5 66.5t31 97.5t10 117.5z" />
    <glyph glyph-name="ohungarumlaut" unicode="&#x151;" horiz-adv-x="506" 
d="M458 257q0 -61 -13.5 -110.5t-39.5 -84t-64 -53.5t-88 -19q-100 0 -152.5 69t-52.5 187q0 59 13.5 107.5t40 83t64.5 53.5t87 19q48 0 86 -18t64.5 -51t40.5 -79.5t14 -103.5zM373 260q0 29 -5 61.5t-18.5 60t-37 45.5t-60.5 18q-31 0 -53.5 -15t-37.5 -41.5t-22 -62
t-7 -77.5q0 -41 7 -76.5t21.5 -62t37.5 -41.5t55 -15q40 0 64 20.5t36.5 51t16 66.5t3.5 68zM332 571h-55l52 132h83zM208 571h-54l51 132h83z" />
    <glyph glyph-name="OE" unicode="&#x152;" horiz-adv-x="937" 
d="M495 0v77q-24 -41 -65.5 -65t-109.5 -24q-65 0 -114 26t-82 73t-49.5 114t-16.5 150q0 81 16.5 148.5t50 115.5t83.5 75t116 27q64 0 105 -24t66 -68v78h384v-71h-293v-226h225v-71h-225v-264h303v-71h-394zM496 361q0 42 -6 92t-24 94t-52 73.5t-89 29.5
q-38 0 -65.5 -14.5t-46.5 -38.5t-30.5 -55.5t-18 -64.5t-9 -66t-2.5 -61q0 -41 6 -92.5t24 -96.5t51.5 -75.5t89.5 -30.5q45 0 77.5 24.5t53.5 66.5t31 97.5t10 117.5z" />
    <glyph glyph-name="oe" unicode="&#x153;" horiz-adv-x="805" 
d="M760 122q-10 -31 -28 -55.5t-42.5 -41.5t-54 -26t-60.5 -9q-58 0 -98.5 24t-63.5 69q-23 -45 -63 -69t-97 -24q-100 0 -152.5 69t-52.5 187q0 59 13.5 107.5t40 83t64.5 53.5t87 19q57 0 97 -24t64 -69q23 44 61 68.5t92 24.5t90 -22t58.5 -58t32 -81t9.5 -90v-18h-303
v-9q0 -37 8 -70t24 -57.5t38.5 -38.5t51.5 -14q39 0 66 22.5t50 67.5zM676 297q-3 66 -29 109t-79 43q-25 0 -45 -11.5t-34.5 -32t-23 -48.5t-10.5 -60h221zM373 260q0 29 -5 61.5t-18.5 60t-37 45.5t-60.5 18q-31 0 -53.5 -15t-37.5 -41.5t-22 -62t-7 -77.5q0 -41 7 -76.5
t21.5 -62t37.5 -41.5t55 -15q40 0 64 20.5t36.5 51t16 66.5t3.5 68z" />
    <glyph glyph-name="Racute" unicode="&#x154;" horiz-adv-x="566" 
d="M287 738h-62l50 102h95zM427 0l-149 316q-12 0 -26 0.5t-29 0.5h-44v-317h-91v703h164q53 0 100 -8.5t81.5 -29.5t54.5 -57.5t20 -91.5q0 -73 -37 -119t-104 -64l161 -333h-101zM416 514q0 41 -15.5 65t-40.5 36t-56 15.5t-62 3.5h-63v-247h69q35 0 65.5 5t53.5 19
t36 38.5t13 64.5z" />
    <glyph glyph-name="racute" unicode="&#x155;" horiz-adv-x="340" 
d="M325 420q-4 1 -13 1.5t-14 0.5q-30 0 -55 -15.5t-43 -40t-28.5 -53.5t-10.5 -56v-257h-83v500h82v-116q12 26 26 49.5t31.5 41t40.5 27t53 7.5l14 -1v-88zM231 571h-62l50 132h95z" />
    <glyph glyph-name="Rcommaaccent" unicode="&#x156;" horiz-adv-x="566" 
d="M353 -86q0 -28 -7.5 -50.5t-20 -42t-28.5 -36t-34 -31.5l-31 26q16 15 24.5 27.5t13 22.5t5.5 18t1 15q0 9 -5.5 15.5t-11.5 13t-11.5 15t-5.5 22.5q0 22 15.5 36.5t40.5 14.5q28 0 41.5 -20.5t13.5 -45.5zM427 0l-149 316q-12 0 -26 0.5t-29 0.5h-44v-317h-91v703h164
q53 0 100 -8.5t81.5 -29.5t54.5 -57.5t20 -91.5q0 -73 -37 -119t-104 -64l161 -333h-101zM416 514q0 41 -15.5 65t-40.5 36t-56 15.5t-62 3.5h-63v-247h69q35 0 65.5 5t53.5 19t36 38.5t13 64.5z" />
    <glyph glyph-name="rcommaaccent" unicode="&#x157;" horiz-adv-x="340" 
d="M325 420q-4 1 -13 1.5t-14 0.5q-30 0 -55 -15.5t-43 -40t-28.5 -53.5t-10.5 -56v-257h-83v500h82v-116q12 26 26 49.5t31.5 41t38 26t44.5 8.5l25 -1v-88zM174 -86q0 -28 -7.5 -50.5t-20 -42t-28.5 -36t-34 -31.5l-31 26q16 15 24.5 27.5t13 22.5t5.5 18t1 15
q0 9 -5.5 15.5t-11.5 13t-11.5 15t-5.5 22.5q0 22 15.5 36.5t40.5 14.5q28 0 41.5 -20.5t13.5 -45.5z" />
    <glyph glyph-name="Rcaron" unicode="&#x158;" horiz-adv-x="566" 
d="M301 738h-84l-95 102h78l58 -53l58 53h78zM427 0l-149 316q-12 0 -26 0.5t-29 0.5h-44v-317h-91v703h164q53 0 100 -8.5t81.5 -29.5t54.5 -57.5t20 -91.5q0 -73 -37 -119t-104 -64l161 -333h-101zM416 514q0 41 -15.5 65t-40.5 36t-56 15.5t-62 3.5h-63v-247h69
q35 0 65.5 5t53.5 19t36 38.5t13 64.5z" />
    <glyph glyph-name="rcaron" unicode="&#x159;" horiz-adv-x="340" 
d="M325 420q-4 1 -13 1.5t-14 0.5q-30 0 -55 -15.5t-43 -40t-28.5 -53.5t-10.5 -56v-257h-83v500h82v-116q12 26 26 49.5t31.5 41t40.5 27t53 7.5l14 -1v-88zM244 571h-85l-95 132h78l58 -83l58 83h79z" />
    <glyph glyph-name="Sacute" unicode="&#x15a;" horiz-adv-x="549" 
d="M296 738h-62l50 102h95zM491 190q0 -48 -16.5 -86t-46 -63.5t-71 -39t-92.5 -13.5q-91 0 -153.5 45t-85.5 142l81 20q16 -60 53.5 -98.5t106.5 -38.5q58 0 96 34t38 89q0 29 -9.5 49t-25 33.5t-35.5 23t-41 17.5l-86 32q-30 11 -57 27t-46.5 38t-31 52t-11.5 70
q0 43 16 79t43.5 61.5t66 39.5t83.5 14q82 0 140 -43.5t78 -131.5l-82 -15q-15 60 -48 90t-88 30q-53 0 -86 -31.5t-33 -81.5q0 -27 8.5 -46.5t23 -33.5t33.5 -23.5t40 -17.5l79 -30q33 -12 61.5 -28t50.5 -38.5t34.5 -53.5t12.5 -73z" />
    <glyph glyph-name="sacute" unicode="&#x15b;" horiz-adv-x="428" 
d="M383 139q0 -38 -14.5 -66t-39.5 -46.5t-57 -27.5t-67 -9q-63 0 -108 28t-68 85l72 23q17 -34 43.5 -54.5t66.5 -20.5q17 0 33.5 5.5t30 16t21.5 25.5t8 34q0 32 -20 49t-48 26l-69 23q-24 8 -45.5 19.5t-38 28t-26 39.5t-9.5 54q0 34 13 60t35.5 43t52.5 26t65 9
q116 0 160 -98l-66 -25q-16 28 -39 45.5t-58 17.5q-16 0 -31 -4.5t-27 -13t-19 -21.5t-7 -31q0 -35 22 -52t52 -27l63 -21q25 -8 46.5 -19.5t37.5 -28t25.5 -39t9.5 -53.5zM244 571h-62l50 132h95z" />
    <glyph glyph-name="Scircumflex" unicode="&#x15c;" horiz-adv-x="549" 
d="M325 738l-58 63l-58 -63h-78l95 102h84l93 -102h-78zM491 190q0 -48 -16.5 -86t-46 -63.5t-71 -39t-92.5 -13.5q-91 0 -153.5 45t-85.5 142l81 20q16 -60 53.5 -98.5t106.5 -38.5q58 0 96 34t38 89q0 29 -9.5 49t-25 33.5t-35.5 23t-41 17.5l-86 32q-30 11 -57 27
t-46.5 38t-31 52t-11.5 70q0 43 16 79t43.5 61.5t66 39.5t83.5 14q82 0 140 -43.5t78 -131.5l-82 -15q-15 60 -48 90t-88 30q-53 0 -86 -31.5t-33 -81.5q0 -27 8.5 -46.5t23 -33.5t33.5 -23.5t40 -17.5l79 -30q33 -12 61.5 -28t50.5 -38.5t34.5 -53.5t12.5 -73z" />
    <glyph glyph-name="scircumflex" unicode="&#x15d;" horiz-adv-x="428" 
d="M383 139q0 -38 -14.5 -66t-39.5 -46.5t-57 -27.5t-67 -9q-63 0 -108 28t-68 85l72 23q17 -34 43.5 -54.5t66.5 -20.5q17 0 33.5 5.5t30 16t21.5 25.5t8 34q0 32 -20 49t-48 26l-69 23q-24 8 -45.5 19.5t-38 28t-26 39.5t-9.5 54q0 34 13 60t35.5 43t52.5 26t65 9
q116 0 160 -98l-66 -25q-16 28 -39 45.5t-58 17.5q-16 0 -31 -4.5t-27 -13t-19 -21.5t-7 -31q0 -35 22 -52t52 -27l63 -21q25 -8 46.5 -19.5t37.5 -28t25.5 -39t9.5 -53.5zM272 571l-58 83l-58 -83h-78l95 132h84l93 -132h-78z" />
    <glyph glyph-name="Scedilla" unicode="&#x15e;" horiz-adv-x="549" 
d="M349 -114q0 -31 -23.5 -50.5t-61.5 -19.5q-31 0 -64 16l12 37q29 -10 44 -10q16 0 24.5 8t8.5 19q0 13 -8 20.5t-21 7.5q-6 0 -15 -1t-19 -3l21 79q-85 4 -142.5 49t-78.5 137l81 20q16 -60 53.5 -98.5t106.5 -38.5q58 0 96 34t38 89q0 29 -9.5 49t-25 33.5t-35.5 23
t-41 17.5l-86 32q-30 11 -57 27t-46.5 38t-31 52t-11.5 70q0 43 16 79t43.5 61.5t66 39.5t83.5 14q82 0 140 -43.5t78 -131.5l-82 -15q-15 60 -48 90t-88 30q-53 0 -86 -31.5t-33 -81.5q0 -27 8.5 -46.5t23 -33.5t33.5 -23.5t40 -17.5l79 -30q33 -12 61.5 -28t50.5 -38.5
t34.5 -53.5t12.5 -73q0 -92 -55.5 -144t-148.5 -57l-12 -41h10q30 0 47 -18t17 -44z" />
    <glyph glyph-name="scedilla" unicode="&#x15f;" horiz-adv-x="428" 
d="M289 -114q0 -31 -23.5 -50.5t-61.5 -19.5q-31 0 -64 16l12 37q29 -10 44 -10q16 0 24.5 8t8.5 19q0 13 -8 20.5t-21 7.5q-6 0 -15 -1t-19 -3l22 81q-57 4 -97.5 31.5t-61.5 80.5l72 23q17 -34 43.5 -54.5t66.5 -20.5q17 0 33.5 5.5t30 16t21.5 25.5t8 34q0 32 -20 49
t-48 26l-69 23q-24 8 -45.5 19.5t-38 28t-26 39.5t-9.5 54q0 34 13 60t35.5 43t52.5 26t65 9q116 0 160 -98l-66 -25q-16 28 -39 45.5t-58 17.5q-16 0 -31 -4.5t-27 -13t-19 -21.5t-7 -31q0 -35 22 -52t52 -27l63 -21q25 -8 46.5 -19.5t37.5 -28t25.5 -39t9.5 -53.5
q0 -35 -12.5 -61.5t-34 -45t-50 -28.5t-59.5 -13l-12 -43h10q30 0 47 -18t17 -44z" />
    <glyph glyph-name="Scaron" unicode="&#x160;" horiz-adv-x="549" 
d="M318 738h-84l-95 102h78l58 -53l58 53h78zM491 190q0 -48 -16.5 -86t-46 -63.5t-71 -39t-92.5 -13.5q-91 0 -153.5 45t-85.5 142l81 20q16 -60 53.5 -98.5t106.5 -38.5q58 0 96 34t38 89q0 29 -9.5 49t-25 33.5t-35.5 23t-41 17.5l-86 32q-30 11 -57 27t-46.5 38t-31 52
t-11.5 70q0 43 16 79t43.5 61.5t66 39.5t83.5 14q82 0 140 -43.5t78 -131.5l-82 -15q-15 60 -48 90t-88 30q-53 0 -86 -31.5t-33 -81.5q0 -27 8.5 -46.5t23 -33.5t33.5 -23.5t40 -17.5l79 -30q33 -12 61.5 -28t50.5 -38.5t34.5 -53.5t12.5 -73z" />
    <glyph glyph-name="scaron" unicode="&#x161;" horiz-adv-x="428" 
d="M258 571h-85l-95 132h78l58 -83l58 83h79zM383 139q0 -38 -14.5 -66t-39.5 -46.5t-57 -27.5t-67 -9q-63 0 -108 28t-68 85l72 23q17 -34 43.5 -54.5t66.5 -20.5q17 0 33.5 5.5t30 16t21.5 25.5t8 34q0 32 -20 49t-48 26l-69 23q-24 8 -45.5 19.5t-38 28t-26 39.5t-9.5 54
q0 34 13 60t35.5 43t52.5 26t65 9q116 0 160 -98l-66 -25q-16 28 -39 45.5t-58 17.5q-16 0 -31 -4.5t-27 -13t-19 -21.5t-7 -31q0 -35 22 -52t52 -27l63 -21q25 -8 46.5 -19.5t37.5 -28t25.5 -39t9.5 -53.5z" />
    <glyph glyph-name="Tcommaaccent" unicode="&#x162;" horiz-adv-x="499" 
d="M305 -86q0 -28 -7.5 -50.5t-20 -42t-28.5 -36t-34 -31.5l-31 26q16 15 24.5 27.5t13 22.5t5.5 18t1 15q0 9 -5.5 15.5t-11.5 13t-11.5 15t-5.5 22.5q0 22 15.5 36.5t40.5 14.5q28 0 41.5 -20.5t13.5 -45.5zM296 626v-626h-91v626h-185v77h459v-77h-183z" />
    <glyph glyph-name="tcommaaccent" unicode="&#x163;" horiz-adv-x="304" 
d="M284 -1q-12 -2 -33 -5t-41 -3q-62 0 -88.5 29.5t-26.5 94.5v326h-75v59h75v148h83v-148h105v-59h-105v-313q0 -32 9 -52t41 -20q9 0 27.5 2.5t28.5 4.5v-64zM235 -86q0 -28 -7.5 -50.5t-20 -42t-28.5 -36t-34 -31.5l-31 26q16 15 24.5 27.5t13 22.5t5.5 18t1 15
q0 9 -5.5 15.5t-11.5 13t-11.5 15t-5.5 22.5q0 22 15.5 36.5t40.5 14.5q28 0 41.5 -20.5t13.5 -45.5z" />
    <glyph glyph-name="Tcaron" unicode="&#x164;" horiz-adv-x="499" 
d="M292 738h-84l-95 102h78l58 -53l58 53h78zM296 626v-626h-91v626h-185v77h459v-77h-183z" />
    <glyph glyph-name="tcaron" unicode="&#x165;" horiz-adv-x="346" 
d="M284 -1q-12 -2 -33 -5t-41 -3q-62 0 -88.5 29.5t-26.5 94.5v326h-75v59h75v148h83v-148h105v-59h-105v-313q0 -32 9 -52t41 -20q9 0 27.5 2.5t28.5 4.5v-64zM411 637q0 -28 -7.5 -50.5t-20 -42t-28.5 -36t-34 -31.5l-31 26q16 15 24.5 27.5t13 22.5t5.5 18t1 15
q0 9 -5.5 15.5t-11.5 13t-11.5 15t-5.5 22.5q0 22 15.5 36.5t40.5 14.5q28 0 41.5 -20.5t13.5 -45.5z" />
    <glyph glyph-name="Tbar" unicode="&#x166;" horiz-adv-x="499" 
d="M296 404v-404h-91v404h-107v80h107v142h-185v77h459v-77h-183v-142h107v-80h-107z" />
    <glyph glyph-name="tbar" unicode="&#x167;" horiz-adv-x="304" 
d="M178 284v-156q0 -32 9 -52t41 -20q9 0 27.5 2.5t28.5 4.5v-64q-12 -2 -33 -5t-41 -3q-62 0 -88.5 29.5t-26.5 94.5v169h-64v60h64v97h-75v59h75v148h83v-148h105v-59h-105v-97h63v-60h-63z" />
    <glyph glyph-name="Utilde" unicode="&#x168;" horiz-adv-x="640" 
d="M461 830q-4 -39 -21.5 -65.5t-55.5 -26.5q-17 0 -33.5 4.5t-31.5 10t-28.5 10t-25.5 4.5q-14 0 -23 -5t-13 -24h-49q3 47 24.5 69.5t56.5 22.5q16 0 31.5 -4.5t30.5 -10t29 -10t28 -4.5q15 0 22 5.5t12 23.5h47zM552 262q0 -61 -9.5 -111.5t-35.5 -86.5t-71.5 -56
t-117.5 -20t-117 20t-70 56t-34 86.5t-9 111.5v441h91v-461q0 -36 5 -69.5t20 -59.5t43 -41.5t73 -15.5t72.5 15.5t43 41.5t20.5 59.5t5 69.5v461h91v-441z" />
    <glyph glyph-name="utilde" unicode="&#x169;" 
d="M370 0l-5 82q-37 -45 -78 -68.5t-86 -23.5q-41 0 -65.5 16t-37 41.5t-16.5 58t-4 65.5v329h83v-332q0 -18 2 -37.5t9.5 -35.5t22 -26t38.5 -10q32 0 65.5 21t65.5 57v363h83v-500h-77zM403 693q-2 -20 -7 -37.5t-14 -31.5t-23 -22t-33 -8q-17 0 -33.5 5.5t-31.5 12.5
t-28.5 12.5t-25.5 5.5q-28 0 -36 -38h-49q3 47 24.5 74t56.5 27q16 0 31.5 -5.5t30.5 -12.5t29 -12.5t28 -5.5q15 0 22 9t12 27h47z" />
    <glyph glyph-name="Umacron" unicode="&#x16a;" horiz-adv-x="640" 
d="M199 760v58h242v-58h-242zM552 262q0 -61 -9.5 -111.5t-35.5 -86.5t-71.5 -56t-117.5 -20t-117 20t-70 56t-34 86.5t-9 111.5v441h91v-461q0 -36 5 -69.5t20 -59.5t43 -41.5t73 -15.5t72.5 15.5t43 41.5t20.5 59.5t5 69.5v461h91v-441z" />
    <glyph glyph-name="umacron" unicode="&#x16b;" 
d="M370 0l-5 82q-37 -45 -78 -68.5t-86 -23.5q-41 0 -65.5 16t-37 41.5t-16.5 58t-4 65.5v329h83v-332q0 -18 2 -37.5t9.5 -35.5t22 -26t38.5 -10q32 0 65.5 21t65.5 57v363h83v-500h-77zM141 611v58h242v-58h-242z" />
    <glyph glyph-name="Ubreve" unicode="&#x16c;" horiz-adv-x="640" 
d="M453 868q-5 -58 -42 -94t-94 -36t-91.5 35.5t-38.5 94.5h47q7 -35 29.5 -53t54.5 -18q68 0 87 71h48zM552 262q0 -61 -9.5 -111.5t-35.5 -86.5t-71.5 -56t-117.5 -20t-117 20t-70 56t-34 86.5t-9 111.5v441h91v-461q0 -36 5 -69.5t20 -59.5t43 -41.5t73 -15.5t72.5 15.5
t43 41.5t20.5 59.5t5 69.5v461h91v-441z" />
    <glyph glyph-name="ubreve" unicode="&#x16d;" 
d="M370 0l-5 82q-37 -45 -78 -68.5t-86 -23.5q-41 0 -65.5 16t-37 41.5t-16.5 58t-4 65.5v329h83v-332q0 -18 2 -37.5t9.5 -35.5t22 -26t38.5 -10q32 0 65.5 21t65.5 57v363h83v-500h-77zM395 701q-5 -58 -42 -94t-94 -36t-91.5 35.5t-38.5 94.5h47q7 -35 29.5 -53t54.5 -18
q68 0 87 71h48z" />
    <glyph glyph-name="Uring" unicode="&#x16e;" horiz-adv-x="640" 
d="M415 743q0 -39 -27.5 -64.5t-67.5 -25.5t-67.5 25.5t-27.5 64.5t27.5 64.5t67.5 25.5t67.5 -25.5t27.5 -64.5zM370 743q0 20 -13 35t-37 15t-37 -15t-13 -35t13 -35t37 -15t37 15t13 35zM552 262q0 -61 -9.5 -111.5t-35.5 -86.5t-71.5 -56t-117.5 -20t-117 20t-70 56
t-34 86.5t-9 111.5v441h91v-461q0 -36 5 -69.5t20 -59.5t43 -41.5t73 -15.5t72.5 15.5t43 41.5t20.5 59.5t5 69.5v461h91v-441z" />
    <glyph glyph-name="uring" unicode="&#x16f;" 
d="M370 0l-5 82q-37 -45 -78 -68.5t-86 -23.5q-41 0 -65.5 16t-37 41.5t-16.5 58t-4 65.5v329h83v-332q0 -18 2 -37.5t9.5 -35.5t22 -26t38.5 -10q32 0 65.5 21t65.5 57v363h83v-500h-77zM357 641q0 -39 -27.5 -64.5t-67.5 -25.5t-67.5 25.5t-27.5 64.5t27.5 64.5t67.5 25.5
t67.5 -25.5t27.5 -64.5zM312 641q0 20 -13 35t-37 15t-37 -15t-13 -35t13 -35t37 -15t37 15t13 35z" />
    <glyph glyph-name="Uhungarumlaut" unicode="&#x170;" horiz-adv-x="640" 
d="M399 738h-55l52 132h83zM275 738h-54l51 132h83zM552 262q0 -61 -9.5 -111.5t-35.5 -86.5t-71.5 -56t-117.5 -20t-117 20t-70 56t-34 86.5t-9 111.5v441h91v-461q0 -36 5 -69.5t20 -59.5t43 -41.5t73 -15.5t72.5 15.5t43 41.5t20.5 59.5t5 69.5v461h91v-441z" />
    <glyph glyph-name="uhungarumlaut" unicode="&#x171;" 
d="M370 0l-5 82q-37 -45 -78 -68.5t-86 -23.5q-41 0 -65.5 16t-37 41.5t-16.5 58t-4 65.5v329h83v-332q0 -18 2 -37.5t9.5 -35.5t22 -26t38.5 -10q32 0 65.5 21t65.5 57v363h83v-500h-77zM341 571h-55l52 132h83zM217 571h-54l51 132h83z" />
    <glyph glyph-name="Uogonek" unicode="&#x172;" horiz-adv-x="640" 
d="M410 -167q-26 -17 -64 -17q-40 0 -64 25t-24 63q0 26 12 47t32 37q-67 2 -108.5 23t-65 57t-32 85t-8.5 109v441h91v-461q0 -36 5 -69.5t20 -59.5t43 -41.5t73 -15.5t72.5 15.5t43 41.5t20.5 59.5t5 69.5v461h91v-441q0 -55 -8 -101.5t-28 -82t-55.5 -57.5t-90.5 -29
q-21 -14 -35.5 -33t-14.5 -44q0 -20 9.5 -34.5t29.5 -14.5q13 0 26 4.5t25 10.5v-48z" />
    <glyph glyph-name="uogonek" unicode="&#x173;" 
d="M447 -167q-26 -17 -64 -17q-40 0 -64 25t-24 63q0 35 21.5 62t52.5 41l-4 75q-37 -45 -78 -68.5t-86 -23.5q-41 0 -65.5 16t-37 41.5t-16.5 58t-4 65.5v329h83v-332q0 -18 2 -37.5t9.5 -35.5t22 -26t38.5 -10q32 0 65.5 21t65.5 57v363h83v-500q-15 -2 -31 -8.5
t-29 -17.5t-21.5 -26t-8.5 -33q0 -20 9.5 -34.5t29.5 -14.5q13 0 26 4.5t25 10.5v-48z" />
    <glyph glyph-name="Wcircumflex" unicode="&#x174;" horiz-adv-x="797" 
d="M456 738l-58 63l-58 -63h-78l95 102h84l93 -102h-78zM642 0h-108l-135 615l-132 -615h-107l-135 703h92l98 -612l130 612h110l131 -612l97 612h89z" />
    <glyph glyph-name="wcircumflex" unicode="&#x175;" horiz-adv-x="693" 
d="M545 0h-93l-106 411l-105 -411h-92l-124 500h86l88 -413l100 413h97l102 -413l86 413h84zM404 571l-58 83l-58 -83h-78l95 132h84l93 -132h-78z" />
    <glyph glyph-name="Ycircumflex" unicode="&#x176;" horiz-adv-x="523" 
d="M319 738l-58 63l-58 -63h-78l95 102h84l93 -102h-78zM306 286v-286h-91v286l-205 417h99l154 -344l155 344h95z" />
    <glyph glyph-name="ycircumflex" unicode="&#x177;" horiz-adv-x="443" 
d="M262 -1q-11 -33 -25 -66t-35 -58.5t-50.5 -41.5t-70.5 -16q-13 0 -27.5 2t-27.5 5v64q13 -2 24.5 -4t22.5 -2q27 0 45.5 11.5t31 30t21 41.5t16.5 45l-172 490h91l121 -395l115 395h86zM279 571l-58 83l-58 -83h-78l95 132h84l93 -132h-78z" />
    <glyph glyph-name="Ydieresis" unicode="&#x178;" horiz-adv-x="523" 
d="M389 782q0 -22 -14 -35t-35 -13t-35 13t-14 35t14 35t35 13t35 -13t14 -35zM233 782q0 -22 -14 -35t-35 -13t-35 13t-14 35t14 35t35 13t35 -13t14 -35zM306 286v-286h-91v286l-205 417h99l154 -344l155 344h95z" />
    <glyph glyph-name="Zacute" unicode="&#x179;" horiz-adv-x="513" 
d="M300 738h-62l50 102h95zM151 72h310v-72h-413v58l314 573h-285v72h388v-61z" />
    <glyph glyph-name="zacute" unicode="&#x17a;" horiz-adv-x="448" 
d="M45 0v63l252 371h-237v66h342v-55l-257 -379h258v-66h-358zM261 571h-62l50 132h95z" />
    <glyph glyph-name="Zdotaccent" unicode="&#x17b;" horiz-adv-x="513" 
d="M320 782q0 -22 -14 -35t-35 -13t-35 13t-14 35t14 35t35 13t35 -13t14 -35zM151 72h310v-72h-413v58l314 573h-285v72h388v-61z" />
    <glyph glyph-name="zdotaccent" unicode="&#x17c;" horiz-adv-x="448" 
d="M45 0v63l252 371h-237v66h342v-55l-257 -379h258v-66h-358zM285 640q0 -24 -15.5 -38.5t-38.5 -14.5t-38.5 14.5t-15.5 38.5t15.5 38.5t38.5 14.5t38.5 -14.5t15.5 -38.5z" />
    <glyph glyph-name="Zcaron" unicode="&#x17d;" horiz-adv-x="513" 
d="M300 738h-84l-95 102h78l58 -53l58 53h78zM151 72h310v-72h-413v58l314 573h-285v72h388v-61z" />
    <glyph glyph-name="zcaron" unicode="&#x17e;" horiz-adv-x="448" 
d="M268 571h-85l-95 132h78l58 -83l58 83h79zM45 0v63l252 371h-237v66h342v-55l-257 -379h258v-66h-358z" />
    <glyph glyph-name="florin" unicode="&#x192;" horiz-adv-x="498" 
d="M447 644q-20 6 -42 6q-23 0 -36.5 -11t-21.5 -28.5t-11.5 -37.5t-5.5 -38l-8 -61h90l-8 -62h-92l-60 -422q-5 -36 -14.5 -68t-26.5 -56t-44.5 -38t-67.5 -14q-18 0 -29.5 1.5t-29.5 7.5l10 64q15 -4 22.5 -4.5t18.5 -0.5q21 0 35 12t22.5 29.5t12.5 38.5t7 39l59 411h-80
l7 62h80l10 53q7 38 15 72.5t23.5 60.5t42.5 41.5t72 15.5q15 0 30.5 -1t30.5 -6z" />
    <glyph glyph-name="Scommaaccent" unicode="&#x218;" horiz-adv-x="549" 
d="M320 -86q0 -28 -7.5 -50.5t-20 -42t-28.5 -36t-34 -31.5l-31 26q16 15 24.5 27.5t13 22.5t5.5 18t1 15q0 9 -5.5 15.5t-11.5 13t-11.5 15t-5.5 22.5q0 22 15.5 36.5t40.5 14.5q28 0 41.5 -20.5t13.5 -45.5zM491 190q0 -48 -16.5 -86t-46 -63.5t-71 -39t-92.5 -13.5
q-91 0 -153.5 45t-85.5 142l81 20q16 -60 53.5 -98.5t106.5 -38.5q58 0 96 34t38 89q0 29 -9.5 49t-25 33.5t-35.5 23t-41 17.5l-86 32q-30 11 -57 27t-46.5 38t-31 52t-11.5 70q0 43 16 79t43.5 61.5t66 39.5t83.5 14q82 0 140 -43.5t78 -131.5l-82 -15q-15 60 -48 90
t-88 30q-53 0 -86 -31.5t-33 -81.5q0 -27 8.5 -46.5t23 -33.5t33.5 -23.5t40 -17.5l79 -30q33 -12 61.5 -28t50.5 -38.5t34.5 -53.5t12.5 -73z" />
    <glyph glyph-name="scommaaccent" unicode="&#x219;" horiz-adv-x="428" 
d="M383 139q0 -38 -14.5 -66t-39.5 -46.5t-57 -27.5t-67 -9q-63 0 -108 28t-68 85l72 23q17 -34 43.5 -54.5t66.5 -20.5q17 0 33.5 5.5t30 16t21.5 25.5t8 34q0 32 -20 49t-48 26l-69 23q-24 8 -45.5 19.5t-38 28t-26 39.5t-9.5 54q0 34 13 60t35.5 43t52.5 26t65 9
q116 0 160 -98l-66 -25q-16 28 -39 45.5t-58 17.5q-16 0 -31 -4.5t-27 -13t-19 -21.5t-7 -31q0 -35 22 -52t52 -27l63 -21q25 -8 46.5 -19.5t37.5 -28t25.5 -39t9.5 -53.5zM260 -86q0 -28 -7.5 -50.5t-20 -42t-28.5 -36t-34 -31.5l-31 26q16 15 24.5 27.5t13 22.5t5.5 18
t1 15q0 9 -5.5 15.5t-11.5 13t-11.5 15t-5.5 22.5q0 22 15.5 36.5t40.5 14.5q28 0 41.5 -20.5t13.5 -45.5z" />
    <glyph glyph-name="uni021A" unicode="&#x21a;" horiz-adv-x="499" 
d="M305 -86q0 -28 -7.5 -50.5t-20 -42t-28.5 -36t-34 -31.5l-31 26q16 15 24.5 27.5t13 22.5t5.5 18t1 15q0 9 -5.5 15.5t-11.5 13t-11.5 15t-5.5 22.5q0 22 15.5 36.5t40.5 14.5q28 0 41.5 -20.5t13.5 -45.5zM296 626v-626h-91v626h-185v77h459v-77h-183z" />
    <glyph glyph-name="uni021B" unicode="&#x21b;" horiz-adv-x="304" 
d="M284 -1q-12 -2 -33 -5t-41 -3q-62 0 -88.5 29.5t-26.5 94.5v326h-75v59h75v148h83v-148h105v-59h-105v-313q0 -32 9 -52t41 -20q9 0 27.5 2.5t28.5 4.5v-64zM235 -86q0 -28 -7.5 -50.5t-20 -42t-28.5 -36t-34 -31.5l-31 26q16 15 24.5 27.5t13 22.5t5.5 18t1 15
q0 9 -5.5 15.5t-11.5 13t-11.5 15t-5.5 22.5q0 22 15.5 36.5t40.5 14.5q28 0 41.5 -20.5t13.5 -45.5z" />
    <glyph glyph-name="dotlessj" unicode="&#x237;" horiz-adv-x="238" 
d="M161 -35q0 -33 -5.5 -60.5t-19.5 -47t-38.5 -30.5t-63.5 -11q-11 0 -20 1t-22 3v65q6 -1 11 -1h12q39 0 51 22.5t12 54.5v539h83v-535z" />
    <glyph glyph-name="circumflex" unicode="&#x2c6;" horiz-adv-x="312" 
d="M214 571l-58 83l-58 -83h-78l95 132h84l93 -132h-78z" />
    <glyph glyph-name="caron" unicode="&#x2c7;" horiz-adv-x="313" 
d="M200 571h-85l-95 132h78l58 -83l58 83h79z" />
    <glyph glyph-name="uni02C9" unicode="&#x2c9;" horiz-adv-x="282" 
d="M20 604v58h242v-58h-242z" />
    <glyph glyph-name="breve" unicode="&#x2d8;" horiz-adv-x="306" 
d="M286 703q-5 -58 -42 -94t-94 -36t-91.5 35.5t-38.5 94.5h47q7 -35 29.5 -53t54.5 -18q68 0 87 71h48z" />
    <glyph glyph-name="dotaccent" unicode="&#x2d9;" horiz-adv-x="138" 
d="M118 641q0 -22 -14 -35t-35 -13t-35 13t-14 35t14 35t35 13t35 -13t14 -35z" />
    <glyph glyph-name="ring" unicode="&#x2da;" horiz-adv-x="230" 
d="M210 641q0 -39 -27.5 -64.5t-67.5 -25.5t-67.5 25.5t-27.5 64.5t27.5 64.5t67.5 25.5t67.5 -25.5t27.5 -64.5zM165 641q0 20 -13 35t-37 15t-37 -15t-13 -35t13 -35t37 -15t37 15t13 35z" />
    <glyph glyph-name="ogonek" unicode="&#x2db;" horiz-adv-x="192" 
d="M172 -168q-26 -17 -64 -17q-40 0 -64 25t-24 63q0 21 8.5 39t22.5 33t32 25t37 15l52 -5q-15 -5 -31 -14t-29 -21t-21.5 -27.5t-8.5 -33.5q0 -20 9.5 -34.5t29.5 -14.5q13 0 26 4.5t25 10.5v-48z" />
    <glyph glyph-name="tilde" unicode="&#x2dc;" horiz-adv-x="321" 
d="M301 693q-2 -20 -7 -37.5t-14 -31.5t-23 -22t-33 -8q-17 0 -33.5 5.5t-31.5 12.5t-28.5 12.5t-25.5 5.5q-28 0 -36 -38h-49q3 47 24.5 74t56.5 27q16 0 31.5 -5.5t30.5 -12.5t29 -12.5t28 -5.5q15 0 22 9t12 27h47z" />
    <glyph glyph-name="hungarumlaut" unicode="&#x2dd;" horiz-adv-x="298" 
d="M198 571h-55l52 132h83zM74 571h-54l51 132h83z" />
    <glyph glyph-name="gravecomb" unicode="&#x300;" horiz-adv-x="1" 
d="M-282 571l-83 132h95l50 -132h-62z" />
    <glyph glyph-name="acutecomb" unicode="&#x301;" horiz-adv-x="1" 
d="M-220 571h-62l50 132h95z" />
    <glyph glyph-name="uni0302" unicode="&#x302;" horiz-adv-x="1" 
d="M-194 571l-58 83l-58 -83h-78l95 132h84l93 -132h-78z" />
    <glyph glyph-name="tildecomb" unicode="&#x303;" horiz-adv-x="1" 
d="M-111 693q-2 -20 -7 -37.5t-14 -31.5t-23 -22t-33 -8q-17 0 -33.5 5.5t-31.5 12.5t-28.5 12.5t-25.5 5.5q-28 0 -36 -38h-49q3 47 24.5 74t56.5 27q16 0 31.5 -5.5t30.5 -12.5t29 -12.5t28 -5.5q15 0 22 9t12 27h47z" />
    <glyph glyph-name="uni0304" unicode="&#x304;" horiz-adv-x="1" 
d="M-261 611v58h242v-58h-242z" />
    <glyph glyph-name="uni0306" unicode="&#x306;" horiz-adv-x="1" 
d="M-19 701q-5 -58 -42 -94t-94 -36t-91.5 35.5t-38.5 94.5h47q7 -35 29.5 -53t54.5 -18q68 0 87 71h48z" />
    <glyph glyph-name="uni0307" unicode="&#x307;" horiz-adv-x="1" 
d="M-64 640q0 -24 -15.5 -38.5t-38.5 -14.5t-38.5 14.5t-15.5 38.5t15.5 38.5t38.5 14.5t38.5 -14.5t15.5 -38.5z" />
    <glyph glyph-name="uni0308" unicode="&#x308;" horiz-adv-x="1" 
d="M-19 641q0 -22 -14 -35t-35 -13t-35 13t-14 35t14 35t35 13t35 -13t14 -35zM-175 641q0 -22 -14 -35t-35 -13t-35 13t-14 35t14 35t35 13t35 -13t14 -35z" />
    <glyph glyph-name="uni030A" unicode="&#x30a;" horiz-adv-x="1" 
d="M-19 641q0 -39 -27.5 -64.5t-67.5 -25.5t-67.5 25.5t-27.5 64.5t27.5 64.5t67.5 25.5t67.5 -25.5t27.5 -64.5zM-64 641q0 20 -13 35t-37 15t-37 -15t-13 -35t13 -35t37 -15t37 15t13 35z" />
    <glyph glyph-name="uni030B" unicode="&#x30b;" horiz-adv-x="1" 
d="M-99 571h-55l52 132h83zM-223 571h-54l51 132h83z" />
    <glyph glyph-name="uni030C" unicode="&#x30c;" horiz-adv-x="1" 
d="M-179 571h-85l-95 132h78l58 -83l58 83h79z" />
    <glyph glyph-name="uni0312" unicode="&#x312;" horiz-adv-x="1" 
d="M-94 786q-16 -15 -24.5 -27.5t-13 -22.5t-5.5 -18t-1 -15q0 -9 5.5 -15.5t11.5 -13t11.5 -15t5.5 -22.5q0 -22 -15.5 -36.5t-40.5 -14.5q-28 0 -41.5 20.5t-13.5 45.5q0 28 7.5 50.5t20 42t28.5 36t34 31.5z" />
    <glyph glyph-name="uni0313" unicode="&#x313;" horiz-adv-x="1" 
d="M-79 637q0 -28 -7.5 -50.5t-20 -42t-28.5 -36t-34 -31.5l-31 26q16 15 24.5 27.5t13 22.5t5.5 18t1 15q0 9 -5.5 15.5t-11.5 13t-11.5 15t-5.5 22.5q0 22 15.5 36.5t40.5 14.5q28 0 41.5 -20.5t13.5 -45.5z" />
    <glyph glyph-name="uni0326" unicode="&#x326;" horiz-adv-x="1" 
d="M-88 -86q0 -28 -7.5 -50.5t-20 -42t-28.5 -36t-34 -31.5l-31 26q16 15 24.5 27.5t13 22.5t5.5 18t1 15q0 9 -5.5 15.5t-11.5 13t-11.5 15t-5.5 22.5q0 22 15.5 36.5t40.5 14.5q28 0 41.5 -20.5t13.5 -45.5z" />
    <glyph glyph-name="uni0327" unicode="&#x327;" horiz-adv-x="1" 
d="M-19 -114q0 -31 -23.5 -50.5t-61.5 -19.5q-31 0 -64 16l12 37q29 -10 44 -10q16 0 24.5 8t8.5 19q0 13 -8 20.5t-21 7.5q-6 0 -15 -1t-19 -3l29 106h40l-20 -68h10q30 0 47 -18t17 -44z" />
    <glyph glyph-name="uni0328" unicode="&#x328;" horiz-adv-x="1" 
d="M-19 -167q-26 -17 -64 -17q-40 0 -64 25t-24 63q0 21 8.5 39t22.5 33t32 25t37 15l52 -5q-15 -5 -31 -14t-29 -21t-21.5 -27.5t-8.5 -33.5q0 -20 9.5 -34.5t29.5 -14.5q13 0 26 4.5t25 10.5v-48z" />
    <glyph glyph-name="uni0335" unicode="&#x335;" horiz-adv-x="1" 
d="M-261 221v58h242v-58h-242z" />
    <glyph glyph-name="uni0336" unicode="&#x336;" horiz-adv-x="1" 
d="M-571 215v70h512v-70h-512z" />
    <glyph glyph-name="Delta" unicode="&#x394;" horiz-adv-x="649" 
d="M40 0l241 703h78l250 -703h-569zM320 595l-179 -522h363z" />
    <glyph glyph-name="Omega" unicode="&#x3a9;" horiz-adv-x="731" 
d="M671 416q0 -44 -11.5 -86.5t-34 -79t-56 -63.5t-77.5 -39v-79h169v-69h-242v191q41 4 72.5 25t52.5 52t32 69t11 77q0 50 -15.5 92t-44.5 72.5t-70 47.5t-91 17t-91 -17t-70 -47.5t-45 -72.5t-16 -92q0 -39 11 -77t32 -69t52.5 -52t72.5 -25v-191h-241v69h168v79
q-44 12 -77.5 39t-56 63.5t-34 79t-11.5 86.5q0 67 23 122.5t63.5 95.5t97 61.5t122.5 21.5t122 -21.5t96.5 -61.5t63.5 -95.5t23 -122.5z" />
    <glyph glyph-name="mu" unicode="&#x3bc;" 
d="M370 0l-5 82q-37 -45 -78 -68.5t-86 -23.5q-20 0 -40 5v-174h-83v679h83v-332q0 -18 2 -37.5t9.5 -35.5t22 -26t38.5 -10q32 0 65.5 21t65.5 57v363h83v-500h-77z" />
    <glyph glyph-name="pi" unicode="&#x3c0;" horiz-adv-x="618" 
d="M490 431v-323q0 -32 9 -43t33 -11q4 0 12.5 1t12.5 3v-60q-10 -2 -27.5 -3.5t-28.5 -1.5q-51 0 -72.5 23t-21.5 69v346h-202v-431h-83v431h-62v69h498v-69h-68z" />
    <glyph glyph-name="endash" unicode="&#x2013;" horiz-adv-x="532" 
d="M60 265v70h412v-70h-412z" />
    <glyph glyph-name="emdash" unicode="&#x2014;" horiz-adv-x="632" 
d="M60 265v70h512v-70h-512z" />
    <glyph glyph-name="quoteleft" unicode="&#x2018;" horiz-adv-x="270" 
d="M209 685q-34 -37 -44 -63t-10 -40q0 -10 6 -16.5t12.5 -13t12.5 -16t6 -25.5q0 -25 -16 -40.5t-41 -15.5q-28 0 -42.5 20.5t-14.5 45.5q0 58 27.5 103t72.5 87z" />
    <glyph glyph-name="quoteright" unicode="&#x2019;" horiz-adv-x="270" 
d="M192 645q0 -58 -27.5 -103t-72.5 -87l-31 26q34 37 44 63t10 40q0 10 -6 16.5t-12.5 13t-12.5 16t-6 25.5q0 25 16 40.5t41 15.5q28 0 42.5 -20.5t14.5 -45.5z" />
    <glyph glyph-name="quotesinglbase" unicode="&#x201a;" horiz-adv-x="270" 
d="M192 35q0 -58 -27.5 -103t-72.5 -87l-31 26q34 37 44 63t10 40q0 10 -6 16.5t-12.5 13t-12.5 16t-6 25.5q0 25 16 40.5t41 15.5q28 0 42.5 -20.5t14.5 -45.5z" />
    <glyph glyph-name="quotedblleft" unicode="&#x201c;" horiz-adv-x="434" 
d="M373 685q-34 -37 -44 -63t-10 -40q0 -10 6 -16.5t12.5 -13t12.5 -16t6 -25.5q0 -25 -16 -40.5t-41 -15.5q-28 0 -42.5 20.5t-14.5 45.5q0 58 27.5 103t72.5 87zM209 685q-34 -37 -44 -63t-10 -40q0 -10 6 -16.5t12.5 -13t12.5 -16t6 -25.5q0 -25 -16 -40.5t-41 -15.5
q-28 0 -42.5 20.5t-14.5 45.5q0 58 27.5 103t72.5 87z" />
    <glyph glyph-name="quotedblright" unicode="&#x201d;" horiz-adv-x="434" 
d="M356 645q0 -58 -27.5 -103t-72.5 -87l-31 26q34 37 44 63t10 40q0 10 -6 16.5t-12.5 13t-12.5 16t-6 25.5q0 25 16 40.5t41 15.5q28 0 42.5 -20.5t14.5 -45.5zM192 645q0 -58 -27.5 -103t-72.5 -87l-31 26q34 37 44 63t10 40q0 10 -6 16.5t-12.5 13t-12.5 16t-6 25.5
q0 25 16 40.5t41 15.5q28 0 42.5 -20.5t14.5 -45.5z" />
    <glyph glyph-name="quotedblbase" unicode="&#x201e;" horiz-adv-x="434" 
d="M356 35q0 -58 -27.5 -103t-72.5 -87l-31 26q34 37 44 63t10 40q0 10 -6 16.5t-12.5 13t-12.5 16t-6 25.5q0 25 16 40.5t41 15.5q28 0 42.5 -20.5t14.5 -45.5zM192 35q0 -58 -27.5 -103t-72.5 -87l-31 26q34 37 44 63t10 40q0 10 -6 16.5t-12.5 13t-12.5 16t-6 25.5
q0 25 16 40.5t41 15.5q28 0 42.5 -20.5t14.5 -45.5z" />
    <glyph glyph-name="dagger" unicode="&#x2020;" horiz-adv-x="514" 
d="M299 407v-407h-84v407h-155v73h155v199h84v-199h155v-73h-155z" />
    <glyph glyph-name="daggerdbl" unicode="&#x2021;" horiz-adv-x="514" 
d="M299 179v-179h-84v179h-155v73h155v175h-155v73h155v179h84v-179h155v-73h-155v-175h155v-73h-155z" />
    <glyph glyph-name="bullet" unicode="&#x2022;" horiz-adv-x="350" 
d="M272 300q0 -42 -28 -69t-69 -27t-69 27t-28 69t28 69t69 27t69 -27t28 -69z" />
    <glyph glyph-name="ellipsis" unicode="&#x2026;" horiz-adv-x="698" 
d="M620 50q0 -25 -16 -40.5t-41 -15.5t-41 15.5t-16 40.5t16 40.5t41 15.5t41 -15.5t16 -40.5zM406 50q0 -25 -16 -40.5t-41 -15.5t-41 15.5t-16 40.5t16 40.5t41 15.5t41 -15.5t16 -40.5zM192 50q0 -25 -16 -40.5t-41 -15.5t-41 15.5t-16 40.5t16 40.5t41 15.5t41 -15.5
t16 -40.5z" />
    <glyph glyph-name="perthousand" unicode="&#x2030;" horiz-adv-x="1322" 
d="M1262 180q0 -38 -11 -73t-33.5 -61.5t-55.5 -42t-77 -15.5t-77 15.5t-55.5 42t-33.5 61.5t-11 73t11 73t33.5 61.5t55.5 42t77 15.5t77 -15.5t55.5 -42t33.5 -61.5t11 -73zM858 180q0 -38 -11 -73t-33.5 -61.5t-55.5 -42t-77 -15.5t-77 15.5t-55.5 42t-33.5 61.5t-11 73
t11 73t33.5 61.5t55.5 42t77 15.5t77 -15.5t55.5 -42t33.5 -61.5t11 -73zM290 0h-88l425 679h89zM414 500q0 -38 -11 -73t-33.5 -61.5t-55.5 -42t-77 -15.5t-77 15.5t-55.5 42t-33.5 61.5t-11 73t11 73t33.5 61.5t55.5 42t77 15.5t77 -15.5t55.5 -42t33.5 -61.5t11 -73z
M1179 180q0 69 -25 101.5t-69 32.5t-69 -32.5t-25 -101.5t25 -101.5t69 -32.5t69 32.5t25 101.5zM775 180q0 69 -25 101.5t-69 32.5t-69 -32.5t-25 -101.5t25 -101.5t69 -32.5t69 32.5t25 101.5zM331 500q0 69 -25 101.5t-69 32.5t-69 -32.5t-25 -101.5t25 -101.5t69 -32.5
t69 32.5t25 101.5z" />
    <glyph glyph-name="guilsinglleft" unicode="&#x2039;" horiz-adv-x="283" 
d="M165 68l-105 195l105 195h58l-78 -195l78 -195h-58z" />
    <glyph glyph-name="guilsinglright" unicode="&#x203a;" horiz-adv-x="283" 
d="M118 68h-58l78 195l-78 195h58l105 -195z" />
    <glyph glyph-name="fraction" unicode="&#x2044;" horiz-adv-x="150" 
d="M-122 -12h-64l456 729h66z" />
    <glyph glyph-name="Euro" unicode="&#x20ac;" horiz-adv-x="668" 
d="M620 151q-9 -33 -26 -62.5t-43.5 -52t-64.5 -35.5t-90 -13q-59 0 -102 20t-72.5 54t-47.5 79t-26 94h-108l6 58h95q-1 11 -1 22v41q0 10 1 19h-91l6 58h91q8 51 25.5 98.5t47.5 84t74 58t104 21.5q50 0 86 -13t61 -34.5t41 -50t26 -58.5l-85 -17q-4 17 -11.5 36t-22 35.5
t-37.5 27t-58 10.5q-38 0 -65.5 -16t-46.5 -43.5t-30.5 -63.5t-17.5 -75h240l-6 -58h-239q-1 -10 -1 -20v-41q0 -10 1 -21h235l-6 -58h-222q6 -36 17.5 -69t30.5 -57.5t46 -39.5t64 -15q35 0 58.5 10.5t39 27t24.5 36.5t15 40z" />
    <glyph glyph-name="trademark" unicode="&#x2122;" horiz-adv-x="715" 
d="M577 380v258l-79 -258h-45l-78 260v-260h-61v323h98l67 -232l65 232h93v-323h-60zM180 655v-275h-64v275h-96v48h252v-48h-92z" />
    <glyph glyph-name="uni2126" unicode="&#x2126;" horiz-adv-x="731" 
d="M671 416q0 -44 -11.5 -86.5t-34 -79t-56 -63.5t-77.5 -39v-79h169v-69h-242v191q41 4 72.5 25t52.5 52t32 69t11 77q0 50 -15.5 92t-44.5 72.5t-70 47.5t-91 17t-91 -17t-70 -47.5t-45 -72.5t-16 -92q0 -39 11 -77t32 -69t52.5 -52t72.5 -25v-191h-241v69h168v79
q-44 12 -77.5 39t-56 63.5t-34 79t-11.5 86.5q0 67 23 122.5t63.5 95.5t97 61.5t122.5 21.5t122 -21.5t96.5 -61.5t63.5 -95.5t23 -122.5z" />
    <glyph glyph-name="partialdiff" unicode="&#x2202;" horiz-adv-x="527" 
d="M479 350q0 -61 -11 -125.5t-38 -117.5t-72 -87t-114 -34q-45 0 -81.5 18t-62 48t-39 70t-13.5 85q0 43 13.5 82.5t39 69.5t61 48t80.5 18q46 0 86.5 -22t67.5 -59q1 11 1 21v21q-1 48 -9 95t-27 83.5t-50 59t-78 22.5q-35 0 -59 -11.5t-52 -34.5l-43 49q35 32 72 46.5
t82 14.5q70 0 117.5 -32t76 -83t40.5 -115.5t12 -129.5zM395 273q-29 38 -64.5 63.5t-80.5 25.5q-31 0 -54 -13.5t-38.5 -35.5t-23 -50.5t-7.5 -57.5t7.5 -57t23 -50t38.5 -36t53 -14q41 0 68.5 22t44 55.5t24 73t9.5 74.5z" />
    <glyph glyph-name="uni2206" unicode="&#x2206;" horiz-adv-x="649" 
d="M40 0l241 703h78l250 -703h-569zM320 595l-179 -522h363z" />
    <glyph glyph-name="product" unicode="&#x220f;" horiz-adv-x="682" 
d="M522 -179v812h-362v-812h-82v882h526v-882h-82z" />
    <glyph glyph-name="summation" unicode="&#x2211;" horiz-adv-x="656" 
d="M78 -179v61l254 384l-241 376v61h476v-70h-373l236 -367l-250 -375h398v-70h-500z" />
    <glyph glyph-name="minus" unicode="&#x2212;" horiz-adv-x="562" 
d="M60 289v77h442v-77h-442z" />
    <glyph glyph-name="uni2215" unicode="&#x2215;" horiz-adv-x="150" 
d="M-122 -12h-64l456 729h66z" />
    <glyph glyph-name="uni2219" unicode="&#x2219;" horiz-adv-x="270" 
d="M192 300q0 -25 -16 -40.5t-41 -15.5t-41 15.5t-16 40.5t16 40.5t41 15.5t41 -15.5t16 -40.5z" />
    <glyph glyph-name="radical" unicode="&#x221a;" horiz-adv-x="666" 
d="M399 -178h-86l-152 318l-71 -36l-30 60l139 68l146 -303l178 788h83z" />
    <glyph glyph-name="infinity" unicode="&#x221e;" horiz-adv-x="843" 
d="M783 323q0 -37 -12 -67t-33 -51.5t-50 -33t-63 -11.5q-30 0 -56.5 9t-51.5 24.5t-48.5 36t-47.5 43.5q-26 -26 -49.5 -46.5t-47 -35.5t-50 -23t-58.5 -8q-72 0 -114 43.5t-42 116.5q0 36 12 66t33.5 51t50.5 32.5t63 11.5q30 0 56.5 -9t51 -24.5t47.5 -36.5t47 -44
q26 26 49.5 47t48 36t51 23t59.5 8q70 0 112 -43t42 -115zM714 320q0 42 -26.5 67.5t-65.5 25.5q-20 0 -41 -8.5t-41 -22t-39 -30t-35 -32.5q16 -16 35 -32.5t39 -29.5t41.5 -21.5t43.5 -8.5q37 0 63 25.5t26 66.5zM376 320q-15 15 -33.5 31t-39 30t-42.5 23t-43 9
q-37 0 -63.5 -25t-26.5 -66q0 -42 27 -68t66 -26q21 0 41.5 8.5t40.5 22t38.5 29.5t34.5 32z" />
    <glyph glyph-name="integral" unicode="&#x222b;" horiz-adv-x="376" 
d="M326 645q-8 1 -17.5 2t-18.5 1q-45 0 -58 -23.5t-13 -60.5v-599q0 -33 -5.5 -60.5t-19.5 -47t-38.5 -30.5t-63.5 -11q-11 0 -20 1t-22 3v65q6 -1 11 -1h12q39 0 51 22.5t12 54.5v599q0 72 31.5 113t101.5 41q14 0 31 -2t26 -4v-63z" />
    <glyph glyph-name="approxequal" unicode="&#x2248;" horiz-adv-x="591" 
d="M531 438q-20 -43 -53 -68.5t-78 -25.5q-25 0 -54.5 9.5t-60.5 21.5q-29 11 -54.5 19.5t-42.5 8.5q-33 0 -56 -21.5t-39 -48.5l-33 60q20 35 53 59t78 24q26 0 55.5 -10t58.5 -21q28 -11 53.5 -19.5t45.5 -8.5q30 0 52.5 21.5t36.5 47.5zM531 281q-20 -43 -53 -68t-78 -25
q-25 0 -54.5 9.5t-60.5 20.5q-29 11 -54.5 20t-42.5 9q-33 0 -56 -22t-39 -48l-33 59q20 36 53 60t78 24q26 0 55.5 -10t58.5 -22q28 -11 53.5 -19.5t45.5 -8.5q15 0 28.5 6.5t24.5 17t20.5 23t16.5 25.5z" />
    <glyph glyph-name="notequal" unicode="&#x2260;" horiz-adv-x="562" 
d="M248 199l-72 -135l-58 29l57 106h-115v77h156l56 103h-212v77h253l74 136l58 -29l-58 -107h115v-77h-157l-55 -103h212v-77h-254z" />
    <glyph glyph-name="lessequal" unicode="&#x2264;" horiz-adv-x="562" 
d="M60 288v78l442 195v-83l-367 -150l367 -160v-82zM60 0v77h442v-77h-442z" />
    <glyph glyph-name="greaterequal" unicode="&#x2265;" horiz-adv-x="562" 
d="M60 86v82l367 160l-367 150v83l442 -195v-78zM60 0v77h442v-77h-442z" />
    <glyph glyph-name="lozenge" unicode="&#x25ca;" horiz-adv-x="552" 
d="M310 -179h-71l-199 441l200 441h70l202 -441zM275 620l-157 -358l157 -358l157 358z" />
    <glyph glyph-name="fi" unicode="&#xfb01;" horiz-adv-x="516" 
d="M355 0v440h-180v-440h-83v440h-72v60h72v60q0 72 36.5 113t106.5 41q7 0 16 -1l19 -2q10 -1 18.5 -2.5t13.5 -2.5v-63q-8 1 -22.5 3t-23.5 2q-45 0 -63 -23.5t-18 -60.5v-64h263v-500h-83zM451 639q0 -22 -16 -36t-38 -14q-23 0 -38.5 14t-15.5 36q0 24 15.5 39t38.5 15
q22 0 38 -15t16 -39z" />
    <glyph glyph-name="fl" unicode="&#xfb02;" horiz-adv-x="521" 
d="M505 1q-12 -3 -29.5 -5.5t-31.5 -2.5q-46 0 -67.5 29t-21.5 79v602h83v-591q0 -21 5.5 -38.5t29.5 -17.5q8 0 17 1t15 3v-59zM302 643q-8 1 -22.5 3t-23.5 2q-45 0 -63 -23.5t-18 -60.5v-64h102v-60h-102v-440h-83v440h-72v60h72v60q0 72 36.5 113t106.5 41q18 0 38 -3
t29 -5v-63z" />
    </font>
</defs>
</svg>
